<?xml version="1.0" encoding="utf-8"?>
<!-- Generator: Adobe Illustrator 19.0.0, SVG Export Plug-In . SVG Version: 6.00 Build 0)  -->
<svg version="1.1" id="G_xF7_" xmlns="http://www.w3.org/2000/svg" xmlns:xlink="http://www.w3.org/1999/xlink" x="0px" y="0px"
	 viewBox="0 0 40 36" style="enable-background:new 0 0 40 36;" xml:space="preserve">
<style type="text/css">
	.st0{fill:#FFFFFF;}
</style>
<path id="XMLID_2_" class="st0" d="M19.2,16.4L19.2,16.4c-0.2,0.2-0.3,0.3-0.5,0.4c-0.3,0.3-0.6,0.6-0.6,1c0,0.6,0.5,1.1,0.9,1.4
	c0.2,0.1,0.4,0.3,0.6,0.4c1,0.8,1.7,1.9,1.7,3.2c0,2.4-2.2,4.3-5,4.3c-2.7,0-5.4-1.3-5.4-3.7c0-2.9,2.9-3.3,5.3-3.5
	c-0.1-0.1-0.2-0.3-0.4-1c-0.1-0.5,0-0.9,0.2-1.2l-0.1,0c-2.5,0-4.6-1.8-4.6-4c0-2.2,2.1-4,4.6-4c0.2,0,0.4,0,0.6,0h5.3l-1.4,0.8
	h-1.6c1.1,0.7,1.7,1.9,1.7,3.2C20.6,14.7,20.1,15.7,19.2,16.4L19.2,16.4z M13.5,14.1c0.4,1.7,1.8,2.9,3.1,2.6c1.3-0.3,2-2,1.6-3.8
	c-0.4-1.7-1.8-2.9-3.1-2.6C13.7,10.7,13,12.3,13.5,14.1L13.5,14.1z M12.3,23.3c0,1.4,1.7,2.5,3.8,2.5c2.1,0,3.8-1.1,3.8-2.5
	c0-1.2-1.1-2-2.7-2.8C16.8,20.5,12.4,20.3,12.3,23.3L12.3,23.3z M29,11.8v1.4l-2.8,0v2.8h-1.4v-2.8l-2.8,0v-1.4l2.8,0V9h1.4v2.8
	L29,11.8L29,11.8z"/>
<g id="XMLID_1_">
</g>
<g id="XMLID_7_">
</g>
<g id="XMLID_8_">
</g>
<g id="XMLID_9_">
</g>
<g id="XMLID_10_">
</g>
<g id="XMLID_11_">
</g>
<g id="XMLID_12_">
</g>
<g id="XMLID_13_">
</g>
<g id="XMLID_14_">
</g>
<g id="XMLID_15_">
</g>
<g id="XMLID_16_">
</g>
<g id="XMLID_17_">
</g>
<g id="XMLID_18_">
</g>
<g id="XMLID_19_">
</g>
<g id="XMLID_20_">
</g>
</svg>
