<?xml version="1.0" encoding="utf-8"?>
<!-- Generator: Adobe Illustrator 19.0.0, SVG Export Plug-In . SVG Version: 6.00 Build 0)  -->
<svg version="1.1" id="Instagram" xmlns="http://www.w3.org/2000/svg" xmlns:xlink="http://www.w3.org/1999/xlink" x="0px" y="0px"
	 viewBox="0 0 40 36" style="enable-background:new 0 0 40 36;" xml:space="preserve">
<style type="text/css">
	.st0{fill:#FFFFFF;}
</style>
<path id="XMLID_22_" style="display:inline;fill:#FFFFFF;" d="M16.3,17.9c0-2,1.6-3.5,3.5-3.5s3.5,1.6,3.5,3.5c0,2-1.6,3.5-3.5,3.5
	S16.3,19.8,16.3,17.9L16.3,17.9z"/>
<path id="XMLID_23_" style="display:inline;fill:#FFFFFF;" d="M29.7,16.6v8.6c0,1.2-1,2.2-2.2,2.2h-15c-1.2,0-2.2-1-2.2-2.2v-8.6
	h3.9c-0.1,0.4-0.1,0.8-0.1,1.3c0,3.2,2.6,5.7,5.7,5.7c3.2,0,5.7-2.6,5.7-5.7c0-0.4,0-0.9-0.1-1.3H29.7L29.7,16.6z"/>
<path id="XMLID_24_" style="display:inline;fill:#FFFFFF;" d="M25.5,9.2h1.8c0.5,0,1,0.4,1,1v1.8c0,0.5-0.4,1-1,1h-1.8
	c-0.5,0-1-0.4-1-1v-1.8C24.5,9.6,25,9.2,25.5,9.2L25.5,9.2z"/>
<polygon id="XMLID_25_" style="display:inline;fill:#FFFFFF;" points="11.6,8.6 12.5,8.6 12.5,12.4 11.6,12.4 11.6,8.6 "/>
<polygon id="XMLID_26_" style="display:inline;fill:#FFFFFF;" points="13.5,8.6 14.4,8.6 14.4,12.4 13.5,12.4 13.5,8.6 "/>
<polygon id="XMLID_27_" style="display:inline;fill:#FFFFFF;" points="15.5,8.6 16.4,8.6 16.4,12.4 15.5,12.4 15.5,8.6 "/>
</svg>
