<?xml version="1.0" encoding="utf-8"?>
<!-- Generator: Adobe Illustrator 19.0.0, SVG Export Plug-In . SVG Version: 6.00 Build 0)  -->
<svg version="1.1" id="Pinterest" xmlns="http://www.w3.org/2000/svg" xmlns:xlink="http://www.w3.org/1999/xlink" x="0px" y="0px"
	 viewBox="0 0 40 36" style="enable-background:new 0 0 40 36;" xml:space="preserve">
<style type="text/css">
	.st0{fill:#FFFFFF;}
</style>
<path id="XMLID_1_" class="st0" d="M15.7,19.3c-0.7-0.4-2.7-2.7-1.1-5.7c1.5-3,4.6-3.5,6.9-3c2.3,0.5,4.9,2.5,4.6,5.6
	c-0.3,3.1-1.5,4-2.7,4.8c-1.1,0.8-2.7,0.5-3.4,0.3c-0.6-0.2-1-0.8-1-0.5c0,0.3-0.8,2.8-1.1,3.5c-0.3,0.8-0.9,1.5-1.1,1.4
	c-0.2-0.1-0.4-2.4,0-4.3c0.4-1.9,1.1-3.3,1-4.1c-0.1-0.8-0.5-2.2,0.8-3.1c1.3-0.9,2.2,0.5,1.8,1.8c-0.5,1.4-1.1,2.7-0.4,3.6
	c1.4,1.8,4.6-1.2,4-4c-1.2-5.4-7.1-3.4-7.7-1.1c-0.7,2.2-0.2,3,0.2,3.6c0.4,0.6,0.1,0.6,0,0.9C16.2,19.2,15.7,19.3,15.7,19.3
	L15.7,19.3z"/>
<g id="XMLID_2_">
</g>
<g id="XMLID_3_">
</g>
<g id="XMLID_4_">
</g>
<g id="XMLID_5_">
</g>
<g id="XMLID_6_">
</g>
<g id="XMLID_7_">
</g>
<g id="XMLID_8_">
</g>
<g id="XMLID_9_">
</g>
<g id="XMLID_10_">
</g>
<g id="XMLID_11_">
</g>
<g id="XMLID_12_">
</g>
<g id="XMLID_13_">
</g>
<g id="XMLID_14_">
</g>
<g id="XMLID_15_">
</g>
<g id="XMLID_16_">
</g>
</svg>
