<?xml version="1.0" encoding="utf-8"?>
<!-- Generator: Adobe Illustrator 19.0.0, SVG Export Plug-In . SVG Version: 6.00 Build 0)  -->
<svg version="1.1" id="Twitter" xmlns="http://www.w3.org/2000/svg" xmlns:xlink="http://www.w3.org/1999/xlink" x="0px" y="0px"
	 viewBox="0 0 40 36" style="enable-background:new 0 0 40 36;" xml:space="preserve">
<style type="text/css">
	.st0{fill:#FFFFFF;}
</style>
<path id="XMLID_21_" style="display:inline;fill:#FFFFFF;" d="M19.9,14.4c0-1.8,1.5-3.3,3.3-3.3c1,0,2,0.5,2.6,1.2
	c0.3-0.1,0.7-0.1,1.1-0.3c0.7-0.2,1.1-0.4,1.3-0.5c0.1-0.1,0.1-0.1,0,0c-0.1,0.2-0.8,1.2-1.7,1.9l-0.1,0.1c0,0,0,0.1,0,0.1
	c0.5-0.1,2.1-0.8,2.1-0.8s-1.1,1.1-1.9,1.7c0,0-0.1,0.1-0.1,0.1c0.1,0,0.2,0,0.2,0c0,0.2,0,0.4,0,0.6c0,5.3-4.3,9.7-9.7,9.7
	c-2.1,0-4-0.7-5.6-1.8c0.4,0.1,0.9,0.1,1.4,0.1c1.5,0,3-0.5,4.1-1.3c-1.3-0.5-2.4-1.3-3.3-2.3c0.1,0,0.3,0,0.4,0
	c0.5,0.1,1-0.4,1-0.4s-1.1-0.4-2-0.9c-0.2-0.1-0.4-0.4-0.5-0.6c-0.1-0.2-0.2-0.5-0.2-0.7c-0.1-0.5-0.1-1-0.1-1s0.3,0.2,0.6,0.3
	c0.4,0.2,0.9,0,0.9,0L13,15.6l-0.5-1c-0.3-0.7-0.1-1.6,0-2.2c0.1-0.2,0.1-0.3,0.2-0.5c0.2,0.3,0.5,0.6,0.8,0.9
	c1.7,1.7,4.1,2.5,6.4,2.3C19.9,14.9,19.9,14.7,19.9,14.4L19.9,14.4z"/>
</svg>
