<?xml version="1.0" encoding="utf-8"?>
<!-- Generator: Adobe Illustrator 19.0.0, SVG Export Plug-In . SVG Version: 6.00 Build 0)  -->
<svg version="1.1" id="Vimeo" xmlns="http://www.w3.org/2000/svg" xmlns:xlink="http://www.w3.org/1999/xlink" x="0px" y="0px"
	 viewBox="0 0 40 36" style="enable-background:new 0 0 40 36;" xml:space="preserve">
<style type="text/css">
	.st0{fill:#FFFFFF;}
</style>
<path id="XMLID_20_" style="display:inline;fill:#FFFFFF;" d="M12.6,14.9c0.9-1.2,2.4-2.8,3.6-3.2c1.3-0.3,2.2-0.4,2.7,1.2
	c0.5,1.6,1.1,7.6,2.4,6.5c0.5-0.4,2.2-3.1,2.4-4.1c0.2-1.3-0.8-1.2-1.6-0.8c-0.9,0.5-1.4,0.1-0.7-0.7c0.9-1.1,1.7-2.3,3.9-2.5
	c2.2-0.1,2.7,1.4,2.1,3.8c-0.7,2.4-6.8,11.7-9.2,8.7c-1.4-1.8-2.6-5.9-2.9-7.3s-0.1-1.8-1.3-1.3C12.8,15.9,11.7,16.1,12.6,14.9
	L12.6,14.9z"/>
</svg>
