<?xml version="1.0" encoding="utf-8"?>
<!-- Generator: Adobe Illustrator 19.0.0, SVG Export Plug-In . SVG Version: 6.00 Build 0)  -->
<svg version="1.1" id="YouTube" xmlns="http://www.w3.org/2000/svg" xmlns:xlink="http://www.w3.org/1999/xlink" x="0px" y="0px"
	 viewBox="0 0 40 36" style="enable-background:new 0 0 40 36;" xml:space="preserve">
<style type="text/css">
	.st0{fill:#FFFFFF;}
	.st1{fill-rule:evenodd;clip-rule:evenodd;fill:#FFFFFF;}
</style>
<path id="XMLID_7_" class="st0" d="M13.6,7.6h1.2l0.6,1.9c0,0.1,0,0.1,0.1,0.2c0,0.1,0,0.1,0.1,0.2c0.2,0.7,0.4,1.3,0.4,1.7
	c0.1-0.5,0.1-0.8,0.2-1l0.2-0.8l0.1-0.3l0.5-2h1.2l-1.5,5v3.7h-1.2v-3.7L13.6,7.6L13.6,7.6z"/>
<path id="XMLID_8_" class="st1" d="M21.3,13.5c0,2-0.6,3-1.8,3c-1.2,0-1.8-1-1.8-3c0-2,0.6-3,1.8-3c0.3,0,0.6,0.1,0.8,0.2
	c0.2,0.1,0.4,0.3,0.6,0.6c0.2,0.3,0.3,0.6,0.3,1C21.3,12.5,21.3,12.9,21.3,13.5L21.3,13.5z M20.2,13.4c0-0.8-0.1-1.3-0.2-1.6
	c-0.1-0.3-0.3-0.5-0.5-0.5c-0.3,0-0.4,0.2-0.5,0.5c-0.1,0.3-0.2,0.8-0.2,1.6c0,0.7,0.1,1.3,0.2,1.6c0.1,0.3,0.3,0.5,0.5,0.5
	c0.3,0,0.4-0.1,0.5-0.4C20.2,14.7,20.2,14.2,20.2,13.4L20.2,13.4z"/>
<path id="XMLID_11_" class="st0" d="M21.9,10.5H23v3.9c0,0.4,0.1,0.6,0.2,0.8c0.1,0.2,0.3,0.2,0.5,0.2c0.2,0,0.4-0.1,0.5-0.2
	c0.1-0.1,0.1-0.4,0.1-0.7V14v-3.5h1.1V14c0,0.8-0.1,1.4-0.2,1.6c-0.3,0.5-0.8,0.8-1.6,0.8c-0.6,0-1.1-0.2-1.3-0.5
	c-0.3-0.3-0.4-0.9-0.4-1.6V10.5L21.9,10.5z"/>
<path id="XMLID_12_" class="st0" d="M25.8,24.7c0,0.6-0.2,0.9-0.6,0.9c-0.4,0-0.6-0.5-0.6-1.5h2v-0.1c0-1.7-0.5-2.5-1.4-2.5
	c-0.5,0-0.9,0.2-1.1,0.6c-0.2,0.4-0.4,1-0.4,1.9c0,0.4,0,0.8,0.1,1.1c0.1,0.3,0.1,0.6,0.3,0.8c0.1,0.2,0.3,0.4,0.5,0.4
	c0.2,0.1,0.4,0.1,0.7,0.1c0.9,0,1.3-0.6,1.4-1.7H25.8L25.8,24.7z M13.1,19.1v0.8h1.1v6.3h0.9v-6.3h1.1v-0.8H13.1L13.1,19.1z
	 M16.4,21.5v3.2c0,0.6,0.1,1.1,0.3,1.3c0.2,0.3,0.6,0.4,1.1,0.4c0.7,0,1.1-0.2,1.3-0.7c0.1-0.2,0.1-0.7,0.1-1.3v-2.9h-0.9v2.9v0.4
	c0,0.3,0,0.5-0.1,0.6c-0.1,0.1-0.2,0.2-0.4,0.2c-0.2,0-0.3-0.1-0.4-0.2c-0.1-0.1-0.1-0.3-0.1-0.6v-3.2H16.4L16.4,21.5z M20.3,18.4
	v7.9h0.9v-0.6c0.1,0.3,0.3,0.4,0.4,0.5c0.1,0.1,0.3,0.1,0.5,0.1c0.4,0,0.7-0.2,0.9-0.6c0.2-0.4,0.3-1.1,0.3-1.9c0-0.4,0-0.8-0.1-1.1
	c0-0.3-0.1-0.6-0.2-0.8c-0.1-0.2-0.2-0.3-0.4-0.4c-0.1-0.1-0.3-0.1-0.5-0.1c-0.2,0-0.4,0-0.5,0.1c-0.1,0-0.1,0.1-0.2,0.2
	c-0.1,0.1-0.1,0.2-0.2,0.3v-3.6H20.3L20.3,18.4z M13.7,17.2h12.6c1.9,0,3.4,1.5,3.4,3.4V25c0,1.9-1.5,3.4-3.4,3.4H13.7
	c-1.9,0-3.4-1.5-3.4-3.4v-4.4C10.3,18.7,11.8,17.2,13.7,17.2L13.7,17.2z M25.8,23.4h-1.1c0-0.5,0.1-0.8,0.2-1
	c0.1-0.2,0.2-0.3,0.4-0.3c0.2,0,0.3,0.1,0.4,0.3C25.7,22.6,25.8,22.9,25.8,23.4L25.8,23.4z M22.3,23.9c0,0.6,0,1.1-0.1,1.3
	c-0.1,0.2-0.2,0.4-0.5,0.4c-0.2,0-0.3-0.1-0.4-0.4c-0.1-0.3-0.1-0.7-0.1-1.3c0-0.6,0-1.1,0.1-1.3c0.1-0.3,0.2-0.4,0.4-0.4
	c0.2,0,0.4,0.1,0.5,0.4C22.2,22.8,22.3,23.2,22.3,23.9L22.3,23.9z"/>
<g id="XMLID_1_">
</g>
<g id="XMLID_2_">
</g>
<g id="XMLID_3_">
</g>
<g id="XMLID_4_">
</g>
<g id="XMLID_5_">
</g>
<g id="XMLID_6_">
</g>
<g id="XMLID_20_">
</g>
<g id="XMLID_21_">
</g>
<g id="XMLID_22_">
</g>
<g id="XMLID_23_">
</g>
<g id="XMLID_24_">
</g>
<g id="XMLID_25_">
</g>
<g id="XMLID_26_">
</g>
<g id="XMLID_27_">
</g>
<g id="XMLID_28_">
</g>
</svg>
