<?xml version="1.0" encoding="iso-8859-1"?>
<!-- Generator: Adobe Illustrator 19.0.0, SVG Export Plug-In . SVG Version: 6.00 Build 0)  -->
<svg version="1.1"
	 id="svg3281" xmlns:svg="http://www.w3.org/2000/svg" xmlns:rdf="http://www.w3.org/1999/02/22-rdf-syntax-ns#" xmlns:cc="http://creativecommons.org/ns#" xmlns:dc="http://purl.org/dc/elements/1.1/"
	 xmlns="http://www.w3.org/2000/svg" xmlns:xlink="http://www.w3.org/1999/xlink" x="0px" y="0px" viewBox="205 274.494 1006 294"
	 style="enable-background:new 205 274.494 1006 294;" xml:space="preserve">
<path id="path4" d="M1211,568.494H205v-294h1006V568.494z"/>
<path id="path6" style="fill:#FFDE38;" d="M560.809,330.421c-23.663,0-37.166,9.575-37.166,26.4c0,10.43,4.366,17.981,16.813,21.68
	l22.713,6.637c3.032,0.897,5.457,2.578,5.457,5.604c0,3.593-3.103,6.637-7.817,6.637c-3.026,0-4.956-1.085-6.194-2.655
	c-1.233-1.681-1.77-3.953-1.77-6.194h-30.677c0,21.085,17.946,27.137,37.461,27.137c22.878,0,38.936-8.318,38.936-28.17
	c0-9.758-4.401-16.979-14.601-21.238c-8.188-3.475-19.492-5.728-25.663-7.522c-3.369-1.009-5.31-2.248-5.31-5.162
	c0-2.472,2.212-4.72,7.374-4.72c4.147,0,6.967,1.734,7.079,6.784h28.76C596.206,336.799,580.997,330.421,560.809,330.421z
	 M1002.971,331.011v179.785h10.177V331.011C1013.148,331.011,1002.971,331.011,1002.971,331.011z M1105.474,331.601
	c-5.982,0-10.914,4.843-10.914,10.766c0,5.982,4.932,10.766,10.914,10.766c5.953,0,10.766-4.784,10.766-10.766
	C1116.24,336.445,1111.427,331.601,1105.474,331.601z M299.76,332.634l17.551,80.97h34.807l7.522-52.505h0.147l7.522,52.505h34.807
	l17.551-80.97h-28.76l-6.784,50.883h-0.295l-7.522-50.883H343.12l-7.522,50.883h-0.147l-6.932-50.883
	C328.519,332.634,299.76,332.634,299.76,332.634z M439.281,332.634v80.97h62.534v-21.09h-31.857v-9.144h28.465v-21.09h-28.465
	v-8.554h30.824v-21.09C500.783,332.634,439.281,332.634,439.281,332.634z M616.854,332.634v21.68h20.058v59.289h32.004v-59.289
	h20.058v-21.68C688.974,332.634,616.854,332.634,616.854,332.634z M710.655,332.634v80.97h62.681v-21.09h-31.857v-9.144h28.465
	v-21.09h-28.465v-8.554h30.825v-21.09C772.304,332.634,710.655,332.634,710.655,332.634z M797.081,332.634v80.97h31.414v-28.907
	h3.687c5.156,0,7.144,1.569,7.817,5.604c1.121,6.955,2.077,17.244,3.982,23.303h31.414c-3.699-12.23-3.369-23.728-5.162-30.677
	c-1.569-6.171-5.87-9.651-13.716-10.324v-0.147c12.112-2.92,16.076-10.011,16.076-19.321c0-15.256-10.194-20.501-27.58-20.501
	C845.014,332.634,797.081,332.634,797.081,332.634z M897.814,332.634v80.97h25.957v-49.408h0.295l17.108,49.408h38.494v-80.97
	h-26.105v48.965h-0.147l-17.108-48.965H897.814L897.814,332.634z M1075.534,332.634v177.868h10.177V332.634
	C1085.711,332.634,1075.534,332.634,1075.534,332.634z M1105.474,332.929c5.239,0,8.997,4.2,8.997,9.439
	c0,5.298-3.758,9.292-8.997,9.292c-5.268,0-9.144-3.994-9.144-9.292C1096.33,337.129,1100.206,332.929,1105.474,332.929z
	 M1101.492,336.321v12.094h1.475v-5.604h2.655l3.392,5.604h1.77l-3.54-5.604c2.136-0.059,3.687-0.879,3.687-3.245
	c0-1.988-1.086-3.245-4.277-3.245H1101.492z M1102.967,337.353h3.392c1.481,0,2.95,0.189,2.95,2.065c0,2.454-2.425,2.212-4.13,2.212
	h-2.212V337.353z M828.496,351.069h2.95c6.283,0,10.324,1.139,10.324,7.079c0,6.059-4.448,8.259-10.619,8.259h-2.655
	C828.496,366.408,828.496,351.069,828.496,351.069z M831.74,427.319c-27.928,0-41.886,17.392-41.886,42.623
	c0,25.238,13.958,42.623,41.886,42.623c27.928,0,41.739-17.386,41.738-42.623C873.479,444.711,859.668,427.319,831.74,427.319z
	 M520.988,429.384v53.832c0,19.515,14.041,29.35,38.494,29.35c24.447,0,38.494-9.834,38.494-29.35v-53.832h-32.152v52.505
	c0,6.389-2.979,8.849-6.342,8.849c-3.363,0-6.342-2.46-6.342-8.849v-52.505H520.988z M624.523,429.384v80.97h26.105v-49.26h0.148
	l17.108,49.26h38.494v-80.97H680.42v49.113h-0.295l-17.108-49.113H624.523z M733.515,429.384v80.97h32.152v-80.97H733.515z
	 M897.814,429.384v80.97h25.957v-49.26h0.295l17.108,49.26h38.494v-80.97h-26.105v49.113h-0.147l-17.108-49.113H897.814
	L897.814,429.384z M831.74,448.41c5.162,0,8.554,3.256,8.554,21.533c0,18.731-3.622,21.533-8.554,21.533
	c-4.932,0-8.702-2.802-8.702-21.533C823.039,451.666,826.584,448.41,831.74,448.41z"/>
</svg>
