<?xml version="1.0" encoding="utf-8"?>
<!-- Generator: Adobe Illustrator 19.0.0, SVG Export Plug-In . SVG Version: 6.00 Build 0)  -->
<svg version="1.1" id="Capa_1" xmlns="http://www.w3.org/2000/svg" xmlns:xlink="http://www.w3.org/1999/xlink" x="0px" y="0px"
	 viewBox="0 0 302 152" style="enable-background:new 0 0 302 152;" xml:space="preserve">
<style type="text/css">
	.st0{clip-path:url(#XMLID_85_);}
	.st1{fill:#FFFFFF;}
	.st2{fill-rule:evenodd;clip-rule:evenodd;fill:url(#XMLID_86_);}
	.st3{fill-rule:evenodd;clip-rule:evenodd;fill:url(#XMLID_87_);}
	.st4{fill-rule:evenodd;clip-rule:evenodd;fill:url(#XMLID_88_);}
	.st5{fill-rule:evenodd;clip-rule:evenodd;fill:url(#XMLID_89_);}
	.st6{fill-rule:evenodd;clip-rule:evenodd;fill:url(#XMLID_90_);}
	.st7{fill-rule:evenodd;clip-rule:evenodd;fill:url(#XMLID_91_);}
	.st8{fill-rule:evenodd;clip-rule:evenodd;fill:url(#XMLID_92_);}
	.st9{fill-rule:evenodd;clip-rule:evenodd;fill:url(#XMLID_93_);}
</style>
<defs>
	<rect id="XMLID_77_" width="302" height="152"/>
</defs>
<clipPath id="XMLID_85_">
	<use xlink:href="#XMLID_77_"  style="overflow:visible;"/>
</clipPath>
<g id="XMLID_66_" class="st0">
	<path id="XMLID_76_" class="st1" d="M215,124.4c-2.2-1-4.5-1.9-6.8-2.9l0.6-1.3c0.5-1,0-2.2-0.8-3.5c-0.9-1.4-2.2-2.8-3.4-4
		c-0.8-0.8-2.7-2.4-5.3-4.4c-1.8-1.4-3.5-2.7-5.3-4.1l2.4,1.1c3.6,1.6,8,3.5,12.2,5.3c1.6,0.7,3.2,1.4,4.8,2.1
		c6.4,2.6,12.7,5.7,19,8.6c12.9,6,28,13,36.5,16.1c8.7,3.1,18.4,4,27.5,3.3c1.3-0.1,2.4-0.2,3.3-0.4c0.7-0.1,1.4-0.2,2.2-0.4v1.9
		c-5.9,2.4-11.9,3.7-18.1,3.9c-6.7,0.3-13.5-0.6-20.2-2.1c-12.9-3-25.5-8.5-36.6-13.7C222,127.4,218,125.7,215,124.4z"/>
	<path id="XMLID_75_" class="st1" d="M0,103.7v-2.3c39.7-5.9,77.2,3.8,121.6,15.3c4.2,1.1,8.4,2.2,13.1,3.4
		c7.6,1.9,14.1,3.6,19.6,4.9c5.6,1.4,10.4,2.5,14.4,3.4c3.3,2.4,6.6,4.7,9.9,7c3.2,2.2,6.4,4.3,9.5,6.4c-0.7,0-1.5,0-2.2-0.1
		c-0.9,0-2.5-0.2-5.1-0.7c-3.9-0.7-7.8-1.5-11.6-2.4c-5.5-1.3-11.1-2.7-16.5-4.2c-5.7-1.5-11.4-3.2-17.1-4.8
		c-25.4-7.2-58.4-16.6-79.5-21c-14.2-2.9-28.8-5.3-43.3-5.5c-2.3,0-4.6,0-6.7,0.1C4.1,103.3,2.1,103.5,0,103.7z"/>
	<linearGradient id="XMLID_86_" gradientUnits="userSpaceOnUse" x1="40.9496" y1="97.4738" x2="156.3963" y2="153.7809">
		<stop  offset="0" style="stop-color:#76B82A"/>
		<stop  offset="0.3206" style="stop-color:#73B62B"/>
		<stop  offset="0.5014" style="stop-color:#66B02D"/>
		<stop  offset="0.6475" style="stop-color:#50A62F"/>
		<stop  offset="0.7751" style="stop-color:#2A9932"/>
		<stop  offset="0.8893" style="stop-color:#008933"/>
		<stop  offset="0.9946" style="stop-color:#007732"/>
		<stop  offset="1" style="stop-color:#007632"/>
	</linearGradient>
	<path id="XMLID_74_" class="st2" d="M0,104.8c5.5,0.2,28,1.9,57.1,9.6c39.5,10.5,80.3,27.9,121.5,36.2c4.6,0.9,7.3,1.3,8.5,1.3
		c4,0.1,7.1,0.1,8.1-1.8c0.1-0.2,0.2-0.5,0.4-0.8c-0.1-1.5-2.1-3.2-3-4c-0.6-0.6-2.5-1.9-5.3-3.8c-0.4,0-0.8,0-1.2,0
		c-1.2,0-3.9-0.4-8.5-1.3c-5.4-1.1-10.8-2.3-16.2-3.7c-5.3-1.3-11.2-2.9-17.9-4.8c-26-7.4-63.8-18.3-87.2-23.2
		C33,103.5,14,102,0,103.4V104.8z"/>
	<linearGradient id="XMLID_87_" gradientUnits="userSpaceOnUse" x1="216.9523" y1="116.2703" x2="287.3829" y2="155.3106">
		<stop  offset="0" style="stop-color:#007632"/>
		<stop  offset="1" style="stop-color:#76B82A"/>
	</linearGradient>
	<path id="XMLID_73_" class="st3" d="M302,141.5c-24.4,10.3-52.5-1.6-74.8-11.9c-10.6-4.9-16.1-7.2-18.8-8.3l-4.6,9.7
		c3.4,1.3,9.9,3.8,21,8c22.3,8.3,54.5,16.6,77.1,4.4V141.5z"/>
	<radialGradient id="XMLID_88_" cx="154.0199" cy="95.5692" r="190.5231" gradientUnits="userSpaceOnUse">
		<stop  offset="0" style="stop-color:#E63312"/>
		<stop  offset="1" style="stop-color:#9C1006"/>
	</radialGradient>
	<path id="XMLID_72_" class="st4" d="M0,101.3L0,101.3v-0.8c52.8-11.4,92.9,2.1,146.9,13.9c5.4,1.2,10.4,2.2,14.8,3l3.2-6.8l5-10.7
		l0,0l5-10.7c0.1-0.2,0.1-0.2,0.1-0.3l0,0l0,0l0,0l0,0l0,0l0,0c0.3-0.5,2.9-1,17.9,5.4c15,6.4,43.1,19.6,68.4,32.4
		c25.2,12.8,34.3,12.7,40.7,12.3V-78.4H0V101.3z"/>
	<linearGradient id="XMLID_89_" gradientUnits="userSpaceOnUse" x1="38.5866" y1="88.7853" x2="131.121" y2="133.9173">
		<stop  offset="0" style="stop-color:#E63312"/>
		<stop  offset="0.2879" style="stop-color:#E43212"/>
		<stop  offset="0.4832" style="stop-color:#DD2E11"/>
		<stop  offset="0.6512" style="stop-color:#D2280F"/>
		<stop  offset="0.8036" style="stop-color:#C3200D"/>
		<stop  offset="0.9442" style="stop-color:#AF150A"/>
		<stop  offset="1" style="stop-color:#A51008"/>
	</linearGradient>
	<path id="XMLID_71_" class="st5" d="M0,101.7c43.5-6.4,84.4,5.8,134.7,18.7c15.1,3.8,26,6.5,34.1,8.3c-3.5-2.6-6.3-4.8-6.9-5.5
		c-1.1-1.4-1.3-3.8-0.4-5.4l0.3-0.6c-4.5-0.8-9.4-1.8-14.9-3C92.9,102.3,52.8,88.8,0,100.2V101.7z"/>
	<linearGradient id="XMLID_90_" gradientUnits="userSpaceOnUse" x1="186.6803" y1="87.4732" x2="288.7738" y2="144.0645">
		<stop  offset="0" style="stop-color:#9C1006"/>
		<stop  offset="1" style="stop-color:#E63312"/>
	</linearGradient>
	<path id="XMLID_70_" class="st6" d="M174.9,88.6c0.2-0.5,2.9-1.1,18,5.4c15.1,6.5,43.1,19.6,68.4,32.4
		c25.2,12.8,34.3,12.7,40.7,12.3v1.5c-3.3,0.9-19.5,2.5-33.1-2.5c-13.7-5-44.3-20-55.5-24.8c-5.9-2.5-12.6-5.4-17.7-7.6
		c-5.3-4-11.4-8.5-14.9-10.8c-5.1-3.4-6.2-4.3-6.2-5.2l0.1-0.3L174.9,88.6z"/>
	<linearGradient id="XMLID_91_" gradientUnits="userSpaceOnUse" x1="163.1681" y1="107.0762" x2="207.0269" y2="131.3875">
		<stop  offset="0" style="stop-color:#FFFFFF"/>
		<stop  offset="0.1665" style="stop-color:#F9F9F9"/>
		<stop  offset="0.4381" style="stop-color:#E7E7E7"/>
		<stop  offset="0.7789" style="stop-color:#C9C9C9"/>
		<stop  offset="1" style="stop-color:#B2B2B2"/>
	</linearGradient>
	<path id="XMLID_69_" class="st7" d="M169.9,99.4l-5.2,11.1c0,0,3.5,3.5,16.2,12.3c6.1,4.2,12,8.5,15.3,11.4
		c3.6,3.1,4.1,4.3,4.1,4.9c0.1-0.3,2.5-5.4,3.3-7l1.5-3.2c-0.2-3.7-11.1-11.1-15.7-14.8c-2.8-2.2-8.3-6.2-12.9-9.4
		C172.7,101.9,169.9,99.4,169.9,99.4z"/>
	<linearGradient id="XMLID_92_" gradientUnits="userSpaceOnUse" x1="164.2655" y1="96.3153" x2="211.329" y2="119.2697">
		<stop  offset="0" style="stop-color:#FBCEB4"/>
		<stop  offset="0.27" style="stop-color:#E30613"/>
		<stop  offset="1" style="stop-color:#B20F0B"/>
	</linearGradient>
	<path id="XMLID_68_" class="st8" d="M174.9,88.6c0,0.1-0.1,0.1-0.1,0.3l-5,10.7c0,0,2.8,2.6,6.6,5.3c4.5,3.2,10.1,7.2,12.9,9.4
		c4.6,3.7,15.5,11.1,15.7,14.8c0,0,3.1-6.6,4.2-8.8c1-2.2-1.8-5.4-4.3-7.9c-2.5-2.5-17.7-14-23.9-18.1
		C174.7,90.3,174.4,89.7,174.9,88.6z"/>
	<linearGradient id="XMLID_93_" gradientUnits="userSpaceOnUse" x1="158.1117" y1="119.5999" x2="202.5577" y2="141.2776">
		<stop  offset="0" style="stop-color:#AAD29A"/>
		<stop  offset="0.16" style="stop-color:#2EA836"/>
		<stop  offset="1" style="stop-color:#008237"/>
	</linearGradient>
	<path id="XMLID_67_" class="st9" d="M161.3,117.9c-0.9,1.6-0.7,4,0.4,5.4c1.1,1.4,11.8,9.2,18.1,13.4c6.3,4.2,11.5,7.8,12.5,8.7
		c1,1,3.6,3.2,2.8,4.8c0.5-0.9,3.3-7.1,5.3-11.4c0-0.6-0.6-1.9-4.1-4.9c-3.3-2.8-9.2-7.2-15.3-11.4c-12.7-8.8-16.2-12.3-16.2-12.3
		L161.3,117.9z"/>
</g>
<g id="XMLID_78_" class="st0">
</g>
<g id="XMLID_79_" class="st0">
</g>
<g id="XMLID_80_" class="st0">
</g>
<g id="XMLID_81_" class="st0">
</g>
<g id="XMLID_82_" class="st0">
</g>
<g id="XMLID_83_" class="st0">
</g>
</svg>
