<?xml version="1.0" encoding="iso-8859-1"?>
<!-- Generator: Adobe Illustrator 19.0.0, SVG Export Plug-In . SVG Version: 6.00 Build 0)  -->
<svg version="1.1" id="Layer_1" xmlns="http://www.w3.org/2000/svg" xmlns:xlink="http://www.w3.org/1999/xlink" x="0px" y="0px"
	 viewBox="0 0 227 240" style="enable-background:new 0 0 227 240;" xml:space="preserve">
<g>
	
		<radialGradient id="SVGID_1_" cx="118.7485" cy="1019.2086" r="88.7239" gradientTransform="matrix(1.0876 0 0 0.1424 -13.2119 81.8656)" gradientUnits="userSpaceOnUse">
		<stop  offset="0" style="stop-color:#6E6E6E"/>
		<stop  offset="0.0324" style="stop-color:#787878"/>
		<stop  offset="0.1835" style="stop-color:#A1A1A1"/>
		<stop  offset="0.3383" style="stop-color:#C3C3C3"/>
		<stop  offset="0.4954" style="stop-color:#DDDDDD"/>
		<stop  offset="0.6558" style="stop-color:#F0F0F0"/>
		<stop  offset="0.8213" style="stop-color:#FBFBFB"/>
		<stop  offset="1" style="stop-color:#FFFFFF"/>
	</radialGradient>
	<ellipse style="fill-rule:evenodd;clip-rule:evenodd;fill:url(#SVGID_1_);" cx="115.939" cy="227.001" rx="96.507" ry="12.633"/>
	<g>
		<defs>
			<circle id="SVGID_2_" cx="113.5" cy="113.5" r="113.5"/>
		</defs>
		<clipPath id="SVGID_3_">
			<use xlink:href="#SVGID_2_"  style="overflow:visible;"/>
		</clipPath>
		<g style="clip-path:url(#SVGID_3_);">
			<rect x="-23.62" y="-0.592" style="fill:#B22234;" width="370.467" height="228.184"/>
			<rect x="-23.62" y="-0.592" style="fill:#3C3B6E;" width="157.646" height="122.963"/>
			<g>
				<g>
					<polygon style="fill:#FAFAFA;" points="-10.267,2.922 -8.619,7.987 -3.294,7.987 -7.603,11.117 -5.958,16.185 -10.267,13.053 
						-14.575,16.185 -12.931,11.117 -17.238,7.987 -11.911,7.987 					"/>
					<polygon style="fill:#FAFAFA;" points="15.92,2.922 17.566,7.987 22.893,7.987 18.584,11.117 20.231,16.185 15.92,13.053 
						11.612,16.185 13.259,11.117 8.949,7.987 14.275,7.987 					"/>
					<polygon style="fill:#FAFAFA;" points="42.111,2.922 43.755,7.987 49.081,7.987 44.772,11.117 46.418,16.185 42.111,13.053 
						37.799,16.185 39.444,11.117 35.137,7.987 40.466,7.987 					"/>
					<polygon style="fill:#FAFAFA;" points="68.297,2.922 69.943,7.987 75.269,7.987 70.961,11.117 72.606,16.185 68.297,13.053 
						63.987,16.185 65.633,11.117 61.326,7.987 66.651,7.987 					"/>
					<polygon style="fill:#FAFAFA;" points="94.486,2.922 96.129,7.987 101.458,7.987 97.147,11.117 98.794,16.185 94.486,13.053 
						90.175,16.185 91.821,11.117 87.513,7.987 92.839,7.987 					"/>
					<polygon style="fill:#FAFAFA;" points="120.673,2.922 122.318,7.987 127.644,7.987 123.337,11.117 124.981,16.185 
						120.673,13.053 116.362,16.185 118.011,11.117 113.7,7.987 119.028,7.987 					"/>
				</g>
				<g>
					<polygon style="fill:#FAFAFA;" points="2.828,15.757 4.473,20.822 9.8,20.822 5.492,23.952 7.136,29.018 2.828,25.888 
						-1.482,29.018 0.167,23.952 -4.145,20.822 1.181,20.822 					"/>
					<polygon style="fill:#FAFAFA;" points="29.016,15.757 30.66,20.822 35.985,20.822 31.679,23.952 33.324,29.018 29.016,25.888 
						24.705,29.018 26.352,23.952 22.043,20.822 27.369,20.822 					"/>
					<polygon style="fill:#FAFAFA;" points="55.203,15.757 56.849,20.822 62.175,20.822 57.867,23.952 59.513,29.018 55.203,25.888 
						50.895,29.018 52.541,23.952 48.23,20.822 53.557,20.822 					"/>
					<polygon style="fill:#FAFAFA;" points="81.39,15.757 83.036,20.822 88.361,20.822 84.054,23.952 85.699,29.018 81.39,25.888 
						77.081,29.018 78.727,23.952 74.418,20.822 79.745,20.822 					"/>
					<polygon style="fill:#FAFAFA;" points="107.578,15.757 109.224,20.822 114.552,20.822 110.242,23.952 111.889,29.018 
						107.578,25.888 103.27,29.018 104.914,23.952 100.608,20.822 105.933,20.822 					"/>
				</g>
				<g>
					<polygon style="fill:#FAFAFA;" points="-10.267,28.591 -8.619,33.655 -3.294,33.655 -7.603,36.787 -5.958,41.851 
						-10.267,38.721 -14.575,41.851 -12.931,36.787 -17.238,33.655 -11.911,33.655 					"/>
					<polygon style="fill:#FAFAFA;" points="15.92,28.591 17.566,33.655 22.893,33.655 18.584,36.787 20.231,41.851 15.92,38.721 
						11.612,41.851 13.259,36.787 8.949,33.655 14.275,33.655 					"/>
					<polygon style="fill:#FAFAFA;" points="42.111,28.591 43.755,33.655 49.081,33.655 44.772,36.787 46.418,41.851 42.111,38.721 
						37.799,41.851 39.444,36.787 35.137,33.655 40.466,33.655 					"/>
					<polygon style="fill:#FAFAFA;" points="68.297,28.591 69.943,33.655 75.269,33.655 70.961,36.787 72.606,41.851 68.297,38.721 
						63.987,41.851 65.633,36.787 61.326,33.655 66.651,33.655 					"/>
					<polygon style="fill:#FAFAFA;" points="94.486,28.591 96.129,33.655 101.458,33.655 97.147,36.787 98.794,41.851 
						94.486,38.721 90.175,41.851 91.821,36.787 87.513,33.655 92.839,33.655 					"/>
					<polygon style="fill:#FAFAFA;" points="120.673,28.591 122.318,33.655 127.644,33.655 123.337,36.787 124.981,41.851 
						120.673,38.721 116.362,41.851 118.011,36.787 113.7,33.655 119.028,33.655 					"/>
				</g>
				<g>
					<polygon style="fill:#FAFAFA;" points="2.828,41.425 4.473,46.491 9.8,46.491 5.492,49.621 7.136,54.684 2.828,51.554 
						-1.482,54.684 0.167,49.621 -4.145,46.491 1.181,46.491 					"/>
					<polygon style="fill:#FAFAFA;" points="29.016,41.425 30.66,46.491 35.985,46.491 31.679,49.621 33.324,54.684 29.016,51.554 
						24.705,54.684 26.352,49.621 22.043,46.491 27.369,46.491 					"/>
					<polygon style="fill:#FAFAFA;" points="55.203,41.425 56.849,46.491 62.175,46.491 57.867,49.621 59.513,54.684 55.203,51.554 
						50.895,54.684 52.541,49.621 48.23,46.491 53.557,46.491 					"/>
					<polygon style="fill:#FAFAFA;" points="81.39,41.425 83.036,46.491 88.361,46.491 84.054,49.621 85.699,54.684 81.39,51.554 
						77.081,54.684 78.727,49.621 74.418,46.491 79.745,46.491 					"/>
					<polygon style="fill:#FAFAFA;" points="107.578,41.425 109.224,46.491 114.552,46.491 110.242,49.621 111.889,54.684 
						107.578,51.554 103.27,54.684 104.914,49.621 100.608,46.491 105.933,46.491 					"/>
				</g>
				<g>
					<polygon style="fill:#FAFAFA;" points="-10.267,54.257 -8.619,59.324 -3.294,59.324 -7.603,62.454 -5.958,67.519 
						-10.267,64.39 -14.575,67.519 -12.931,62.454 -17.238,59.324 -11.911,59.324 					"/>
					<polygon style="fill:#FAFAFA;" points="15.92,54.257 17.566,59.324 22.893,59.324 18.584,62.454 20.231,67.519 15.92,64.39 
						11.612,67.519 13.259,62.454 8.949,59.324 14.275,59.324 					"/>
					<polygon style="fill:#FAFAFA;" points="42.111,54.257 43.755,59.324 49.081,59.324 44.772,62.454 46.418,67.519 42.111,64.39 
						37.799,67.519 39.444,62.454 35.137,59.324 40.466,59.324 					"/>
					<polygon style="fill:#FAFAFA;" points="68.297,54.257 69.943,59.324 75.269,59.324 70.961,62.454 72.606,67.519 68.297,64.39 
						63.987,67.519 65.633,62.454 61.326,59.324 66.651,59.324 					"/>
					<polygon style="fill:#FAFAFA;" points="94.486,54.257 96.129,59.324 101.458,59.324 97.147,62.454 98.794,67.519 94.486,64.39 
						90.175,67.519 91.821,62.454 87.513,59.324 92.839,59.324 					"/>
					<polygon style="fill:#FAFAFA;" points="120.673,54.257 122.318,59.324 127.644,59.324 123.337,62.454 124.981,67.519 
						120.673,64.39 116.362,67.519 118.011,62.454 113.7,59.324 119.028,59.324 					"/>
				</g>
				<g>
					<polygon style="fill:#FAFAFA;" points="2.828,67.089 4.473,72.157 9.8,72.157 5.492,75.288 7.136,80.353 2.828,77.223 
						-1.482,80.353 0.167,75.288 -4.145,72.157 1.181,72.157 					"/>
					<polygon style="fill:#FAFAFA;" points="29.016,67.089 30.66,72.157 35.985,72.157 31.679,75.288 33.324,80.353 29.016,77.223 
						24.705,80.353 26.352,75.288 22.043,72.157 27.369,72.157 					"/>
					<polygon style="fill:#FAFAFA;" points="55.203,67.089 56.849,72.157 62.175,72.157 57.867,75.288 59.513,80.353 55.203,77.223 
						50.895,80.353 52.541,75.288 48.23,72.157 53.557,72.157 					"/>
					<polygon style="fill:#FAFAFA;" points="81.39,67.089 83.036,72.157 88.361,72.157 84.054,75.288 85.699,80.353 81.39,77.223 
						77.081,80.353 78.727,75.288 74.418,72.157 79.745,72.157 					"/>
					<polygon style="fill:#FAFAFA;" points="107.578,67.089 109.224,72.157 114.552,72.157 110.242,75.288 111.889,80.353 
						107.578,77.223 103.27,80.353 104.914,75.288 100.608,72.157 105.933,72.157 					"/>
				</g>
				<g>
					<polygon style="fill:#FAFAFA;" points="-10.267,79.925 -8.619,84.992 -3.294,84.992 -7.603,88.121 -5.958,93.188 
						-10.267,90.057 -14.575,93.188 -12.931,88.121 -17.238,84.992 -11.911,84.992 					"/>
					<polygon style="fill:#FAFAFA;" points="15.92,79.925 17.566,84.992 22.893,84.992 18.584,88.121 20.231,93.188 15.92,90.057 
						11.612,93.188 13.259,88.121 8.949,84.992 14.275,84.992 					"/>
					<polygon style="fill:#FAFAFA;" points="42.111,79.925 43.755,84.992 49.081,84.992 44.772,88.121 46.418,93.188 42.111,90.057 
						37.799,93.188 39.444,88.121 35.137,84.992 40.466,84.992 					"/>
					<polygon style="fill:#FAFAFA;" points="68.297,79.925 69.943,84.992 75.269,84.992 70.961,88.121 72.606,93.188 68.297,90.057 
						63.987,93.188 65.633,88.121 61.326,84.992 66.651,84.992 					"/>
					<polygon style="fill:#FAFAFA;" points="94.486,79.925 96.129,84.992 101.458,84.992 97.147,88.121 98.794,93.188 
						94.486,90.057 90.175,93.188 91.821,88.121 87.513,84.992 92.839,84.992 					"/>
					<polygon style="fill:#FAFAFA;" points="120.673,79.925 122.318,84.992 127.644,84.992 123.337,88.121 124.981,93.188 
						120.673,90.057 116.362,93.188 118.011,88.121 113.7,84.992 119.028,84.992 					"/>
				</g>
				<g>
					<polygon style="fill:#FAFAFA;" points="2.828,92.76 4.473,97.825 9.8,97.825 5.492,100.959 7.136,106.023 2.828,102.891 
						-1.482,106.023 0.167,100.959 -4.145,97.825 1.181,97.825 					"/>
					<polygon style="fill:#FAFAFA;" points="29.016,92.76 30.66,97.825 35.985,97.825 31.679,100.959 33.324,106.023 
						29.016,102.891 24.705,106.023 26.352,100.959 22.043,97.825 27.369,97.825 					"/>
					<polygon style="fill:#FAFAFA;" points="55.203,92.76 56.849,97.825 62.175,97.825 57.867,100.959 59.513,106.023 
						55.203,102.891 50.895,106.023 52.541,100.959 48.23,97.825 53.557,97.825 					"/>
					<polygon style="fill:#FAFAFA;" points="81.39,92.76 83.036,97.825 88.361,97.825 84.054,100.959 85.699,106.023 81.39,102.891 
						77.081,106.023 78.727,100.959 74.418,97.825 79.745,97.825 					"/>
					<polygon style="fill:#FAFAFA;" points="107.578,92.76 109.224,97.825 114.552,97.825 110.242,100.959 111.889,106.023 
						107.578,102.891 103.27,106.023 104.914,100.959 100.608,97.825 105.933,97.825 					"/>
				</g>
				<g>
					<polygon style="fill:#FAFAFA;" points="-10.267,105.596 -8.619,110.66 -3.294,110.66 -7.603,113.793 -5.958,118.856 
						-10.267,115.728 -14.575,118.856 -12.931,113.793 -17.238,110.66 -11.911,110.66 					"/>
					<polygon style="fill:#FAFAFA;" points="15.92,105.596 17.566,110.66 22.893,110.66 18.584,113.793 20.231,118.856 
						15.92,115.728 11.612,118.856 13.259,113.793 8.949,110.66 14.275,110.66 					"/>
					<polygon style="fill:#FAFAFA;" points="42.111,105.596 43.755,110.66 49.081,110.66 44.772,113.793 46.418,118.856 
						42.111,115.728 37.799,118.856 39.444,113.793 35.137,110.66 40.466,110.66 					"/>
					<polygon style="fill:#FAFAFA;" points="68.297,105.596 69.943,110.66 75.269,110.66 70.961,113.793 72.606,118.856 
						68.297,115.728 63.987,118.856 65.633,113.793 61.326,110.66 66.651,110.66 					"/>
					<polygon style="fill:#FAFAFA;" points="94.486,105.596 96.129,110.66 101.458,110.66 97.147,113.793 98.794,118.856 
						94.486,115.728 90.175,118.856 91.821,113.793 87.513,110.66 92.839,110.66 					"/>
					<polygon style="fill:#FAFAFA;" points="120.673,105.596 122.318,110.66 127.644,110.66 123.337,113.793 124.981,118.856 
						120.673,115.728 116.362,118.856 118.011,113.793 113.7,110.66 119.028,110.66 					"/>
				</g>
			</g>
			<rect x="134.026" y="17.14" style="fill:#FAFAFA;" width="212.821" height="17.345"/>
			<rect x="134.026" y="52.217" style="fill:#FAFAFA;" width="212.821" height="17.34"/>
			<rect x="134.026" y="87.295" style="fill:#FAFAFA;" width="212.821" height="17.34"/>
			<rect x="-23.62" y="122.373" style="fill:#FAFAFA;" width="370.467" height="17.334"/>
			<rect x="-23.62" y="157.444" style="fill:#FAFAFA;" width="370.467" height="17.342"/>
			<rect x="-23.62" y="192.52" style="fill:#FAFAFA;" width="370.467" height="17.344"/>
		</g>
	</g>
</g>
<g>
</g>
<g>
</g>
<g>
</g>
<g>
</g>
<g>
</g>
<g>
</g>
</svg>
