<?xml version="1.0" encoding="utf-8"?>
<!-- Generator: Adobe Illustrator 19.0.0, SVG Export Plug-In . SVG Version: 6.00 Build 0)  -->
<svg version="1.1" id="Capa_1" xmlns="http://www.w3.org/2000/svg" xmlns:xlink="http://www.w3.org/1999/xlink" x="0px" y="0px"
	 viewBox="0 0 1280 390" style="enable-background:new 0 0 1280 390;" xml:space="preserve">
<style type="text/css">
	.st0{clip-path:url(#XMLID_78_);}
	.st1{fill-rule:evenodd;clip-rule:evenodd;fill:url(#XMLID_79_);}
	.st2{fill-rule:evenodd;clip-rule:evenodd;fill:url(#XMLID_80_);}
	.st3{fill-rule:evenodd;clip-rule:evenodd;fill:url(#XMLID_81_);}
	.st4{fill-rule:evenodd;clip-rule:evenodd;fill:url(#XMLID_82_);}
	.st5{fill-rule:evenodd;clip-rule:evenodd;fill:url(#XMLID_83_);}
	.st6{fill-rule:evenodd;clip-rule:evenodd;fill:url(#XMLID_84_);}
	.st7{fill-rule:evenodd;clip-rule:evenodd;fill:url(#XMLID_85_);}
	.st8{fill:url(#XMLID_86_);}
	.st9{fill:url(#XMLID_87_);}
	.st10{fill-rule:evenodd;clip-rule:evenodd;fill:url(#XMLID_88_);}
	.st11{fill-rule:evenodd;clip-rule:evenodd;fill:url(#XMLID_89_);}
	.st12{fill-rule:evenodd;clip-rule:evenodd;fill:url(#XMLID_90_);}
	.st13{fill-rule:evenodd;clip-rule:evenodd;fill:url(#XMLID_91_);}
	.st14{fill-rule:evenodd;clip-rule:evenodd;fill:url(#XMLID_92_);}
</style>
<defs>
	<rect id="XMLID_70_" width="1280" height="390"/>
</defs>
<clipPath id="XMLID_78_">
	<use xlink:href="#XMLID_70_"  style="overflow:visible;"/>
</clipPath>
<g id="XMLID_53_" class="st0">
	
		<radialGradient id="XMLID_79_" cx="678.8253" cy="25.7513" r="845.3682" gradientTransform="matrix(0.9877 0.1564 -0.1564 0.9877 -2.0274 -65.7727)" gradientUnits="userSpaceOnUse">
		<stop  offset="0" style="stop-color:#0083CB"/>
		<stop  offset="1" style="stop-color:#192969"/>
	</radialGradient>
	<path id="XMLID_68_" class="st1" d="M-14.5-16.2L-14.5-16.2l0.5-3.3c239.2-13.2,405.5,73.7,634.1,163.1c22.8,8.9,44,16.7,62.8,23.4
		l18.7-27.8l29.2-43.3l29.4-43.5c0.5-0.7,0.5-0.8,0.7-1.1l0,0l0-0.1l0,0l0,0l0,0l0,0c1.6-1.8,13.6-2.5,74.8,36.1
		c61.2,38.6,175.5,115.9,277.2,189.4c101.7,73.5,141.3,79.5,169.9,82l150.8-952.4L110.2-803.4L-14.5-16.2z"/>
	
		<linearGradient id="XMLID_80_" gradientUnits="userSpaceOnUse" x1="870.1237" y1="73.6587" x2="1205.2444" y2="244.4112" gradientTransform="matrix(0.9877 0.1564 -0.1564 0.9877 -2.0274 -65.7727)">
		<stop  offset="0" style="stop-color:#D0D0D0"/>
		<stop  offset="1" style="stop-color:#FFFFFF"/>
	</linearGradient>
	<path id="XMLID_69_" class="st2" d="M760.8,49.8c1.2-1.8,13.4-2.8,75.1,36.1s175.5,115.9,277.2,189.3
		c101.7,73.5,141.3,79.5,169.9,82l-0.8,5.1l-0.2,1.4l-0.3,1.9c-15.2,1.7-91.8-0.1-168.8-40.9c-73.5-38.9-164.1-104.6-198.9-127.3
		c-29.7-19.4-40.4-26.6-48.3-32c-3.2-3.6-7.1-7.9-11.5-12.6c-6.8-7.3-13.6-14.4-20.6-21.5l2.6,1.6C816.8,112.8,795,91,782.4,79.5
		c-20.2-18.4-24.3-23.3-23.4-27.1l0.8-1.2L760.8,49.8L760.8,49.8z M1281.2,368.8c-113.9,22.2-232-51.7-319.6-107
		c-43.5-27.5-63.5-40.4-75-47.8l1-1.7c0.8-1.2,1.3-2.6,1.5-4.1c-0.2,1.3-0.7,2.5-1.4,3.6l-3.6,5.4l0.1,0.1l-26,38.3
		c14.1,8.3,40.6,23.6,86.6,49.5c92.1,51.9,227.2,110.7,335,73l1.2-7.3l0.2-1.1L1281.2,368.8z"/>
	
		<linearGradient id="XMLID_81_" gradientUnits="userSpaceOnUse" x1="941.5516" y1="110.5864" x2="1285.2727" y2="301.1141" gradientTransform="matrix(0.9877 0.1564 -0.1564 0.9877 -2.0274 -65.7727)">
		<stop  offset="0" style="stop-color:#162259"/>
		<stop  offset="1" style="stop-color:#0075BF"/>
	</linearGradient>
	<path id="XMLID_65_" class="st3" d="M1280.4,373.9c-114.4,31.8-235.7-35.6-327.2-91.7c-44-27-68.9-42.9-80.2-49.6l-14.8,22.9
		c14.1,8.3,40.6,23.6,86.6,49.5c92.1,51.9,227.2,110.7,335,73L1280.4,373.9z"/>
	
		<linearGradient id="XMLID_82_" gradientUnits="userSpaceOnUse" x1="174.3384" y1="2.4126" x2="699.8741" y2="270.1864" gradientTransform="matrix(0.9877 0.1564 -0.1564 0.9877 -2.0274 -65.7727)">
		<stop  offset="0" style="stop-color:#FFFFFF"/>
		<stop  offset="0.3248" style="stop-color:#FDFDFD"/>
		<stop  offset="0.5452" style="stop-color:#F7F7F7"/>
		<stop  offset="0.7346" style="stop-color:#ECECEB"/>
		<stop  offset="0.9055" style="stop-color:#DCDCDC"/>
		<stop  offset="1" style="stop-color:#D0D0D0"/>
	</linearGradient>
	<path id="XMLID_64_" class="st4" d="M-17-0.5C7,4.2,104.4,27.2,226.4,81.2c165.7,73.2,332.6,178,507.3,243
		c19.5,7.2,31.3,10.8,36.4,11.8c17.3,3.3,31.3,5.3,36.9-2.3c0.6-0.9,1.4-1.9,2.1-3.1c0.6-6.5-7.1-15.5-10.2-19.6
		c-2-2.7-8.9-9.5-18.7-18.8l2.4,0.4c-12.4-11.7-24.9-23.2-37.2-34.8c-13.1-12.4-26.1-24.9-38.7-37.7l-2.8-1.1
		c-12.5-12.7-22.2-23.2-23.9-26.5c-3.7-7.1-2.9-17.5,2.2-24l1.7-2.5c-19-6.7-40.1-14.5-63.3-23.6C391.8,52.8,225.4-34.1-13.8-20.8
		l-0.8,5.3l0,0l-0.5,3.2c210.7,1.9,436.9,111.7,578.9,177.9c87.6,40.9,120.2,54,154.3,67.5c10,10.3,30.9,28.3,51.7,48
		c-34-9.7-79.3-28.8-113.2-43.4c-22.3-9.5-47.2-20.7-74.9-33.5C460.2,144.3,341,90.2,242.2,52.5C143.4,14.9,46.5-4.1-15.8-7.9
		L-16-6.9l-0.2,1.3L-17-0.5z"/>
	
		<linearGradient id="XMLID_83_" gradientUnits="userSpaceOnUse" x1="177.442" y1="36.2252" x2="687.5776" y2="285.035" gradientTransform="matrix(0.9877 0.1564 -0.1564 0.9877 -2.0274 -65.7727)">
		<stop  offset="0" style="stop-color:#0075BF"/>
		<stop  offset="0.2533" style="stop-color:#0073BC"/>
		<stop  offset="0.4253" style="stop-color:#006DB4"/>
		<stop  offset="0.5731" style="stop-color:#0062A7"/>
		<stop  offset="0.7073" style="stop-color:#005395"/>
		<stop  offset="0.8323" style="stop-color:#00417F"/>
		<stop  offset="0.9488" style="stop-color:#0E2C66"/>
		<stop  offset="1" style="stop-color:#162259"/>
	</linearGradient>
	<path id="XMLID_63_" class="st5" d="M-17-0.5C7,4.2,104.4,27.2,226.4,81.2c165.7,73.2,332.6,178,507.3,243
		c19.5,7.2,31.3,10.8,36.4,11.8c17.3,3.3,31.3,5.3,36.9-2.3c0.6-0.9,1.4-1.9,2.1-3.1c1.1-6.7-5.3-17.5-7.3-19.6
		c-23.9,2.4-97-26.2-125.4-38.4c-22.3-9.5-84-38.4-110.3-51.1C469.8,175,323.5,100.7,225.2,61.7c-98.3-39-182.6-60-241.6-66L-17-0.5
		z"/>
	
		<linearGradient id="XMLID_84_" gradientUnits="userSpaceOnUse" x1="167.2756" y1="-5.6568" x2="577.8584" y2="194.5978" gradientTransform="matrix(0.9877 0.1564 -0.1564 0.9877 -2.0274 -65.7727)">
		<stop  offset="0" style="stop-color:#0075BF"/>
		<stop  offset="0.2533" style="stop-color:#0073BC"/>
		<stop  offset="0.4253" style="stop-color:#006DB4"/>
		<stop  offset="0.5731" style="stop-color:#0062A7"/>
		<stop  offset="0.7073" style="stop-color:#005395"/>
		<stop  offset="0.8323" style="stop-color:#00417F"/>
		<stop  offset="0.9488" style="stop-color:#0E2C66"/>
		<stop  offset="1" style="stop-color:#162259"/>
	</linearGradient>
	<path id="XMLID_62_" class="st6" d="M-14.3-17.4C194.9-25.5,414.4,82.6,554.8,141c17.8,7.4,114.9,48.5,126.8,53.2
		c-1.7-6.9-3-21.5,0.4-25.8l1.7-2.5c-19-6.7-40.1-14.5-63.3-23.6C391.8,52.8,225.4-34.1-13.8-20.8L-14.3-17.4z"/>
	
		<linearGradient id="XMLID_85_" gradientUnits="userSpaceOnUse" x1="823.9515" y1="-12.9639" x2="1278.9919" y2="239.2691" gradientTransform="matrix(0.9877 0.1564 -0.1564 0.9877 -2.0274 -65.7727)">
		<stop  offset="0" style="stop-color:#162259"/>
		<stop  offset="1" style="stop-color:#0075BF"/>
	</linearGradient>
	<path id="XMLID_61_" class="st7" d="M760.8,49.8c1.2-1.8,13.4-2.8,75.1,36.1s175.5,115.9,277.2,189.3
		c101.7,73.5,141.3,79.5,169.9,82l-0.6,3.7c-23.2,0.3-84.3-5.4-158.8-52.8C1063,269.6,946.8,189.6,912,166.8
		C869.8,139.2,801.7,96,783,85.9c-16.8-15.3-24.9-29.7-24-33.5l0.8-1.2L760.8,49.8z"/>
	
		<linearGradient id="XMLID_86_" gradientUnits="userSpaceOnUse" x1="168.8047" y1="19.4379" x2="638.472" y2="248.5099" gradientTransform="matrix(0.9877 0.1564 -0.1564 0.9877 -2.0274 -65.7727)">
		<stop  offset="0" style="stop-color:#E63312"/>
		<stop  offset="0.2744" style="stop-color:#E43212"/>
		<stop  offset="0.4607" style="stop-color:#DD2F11"/>
		<stop  offset="0.6208" style="stop-color:#D2290F"/>
		<stop  offset="0.7661" style="stop-color:#C3220D"/>
		<stop  offset="0.9001" style="stop-color:#AF190A"/>
		<stop  offset="1" style="stop-color:#9C1006"/>
	</linearGradient>
	<path id="XMLID_60_" class="st8" d="M-15.8-8.1l0.7-4.4c210.7,1.9,436.9,111.9,578.8,178.2c87.6,40.9,120.2,54,154.3,67.5
		c10,10.3,30.9,28.3,51.7,48c-34-9.7-79.3-28.8-113.2-43.4c-22.3-9.5-47.2-20.7-74.9-33.5C460.2,144.3,341,90.2,242.2,52.5
		C143.4,14.9,46.6-4.4-15.8-8.1z"/>
	
		<linearGradient id="XMLID_87_" gradientUnits="userSpaceOnUse" x1="936.9787" y1="75.1374" x2="1285.9432" y2="268.5716" gradientTransform="matrix(0.9877 0.1564 -0.1564 0.9877 -2.0274 -65.7727)">
		<stop  offset="0" style="stop-color:#9C1006"/>
		<stop  offset="1" style="stop-color:#E63312"/>
	</linearGradient>
	<path id="XMLID_59_" class="st9" d="M887.7,212.3c2.8-4.1,1.7-9.8-1.1-16.1c-2.9-6.6-7.8-13.6-12.3-20c-1.4-1.9-7-9.6-10.9-14.2
		c8,5.5,18.3,12.5,50.9,33.8c32.6,21.3,125.8,87.6,198.9,127.3c76.3,41.5,153.4,44.2,168.6,42.4l-0.6,3.6
		c-118.5,22-231.9-52.1-319.5-107.4c-43.5-27.5-63.5-40.4-75-47.8L887.7,212.3z"/>
	
		<linearGradient id="XMLID_88_" gradientUnits="userSpaceOnUse" x1="722.589" y1="26.5293" x2="930.1124" y2="141.5614" gradientTransform="matrix(0.9877 0.1564 -0.1564 0.9877 -2.0274 -65.7727)">
		<stop  offset="0" style="stop-color:#FFFFFF"/>
		<stop  offset="0.1665" style="stop-color:#F9F9F9"/>
		<stop  offset="0.4381" style="stop-color:#E7E7E7"/>
		<stop  offset="0.7789" style="stop-color:#C9C9C9"/>
		<stop  offset="1" style="stop-color:#B2B2B2"/>
	</linearGradient>
	<path id="XMLID_58_" class="st10" d="M760.9,49.7c-0.3,0.3-0.3,0.4-0.8,1.2l-35.2,52.3c0,0,10.7,13.2,25.4,27.6
		c17.6,17.1,39.2,38.6,49.8,50.2c17.7,19.5,60.1,59.4,58.5,75.9c0,0,24-35.4,30.2-44.5c6.1-9.1-4.4-24.7-13.6-37.6
		c-9.2-12.9-67.8-73.6-92.2-95.8C758.7,56.9,757.7,54.4,760.9,49.7z"/>
	
		<linearGradient id="XMLID_89_" gradientUnits="userSpaceOnUse" x1="735.0932" y1="24.3504" x2="930.1827" y2="119.5018" gradientTransform="matrix(0.9877 0.1564 -0.1564 0.9877 -2.0274 -65.7727)">
		<stop  offset="0" style="stop-color:#BCD0ED"/>
		<stop  offset="0.38" style="stop-color:#0071B8"/>
		<stop  offset="1" style="stop-color:#17255F"/>
	</linearGradient>
	<path id="XMLID_57_" class="st11" d="M760.9,49.7c-0.3,0.3-0.3,0.4-0.8,1.2l-18.6,27.6c0.4,1.4,2.6,5.1,7.9,11
		c4.4,4.9,10.2,11.2,16.9,17.7c17.6,17.1,39.2,38.6,49.8,50.2c17.7,19.5,60.1,59.4,58.5,75.9c0,0,8-11.8,14.2-20.9
		c6.1-9.1-4.2-24.8-13.4-37.6c-9.2-12.9-68-73.5-92.3-95.8C758.7,56.9,757.7,54.4,760.9,49.7z"/>
	
		<linearGradient id="XMLID_90_" gradientUnits="userSpaceOnUse" x1="700.0276" y1="122.0173" x2="895.8564" y2="230.567" gradientTransform="matrix(0.9877 0.1564 -0.1564 0.9877 -2.0274 -65.7727)">
		<stop  offset="0" style="stop-color:#FFFFFF"/>
		<stop  offset="0.1665" style="stop-color:#F9F9F9"/>
		<stop  offset="0.4381" style="stop-color:#E7E7E7"/>
		<stop  offset="0.7789" style="stop-color:#C9C9C9"/>
		<stop  offset="1" style="stop-color:#B2B2B2"/>
	</linearGradient>
	<path id="XMLID_56_" class="st12" d="M680.7,168.8c-5.1,6.5-5.9,16.9-2.2,24c3.7,7.1,45.4,48.5,70.1,71.5
		c24.7,23,45.2,42.1,48.9,47c3.7,4.9,13.7,16.4,9.1,22.8c2.8-3.7,23.1-34.1,34.8-51.5c0.2-2.8,1.9-11.1-11.7-27.1
		c-12.5-14.7-35.2-37.7-59.1-60.4c-49.7-47.4-63.7-65.5-63.7-65.5L680.7,168.8z"/>
	
		<linearGradient id="XMLID_91_" gradientUnits="userSpaceOnUse" x1="704.1479" y1="147.0976" x2="878.0367" y2="231.9089" gradientTransform="matrix(0.9877 0.1564 -0.1564 0.9877 -2.0274 -65.7727)">
		<stop  offset="0" style="stop-color:#BCD0ED"/>
		<stop  offset="0.31" style="stop-color:#0071B8"/>
		<stop  offset="1" style="stop-color:#17255F"/>
	</linearGradient>
	<path id="XMLID_55_" class="st13" d="M680.7,168.8c-0.4,0.5-0.8,1-1.1,1.5c-3.7,5.3-6.4,10.3-5.6,14.1c0.5,2.4,2.5,5.4,4.5,8.4
		l0.1,0.1c2.3,4.2,16.9,19.5,33.6,36.2l0.3,0.3c12.2,12.2,25.5,25,36.2,35c24.7,23,45.2,42.1,48.9,47c3.2,4.2,11,13.3,10.2,19.9
		c0,0.1,0,0.2,0,0.3l0,0c-0.2,0.9-0.5,1.8-1.1,2.6l0.1-0.1l-0.1,0.1c1.9-2.6,4-5.6,9.1-13.3l0,0l0.1-0.2l0.2-0.3l0.4-0.5l0.1-0.2
		l0.4-0.6l0.6-0.8l0.1-0.2l2.2-3.2l0.4-0.6l0.6-0.9l3.2-4.7l0,0l2.5-3.7c0.2-2.8-1.1-8.5-14.8-24.5c-12.5-14.7-35.2-37.7-59.1-60.4
		c-49.7-47.4-62.5-65.2-62.5-65.2l-2.5,3.7l0,0l-5.8,8.6L680.7,168.8z"/>
	
		<linearGradient id="XMLID_92_" gradientUnits="userSpaceOnUse" x1="715.4941" y1="84.0963" x2="907.9386" y2="177.9577" gradientTransform="matrix(0.9877 0.1564 -0.1564 0.9877 -2.0274 -65.7727)">
		<stop  offset="0" style="stop-color:#F9C5AF"/>
		<stop  offset="0.34" style="stop-color:#E73E24"/>
		<stop  offset="1" style="stop-color:#B20F0B"/>
	</linearGradient>
	<path id="XMLID_54_" class="st14" d="M706.2,130.8c21.6,30.1,133.6,127.1,134.1,153.6c5.5-8.1,13.6-20.1,19-28.2
		c0.1-27.9-126.5-139.6-133.6-154L706.2,130.8z"/>
</g>
<g id="XMLID_71_" class="st0">
</g>
<g id="XMLID_72_" class="st0">
</g>
<g id="XMLID_73_" class="st0">
</g>
<g id="XMLID_74_" class="st0">
</g>
<g id="XMLID_75_" class="st0">
</g>
<g id="XMLID_76_" class="st0">
</g>
</svg>
