<?xml version="1.0" encoding="utf-8"?>
<!-- Generator: Adobe Illustrator 19.0.0, SVG Export Plug-In . SVG Version: 6.00 Build 0)  -->
<svg version="1.1" id="Capa_1" xmlns="http://www.w3.org/2000/svg" xmlns:xlink="http://www.w3.org/1999/xlink" x="0px" y="0px"
	 viewBox="0 0 302 152" style="enable-background:new 0 0 302 152;" xml:space="preserve">
<style type="text/css">
	.st0{clip-path:url(#XMLID_90_);}
	.st1{fill-rule:evenodd;clip-rule:evenodd;fill:url(#XMLID_91_);}
	.st2{fill-rule:evenodd;clip-rule:evenodd;fill:url(#SVGID_1_);}
	.st3{fill-rule:evenodd;clip-rule:evenodd;fill:url(#XMLID_92_);}
	.st4{fill-rule:evenodd;clip-rule:evenodd;fill:url(#XMLID_93_);}
	.st5{fill-rule:evenodd;clip-rule:evenodd;fill:url(#XMLID_94_);}
	.st6{fill-rule:evenodd;clip-rule:evenodd;fill:url(#XMLID_95_);}
	.st7{fill-rule:evenodd;clip-rule:evenodd;fill:url(#XMLID_96_);}
	.st8{fill:url(#XMLID_97_);}
	.st9{fill:url(#XMLID_98_);}
	.st10{fill-rule:evenodd;clip-rule:evenodd;fill:url(#XMLID_99_);}
	.st11{fill-rule:evenodd;clip-rule:evenodd;fill:url(#XMLID_100_);}
	.st12{fill-rule:evenodd;clip-rule:evenodd;fill:url(#XMLID_101_);}
	.st13{fill-rule:evenodd;clip-rule:evenodd;fill:url(#XMLID_102_);}
	.st14{fill-rule:evenodd;clip-rule:evenodd;fill:url(#XMLID_103_);}
</style>
<defs>
	<rect id="XMLID_82_" width="302" height="152"/>
</defs>
<clipPath id="XMLID_90_">
	<use xlink:href="#XMLID_82_"  style="overflow:visible;"/>
</clipPath>
<g id="XMLID_66_" class="st0">
	<radialGradient id="XMLID_91_" cx="154.0199" cy="95.5693" r="190.5233" gradientUnits="userSpaceOnUse">
		<stop  offset="0" style="stop-color:#0083CB"/>
		<stop  offset="1" style="stop-color:#192969"/>
	</radialGradient>
	<path id="XMLID_81_" class="st1" d="M0,101.3L0,101.3v-0.8c52.8-11.4,92.9,2.1,146.9,13.9c5.4,1.2,10.4,2.2,14.8,3l3.2-6.8l5-10.7
		l5-10.7c0.1-0.2,0.1-0.2,0.1-0.3l0,0l0,0l0,0l0,0l0,0l0,0c0.3-0.5,2.9-1,17.9,5.4c15,6.4,43.1,19.6,68.4,32.4
		c25.2,12.8,34.3,12.7,40.7,12.3V-78.4H0V101.3z"/>
	<linearGradient id="SVGID_1_" gradientUnits="userSpaceOnUse" x1="197.1335" y1="106.3663" x2="272.6606" y2="144.8493">
		<stop  offset="0" style="stop-color:#D0D0D0"/>
		<stop  offset="1" style="stop-color:#FFFFFF"/>
	</linearGradient>
	<path class="st2" d="M174.9,88.6c0.2-0.5,2.9-1.1,18,5.4c15.1,6.5,43.1,19.6,68.4,32.4c25.2,12.8,34.3,12.7,40.7,12.3v1.2v0.3v0.4
		c-3.3,0.9-20.4,3.2-39-3.1c-17.7-6.1-40.2-17.5-48.8-21.3c-7.3-3.3-9.9-4.5-11.9-5.4c-0.9-0.7-1.9-1.5-3-2.4
		c-1.8-1.4-3.5-2.7-5.3-4.1l0.6,0.3c-5-3.8-10.6-7.9-13.9-10c-5.1-3.4-6.2-4.3-6.2-5.2l0.1-0.3L174.9,88.6L174.9,88.6z M302,141.2
		c-24.6,9-53.5-3.3-74.9-12.5c-10.7-4.6-15.6-6.8-18.4-8l0.2-0.4c0.1-0.3,0.2-0.6,0.2-1c0,0.3-0.1,0.6-0.2,0.8l-0.6,1.3l0,0
		l-4.4,9.4c3.4,1.3,9.9,3.8,21,8c22.3,8.3,54.5,16.6,77.1,4.4v-1.7v-0.3V141.2z"/>
	<linearGradient id="XMLID_92_" gradientUnits="userSpaceOnUse" x1="213.2314" y1="114.6888" x2="290.6969" y2="157.6286">
		<stop  offset="0" style="stop-color:#162259"/>
		<stop  offset="1" style="stop-color:#0075BF"/>
	</linearGradient>
	<path id="XMLID_78_" class="st3" d="M302,142.4c-24.3,11.1-53.7,0.4-76.1-8.9c-10.7-4.5-16.9-7.1-19.6-8.2l-2.5,5.6
		c3.4,1.3,9.9,3.8,21,8c22.3,8.3,54.5,16.6,77.1,4.4V142.4z"/>
	<linearGradient id="XMLID_93_" gradientUnits="userSpaceOnUse" x1="40.3221" y1="90.3093" x2="158.7638" y2="150.6584">
		<stop  offset="0" style="stop-color:#FFFFFF"/>
		<stop  offset="0.3248" style="stop-color:#FDFDFD"/>
		<stop  offset="0.5452" style="stop-color:#F7F7F7"/>
		<stop  offset="0.7346" style="stop-color:#ECECEB"/>
		<stop  offset="0.9055" style="stop-color:#DCDCDC"/>
		<stop  offset="1" style="stop-color:#D0D0D0"/>
	</linearGradient>
	<path id="XMLID_77_" class="st4" d="M0,104.8c5.5,0.2,28,1.9,57.1,9.6c39.5,10.5,80.3,27.9,121.5,36.2c4.6,0.9,7.3,1.3,8.5,1.3
		c4,0.1,7.1,0.1,8.1-1.8c0.1-0.2,0.2-0.5,0.4-0.8c-0.1-1.5-2.1-3.2-3-4c-0.5-0.5-2.3-1.8-4.8-3.5l0.5,0c-3.2-2.2-6.4-4.3-9.5-6.4
		c-3.4-2.3-6.7-4.6-9.9-7l-0.7-0.2c-3.2-2.4-5.8-4.4-6.3-5.1c-1.1-1.4-1.3-3.8-0.4-5.4l0.3-0.6c-4.5-0.8-9.4-1.8-14.9-3
		C92.9,102.3,52.8,88.8,0,100.2v1.2l0,0v0.7c47-7,101.2,9.5,135.1,19.2c20.9,6,28.6,7.8,36.7,9.6c2.6,1.9,7.9,5.2,13.2,8.9
		c-7.9-1-18.7-3.6-26.7-5.7c-5.3-1.3-11.2-2.9-17.9-4.8c-29.1-9.1-57.6-16.9-80.9-21.8c-23.3-4.9-45.6-5.7-59.6-4.3v0.2v0.3V104.8z"
		/>
	<linearGradient id="XMLID_94_" gradientUnits="userSpaceOnUse" x1="41.0216" y1="97.9298" x2="155.9925" y2="154.0048">
		<stop  offset="0" style="stop-color:#0075BF"/>
		<stop  offset="0.2533" style="stop-color:#0073BC"/>
		<stop  offset="0.4253" style="stop-color:#006DB4"/>
		<stop  offset="0.5731" style="stop-color:#0062A7"/>
		<stop  offset="0.7073" style="stop-color:#005395"/>
		<stop  offset="0.8323" style="stop-color:#00417F"/>
		<stop  offset="0.9488" style="stop-color:#0E2C66"/>
		<stop  offset="1" style="stop-color:#162259"/>
	</linearGradient>
	<path id="XMLID_76_" class="st5" d="M0,104.8c5.5,0.2,28,1.9,57.1,9.6c39.5,10.5,80.3,27.9,121.5,36.2c4.6,0.9,7.3,1.3,8.5,1.3
		c4,0.1,7.1,0.1,8.1-1.8c0.1-0.2,0.2-0.5,0.4-0.8c0-1.5-1.8-3.7-2.3-4.1c-5.2,1.4-22.5-2.4-29.3-4.1c-5.3-1.3-20-5.6-26.3-7.5
		c-23.1-6.9-58.3-18.3-81.5-23.5c-23.3-5.2-42.8-6.9-56.1-6.2V104.8z"/>
	<linearGradient id="XMLID_95_" gradientUnits="userSpaceOnUse" x1="38.7304" y1="88.4907" x2="131.2647" y2="133.6227">
		<stop  offset="0" style="stop-color:#0075BF"/>
		<stop  offset="0.2533" style="stop-color:#0073BC"/>
		<stop  offset="0.4253" style="stop-color:#006DB4"/>
		<stop  offset="0.5731" style="stop-color:#0062A7"/>
		<stop  offset="0.7073" style="stop-color:#005395"/>
		<stop  offset="0.8323" style="stop-color:#00417F"/>
		<stop  offset="0.9488" style="stop-color:#0E2C66"/>
		<stop  offset="1" style="stop-color:#162259"/>
	</linearGradient>
	<path id="XMLID_75_" class="st6" d="M0,101c46.3-9.2,99,7.1,132.3,15.2c4.2,1,27.3,6.8,30.1,7.4c-0.6-1.5-1.4-4.7-0.8-5.8l0.3-0.6
		c-4.5-0.8-9.4-1.8-14.9-3C92.9,102.3,52.8,88.8,0,100.2V101z"/>
	<linearGradient id="XMLID_96_" gradientUnits="userSpaceOnUse" x1="186.7275" y1="86.8439" x2="289.2814" y2="143.6904">
		<stop  offset="0" style="stop-color:#162259"/>
		<stop  offset="1" style="stop-color:#0075BF"/>
	</linearGradient>
	<path id="XMLID_74_" class="st7" d="M174.9,88.6c0.2-0.5,2.9-1.1,18,5.4c15.1,6.5,43.1,19.6,68.4,32.4
		c25.2,12.8,34.3,12.7,40.7,12.3v0.9c-5.2,0.9-19,1.8-37.2-6.2c-14.9-6.4-43.5-20.2-52.1-24c-10.4-4.7-27.1-11.9-31.6-13.5
		c-4.3-2.8-6.6-5.7-6.5-6.6l0.1-0.3L174.9,88.6z"/>
	<linearGradient id="XMLID_97_" gradientUnits="userSpaceOnUse" x1="39.075" y1="94.1464" x2="144.9254" y2="145.7731">
		<stop  offset="0" style="stop-color:#E63312"/>
		<stop  offset="0.2744" style="stop-color:#E43212"/>
		<stop  offset="0.4607" style="stop-color:#DD2F11"/>
		<stop  offset="0.6208" style="stop-color:#D2290F"/>
		<stop  offset="0.7661" style="stop-color:#C3220D"/>
		<stop  offset="0.9001" style="stop-color:#AF190A"/>
		<stop  offset="1" style="stop-color:#9C1006"/>
	</linearGradient>
	<path id="XMLID_73_" class="st8" d="M0,103.1v-1c47-7,101.2,9.5,135.1,19.3c20.9,6,28.6,7.8,36.7,9.6c2.6,1.9,7.9,5.2,13.2,8.9
		c-7.9-1-18.7-3.6-26.7-5.7c-5.3-1.3-11.2-2.9-17.9-4.8c-29.1-9.1-57.6-16.9-80.9-21.8C36.3,102.6,14,101.7,0,103.1z"/>
	<linearGradient id="XMLID_98_" gradientUnits="userSpaceOnUse" x1="212.2008" y1="106.6996" x2="290.848" y2="150.2944">
		<stop  offset="0" style="stop-color:#9C1006"/>
		<stop  offset="1" style="stop-color:#E63312"/>
	</linearGradient>
	<path id="XMLID_72_" class="st9" d="M208.9,120.3c0.5-1,0-2.2-0.8-3.5c-0.9-1.4-2.2-2.8-3.4-4c-0.4-0.4-1.9-1.9-2.9-2.8
		c2,0.9,4.5,2.1,12.5,5.7c8,3.6,31.1,15.1,48.8,21.3c18.5,6.6,35.7,4.4,39,3.5v0.8c-25.6,9.1-53.5-3.4-74.9-12.6
		c-10.7-4.6-15.6-6.8-18.4-8L208.9,120.3z"/>
	<linearGradient id="XMLID_99_" gradientUnits="userSpaceOnUse" x1="163.8831" y1="95.7446" x2="210.6533" y2="121.6698">
		<stop  offset="0" style="stop-color:#FFFFFF"/>
		<stop  offset="0.1665" style="stop-color:#F9F9F9"/>
		<stop  offset="0.4381" style="stop-color:#E7E7E7"/>
		<stop  offset="0.7789" style="stop-color:#C9C9C9"/>
		<stop  offset="1" style="stop-color:#B2B2B2"/>
	</linearGradient>
	<path id="XMLID_71_" class="st10" d="M174.9,88.6c0,0.1-0.1,0.1-0.1,0.3l-6,12.9c0,0,2.8,2.6,6.6,5.3c4.5,3.2,10.1,7.2,12.9,9.4
		c4.6,3.7,15.5,11.1,15.7,14.8c0,0,4.1-8.7,5.1-11c1-2.2-1.8-5.3-4.3-7.9c-2.5-2.5-17.7-14-23.9-18.1
		C174.7,90.3,174.4,89.7,174.9,88.6z"/>
	<linearGradient id="XMLID_100_" gradientUnits="userSpaceOnUse" x1="166.7012" y1="95.2535" x2="210.6691" y2="116.6981">
		<stop  offset="0" style="stop-color:#BCD0ED"/>
		<stop  offset="0.38" style="stop-color:#0071B8"/>
		<stop  offset="1" style="stop-color:#17255F"/>
	</linearGradient>
	<path id="XMLID_70_" class="st11" d="M174.9,88.6c0,0.1-0.1,0.1-0.1,0.3l-3.2,6.8c0.1,0.3,0.7,1,2.1,2.2c1.2,0.9,2.7,2.1,4.4,3.4
		c4.5,3.2,10.1,7.2,12.9,9.4c4.6,3.7,15.5,11.1,15.7,14.8c0,0,1.4-2.9,2.4-5.2c1-2.2-1.8-5.4-4.3-7.9c-2.5-2.5-17.7-14-23.9-18.1
		C174.7,90.3,174.4,89.7,174.9,88.6z"/>
	<linearGradient id="XMLID_101_" gradientUnits="userSpaceOnUse" x1="158.7984" y1="117.265" x2="202.9329" y2="141.7292">
		<stop  offset="0" style="stop-color:#FFFFFF"/>
		<stop  offset="0.1665" style="stop-color:#F9F9F9"/>
		<stop  offset="0.4381" style="stop-color:#E7E7E7"/>
		<stop  offset="0.7789" style="stop-color:#C9C9C9"/>
		<stop  offset="1" style="stop-color:#B2B2B2"/>
	</linearGradient>
	<path id="XMLID_69_" class="st12" d="M161.3,117.9c-0.9,1.6-0.7,4,0.4,5.4c1.1,1.4,11.8,9.2,18.1,13.4c6.3,4.2,11.5,7.8,12.5,8.7
		c1,1,3.6,3.2,2.8,4.8c0.5-0.9,3.9-8.4,5.9-12.7c0-0.6,0-2.5-3.6-5.6c-3.3-2.8-9.2-7.2-15.3-11.4c-12.7-8.8-16.5-12.3-16.5-12.3
		L161.3,117.9z"/>
	<linearGradient id="XMLID_102_" gradientUnits="userSpaceOnUse" x1="159.727" y1="122.9175" x2="198.9168" y2="142.0316">
		<stop  offset="0" style="stop-color:#BCD0ED"/>
		<stop  offset="0.31" style="stop-color:#0071B8"/>
		<stop  offset="1" style="stop-color:#17255F"/>
	</linearGradient>
	<path id="XMLID_68_" class="st13" d="M161.3,117.9c-0.1,0.1-0.1,0.3-0.2,0.4c-0.6,1.3-1.1,2.5-0.7,3.3c0.2,0.5,0.7,1.1,1.3,1.7l0,0
		c0.7,0.9,4.5,3.8,8.8,6.9l0.1,0c3.1,2.3,6.6,4.7,9.3,6.5c6.3,4.2,11.5,7.8,12.5,8.7c0.9,0.8,2.9,2.6,3,4.1c0,0,0,0.1,0,0.1v0
		c0,0.2-0.1,0.4-0.2,0.6l0,0l0,0c0.3-0.6,0.7-1.4,1.6-3.3l0,0l0,0l0-0.1l0.1-0.1l0,0l0.1-0.2l0.1-0.2l0-0.1l0.4-0.8l0.1-0.1l0.1-0.2
		l0.5-1.2v0l0.4-0.9c0-0.6-0.6-1.9-4.1-4.9c-3.3-2.8-9.2-7.2-15.3-11.4c-12.7-8.8-16.2-12.3-16.2-12.3l-0.4,0.9l0,0l-1,2.1
		L161.3,117.9z"/>
	<linearGradient id="XMLID_103_" gradientUnits="userSpaceOnUse" x1="162.2841" y1="108.7187" x2="205.6559" y2="129.8725">
		<stop  offset="0" style="stop-color:#F9C5AF"/>
		<stop  offset="0.34" style="stop-color:#E73E24"/>
		<stop  offset="1" style="stop-color:#B20F0B"/>
	</linearGradient>
	<path id="XMLID_67_" class="st14" d="M165.6,108.6c5.9,5.9,34.2,23.6,35.3,29.5c0.9-2,2.3-5,3.2-7c-1-6.2-33.1-26.6-35.2-29.6
		L165.6,108.6z"/>
</g>
<g id="XMLID_83_" class="st0">
</g>
<g id="XMLID_84_" class="st0">
</g>
<g id="XMLID_85_" class="st0">
</g>
<g id="XMLID_86_" class="st0">
</g>
<g id="XMLID_87_" class="st0">
</g>
<g id="XMLID_88_" class="st0">
</g>
</svg>
