<?xml version="1.0" encoding="utf-8"?>
<!-- Generator: Adobe Illustrator 19.0.0, SVG Export Plug-In . SVG Version: 6.00 Build 0)  -->
<svg version="1.1" id="Capa_1" xmlns="http://www.w3.org/2000/svg" xmlns:xlink="http://www.w3.org/1999/xlink" x="0px" y="0px"
	 viewBox="0 0 1280 390" style="enable-background:new 0 0 1280 390;" xml:space="preserve">
<style type="text/css">
	.st0{clip-path:url(#XMLID_84_);}
	.st1{fill-rule:evenodd;clip-rule:evenodd;fill:url(#XMLID_85_);}
	.st2{fill-rule:evenodd;clip-rule:evenodd;fill:url(#XMLID_86_);}
	.st3{fill-rule:evenodd;clip-rule:evenodd;fill:url(#XMLID_87_);}
	.st4{fill:url(#XMLID_88_);}
	.st5{fill-rule:evenodd;clip-rule:evenodd;fill:url(#XMLID_89_);}
	.st6{fill-rule:evenodd;clip-rule:evenodd;fill:url(#XMLID_90_);}
	.st7{fill-rule:evenodd;clip-rule:evenodd;fill:url(#XMLID_91_);}
	.st8{fill-rule:evenodd;clip-rule:evenodd;fill:url(#XMLID_92_);}
	.st9{fill:#FFFFFF;}
</style>
<defs>
	<rect id="XMLID_76_" width="1280" height="390"/>
</defs>
<clipPath id="XMLID_84_">
	<use xlink:href="#XMLID_76_"  style="overflow:visible;"/>
</clipPath>
<g id="XMLID_66_" class="st0">
	
		<radialGradient id="XMLID_85_" cx="677.7303" cy="25.8375" r="845.3682" gradientTransform="matrix(0.9877 0.1564 -0.1564 0.9877 -0.9324 -65.6865)" gradientUnits="userSpaceOnUse">
		<stop  offset="0" style="stop-color:#E63312"/>
		<stop  offset="1" style="stop-color:#9C1006"/>
	</radialGradient>
	<path id="XMLID_75_" class="st1" d="M-14.5-16.2L-14.5-16.2l0.5-3.3c239.2-13.2,405.5,73.7,634.1,163.1c22.8,8.9,44,16.7,62.8,23.4
		l18.7-27.8l29.2-43.3l0,0l29.4-43.5c0.5-0.7,0.5-0.8,0.7-1.1l0,0l0-0.1l0,0l0,0l0,0l0,0c1.6-1.8,13.6-2.5,74.8,36.1
		c61.2,38.6,175.5,115.9,277.2,189.4c101.7,73.5,141.3,79.5,169.9,82l150.8-952.4L110.2-803.4L-14.5-16.2z"/>
	
		<linearGradient id="XMLID_86_" gradientUnits="userSpaceOnUse" x1="-17.5823" y1="115.8285" x2="755.1232" y2="115.8285" gradientTransform="matrix(0.9877 0.1564 -0.1564 0.9877 -0.9324 -65.6865)">
		<stop  offset="0" style="stop-color:#FFFFFF"/>
		<stop  offset="0.3042" style="stop-color:#FDFDFD"/>
		<stop  offset="0.5106" style="stop-color:#F7F7F7"/>
		<stop  offset="0.6881" style="stop-color:#ECECEB"/>
		<stop  offset="0.8482" style="stop-color:#DCDCDC"/>
		<stop  offset="0.997" style="stop-color:#C7C7C6"/>
		<stop  offset="1" style="stop-color:#C6C6C6"/>
	</linearGradient>
	<path id="XMLID_74_" class="st2" d="M-15.6-9.2c195.3,2,439.8,130.9,576.1,190.6c136.3,59.7,153.9,67.6,185.6,78.2
		c-13.5-13.7-63.5-62-66.3-67.3c-4.6-8.6-2.9-17,3.8-26.4c-19-6.7-40.1-14.5-63.3-23.6C391.8,52.8,225.4-34.1-13.8-20.8L-15.6-9.2z"
		/>
	
		<linearGradient id="XMLID_87_" gradientUnits="userSpaceOnUse" x1="194.4243" y1="39.2746" x2="670.2191" y2="271.3353" gradientTransform="matrix(0.9877 0.1564 -0.1564 0.9877 -0.9324 -65.6865)">
		<stop  offset="0" style="stop-color:#E63312"/>
		<stop  offset="0.2744" style="stop-color:#E43212"/>
		<stop  offset="0.4607" style="stop-color:#DD2F11"/>
		<stop  offset="0.6208" style="stop-color:#D2290F"/>
		<stop  offset="0.7661" style="stop-color:#C3220D"/>
		<stop  offset="0.9001" style="stop-color:#AF190A"/>
		<stop  offset="1" style="stop-color:#9C1006"/>
	</linearGradient>
	<path id="XMLID_73_" class="st3" d="M-17-0.5C7,4.2,104.4,27.2,226.4,81.2c165.7,73.2,332.6,178,507.3,243
		c19.5,7.2,31.3,10.8,36.4,11.8c17.3,3.3,31.3,5.3,36.9-2.3c0.6-0.9,1.4-1.9,2.1-3.1c1.8-4.8-5.4-13.7-8.3-17.8
		c-2.5-3.5-10.2-11.3-20-20.6c-12.2-11.5-21.8-20.3-34-31.8l-2.8-2.8c-34.5-11.2-46.9-17.8-183.3-77.5
		C424.4,120.3,179.9-8.5-15.4-10.6l0.8-4.9l0,0L-16-6.9l-0.2,1.3L-17-0.5z"/>
	
		<linearGradient id="XMLID_88_" gradientUnits="userSpaceOnUse" x1="769.0829" y1="116.4931" x2="1334.3306" y2="116.4931" gradientTransform="matrix(0.9877 0.1564 -0.1564 0.9877 -0.9324 -65.6865)">
		<stop  offset="0" style="stop-color:#C6C6C6"/>
		<stop  offset="1" style="stop-color:#FFFFFF"/>
	</linearGradient>
	<path id="XMLID_72_" class="st4" d="M875,175.4c-2.8-3.9-10.4-12.4-20.1-22.9c-6.8-7.3-13.6-14.4-20.6-21.5
		c-16.7-17.7-33.9-35.1-51.8-51.4C766,64.6,758.1,56.3,759,52.5l1.8-2.6c1.2-1.8,13.4-2.8,75.1,36.1s175.5,115.9,277.2,189.3
		c101.7,73.5,141.3,79.5,169.9,82l-1.8,11.6c-127,16.2-226-63.3-316.4-124c-37.9-25.4-71.1-46.7-78.3-51.3
		C883.5,187.4,879.1,181.1,875,175.4z"/>
	
		<linearGradient id="XMLID_89_" gradientUnits="userSpaceOnUse" x1="945.588" y1="110.3011" x2="1276.1042" y2="293.5092" gradientTransform="matrix(0.9877 0.1564 -0.1564 0.9877 -0.9324 -65.6865)">
		<stop  offset="0" style="stop-color:#8A1002"/>
		<stop  offset="1" style="stop-color:#E63312"/>
	</linearGradient>
	<path id="XMLID_71_" class="st5" d="M1281.4,367.6c-127,16.2-226-63.3-316.4-124c-37.9-25.4-72.3-47.4-79.6-52.1
		c4,7.8,5.9,15.2,2.4,20.4c-5.9,8.8-23.2,34.1-24.3,35.6l-5.3,8c14.3,8.4,41.8,24.3,86.6,49.5c92.1,51.9,227.2,110.7,335,73
		L1281.4,367.6z"/>
	
		<linearGradient id="XMLID_90_" gradientUnits="userSpaceOnUse" x1="721.3387" y1="34.0256" x2="940.6284" y2="155.5798" gradientTransform="matrix(0.9877 0.1564 -0.1564 0.9877 -0.9324 -65.6865)">
		<stop  offset="0" style="stop-color:#FFFFFF"/>
		<stop  offset="0.1665" style="stop-color:#F9F9F9"/>
		<stop  offset="0.4381" style="stop-color:#E7E7E7"/>
		<stop  offset="0.7789" style="stop-color:#C9C9C9"/>
		<stop  offset="1" style="stop-color:#B2B2B2"/>
	</linearGradient>
	<path id="XMLID_70_" class="st6" d="M731.3,93.6l-0.6,0.9l0,0L715,117.8c0,0,12.8,17.8,62.5,65.2c23.8,22.7,46.5,45.8,59.1,60.4
		c13.6,15.9,15,21.6,14.8,24.5c0.8-1.2,0.8-1.2,5-7.5l8.1-12.1c8-11.9,16.3-23.8,24.3-35.7c6.1-9.1-4.2-24.8-13.4-37.6
		c-9.2-12.9-68-73.5-92.3-95.8c-24.4-22.2-25.4-24.7-22.2-29.4c-0.3,0.3-0.3,0.4-0.8,1.2L731.3,93.6z"/>
	
		<linearGradient id="XMLID_91_" gradientUnits="userSpaceOnUse" x1="727.3893" y1="28.8926" x2="847.48" y2="87.4647" gradientTransform="matrix(0.9877 0.1564 -0.1564 0.9877 -0.9324 -65.6865)">
		<stop  offset="0" style="stop-color:#BCD0ED"/>
		<stop  offset="0.33" style="stop-color:#0071B8"/>
		<stop  offset="1" style="stop-color:#1D337E"/>
	</linearGradient>
	<path id="XMLID_69_" class="st7" d="M731.3,93.6l-0.6,0.9l0,0L715,117.8c0,0,12.3,17.1,59.7,62.5l45.3-65.2
		c-14.1-14.3-27.8-27.8-36.8-36c-24.4-22.2-25.4-24.7-22.2-29.4c-0.3,0.3-0.3,0.4-0.8,1.2L731.3,93.6z"/>
	
		<linearGradient id="XMLID_92_" gradientUnits="userSpaceOnUse" x1="684.0432" y1="112.528" x2="916.1144" y2="225.7167" gradientTransform="matrix(0.9877 0.1564 -0.1564 0.9877 -0.9324 -65.6865)">
		<stop  offset="0" style="stop-color:#FBCEB4"/>
		<stop  offset="0.3" style="stop-color:#E52A12"/>
		<stop  offset="1" style="stop-color:#B20F0B"/>
	</linearGradient>
	<path id="XMLID_68_" class="st8" d="M680.7,168.8c-5.1,6.5-5.9,16.9-2.2,24c3.7,7.1,45.4,48.5,70.1,71.5c24.7,23,45.2,42.1,48.9,47
		c3.7,4.9,13.7,16.4,9.1,22.8c2.8-3.7,33.8-49.9,45.5-67.2c0.2-2.8-1.1-8.5-14.8-24.5c-12.5-14.7-35.2-37.7-59.1-60.4
		c-49.7-47.4-62.5-65.3-62.5-65.3L680.7,168.8z"/>
	<polygon id="XMLID_67_" class="st9" points="777.9,99 773,113.7 784.1,124 770,122.9 765.1,137.6 761.2,122.1 747.1,121 
		758.9,112.6 755,97.1 766.1,107.4 	"/>
</g>
<g id="XMLID_77_" class="st0">
</g>
<g id="XMLID_78_" class="st0">
</g>
<g id="XMLID_79_" class="st0">
</g>
<g id="XMLID_80_" class="st0">
</g>
<g id="XMLID_81_" class="st0">
</g>
<g id="XMLID_82_" class="st0">
</g>
</svg>
