<?xml version="1.0" encoding="utf-8"?>
<!-- Generator: Adobe Illustrator 19.0.0, SVG Export Plug-In . SVG Version: 6.00 Build 0)  -->
<svg version="1.1" id="Capa_1" xmlns="http://www.w3.org/2000/svg" xmlns:xlink="http://www.w3.org/1999/xlink" x="0px" y="0px"
	 viewBox="0 0 302 152" style="enable-background:new 0 0 302 152;" xml:space="preserve">
<style type="text/css">
	.st0{clip-path:url(#XMLID_84_);}
	.st1{fill-rule:evenodd;clip-rule:evenodd;fill:url(#XMLID_85_);}
	.st2{fill-rule:evenodd;clip-rule:evenodd;fill:url(#XMLID_86_);}
	.st3{fill-rule:evenodd;clip-rule:evenodd;fill:url(#XMLID_87_);}
	.st4{fill:url(#XMLID_88_);}
	.st5{fill-rule:evenodd;clip-rule:evenodd;fill:url(#XMLID_89_);}
	.st6{fill-rule:evenodd;clip-rule:evenodd;fill:url(#XMLID_90_);}
	.st7{fill-rule:evenodd;clip-rule:evenodd;fill:url(#XMLID_91_);}
	.st8{fill-rule:evenodd;clip-rule:evenodd;fill:url(#XMLID_92_);}
	.st9{fill:#FFFFFF;}
</style>
<defs>
	<rect id="XMLID_76_" width="302" height="152"/>
</defs>
<clipPath id="XMLID_84_">
	<use xlink:href="#XMLID_76_"  style="overflow:visible;"/>
</clipPath>
<g id="XMLID_66_" class="st0">
	<radialGradient id="XMLID_85_" cx="154.0199" cy="95.5693" r="190.5233" gradientUnits="userSpaceOnUse">
		<stop  offset="0" style="stop-color:#E63312"/>
		<stop  offset="1" style="stop-color:#9C1006"/>
	</radialGradient>
	<path id="XMLID_75_" class="st1" d="M0,101.3L0,101.3v-0.8c52.8-11.4,92.9,2.1,146.9,13.9c5.4,1.2,10.4,2.2,14.8,3l3.2-6.8l5-10.7
		l0,0l5-10.7c0.1-0.2,0.1-0.2,0.1-0.3l0,0l0,0l0,0l0,0l0,0l0,0c0.3-0.5,2.9-1,17.9,5.4c15,6.4,43.1,19.6,68.4,32.4
		c25.2,12.8,34.3,12.7,40.7,12.3V-78.4H0V101.3z"/>
	<linearGradient id="XMLID_86_" gradientUnits="userSpaceOnUse" x1="-2.6848" y1="115.8508" x2="171.4622" y2="115.8508">
		<stop  offset="0" style="stop-color:#FFFFFF"/>
		<stop  offset="0.3042" style="stop-color:#FDFDFD"/>
		<stop  offset="0.5106" style="stop-color:#F7F7F7"/>
		<stop  offset="0.6881" style="stop-color:#ECECEB"/>
		<stop  offset="0.8482" style="stop-color:#DCDCDC"/>
		<stop  offset="0.997" style="stop-color:#C7C7C6"/>
		<stop  offset="1" style="stop-color:#C6C6C6"/>
	</linearGradient>
	<path id="XMLID_74_" class="st2" d="M0,102.8c43.5-6.4,102.5,13.6,135,22.1c32.5,8.5,36.6,9.6,44.1,10.9
		c-3.5-2.6-16.3-11.6-17.1-12.6c-1.3-1.8-1.2-3.7-0.1-6c-4.5-0.8-9.4-1.8-14.9-3C92.9,102.3,52.8,88.8,0,100.2V102.8z"/>
	<linearGradient id="XMLID_87_" gradientUnits="userSpaceOnUse" x1="45.0958" y1="98.5976" x2="152.3271" y2="150.8979">
		<stop  offset="0" style="stop-color:#E63312"/>
		<stop  offset="0.2744" style="stop-color:#E43212"/>
		<stop  offset="0.4607" style="stop-color:#DD2F11"/>
		<stop  offset="0.6208" style="stop-color:#D2290F"/>
		<stop  offset="0.7661" style="stop-color:#C3220D"/>
		<stop  offset="0.9001" style="stop-color:#AF190A"/>
		<stop  offset="1" style="stop-color:#9C1006"/>
	</linearGradient>
	<path id="XMLID_73_" class="st3" d="M0,104.8c5.5,0.2,28,1.9,57.1,9.6c39.5,10.5,80.3,27.9,121.5,36.2c4.6,0.9,7.3,1.3,8.5,1.3
		c4,0.1,7.1,0.1,8.1-1.8c0.1-0.2,0.2-0.5,0.4-0.8c0.2-1.1-1.7-2.9-2.5-3.7c-0.7-0.7-2.7-2.2-5.2-3.9c-3.1-2.1-5.6-3.7-8.7-5.9
		l-0.7-0.5c-8.1-1.3-11.1-2.3-43.5-10.8c-32.5-8.5-91.4-28.6-135-22.1v-1.1l0,0v2v0.3V104.8z"/>
	<linearGradient id="XMLID_88_" gradientUnits="userSpaceOnUse" x1="174.6084" y1="116.0006" x2="302" y2="116.0006">
		<stop  offset="0" style="stop-color:#C6C6C6"/>
		<stop  offset="1" style="stop-color:#FFFFFF"/>
	</linearGradient>
	<path id="XMLID_72_" class="st4" d="M204.8,112.5c-0.8-0.8-2.7-2.4-5.3-4.4c-1.8-1.4-3.5-2.7-5.3-4.1c-4.3-3.3-8.8-6.6-13.4-9.6
		c-4.2-2.7-6.2-4.3-6.2-5.2l0.3-0.7c0.2-0.5,2.9-1.1,18,5.4c15.1,6.5,43.1,19.6,68.4,32.4c25.2,12.8,34.3,12.7,40.7,12.3v2.7
		c-27.7,8.1-52.5-6.1-74.8-16.4c-9.3-4.3-17.5-7.9-19.2-8.7C207.1,114.9,205.9,113.7,204.8,112.5z"/>
	<linearGradient id="XMLID_89_" gradientUnits="userSpaceOnUse" x1="214.3879" y1="114.6051" x2="288.8773" y2="155.8953">
		<stop  offset="0" style="stop-color:#8A1002"/>
		<stop  offset="1" style="stop-color:#E63312"/>
	</linearGradient>
	<path id="XMLID_71_" class="st5" d="M302,141c-27.7,8.1-52.5-6.1-74.8-16.4c-9.3-4.3-17.8-8-19.6-8.8c1.2,1.6,1.8,3.2,1.2,4.4
		c-1,2.2-4,8.4-4.2,8.8l-0.9,2c3.5,1.4,10.2,3.9,21,8c22.3,8.3,54.5,16.6,77.1,4.4V141z"/>
	<linearGradient id="XMLID_90_" gradientUnits="userSpaceOnUse" x1="163.8481" y1="97.4146" x2="213.2701" y2="124.8097">
		<stop  offset="0" style="stop-color:#FFFFFF"/>
		<stop  offset="0.1665" style="stop-color:#F9F9F9"/>
		<stop  offset="0.4381" style="stop-color:#E7E7E7"/>
		<stop  offset="0.7789" style="stop-color:#C9C9C9"/>
		<stop  offset="1" style="stop-color:#B2B2B2"/>
	</linearGradient>
	<path id="XMLID_70_" class="st6" d="M169.9,99.4l-0.1,0.2l0,0l-2.7,5.7c0,0,3.5,3.5,16.2,12.3c6.1,4.2,12,8.5,15.3,11.4
		c3.6,3.1,4.1,4.3,4.1,4.9c0.1-0.3,0.1-0.3,0.9-1.8l1.4-3c1.4-2.9,2.8-5.9,4.2-8.8c1-2.2-1.8-5.4-4.3-7.9
		c-2.5-2.5-17.7-14-23.9-18.1c-6.2-4.1-6.5-4.6-6-5.8c0,0.1-0.1,0.1-0.1,0.3L169.9,99.4z"/>
	<linearGradient id="XMLID_91_" gradientUnits="userSpaceOnUse" x1="165.2117" y1="96.2578" x2="192.2769" y2="109.4584">
		<stop  offset="0" style="stop-color:#BCD0ED"/>
		<stop  offset="0.33" style="stop-color:#0071B8"/>
		<stop  offset="1" style="stop-color:#1D337E"/>
	</linearGradient>
	<path id="XMLID_69_" class="st7" d="M169.9,99.4l-0.1,0.2l0,0l-2.7,5.7c0,0,3.3,3.4,15.5,11.8l7.8-16.1c-3.7-2.7-7.2-5.2-9.5-6.7
		c-6.2-4.1-6.5-4.6-6-5.8c0,0.1-0.1,0.1-0.1,0.3L169.9,99.4z"/>
	<linearGradient id="XMLID_92_" gradientUnits="userSpaceOnUse" x1="155.4427" y1="115.107" x2="207.7453" y2="140.6167">
		<stop  offset="0" style="stop-color:#FBCEB4"/>
		<stop  offset="0.3" style="stop-color:#E52A12"/>
		<stop  offset="1" style="stop-color:#B20F0B"/>
	</linearGradient>
	<path id="XMLID_68_" class="st8" d="M161.3,117.9c-0.9,1.6-0.7,4,0.4,5.4c1.1,1.4,11.8,9.2,18.1,13.4c6.3,4.2,11.5,7.8,12.5,8.7
		c1,1,3.6,3.2,2.8,4.8c0.5-0.9,5.8-12.3,7.7-16.6c0-0.6-0.5-1.9-4.1-4.9c-3.3-2.8-9.2-7.2-15.3-11.4c-12.7-8.8-16.2-12.3-16.2-12.3
		L161.3,117.9z"/>
	<polygon id="XMLID_67_" class="st9" points="180.4,98.9 179.9,102.4 182.7,104.3 179.5,104.5 179,108 177.6,104.7 174.4,104.9 
		176.7,102.6 175.3,99.3 178.1,101.2 	"/>
</g>
<g id="XMLID_77_" class="st0">
</g>
<g id="XMLID_78_" class="st0">
</g>
<g id="XMLID_79_" class="st0">
</g>
<g id="XMLID_80_" class="st0">
</g>
<g id="XMLID_81_" class="st0">
</g>
<g id="XMLID_82_" class="st0">
</g>
</svg>
