<?xml version="1.0" encoding="iso-8859-1"?>
<!-- Generator: Adobe Illustrator 19.0.0, SVG Export Plug-In . SVG Version: 6.00 Build 0)  -->
<svg version="1.1" id="Capa_1" xmlns="http://www.w3.org/2000/svg" xmlns:xlink="http://www.w3.org/1999/xlink" x="0px" y="0px"
	 viewBox="0 0 600 600" style="enable-background:new 0 0 600 600;" xml:space="preserve">
<g>
	<path id="XMLID_54_" style="fill:#010202;" d="M600,513.88c0,47.232-38.188,85.543-85.286,85.543H85.286
		C38.163,599.423,0,561.111,0,513.88V88.474C0,41.23,38.163,2.928,85.286,2.928h429.427C561.812,2.928,600,41.23,600,88.474V513.88z
		"/>
	<g id="XMLID_100_">
		<path id="XMLID_41_" style="fill:#231F20;" d="M595.323,503.778c0,47.982-37.992,86.884-84.866,86.884H89.542
			c-46.873,0-84.868-38.901-84.868-86.884V86.899C4.674,38.917,42.669,0,89.542,0h420.916c46.874,0,84.866,38.917,84.866,86.899
			V503.778z"/>
		<linearGradient id="XMLID_102_" gradientUnits="userSpaceOnUse" x1="299.9988" y1="-3.9137" x2="299.9988" y2="597.6295">
			<stop  offset="0" style="stop-color:#2D292A"/>
			<stop  offset="0.067" style="stop-color:#282425"/>
			<stop  offset="1" style="stop-color:#231F20"/>
		</linearGradient>
		<path id="XMLID_51_" style="fill:url(#XMLID_102_);" d="M594.317,501.13c0,47.805-37.956,86.562-84.781,86.562H90.462
			c-46.824,0-84.781-38.757-84.781-86.562V87.636c0-47.804,37.956-86.575,84.781-86.575h419.075
			c46.825,0,84.781,38.771,84.781,86.575V501.13z"/>
		<linearGradient id="XMLID_103_" gradientUnits="userSpaceOnUse" x1="299.999" y1="-2.8192" x2="299.999" y2="594.5905">
			<stop  offset="0" style="stop-color:#373335"/>
			<stop  offset="0.067" style="stop-color:#2D292B"/>
			<stop  offset="1" style="stop-color:#231F20"/>
		</linearGradient>
		<path id="XMLID_50_" style="fill:url(#XMLID_103_);" d="M593.31,498.481c0,47.627-37.92,86.24-84.696,86.24H91.381
			c-46.775,0-84.693-38.613-84.693-86.24V88.373c0-47.626,37.918-86.252,84.693-86.252h417.234
			c46.776,0,84.696,38.626,84.696,86.252V498.481z"/>
		<linearGradient id="XMLID_104_" gradientUnits="userSpaceOnUse" x1="299.9991" y1="-1.7247" x2="299.9991" y2="591.5515">
			<stop  offset="0" style="stop-color:#423E40"/>
			<stop  offset="0.067" style="stop-color:#312E30"/>
			<stop  offset="1" style="stop-color:#231F20"/>
		</linearGradient>
		<path id="XMLID_49_" style="fill:url(#XMLID_104_);" d="M592.304,495.832c0,47.449-37.885,85.918-84.611,85.918H92.3
			c-46.726,0-84.606-38.469-84.606-85.918V89.11c0-47.448,37.88-85.929,84.606-85.929h415.392c46.727,0,84.611,38.48,84.611,85.929
			V495.832z"/>
		<linearGradient id="XMLID_105_" gradientUnits="userSpaceOnUse" x1="299.9992" y1="-0.6302" x2="299.9992" y2="588.5125">
			<stop  offset="0" style="stop-color:#4D494B"/>
			<stop  offset="0.067" style="stop-color:#363435"/>
			<stop  offset="1" style="stop-color:#231F20"/>
		</linearGradient>
		<path id="XMLID_48_" style="fill:url(#XMLID_105_);" d="M591.297,493.184c0,47.271-37.849,85.596-84.526,85.596H93.22
			c-46.677,0-84.519-38.324-84.519-85.596V89.846c0-47.27,37.842-85.605,84.519-85.605h413.551
			c46.678,0,84.526,38.335,84.526,85.605V493.184z"/>
		<linearGradient id="XMLID_106_" gradientUnits="userSpaceOnUse" x1="299.9993" y1="0.4643" x2="299.9993" y2="585.4734">
			<stop  offset="0" style="stop-color:#595557"/>
			<stop  offset="0.067" style="stop-color:#3B393B"/>
			<stop  offset="1" style="stop-color:#231F20"/>
		</linearGradient>
		<path id="XMLID_47_" style="fill:url(#XMLID_106_);" d="M590.291,490.535c0,47.094-37.813,85.273-84.442,85.273H94.139
			c-46.628,0-84.432-38.18-84.432-85.273V90.583c0-47.092,37.803-85.282,84.432-85.282h411.71c46.628,0,84.442,38.189,84.442,85.282
			V490.535z"/>
		<linearGradient id="XMLID_107_" gradientUnits="userSpaceOnUse" x1="299.9994" y1="1.5588" x2="299.9994" y2="582.4344">
			<stop  offset="0" style="stop-color:#656164"/>
			<stop  offset="0.067" style="stop-color:#403E40"/>
			<stop  offset="1" style="stop-color:#231F20"/>
		</linearGradient>
		<path id="XMLID_46_" style="fill:url(#XMLID_107_);" d="M589.284,487.886c0,46.916-37.777,84.951-84.357,84.951H95.059
			c-46.579,0-84.344-38.036-84.344-84.951V91.32c0-46.914,37.765-84.958,84.344-84.958h409.869
			c46.579,0,84.357,38.044,84.357,84.958V487.886z"/>
		<linearGradient id="XMLID_108_" gradientUnits="userSpaceOnUse" x1="299.9995" y1="2.6533" x2="299.9995" y2="579.3955">
			<stop  offset="0" style="stop-color:#716E71"/>
			<stop  offset="0.067" style="stop-color:#454345"/>
			<stop  offset="1" style="stop-color:#231F20"/>
		</linearGradient>
		<path id="XMLID_45_" style="fill:url(#XMLID_108_);" d="M588.278,485.238c0,46.738-37.742,84.629-84.272,84.629H95.978
			c-46.53,0-84.257-37.891-84.257-84.629V92.057c0-46.736,37.727-84.635,84.257-84.635h408.028c46.53,0,84.272,37.898,84.272,84.635
			V485.238z"/>
		<linearGradient id="XMLID_109_" gradientUnits="userSpaceOnUse" x1="299.9997" y1="3.7478" x2="299.9997" y2="576.3565">
			<stop  offset="0" style="stop-color:#7E7C7E"/>
			<stop  offset="0.067" style="stop-color:#4A494B"/>
			<stop  offset="1" style="stop-color:#231F20"/>
		</linearGradient>
		<path id="XMLID_44_" style="fill:url(#XMLID_109_);" d="M587.271,482.589c0,46.56-37.706,84.307-84.187,84.307H96.898
			c-46.481,0-84.17-37.747-84.17-84.307V92.794c0-46.559,37.688-84.311,84.17-84.311h406.187c46.481,0,84.187,37.753,84.187,84.311
			V482.589z"/>
		<linearGradient id="XMLID_110_" gradientUnits="userSpaceOnUse" x1="299.9998" y1="4.8424" x2="299.9998" y2="573.3175">
			<stop  offset="0" style="stop-color:#8B8B8D"/>
			<stop  offset="0.067" style="stop-color:#4F4E50"/>
			<stop  offset="1" style="stop-color:#231F20"/>
		</linearGradient>
		<path id="XMLID_43_" style="fill:url(#XMLID_110_);" d="M586.265,479.94c0,46.383-37.67,83.985-84.102,83.985H97.817
			c-46.432,0-84.083-37.603-84.083-83.985V93.531c0-46.381,37.65-83.988,84.083-83.988h404.345
			c46.432,0,84.102,37.607,84.102,83.988V479.94z"/>
		<linearGradient id="XMLID_111_" gradientUnits="userSpaceOnUse" x1="299.9999" y1="5.9369" x2="299.9999" y2="570.2785">
			<stop  offset="0" style="stop-color:#99999C"/>
			<stop  offset="0.067" style="stop-color:#545456"/>
			<stop  offset="1" style="stop-color:#231F20"/>
		</linearGradient>
		<path id="XMLID_42_" style="fill:url(#XMLID_111_);" d="M585.258,477.292c0,46.205-37.635,83.663-84.018,83.663H98.737
			c-46.383,0-83.995-37.458-83.995-83.663V94.268c0-46.203,37.612-83.665,83.995-83.665h402.504
			c46.383,0,84.018,37.462,84.018,83.665V477.292z"/>
		<linearGradient id="XMLID_112_" gradientUnits="userSpaceOnUse" x1="300" y1="7.0314" x2="300" y2="567.2395">
			<stop  offset="0" style="stop-color:#A7A9AC"/>
			<stop  offset="0.067" style="stop-color:#595A5C"/>
			<stop  offset="1" style="stop-color:#231F20"/>
		</linearGradient>
		<path id="XMLID_40_" style="fill:url(#XMLID_112_);" d="M584.252,474.643c0,46.027-37.599,83.341-83.933,83.341H99.656
			c-46.334,0-83.908-37.314-83.908-83.341V95.005c0-46.025,37.574-83.341,83.908-83.341h400.663
			c46.334,0,83.933,37.317,83.933,83.341V474.643z"/>
	</g>
	<g id="XMLID_1980_">
		<path id="XMLID_1995_" style="fill:#FBB906;" d="M145.609,198.778c0,4.182-0.836,11.707-2.3,16.726
			c-0.416,1.254-1.254,3.347-1.254,4.181c0,0.626,0.629,1.047,1.046,1.047c1.044,0,2.718-1.675,4.18-2.929
			c8.57-7.736,17.143-15.261,23.418-24.878c0.624-1.043,1.253-2.506,1.253-4.18c0-1.464-1.883-2.718-6.273-3.556
			c-10.454-2.297-24.252-4.597-27.807-4.597c-1.671,0-2.508,0.417-2.508,1.671c0,1.254,1.254,1.464,2.926,2.301
			C140.801,185.818,145.609,189.165,145.609,198.778L145.609,198.778z"/>
		<path id="XMLID_1994_" style="fill:#FBB906;" d="M194.39,198.778c0,4.182-0.836,11.707-2.3,16.726
			c-0.418,1.254-1.254,3.347-1.254,4.181c0,0.626,0.629,1.047,1.046,1.047c1.043,0,2.718-1.675,4.179-2.929
			c8.571-7.736,17.143-15.261,23.418-24.878c0.625-1.043,1.254-2.506,1.254-4.18c0-1.464-1.883-2.718-6.272-3.556
			c-10.454-2.297-24.252-4.597-27.807-4.597c-1.671,0-2.508,0.417-2.508,1.671c0,1.254,1.254,1.464,2.925,2.301
			C189.582,185.818,194.39,189.165,194.39,198.778L194.39,198.778z"/>
		<path id="XMLID_1993_" style="fill:#FBB906;" d="M243.171,198.778c0,4.182-0.836,11.707-2.3,16.726
			c-0.418,1.254-1.254,3.347-1.254,4.181c0,0.626,0.629,1.047,1.046,1.047c1.042,0,2.718-1.675,4.179-2.929
			c8.571-7.736,17.144-15.261,23.418-24.878c0.625-1.043,1.253-2.506,1.253-4.18c0-1.464-1.881-2.718-6.271-3.556
			c-10.454-2.297-24.253-4.597-27.807-4.597c-1.671,0-2.507,0.417-2.507,1.671c0,1.254,1.253,1.464,2.925,2.301
			C238.363,185.818,243.171,189.165,243.171,198.778L243.171,198.778z"/>
		<path id="XMLID_1992_" style="fill:#FBB906;" d="M291.951,198.778c0,4.182-0.836,11.707-2.3,16.726
			c-0.418,1.254-1.254,3.347-1.254,4.181c0,0.626,0.629,1.047,1.047,1.047c1.043,0,2.717-1.675,4.178-2.929
			c8.572-7.736,17.142-15.261,23.418-24.878c0.625-1.043,1.253-2.506,1.253-4.18c0-1.464-1.881-2.718-6.27-3.556
			c-10.454-2.297-24.255-4.597-27.807-4.597c-1.672,0-2.508,0.417-2.508,1.671c0,1.254,1.254,1.464,2.925,2.301
			C287.144,185.818,291.951,189.165,291.951,198.778L291.951,198.778z"/>
		<path id="XMLID_1991_" style="fill:#FBB906;" d="M340.731,198.778c0,4.182-0.834,11.707-2.299,16.726
			c-0.417,1.254-1.254,3.347-1.254,4.181c0,0.626,0.629,1.047,1.046,1.047c1.043,0,2.718-1.675,4.179-2.929
			c8.572-7.736,17.142-15.261,23.418-24.878c0.625-1.043,1.253-2.506,1.253-4.18c0-1.464-1.881-2.718-6.271-3.556
			c-10.453-2.297-24.254-4.597-27.807-4.597c-1.671,0-2.508,0.417-2.508,1.671c0,1.254,1.254,1.464,2.926,2.301
			C335.925,185.818,340.731,189.165,340.731,198.778L340.731,198.778z"/>
		<path id="XMLID_1990_" style="fill:#FBB906;" d="M389.512,198.778c0,4.182-0.834,11.707-2.3,16.726
			c-0.418,1.254-1.253,3.347-1.253,4.181c0,0.626,0.627,1.047,1.044,1.047c1.044,0,2.719-1.675,4.18-2.929
			c8.572-7.736,17.143-15.261,23.417-24.878c0.625-1.043,1.254-2.506,1.254-4.18c0-1.464-1.881-2.718-6.272-3.556
			c-10.454-2.297-24.252-4.597-27.807-4.597c-1.671,0-2.508,0.417-2.508,1.671c0,1.254,1.254,1.464,2.927,2.301
			C384.706,185.818,389.512,189.165,389.512,198.778L389.512,198.778z"/>
		<path id="XMLID_1989_" style="fill:#FBB906;" d="M438.293,198.778c0,4.182-0.835,11.707-2.3,16.726
			c-0.418,1.254-1.253,3.347-1.253,4.181c0,0.626,0.628,1.047,1.045,1.047c1.044,0,2.72-1.675,4.179-2.929
			c8.572-7.736,17.143-15.261,23.418-24.878c0.625-1.043,1.254-2.506,1.254-4.18c0-1.464-1.883-2.718-6.272-3.556
			c-10.454-2.297-24.253-4.597-27.807-4.597c-1.671,0-2.508,0.417-2.508,1.671c0,1.254,1.254,1.464,2.927,2.301
			C433.485,185.818,438.293,189.165,438.293,198.778L438.293,198.778z"/>
		<path id="XMLID_1984_" style="fill-rule:evenodd;clip-rule:evenodd;fill:#CBCBCB;" d="M489.502,486.871
			c2.128,0,4.207,0.55,6.234,1.647c2.028,1.087,3.608,2.649,4.74,4.688c1.131,2.028,1.697,4.146,1.697,6.352
			c0,2.186-0.56,4.286-1.681,6.303c-1.109,2.017-2.672,3.585-4.687,4.705c-2.006,1.11-4.108,1.663-6.303,1.663
			c-2.197,0-4.303-0.554-6.318-1.663c-2.007-1.12-3.569-2.688-4.69-4.705c-1.121-2.017-1.681-4.117-1.681-6.303
			c0-2.206,0.566-4.324,1.698-6.352c1.143-2.039,2.727-3.601,4.756-4.688C485.294,487.421,487.373,486.871,489.502,486.871
			L489.502,486.871z M489.502,488.972c-1.782,0-3.519,0.458-5.21,1.378c-1.681,0.908-2.998,2.213-3.949,3.915
			c-0.952,1.692-1.429,3.457-1.429,5.293c0,1.827,0.464,3.58,1.395,5.261c0.94,1.67,2.252,2.975,3.932,3.915
			c1.681,0.931,3.434,1.395,5.261,1.395c1.826,0,3.58-0.465,5.259-1.395c1.681-0.941,2.986-2.246,3.916-3.915
			c0.929-1.681,1.395-3.433,1.395-5.261c0-1.836-0.476-3.601-1.429-5.293c-0.941-1.702-2.257-3.007-3.949-3.915
			C493.003,489.43,491.272,488.972,489.502,488.972L489.502,488.972z M483.939,506.566v-13.645h4.689
			c1.603,0,2.762,0.129,3.48,0.386c0.715,0.248,1.287,0.685,1.713,1.311c0.425,0.628,0.639,1.294,0.639,1.999
			c0,0.998-0.359,1.866-1.076,2.605c-0.705,0.74-1.646,1.154-2.823,1.244c0.483,0.202,0.868,0.442,1.159,0.723
			c0.55,0.539,1.221,1.439,2.018,2.706l1.664,2.672h-2.688l-1.211-2.151c-0.952-1.692-1.72-2.751-2.301-3.177
			c-0.404-0.313-0.992-0.47-1.766-0.471h-1.293v5.798H483.939L483.939,506.566z M486.141,498.887h2.671
			c1.277,0,2.146-0.19,2.607-0.571c0.47-0.381,0.705-0.886,0.705-1.513c0-0.403-0.112-0.762-0.337-1.076
			c-0.224-0.324-0.538-0.565-0.941-0.723c-0.392-0.155-1.126-0.234-2.201-0.236h-2.504V498.887L486.141,498.887z"/>
		<path id="XMLID_1981_" style="fill:#FFFFFF;" d="M68.291,299.999c0,107.782,73.587,198.373,173.261,224.276
			c2.229-2.896,5.73-4.761,9.667-4.761c20.205,0,39.635-16.38,39.635-36.586v-52.094c-81.618-4.733-146.342-72.42-146.342-155.223
			v-24.391c-0.357-5.177-6.828-9.697-7.898-9.697c-0.716,0-1.25-0.714-1.25-1.246c0-0.894,0.714-1.25,2.497-1.25
			c5.042,0,14.48,0.338,15.795,0.356c1.316-0.018,10.755-0.356,15.797-0.356c1.784,0,2.498,0.356,2.498,1.25
			c0,0.532-0.536,1.246-1.25,1.246c-1.072,0-7.541,4.521-7.898,9.697v24.391c0,72.699,56.543,132.19,128.051,136.896v-30.575
			c-54.653-4.638-97.563-50.468-97.563-106.32v-24.391c-0.356-5.177-6.826-9.697-7.896-9.697c-0.715,0-1.25-0.714-1.25-1.246
			c0-0.894,0.714-1.25,2.498-1.25c5.042,0,14.48,0.338,15.795,0.356c1.316-0.018,10.756-0.356,15.797-0.356
			c1.784,0,2.495,0.356,2.495,1.25c0,0.532-0.532,1.246-1.249,1.246c-1.071,0-7.541,4.521-7.898,9.697v24.391
			c0,45.743,34.735,83.372,79.27,87.948v-30.739c-27.646-4.385-48.782-28.329-48.782-57.208v-24.391
			c-0.356-5.177-6.826-9.697-7.896-9.697c-0.717,0-1.25-0.714-1.25-1.246c0-0.894,0.714-1.25,2.498-1.25
			c5.039,0,14.479,0.338,15.794,0.356c1.317-0.018,10.755-0.356,15.797-0.356c1.784,0,2.496,0.356,2.496,1.25
			c0,0.532-0.534,1.246-1.249,1.246c-1.071,0-7.542,4.521-7.898,9.697v24.391c0,18.742,13.008,34.444,30.489,38.574v-38.574v-24.391
			c-0.357-5.177-6.826-9.697-7.897-9.697c-0.716,0-1.249-0.714-1.249-1.246c0-0.894,0.713-1.25,2.497-1.25
			c5.04,0,14.481,0.338,15.796,0.356c1.316-0.018,10.754-0.356,15.795-0.356c1.785,0,2.497,0.356,2.497,1.25
			c0,0.532-0.534,1.246-1.25,1.246c-1.07,0-7.54,4.521-7.896,9.697v24.391v38.574c17.48-4.13,30.488-19.833,30.488-38.574v-24.391
			c-0.357-5.177-6.826-9.697-7.896-9.697c-0.716,0-1.25-0.714-1.25-1.246c0-0.894,0.712-1.25,2.497-1.25
			c5.04,0,14.479,0.338,15.797,0.356c1.315-0.018,10.754-0.356,15.794-0.356c1.785,0,2.498,0.356,2.498,1.25
			c0,0.532-0.534,1.246-1.25,1.246c-1.07,0-7.541,4.521-7.896,9.697v24.391c0,28.879-21.134,52.823-48.782,57.208v30.739
			c44.533-4.577,79.269-42.205,79.269-87.948v-24.391c-0.358-5.177-6.826-9.697-7.898-9.697c-0.715,0-1.25-0.714-1.25-1.246
			c0-0.894,0.714-1.25,2.497-1.25c5.042,0,14.48,0.338,15.797,0.356c1.315-0.018,10.754-0.356,15.796-0.356
			c1.784,0,2.497,0.356,2.497,1.25c0,0.532-0.534,1.246-1.249,1.246c-1.071,0-7.54,4.521-7.898,9.697v24.391
			c0,55.852-42.908,101.682-97.561,106.32v30.575c71.507-4.706,128.05-64.198,128.05-136.896v-24.391
			c-0.357-5.177-6.828-9.697-7.898-9.697c-0.715,0-1.25-0.714-1.25-1.246c0-0.894,0.714-1.25,2.498-1.25
			c5.042,0,14.48,0.338,15.796,0.356c1.315-0.018,10.755-0.356,15.797-0.356c1.782,0,2.496,0.356,2.496,1.25
			c0,0.532-0.534,1.246-1.25,1.246c-1.07,0-7.54,4.521-7.898,9.697v24.391c0,82.803-64.724,150.488-146.342,155.223v52.094
			c0,20.206,19.428,36.586,39.633,36.586c3.938,0,7.438,1.865,9.668,4.76c99.674-25.903,173.26-116.494,173.26-224.275
			C531.709,172.03,427.97,68.292,300,68.292C172.029,68.292,68.291,172.03,68.291,299.999L68.291,299.999z M50,299.999
			C50,161.928,161.927,50,300.001,50C438.073,50,550,161.928,550,299.999C550,438.072,438.073,550,300.001,550
			C161.927,550,50,438.072,50,299.999L50,299.999z"/>
	</g>
</g>
<g id="XMLID_94_">
</g>
<g id="XMLID_95_">
</g>
<g id="XMLID_96_">
</g>
<g id="XMLID_97_">
</g>
<g id="XMLID_98_">
</g>
<g id="XMLID_99_">
</g>
</svg>
