<?xml version="1.0" encoding="iso-8859-1"?>
<!-- Generator: Adobe Illustrator 19.0.0, SVG Export Plug-In . SVG Version: 6.00 Build 0)  -->
<svg version="1.1" id="Capa_1" xmlns="http://www.w3.org/2000/svg" xmlns:xlink="http://www.w3.org/1999/xlink" x="0px" y="0px"
	 viewBox="0 0 170 152" style="enable-background:new 0 0 170 152;" xml:space="preserve">
<g id="XMLID_1579_">
	<path id="XMLID_1564_" style="display:none;fill:#064A9B;" d="M23.485,143.741v-16.573h1.411v16.455
		c0,1.718-0.299,2.976-0.902,3.764c-0.598,0.788-1.549,1.185-2.85,1.185c-0.049,0-0.129-0.004-0.238-0.012
		c-0.109-0.008-0.194-0.012-0.247-0.012l-0.239-1.266c0.073,0.008,0.154,0.016,0.247,0.02c0.097,0.004,0.226,0.004,0.392,0.004
		c0.898,0,1.528-0.259,1.888-0.776C23.307,146.014,23.485,145.084,23.485,143.741L23.485,143.741z M37.377,142.533
		c-0.712,0.493-1.403,0.853-2.082,1.092c-0.679,0.238-1.379,0.356-2.098,0.356c-1.633,0-2.947-0.538-3.938-1.613
		c-0.991-1.071-1.488-2.499-1.488-4.274c0-1.662,0.469-2.992,1.403-3.999c0.938-1.007,2.167-1.512,3.691-1.512
		c1.415,0,2.555,0.477,3.425,1.435c0.869,0.954,1.302,2.224,1.302,3.801v0.049h-8.543v0.129c0,1.431,0.384,2.588,1.148,3.473
		c0.768,0.885,1.759,1.326,2.976,1.326c0.728,0,1.423-0.129,2.098-0.384c0.671-0.259,1.371-0.663,2.106-1.217V142.533
		L37.377,142.533z M29.202,136.824h6.954c-0.125-0.962-0.501-1.739-1.124-2.321c-0.627-0.586-1.379-0.877-2.264-0.877
		c-0.91,0-1.694,0.295-2.357,0.889C29.748,135.105,29.343,135.878,29.202,136.824L29.202,136.824z M39.342,141.752
		c0.554,0.372,1.096,0.647,1.633,0.825c0.538,0.178,1.084,0.267,1.633,0.267c0.703,0,1.257-0.166,1.662-0.497
		c0.4-0.332,0.602-0.788,0.602-1.363c0-0.845-0.736-1.536-2.203-2.074c-0.38-0.141-0.675-0.255-0.89-0.332
		c-0.805-0.315-1.407-0.728-1.811-1.229c-0.4-0.501-0.602-1.096-0.602-1.783c0-0.881,0.323-1.605,0.966-2.167
		c0.643-0.562,1.48-0.841,2.503-0.841c0.469,0,0.946,0.077,1.439,0.226c0.493,0.15,1.007,0.38,1.536,0.695v1.257
		c-0.554-0.356-1.084-0.623-1.589-0.801c-0.505-0.178-0.995-0.267-1.468-0.267c-0.647,0-1.181,0.174-1.601,0.526
		c-0.416,0.352-0.627,0.801-0.627,1.346c0,0.481,0.19,0.889,0.574,1.217c0.384,0.328,1.096,0.671,2.139,1.035
		c1.104,0.388,1.864,0.809,2.276,1.261c0.408,0.457,0.615,1.055,0.615,1.795c0,0.974-0.323,1.738-0.966,2.292
		c-0.643,0.558-1.528,0.837-2.648,0.837c-0.57,0-1.112-0.081-1.629-0.239c-0.517-0.158-1.031-0.396-1.544-0.72V141.752
		L39.342,141.752z M56.008,142.051c-0.522,0.639-1.096,1.116-1.722,1.431c-0.627,0.315-1.318,0.473-2.066,0.473
		c-1.241,0-2.195-0.384-2.867-1.148c-0.671-0.768-1.007-1.86-1.007-3.283v-6.728h1.209v6.137c0,1.318,0.23,2.301,0.691,2.943
		c0.465,0.643,1.164,0.966,2.102,0.966c0.76,0,1.443-0.19,2.054-0.57c0.615-0.376,1.148-0.946,1.605-1.706v-7.771h1.209v10.945
		h-1.209V142.051L56.008,142.051z M52.316,131.244h-1.092l2.478-4.124h1.799L52.316,131.244L52.316,131.244z M59.501,141.752
		c0.554,0.372,1.096,0.647,1.633,0.825c0.538,0.178,1.084,0.267,1.633,0.267c0.703,0,1.257-0.166,1.662-0.497
		c0.4-0.332,0.602-0.788,0.602-1.363c0-0.845-0.736-1.536-2.203-2.074c-0.38-0.141-0.675-0.255-0.89-0.332
		c-0.805-0.315-1.407-0.728-1.811-1.229c-0.4-0.501-0.602-1.096-0.602-1.783c0-0.881,0.323-1.605,0.966-2.167
		c0.643-0.562,1.48-0.841,2.503-0.841c0.469,0,0.946,0.077,1.439,0.226c0.493,0.15,1.007,0.38,1.536,0.695v1.257
		c-0.554-0.356-1.084-0.623-1.589-0.801c-0.505-0.178-0.995-0.267-1.468-0.267c-0.647,0-1.181,0.174-1.601,0.526
		c-0.416,0.352-0.627,0.801-0.627,1.346c0,0.481,0.19,0.889,0.574,1.217c0.384,0.328,1.096,0.671,2.139,1.035
		c1.104,0.388,1.864,0.809,2.276,1.261c0.408,0.457,0.615,1.055,0.615,1.795c0,0.974-0.323,1.738-0.966,2.292
		c-0.643,0.558-1.528,0.837-2.648,0.837c-0.57,0-1.112-0.081-1.629-0.239c-0.517-0.158-1.031-0.396-1.544-0.72V141.752z"/>
	<path id="XMLID_1543_" style="display:none;fill:#064A9B;" d="M77.761,143.171c-0.481,0.333-0.948,0.577-1.407,0.738
		c-0.459,0.161-0.932,0.24-1.418,0.24c-1.104,0-1.992-0.363-2.661-1.09c-0.669-0.724-1.005-1.689-1.005-2.888
		c0-1.123,0.317-2.022,0.948-2.702c0.634-0.68,1.465-1.022,2.495-1.022c0.956,0,1.727,0.322,2.314,0.97
		c0.587,0.645,0.88,1.503,0.88,2.568v0.033h-5.773v0.087c0,0.967,0.26,1.749,0.776,2.347c0.519,0.598,1.189,0.896,2.011,0.896
		c0.492,0,0.962-0.087,1.418-0.26c0.454-0.175,0.926-0.448,1.424-0.822V143.171L77.761,143.171z M72.237,139.313h4.7
		c-0.085-0.65-0.339-1.175-0.76-1.568c-0.423-0.396-0.932-0.593-1.53-0.593c-0.615,0-1.145,0.199-1.593,0.601
		C72.605,138.151,72.332,138.673,72.237,139.313L72.237,139.313z M79.513,143.988v-7.396h0.817v1.183
		c0.358-0.443,0.749-0.771,1.172-0.986c0.424-0.216,0.888-0.325,1.388-0.325c0.839,0,1.484,0.262,1.937,0.784
		c0.454,0.522,0.68,1.268,0.68,2.232v4.508h-0.817v-4.115c0-0.891-0.156-1.557-0.467-1.997c-0.314-0.44-0.784-0.661-1.413-0.661
		c-0.514,0-0.975,0.131-1.388,0.393c-0.415,0.26-0.779,0.65-1.093,1.167v5.213H79.513L79.513,143.988z M91.642,143.988v-11.2h0.842
		v11.2H91.642L91.642,143.988z M98.268,142.499v-2.312c-1.066,0.016-1.91,0.208-2.527,0.577c-0.62,0.369-0.929,0.852-0.929,1.456
		c0,0.38,0.128,0.678,0.385,0.896c0.254,0.219,0.607,0.328,1.055,0.328c0.303,0,0.62-0.076,0.945-0.227
		C97.522,143.064,97.877,142.827,98.268,142.499L98.268,142.499z M98.284,143.269c-0.413,0.314-0.795,0.538-1.148,0.675
		c-0.355,0.137-0.73,0.205-1.117,0.205c-0.609,0-1.101-0.175-1.481-0.527c-0.38-0.352-0.568-0.809-0.568-1.369
		c0-0.817,0.369-1.459,1.109-1.929c0.738-0.47,1.801-0.735,3.189-0.792v-0.784c0-0.557-0.131-0.962-0.396-1.216
		c-0.265-0.254-0.683-0.38-1.26-0.38c-0.358,0-0.719,0.071-1.082,0.216c-0.361,0.145-0.757,0.374-1.183,0.689v-0.809
		c0.415-0.279,0.814-0.484,1.197-0.618c0.38-0.134,0.76-0.199,1.131-0.199c0.85,0,1.462,0.197,1.842,0.59
		c0.38,0.391,0.568,1.03,0.568,1.918v3.874c0,0.158,0.022,0.279,0.063,0.355c0.044,0.076,0.109,0.115,0.202,0.115
		c0.126,0,0.347-0.137,0.664-0.415c0.074-0.068,0.128-0.12,0.167-0.153l0.008,0.746c-0.24,0.224-0.462,0.393-0.664,0.506
		c-0.202,0.112-0.383,0.167-0.536,0.167c-0.235,0-0.407-0.068-0.516-0.205C98.363,143.794,98.3,143.572,98.284,143.269z"/>
	<path id="XMLID_1515_" style="display:none;fill:#064A9B;" d="M106.95,144.329v-16.573h8.41v1.112h-7.023v6.125h6.348v1.092h-6.348
		v8.244H106.95L106.95,144.329z M122.019,142.126v-3.42c-1.577,0.024-2.826,0.307-3.74,0.853c-0.918,0.546-1.375,1.261-1.375,2.155
		c0,0.562,0.19,1.003,0.57,1.326c0.376,0.323,0.898,0.485,1.561,0.485c0.449,0,0.918-0.113,1.399-0.336
		C120.915,142.963,121.441,142.611,122.019,142.126L122.019,142.126z M122.043,143.266c-0.611,0.465-1.177,0.796-1.698,0.999
		c-0.526,0.202-1.08,0.303-1.654,0.303c-0.902,0-1.629-0.259-2.191-0.78c-0.562-0.522-0.841-1.197-0.841-2.026
		c0-1.209,0.546-2.159,1.641-2.854c1.092-0.695,2.664-1.088,4.718-1.172v-1.16c0-0.825-0.194-1.423-0.586-1.799
		c-0.392-0.376-1.011-0.562-1.864-0.562c-0.53,0-1.063,0.105-1.601,0.319c-0.534,0.214-1.12,0.554-1.751,1.019v-1.197
		c0.615-0.412,1.205-0.716,1.771-0.914c0.562-0.198,1.124-0.295,1.674-0.295c1.257,0,2.163,0.291,2.725,0.873
		c0.562,0.578,0.841,1.524,0.841,2.838v5.733c0,0.234,0.032,0.412,0.093,0.526c0.065,0.113,0.162,0.17,0.299,0.17
		c0.186,0,0.513-0.202,0.982-0.615c0.109-0.101,0.19-0.178,0.247-0.226l0.012,1.104c-0.356,0.332-0.683,0.582-0.982,0.748
		c-0.299,0.166-0.566,0.247-0.792,0.247c-0.348,0-0.602-0.101-0.764-0.303C122.16,144.042,122.067,143.715,122.043,143.266
		L122.043,143.266z M126.438,144.329v-10.945h1.209v1.751c0.505-0.655,1.059-1.14,1.666-1.46c0.602-0.319,1.257-0.481,1.969-0.481
		c0.821,0,1.5,0.174,2.038,0.526c0.538,0.352,0.991,0.918,1.363,1.698c0.606-0.764,1.225-1.326,1.86-1.686
		c0.631-0.36,1.322-0.538,2.07-0.538c1.193,0,2.115,0.388,2.761,1.16c0.647,0.772,0.97,1.876,0.97,3.303v6.671h-1.233v-6.089
		c0-1.318-0.218-2.305-0.659-2.955c-0.437-0.651-1.096-0.978-1.981-0.978c-0.728,0-1.383,0.194-1.965,0.586
		c-0.586,0.392-1.088,0.966-1.504,1.722v7.714h-1.221v-6.089c0-1.318-0.222-2.305-0.663-2.955c-0.441-0.651-1.108-0.978-2.001-0.978
		c-0.712,0-1.354,0.194-1.937,0.582c-0.578,0.384-1.092,0.962-1.532,1.726v7.714H126.438L126.438,144.329z M145.287,129.77v-2.013
		h1.245v2.013H145.287L145.287,129.77z M145.287,144.329v-10.945h1.245v10.945H145.287L145.287,144.329z M149.609,144.329v-16.573
		h1.245v16.573H149.609L149.609,144.329z M153.931,129.77v-2.013h1.245v2.013H153.931L153.931,129.77z M153.931,144.329v-10.945
		h1.245v10.945H153.931L153.931,144.329z M163.736,142.126v-3.42c-1.577,0.024-2.826,0.307-3.74,0.853
		c-0.918,0.546-1.375,1.261-1.375,2.155c0,0.562,0.19,1.003,0.57,1.326c0.376,0.323,0.898,0.485,1.561,0.485
		c0.449,0,0.918-0.113,1.399-0.336C162.632,142.963,163.158,142.611,163.736,142.126L163.736,142.126z M163.76,143.266
		c-0.611,0.465-1.177,0.796-1.698,0.999c-0.526,0.202-1.08,0.303-1.654,0.303c-0.902,0-1.629-0.259-2.191-0.78
		c-0.562-0.522-0.841-1.197-0.841-2.026c0-1.209,0.546-2.159,1.642-2.854c1.092-0.695,2.664-1.088,4.718-1.172v-1.16
		c0-0.825-0.194-1.423-0.586-1.799c-0.392-0.376-1.011-0.562-1.864-0.562c-0.53,0-1.063,0.105-1.601,0.319
		c-0.534,0.214-1.12,0.554-1.751,1.019v-1.197c0.615-0.412,1.205-0.716,1.771-0.914c0.562-0.198,1.124-0.295,1.674-0.295
		c1.257,0,2.163,0.291,2.725,0.873c0.562,0.578,0.841,1.524,0.841,2.838v5.733c0,0.234,0.032,0.412,0.093,0.526
		c0.065,0.113,0.162,0.17,0.299,0.17c0.186,0,0.513-0.202,0.982-0.615c0.109-0.101,0.19-0.178,0.247-0.226l0.012,1.104
		c-0.356,0.332-0.683,0.582-0.982,0.748c-0.299,0.166-0.566,0.247-0.793,0.247c-0.348,0-0.602-0.101-0.764-0.303
		C163.877,144.042,163.784,143.715,163.76,143.266z"/>
	<g id="XMLID_2314_">
		<path id="XMLID_230_" style="fill:#3C3C3B;" d="M5.461,139.543c-1.553-1.393-1.937-3.217-1.937-4.738
			c0-1.073,0.368-2.945,1.792-4.37c0.96-0.96,2.417-1.712,4.882-1.712c0.64,0,1.537,0.048,2.321,0.192
			c0.608,0.112,1.121,0.208,1.633,0.24c0.176,0.016,0.208,0.08,0.208,0.176c0,0.128-0.048,0.32-0.08,0.896
			c-0.032,0.528-0.032,1.409-0.048,1.649c-0.016,0.24-0.048,0.336-0.144,0.336c-0.112,0-0.128-0.112-0.128-0.336
			c0-0.625-0.256-1.281-0.672-1.633c-0.561-0.48-1.793-0.913-3.202-0.913c-2.129,0-3.121,0.625-3.681,1.169
			c-1.168,1.12-1.441,2.545-1.441,4.177c0,3.058,2.353,5.858,5.778,5.858c1.201,0,2.145-0.144,2.785-0.8
			c0.336-0.352,0.544-1.056,0.592-1.344c0.032-0.176,0.064-0.24,0.16-0.24c0.08,0,0.112,0.112,0.112,0.24
			c0,0.112-0.192,1.504-0.352,2.049c-0.096,0.304-0.128,0.336-0.416,0.464c-0.64,0.256-1.857,0.368-2.881,0.368
			C8.342,141.272,6.726,140.68,5.461,139.543z"/>
		<path id="XMLID_232_" style="fill:#3C3C3B;" d="M20.071,130.564c3.169,0,5.57,1.937,5.57,5.106c0,3.041-2.257,5.554-5.65,5.554
			c-3.858,0-5.506-2.897-5.506-5.346C14.484,133.685,16.181,130.564,20.071,130.564z M20.391,140.664c1.265,0,3.81-0.672,3.81-4.61
			c0-3.266-1.985-4.978-4.209-4.978c-2.353,0-4.05,1.473-4.05,4.434C15.941,138.679,17.846,140.664,20.391,140.664z"/>
		<path id="XMLID_235_" style="fill:#3C3C3B;" d="M27.573,139.191c0.032,1.12,0.16,1.457,0.544,1.553
			c0.256,0.064,0.576,0.08,0.704,0.08c0.064,0,0.112,0.048,0.112,0.112c0,0.08-0.096,0.112-0.256,0.112
			c-0.8,0-1.361-0.048-1.489-0.048s-0.72,0.048-1.36,0.048c-0.144,0-0.224-0.016-0.224-0.112c0-0.064,0.048-0.112,0.112-0.112
			c0.112,0,0.368-0.016,0.576-0.08c0.353-0.096,0.4-0.464,0.4-1.697v-7.795c0-0.544,0.08-0.688,0.192-0.688
			c0.16,0,0.4,0.272,0.544,0.416c0.224,0.224,2.273,2.401,4.45,4.642c1.393,1.44,2.897,3.057,3.33,3.505l-0.144-6.819
			c-0.016-0.88-0.096-1.185-0.528-1.265c-0.256-0.048-0.576-0.064-0.688-0.064c-0.096,0-0.112-0.08-0.112-0.128
			c0-0.08,0.112-0.096,0.272-0.096c0.64,0,1.312,0.032,1.473,0.032s0.624-0.032,1.201-0.032c0.144,0,0.256,0.016,0.256,0.096
			c0,0.048-0.064,0.128-0.16,0.128c-0.064,0-0.176,0-0.336,0.032c-0.464,0.096-0.496,0.368-0.496,1.185l-0.032,7.971
			c0,0.896-0.016,0.977-0.112,0.977c-0.144,0-0.289-0.112-1.073-0.833c-0.144-0.128-2.177-2.129-3.666-3.681
			c-1.632-1.713-3.217-3.377-3.649-3.858L27.573,139.191z"/>
		<path id="XMLID_237_" style="fill:#3C3C3B;" d="M37.524,140.856c-0.192-0.096-0.208-0.144-0.208-0.512
			c0-0.672,0.064-1.216,0.08-1.44c0-0.144,0.032-0.224,0.112-0.224c0.08,0,0.128,0.048,0.128,0.16c0,0.112,0,0.304,0.048,0.496
			c0.224,0.992,1.281,1.344,2.225,1.344c1.393,0,2.113-0.784,2.113-1.809c0-0.977-0.528-1.44-1.777-2.369l-0.64-0.48
			c-1.521-1.136-2.017-1.969-2.017-2.913c0-1.601,1.265-2.561,3.122-2.561c0.56,0,1.12,0.08,1.457,0.16
			c0.272,0.064,0.384,0.064,0.496,0.064c0.112,0,0.144,0.016,0.144,0.096c0,0.064-0.064,0.512-0.064,1.441
			c0,0.208-0.016,0.304-0.112,0.304c-0.096,0-0.112-0.064-0.128-0.176c-0.016-0.16-0.128-0.528-0.208-0.672
			c-0.096-0.16-0.56-0.672-1.825-0.672c-1.024,0-1.873,0.512-1.873,1.473c0,0.864,0.432,1.361,1.825,2.305l0.4,0.272
			c1.713,1.168,2.305,2.113,2.305,3.281c0,0.8-0.304,1.665-1.312,2.321c-0.592,0.384-1.473,0.48-2.241,0.48
			C38.917,141.224,38.101,141.128,37.524,140.856z"/>
		<path id="XMLID_239_" style="fill:#3C3C3B;" d="M45.173,134.693c0-2.113,0-2.497-0.032-2.929
			c-0.032-0.464-0.112-0.688-0.577-0.752c-0.112-0.016-0.352-0.032-0.48-0.032c-0.048,0-0.112-0.064-0.112-0.112
			c0-0.08,0.064-0.112,0.224-0.112c0.641,0,1.553,0.032,1.633,0.032c0.096,0,3.042,0.016,3.361,0c0.272-0.016,0.528-0.064,0.64-0.08
			c0.064-0.016,0.128-0.064,0.192-0.064c0.048,0,0.064,0.064,0.064,0.128c0,0.096-0.08,0.256-0.112,0.64
			c-0.016,0.128-0.048,0.736-0.08,0.896c-0.016,0.064-0.064,0.144-0.128,0.144c-0.08,0-0.112-0.064-0.112-0.176
			c0-0.096-0.016-0.32-0.08-0.48c-0.096-0.224-0.24-0.32-1.008-0.417c-0.24-0.032-1.873-0.048-2.033-0.048
			c-0.064,0-0.08,0.048-0.08,0.144v3.698c0,0.096,0,0.144,0.08,0.144c0.176,0,2.033,0,2.353-0.032
			c0.336-0.032,0.544-0.048,0.688-0.192c0.096-0.096,0.16-0.176,0.208-0.176s0.08,0.032,0.08,0.112c0,0.08-0.08,0.304-0.112,0.752
			c-0.032,0.272-0.064,0.785-0.064,0.88c0,0.112-0.032,0.256-0.128,0.256c-0.064,0-0.096-0.048-0.096-0.128
			c0-0.128,0-0.272-0.064-0.448c-0.048-0.192-0.176-0.353-0.72-0.417c-0.384-0.048-1.889-0.064-2.129-0.064
			c-0.08,0-0.096,0.048-0.096,0.096v1.136c0,0.464-0.016,2.049,0,2.321c0.032,0.912,0.288,1.088,1.681,1.088
			c0.368,0,1.04,0,1.408-0.144c0.368-0.16,0.561-0.4,0.641-0.944c0.032-0.16,0.064-0.208,0.144-0.208s0.096,0.112,0.096,0.208
			c0,0.096-0.112,1.024-0.192,1.312c-0.096,0.352-0.24,0.352-0.784,0.352c-1.057,0-1.873-0.032-2.449-0.048
			C46.405,141,46.037,141,45.829,141c-0.032,0-0.304,0-0.608,0.016c-0.272,0.016-0.592,0.032-0.816,0.032
			c-0.144,0-0.224-0.032-0.224-0.112c0-0.048,0.032-0.112,0.112-0.112c0.128,0,0.304-0.048,0.432-0.064
			c0.272-0.048,0.304-0.32,0.368-0.72c0.08-0.56,0.08-1.633,0.08-2.945V134.693z"/>
		<path id="XMLID_241_" style="fill:#3C3C3B;" d="M53.669,137.959c0,2.208-0.048,3.057-0.464,4.018
			c-0.304,0.688-0.928,1.328-2.065,2.081c-0.192,0.128-0.432,0.272-0.576,0.352c-0.016,0-0.048,0.016-0.096,0.016
			c-0.032,0-0.096-0.016-0.096-0.08c0-0.08,0.048-0.144,0.176-0.224c0.176-0.096,0.368-0.256,0.496-0.368
			c0.913-0.912,1.345-1.617,1.345-5.122v-3.938c0-2.113,0-2.497-0.032-2.929c-0.032-0.464-0.112-0.688-0.577-0.752
			c-0.112-0.016-0.352-0.032-0.48-0.032c-0.048,0-0.112-0.064-0.112-0.112c0-0.08,0.064-0.112,0.224-0.112
			c0.641,0,1.553,0.032,1.633,0.032c0.064,0,0.944-0.032,1.376-0.032c0.16,0,0.224,0.032,0.224,0.112
			c0,0.048-0.064,0.112-0.112,0.112c-0.096,0-0.192,0-0.352,0.032c-0.384,0.08-0.464,0.272-0.497,0.752
			c-0.016,0.432-0.016,0.816-0.016,2.929V137.959z"/>
		<path id="XMLID_243_" style="fill:#3C3C3B;" d="M56.693,134.693c0-2.113,0-2.497-0.032-2.929
			c-0.032-0.464-0.112-0.688-0.577-0.752c-0.112-0.016-0.352-0.032-0.48-0.032c-0.048,0-0.112-0.064-0.112-0.112
			c0-0.08,0.064-0.112,0.224-0.112c0.641,0,1.553,0.032,1.633,0.032c0.096,0,3.042,0.016,3.361,0c0.272-0.016,0.528-0.064,0.64-0.08
			c0.064-0.016,0.128-0.064,0.192-0.064c0.048,0,0.064,0.064,0.064,0.128c0,0.096-0.08,0.256-0.112,0.64
			c-0.016,0.128-0.048,0.736-0.08,0.896c-0.016,0.064-0.064,0.144-0.128,0.144c-0.08,0-0.112-0.064-0.112-0.176
			c0-0.096-0.016-0.32-0.08-0.48c-0.096-0.224-0.24-0.32-1.008-0.417c-0.24-0.032-1.873-0.048-2.033-0.048
			c-0.064,0-0.08,0.048-0.08,0.144v3.698c0,0.096,0,0.144,0.08,0.144c0.176,0,2.033,0,2.353-0.032
			c0.336-0.032,0.544-0.048,0.688-0.192c0.096-0.096,0.16-0.176,0.208-0.176s0.08,0.032,0.08,0.112c0,0.08-0.08,0.304-0.112,0.752
			c-0.032,0.272-0.064,0.785-0.064,0.88c0,0.112-0.032,0.256-0.128,0.256c-0.064,0-0.096-0.048-0.096-0.128
			c0-0.128,0-0.272-0.064-0.448c-0.048-0.192-0.176-0.353-0.72-0.417c-0.384-0.048-1.889-0.064-2.129-0.064
			c-0.08,0-0.096,0.048-0.096,0.096v1.136c0,0.464-0.016,2.049,0,2.321c0.032,0.912,0.288,1.088,1.681,1.088
			c0.368,0,1.04,0,1.408-0.144c0.368-0.16,0.561-0.4,0.641-0.944c0.032-0.16,0.064-0.208,0.144-0.208s0.096,0.112,0.096,0.208
			c0,0.096-0.112,1.024-0.192,1.312c-0.096,0.352-0.24,0.352-0.784,0.352c-1.057,0-1.873-0.032-2.449-0.048
			C57.925,141,57.557,141,57.349,141c-0.032,0-0.304,0-0.608,0.016c-0.272,0.016-0.592,0.032-0.816,0.032
			c-0.144,0-0.224-0.032-0.224-0.112c0-0.048,0.032-0.112,0.112-0.112c0.128,0,0.304-0.048,0.432-0.064
			c0.272-0.048,0.304-0.32,0.368-0.72c0.08-0.56,0.08-1.633,0.08-2.945V134.693z"/>
		<path id="XMLID_245_" style="fill:#3C3C3B;" d="M63.909,134.693c0-2.113,0-2.497-0.032-2.929
			c-0.032-0.464-0.112-0.688-0.577-0.752c-0.112-0.016-0.352-0.032-0.48-0.032c-0.048,0-0.112-0.064-0.112-0.112
			c0-0.08,0.064-0.112,0.224-0.112c0.641,0,1.585,0.032,1.665,0.032c0.144,0,1.329-0.032,1.761-0.032
			c0.896,0,1.889,0.08,2.625,0.592c0.352,0.256,0.976,0.912,0.976,1.857c0,1.008-0.416,1.984-1.729,3.105
			c1.152,1.44,2.129,2.673,2.945,3.521c0.752,0.768,1.216,0.896,1.568,0.944c0.272,0.048,0.417,0.048,0.497,0.048
			c0.08,0,0.128,0.064,0.128,0.112c0,0.08-0.08,0.112-0.336,0.112h-0.88c-0.8,0-1.152-0.08-1.504-0.272
			c-0.608-0.32-1.121-0.977-1.921-2.001c-0.592-0.736-1.216-1.617-1.521-1.984c-0.064-0.064-0.096-0.08-0.192-0.08l-1.793-0.032
			c-0.064,0-0.096,0.032-0.096,0.112v0.32c0,1.312,0,2.369,0.064,2.929c0.048,0.4,0.128,0.656,0.56,0.72
			c0.192,0.032,0.496,0.064,0.624,0.064c0.096,0,0.112,0.064,0.112,0.112c0,0.064-0.064,0.112-0.224,0.112
			c-0.769,0-1.665-0.048-1.729-0.048c-0.016,0-0.96,0.048-1.393,0.048c-0.144,0-0.224-0.032-0.224-0.112
			c0-0.048,0.032-0.112,0.112-0.112c0.128,0,0.304-0.032,0.432-0.064c0.272-0.064,0.304-0.32,0.368-0.72
			c0.08-0.56,0.08-1.633,0.08-2.945V134.693z M65.125,135.846c0,0.08,0.032,0.128,0.096,0.176c0.208,0.112,0.928,0.208,1.553,0.208
			c0.336,0,0.72-0.016,1.057-0.24c0.48-0.32,0.848-1.04,0.848-2.081c0-1.697-0.928-2.673-2.433-2.673
			c-0.416,0-0.864,0.048-1.008,0.08c-0.064,0.032-0.112,0.08-0.112,0.16V135.846z"/>
		<path id="XMLID_248_" style="fill:#3C3C3B;" d="M77.271,130.564c3.169,0,5.57,1.937,5.57,5.106c0,3.041-2.257,5.554-5.65,5.554
			c-3.858,0-5.506-2.897-5.506-5.346C71.684,133.685,73.381,130.564,77.271,130.564z M77.59,140.664c1.265,0,3.81-0.672,3.81-4.61
			c0-3.266-1.985-4.978-4.209-4.978c-2.353,0-4.05,1.473-4.05,4.434C73.141,138.679,75.045,140.664,77.59,140.664z"/>
		<path id="XMLID_251_" style="fill:#3C3C3B;" d="M83.428,140.856c-0.192-0.096-0.208-0.144-0.208-0.512
			c0-0.672,0.064-1.216,0.08-1.44c0-0.144,0.032-0.224,0.112-0.224c0.08,0,0.128,0.048,0.128,0.16c0,0.112,0,0.304,0.048,0.496
			c0.224,0.992,1.281,1.344,2.225,1.344c1.393,0,2.113-0.784,2.113-1.809c0-0.977-0.528-1.44-1.777-2.369l-0.64-0.48
			c-1.521-1.136-2.017-1.969-2.017-2.913c0-1.601,1.265-2.561,3.122-2.561c0.56,0,1.12,0.08,1.457,0.16
			c0.272,0.064,0.384,0.064,0.496,0.064c0.112,0,0.144,0.016,0.144,0.096c0,0.064-0.064,0.512-0.064,1.441
			c0,0.208-0.016,0.304-0.112,0.304c-0.096,0-0.112-0.064-0.128-0.176c-0.016-0.16-0.128-0.528-0.208-0.672
			c-0.096-0.16-0.56-0.672-1.825-0.672c-1.024,0-1.873,0.512-1.873,1.473c0,0.864,0.432,1.361,1.825,2.305l0.4,0.272
			c1.713,1.168,2.305,2.113,2.305,3.281c0,0.8-0.304,1.665-1.312,2.321c-0.592,0.384-1.473,0.48-2.241,0.48
			C84.82,141.224,84.004,141.128,83.428,140.856z"/>
		<path id="XMLID_253_" style="fill:#3C3C3B;" d="M94.996,134.693c0-2.113,0-2.497-0.032-2.929
			c-0.032-0.464-0.112-0.688-0.577-0.752c-0.112-0.016-0.352-0.032-0.48-0.032c-0.048,0-0.112-0.064-0.112-0.112
			c0-0.08,0.064-0.112,0.224-0.112c0.641,0,1.553,0.032,1.633,0.032c0.096,0,3.042,0.016,3.361,0c0.272-0.016,0.528-0.064,0.64-0.08
			c0.064-0.016,0.128-0.064,0.192-0.064c0.048,0,0.064,0.064,0.064,0.128c0,0.096-0.08,0.256-0.112,0.64
			c-0.016,0.128-0.048,0.736-0.08,0.896c-0.016,0.064-0.064,0.144-0.128,0.144c-0.08,0-0.112-0.064-0.112-0.176
			c0-0.096-0.016-0.32-0.08-0.48c-0.096-0.224-0.24-0.32-1.008-0.417c-0.24-0.032-1.873-0.048-2.033-0.048
			c-0.064,0-0.08,0.048-0.08,0.144v3.698c0,0.096,0,0.144,0.08,0.144c0.176,0,2.033,0,2.353-0.032
			c0.336-0.032,0.544-0.048,0.688-0.192c0.096-0.096,0.16-0.176,0.208-0.176s0.08,0.032,0.08,0.112c0,0.08-0.08,0.304-0.112,0.752
			c-0.032,0.272-0.064,0.785-0.064,0.88c0,0.112-0.032,0.256-0.128,0.256c-0.064,0-0.096-0.048-0.096-0.128
			c0-0.128,0-0.272-0.064-0.448c-0.048-0.192-0.176-0.353-0.72-0.417c-0.384-0.048-1.889-0.064-2.129-0.064
			c-0.08,0-0.096,0.048-0.096,0.096v1.136c0,0.464-0.016,2.049,0,2.321c0.032,0.912,0.288,1.088,1.681,1.088
			c0.368,0,1.04,0,1.408-0.144c0.368-0.16,0.561-0.4,0.641-0.944c0.032-0.16,0.064-0.208,0.144-0.208s0.096,0.112,0.096,0.208
			c0,0.096-0.112,1.024-0.192,1.312c-0.096,0.352-0.24,0.352-0.784,0.352c-1.057,0-1.873-0.032-2.449-0.048
			C96.229,141,95.86,141,95.652,141c-0.032,0-0.304,0-0.608,0.016c-0.272,0.016-0.592,0.032-0.816,0.032
			c-0.144,0-0.224-0.032-0.224-0.112c0-0.048,0.032-0.112,0.112-0.112c0.128,0,0.304-0.048,0.432-0.064
			c0.272-0.048,0.304-0.32,0.368-0.72c0.08-0.56,0.08-1.633,0.08-2.945V134.693z"/>
		<path id="XMLID_255_" style="fill:#3C3C3B;" d="M102.804,139.191c0.032,1.12,0.16,1.457,0.544,1.553
			c0.256,0.064,0.576,0.08,0.704,0.08c0.064,0,0.112,0.048,0.112,0.112c0,0.08-0.096,0.112-0.256,0.112
			c-0.8,0-1.36-0.048-1.489-0.048c-0.128,0-0.72,0.048-1.36,0.048c-0.144,0-0.224-0.016-0.224-0.112
			c0-0.064,0.048-0.112,0.112-0.112c0.112,0,0.368-0.016,0.577-0.08c0.352-0.096,0.4-0.464,0.4-1.697v-7.795
			c0-0.544,0.08-0.688,0.192-0.688c0.16,0,0.4,0.272,0.544,0.416c0.224,0.224,2.273,2.401,4.45,4.642
			c1.393,1.44,2.897,3.057,3.33,3.505l-0.144-6.819c-0.016-0.88-0.096-1.185-0.528-1.265c-0.256-0.048-0.576-0.064-0.688-0.064
			c-0.096,0-0.112-0.08-0.112-0.128c0-0.08,0.112-0.096,0.272-0.096c0.64,0,1.312,0.032,1.473,0.032s0.624-0.032,1.201-0.032
			c0.144,0,0.256,0.016,0.256,0.096c0,0.048-0.064,0.128-0.16,0.128c-0.064,0-0.176,0-0.336,0.032
			c-0.464,0.096-0.496,0.368-0.496,1.185l-0.032,7.971c0,0.896-0.016,0.977-0.112,0.977c-0.144,0-0.288-0.112-1.073-0.833
			c-0.144-0.128-2.177-2.129-3.666-3.681c-1.632-1.713-3.217-3.377-3.649-3.858L102.804,139.191z"/>
		<path id="XMLID_257_" style="fill:#3C3C3B;" d="M118.021,139.543c-1.553-1.393-1.937-3.217-1.937-4.738
			c0-1.073,0.368-2.945,1.793-4.37c0.96-0.96,2.417-1.712,4.882-1.712c0.64,0,1.537,0.048,2.321,0.192
			c0.608,0.112,1.121,0.208,1.633,0.24c0.176,0.016,0.208,0.08,0.208,0.176c0,0.128-0.048,0.32-0.08,0.896
			c-0.032,0.528-0.032,1.409-0.048,1.649c-0.016,0.24-0.048,0.336-0.144,0.336c-0.112,0-0.128-0.112-0.128-0.336
			c0-0.625-0.256-1.281-0.672-1.633c-0.561-0.48-1.793-0.913-3.202-0.913c-2.129,0-3.121,0.625-3.681,1.169
			c-1.168,1.12-1.441,2.545-1.441,4.177c0,3.058,2.353,5.858,5.778,5.858c1.201,0,2.145-0.144,2.785-0.8
			c0.336-0.352,0.544-1.056,0.592-1.344c0.032-0.176,0.064-0.24,0.16-0.24c0.08,0,0.112,0.112,0.112,0.24
			c0,0.112-0.192,1.504-0.352,2.049c-0.096,0.304-0.128,0.336-0.416,0.464c-0.64,0.256-1.857,0.368-2.881,0.368
			C120.901,141.272,119.285,140.68,118.021,139.543z"/>
		<path id="XMLID_259_" style="fill:#3C3C3B;" d="M128.82,134.693c0-2.113,0-2.497-0.032-2.929
			c-0.032-0.464-0.112-0.688-0.577-0.752c-0.112-0.016-0.352-0.032-0.48-0.032c-0.048,0-0.112-0.064-0.112-0.112
			c0-0.08,0.064-0.112,0.224-0.112c0.641,0,1.585,0.032,1.665,0.032c0.144,0,1.329-0.032,1.761-0.032
			c0.896,0,1.889,0.08,2.625,0.592c0.352,0.256,0.976,0.912,0.976,1.857c0,1.008-0.416,1.984-1.729,3.105
			c1.152,1.44,2.129,2.673,2.945,3.521c0.752,0.768,1.216,0.896,1.568,0.944c0.272,0.048,0.417,0.048,0.497,0.048
			c0.08,0,0.128,0.064,0.128,0.112c0,0.08-0.08,0.112-0.336,0.112h-0.88c-0.8,0-1.152-0.08-1.504-0.272
			c-0.608-0.32-1.121-0.977-1.921-2.001c-0.592-0.736-1.216-1.617-1.521-1.984c-0.064-0.064-0.096-0.08-0.192-0.08l-1.793-0.032
			c-0.064,0-0.096,0.032-0.096,0.112v0.32c0,1.312,0,2.369,0.064,2.929c0.048,0.4,0.128,0.656,0.56,0.72
			c0.192,0.032,0.496,0.064,0.624,0.064c0.096,0,0.112,0.064,0.112,0.112c0,0.064-0.064,0.112-0.224,0.112
			c-0.769,0-1.665-0.048-1.729-0.048c-0.016,0-0.96,0.048-1.393,0.048c-0.144,0-0.224-0.032-0.224-0.112
			c0-0.048,0.032-0.112,0.112-0.112c0.128,0,0.304-0.032,0.432-0.064c0.272-0.064,0.304-0.32,0.368-0.72
			c0.08-0.56,0.08-1.633,0.08-2.945V134.693z M130.036,135.846c0,0.08,0.032,0.128,0.096,0.176c0.208,0.112,0.928,0.208,1.553,0.208
			c0.336,0,0.72-0.016,1.057-0.24c0.48-0.32,0.848-1.04,0.848-2.081c0-1.697-0.928-2.673-2.433-2.673
			c-0.416,0-0.864,0.048-1.008,0.08c-0.064,0.032-0.112,0.08-0.112,0.16V135.846z"/>
		<path id="XMLID_262_" style="fill:#3C3C3B;" d="M139.252,137.094c0,1.312,0,2.385,0.064,2.945c0.048,0.4,0.096,0.656,0.512,0.72
			c0.208,0.032,0.512,0.064,0.64,0.064c0.08,0,0.112,0.064,0.112,0.112c0,0.064-0.063,0.112-0.224,0.112
			c-0.785,0-1.697-0.048-1.761-0.048c-0.08,0-0.96,0.048-1.393,0.048c-0.144,0-0.224-0.032-0.224-0.112
			c0-0.048,0.032-0.112,0.112-0.112c0.128,0,0.304-0.032,0.432-0.064c0.272-0.064,0.32-0.32,0.368-0.72
			c0.064-0.56,0.08-1.633,0.08-2.945v-2.401c0-2.113,0-2.497-0.032-2.929c-0.032-0.464-0.145-0.672-0.448-0.736
			c-0.16-0.032-0.336-0.048-0.432-0.048c-0.064,0-0.112-0.064-0.112-0.112c0-0.08,0.064-0.112,0.224-0.112
			c0.464,0,1.345,0.032,1.425,0.032c0.064,0,0.976-0.032,1.408-0.032c0.16,0,0.225,0.032,0.225,0.112
			c0,0.048-0.064,0.112-0.112,0.112c-0.096,0-0.192,0-0.352,0.032c-0.384,0.08-0.464,0.272-0.497,0.752
			c-0.016,0.432-0.016,0.816-0.016,2.929V137.094z"/>
		<path id="XMLID_264_" style="fill:#3C3C3B;" d="M141.412,140.856c-0.192-0.096-0.208-0.144-0.208-0.512
			c0-0.672,0.063-1.216,0.08-1.44c0-0.144,0.031-0.224,0.111-0.224s0.128,0.048,0.128,0.16c0,0.112,0,0.304,0.049,0.496
			c0.224,0.992,1.28,1.344,2.225,1.344c1.393,0,2.112-0.784,2.112-1.809c0-0.977-0.527-1.44-1.776-2.369l-0.641-0.48
			c-1.521-1.136-2.017-1.969-2.017-2.913c0-1.601,1.265-2.561,3.121-2.561c0.561,0,1.121,0.08,1.457,0.16
			c0.272,0.064,0.384,0.064,0.496,0.064s0.145,0.016,0.145,0.096c0,0.064-0.064,0.512-0.064,1.441c0,0.208-0.016,0.304-0.112,0.304
			c-0.096,0-0.111-0.064-0.128-0.176c-0.016-0.16-0.128-0.528-0.208-0.672c-0.096-0.16-0.561-0.672-1.824-0.672
			c-1.024,0-1.873,0.512-1.873,1.473c0,0.864,0.432,1.361,1.824,2.305l0.4,0.272c1.713,1.168,2.305,2.113,2.305,3.281
			c0,0.8-0.304,1.665-1.312,2.321c-0.592,0.384-1.473,0.48-2.24,0.48C142.804,141.224,141.988,141.128,141.412,140.856z"/>
		<path id="XMLID_266_" style="fill:#3C3C3B;" d="M152.454,137.094c0,1.312,0,2.385,0.063,2.945c0.048,0.4,0.112,0.656,0.544,0.72
			c0.192,0.032,0.513,0.064,0.641,0.064c0.096,0,0.112,0.064,0.112,0.112c0,0.064-0.064,0.112-0.225,0.112
			c-0.768,0-1.664-0.048-1.744-0.048c-0.064,0-1.041,0.048-1.457,0.048c-0.16,0-0.224-0.032-0.224-0.112
			c0-0.048,0.031-0.096,0.111-0.096c0.129,0,0.288-0.032,0.417-0.064c0.288-0.064,0.368-0.336,0.416-0.736
			c0.063-0.56,0.063-1.633,0.063-2.945v-5.714l-2.032,0.032c-0.881,0.016-1.217,0.112-1.425,0.432
			c-0.16,0.24-0.176,0.336-0.225,0.432c-0.031,0.112-0.08,0.128-0.144,0.128c-0.032,0-0.096-0.032-0.096-0.112
			c0-0.144,0.288-1.36,0.304-1.473c0.032-0.08,0.096-0.256,0.145-0.256c0.096,0,0.239,0.112,0.624,0.16
			c0.4,0.048,0.944,0.064,1.104,0.064h5.313c0.465,0,0.785-0.032,1.009-0.064c0.208-0.032,0.336-0.064,0.4-0.064
			c0.063,0,0.063,0.08,0.063,0.16c0,0.416-0.048,1.393-0.048,1.553c0,0.112-0.063,0.176-0.128,0.176s-0.096-0.048-0.112-0.24
			l-0.016-0.144c-0.048-0.417-0.353-0.72-1.696-0.752l-1.761-0.032V137.094z"/>
		<path id="XMLID_268_" style="fill:#3C3C3B;" d="M161.157,130.564c3.169,0,5.57,1.937,5.57,5.106c0,3.041-2.257,5.554-5.65,5.554
			c-3.857,0-5.507-2.897-5.507-5.346C155.57,133.685,157.267,130.564,161.157,130.564z M161.477,140.664
			c1.264,0,3.81-0.672,3.81-4.61c0-3.266-1.985-4.978-4.21-4.978c-2.354,0-4.05,1.473-4.05,4.434
			C157.027,138.679,158.932,140.664,161.477,140.664z"/>
	</g>
	<g id="XMLID_1460_">
		<g id="XMLID_1512_">
			<g id="XMLID_40_">
				<g id="XMLID_41_">
					<path id="XMLID_42_" style="fill:#7F8961;" d="M36.664,123.073c0.025,0.094,0.035,0.127-0.024,0.277
						c-0.309,0.999-1.354,2.673-3.604,1.115c-0.041-0.029-0.203-0.175-0.244-0.261l-0.926-3.253l-0.841-3.273
						c-2.47-9.778-4.136-19.72-5.351-29.68c-0.602-4.981-1.115-9.97-1.524-14.96c-0.217-2.495-0.4-4.99-0.584-7.484l-0.287-4.122
						c0,0,0.012-6.161,0.375-10.491c0.428-7.338,1.489-4.476,2.234,0.01c0.028-0.238,0.383,2.449,0.729,5.194
						c0.35,2.744,0.707,5.543,0.707,5.543l0.312,4.45l0.585,7.307c0.412,4.868,0.907,9.722,1.509,14.559
						c1.192,9.672,2.826,19.28,5.204,28.688l0.824,3.203L36.664,123.073z"/>
				</g>
			</g>
		</g>
		<g id="XMLID_1509_">
			<g id="XMLID_36_">
				<g id="XMLID_37_">
					<path id="XMLID_38_" style="fill:#889268;" d="M83.837,113.714c-0.054,0.085-0.073,0.116-0.225,0.177
						c-0.976,0.492-2.848,0.736-3.22-1.964c-0.007-0.049-0.01-0.262,0.023-0.348c0.576-0.916,1.145-1.837,1.653-2.794
						c0.531-0.943,1.057-1.89,1.52-2.87c4.665-9.281,7.208-19.61,7.617-29.992c0.032-1.208,0.035-2.418,0.044-3.627
						c0,0,0.061-1.487,0.144-3.522c0.012-1.012,0.025-2.159,0.038-3.328c-0.012-1.155-0.024-2.329-0.035-3.416
						c-0.404-7.288,0.965-4.637,2.227-0.201c0.008-0.123,0.163,0.484,0.36,1.48c0.207,0.993,0.49,2.366,0.669,3.77
						c0.228,1.4,0.371,2.826,0.464,3.903c0.051,0.539,0.093,0.989,0.123,1.304c0.017,0.316,0.027,0.497,0.027,0.497
						c-0.015,1.095-0.011,2.191-0.044,3.285c-0.427,10.953-3.1,21.83-8.027,31.649c-0.49,1.036-1.045,2.039-1.607,3.038
						C85.048,111.766,84.446,112.742,83.837,113.714z"/>
				</g>
			</g>
		</g>
		<g id="XMLID_1508_">
			<g id="XMLID_45_">
				<g id="XMLID_46_">
					<path id="XMLID_47_" style="fill:#889268;" d="M148.165,115.82c0.027,0.091,0.037,0.124-0.02,0.271
						c-0.291,0.967-1.265,2.707-3.584,1.178c-0.042-0.029-0.208-0.176-0.252-0.263c-0.677-2.201-1.233-4.437-1.667-6.696
						c-1.364-6.86-1.402-13.909-0.943-20.716c0.478-6.83,1.173-13.514,1.757-20.262l0.351-3.734c0,0,0.243-1.539,0.726-3.624
						c0.471-2.08,1.277-4.705,2.304-6.716c0.818-1.725,1.598-2.715,2.116-3.218c0.523-0.503,0.789-0.541,0.86-0.278
						c0.146,0.536-0.468,2.232-0.911,4.351c0.106-0.2-0.549,2.291-0.798,4.959c-0.282,2.656-0.353,5.451-0.353,5.451l-0.889,9.778
						c-0.332,3.755-0.696,7.518-0.984,11.241c-0.587,7.451-0.713,14.832,0.721,22.003
						C147.008,111.665,147.53,113.761,148.165,115.82z"/>
				</g>
			</g>
		</g>
		<g id="XMLID_1505_">
			<g id="XMLID_85_">
				<path id="XMLID_89_" style="fill:#889268;" d="M87.572,91.945c-9.678-3.98-17.242-12.032-20.518-22.004
					c-0.358-1.09-1.585-4.724-0.935-5.244c1.259-1.007,2.268,0.448,2.893,1.119c1.785,1.914,2.991,5.66,4.106,7.99
					c2.812,5.873,5.222,11.914,7.323,18.076c0.493,1.447,3.663,0.814,3.19-0.575c-2.932-8.601-6.408-17.085-10.792-25.057
					c-1.764-3.208-6.268-8.154-9.379-2.983c-2.943,4.893,3.325,14.574,6.14,18.32c4.146,5.518,9.629,9.712,15.999,12.332
					C86.922,94.463,89.399,92.696,87.572,91.945L87.572,91.945z"/>
			</g>
		</g>
		<g id="XMLID_1502_">
			<g id="XMLID_79_">
				<path id="XMLID_83_" style="fill:#889268;" d="M98.885,71.904c0.829-5.213,2.496-10.211,5.16-14.78
					c2.226-3.816,7.076-9.567,12.349-7.531c5.878,2.27-2.04,10.809-4.852,12.235c-4.704,2.384-10.198,3.576-15.205,5.175
					c-1.368,0.437,1.216,2.23,2.193,1.918c6.337-2.023,15.645-3.276,20.076-8.804c2.556-3.189,4.456-9.892-0.417-11.953
					c-4.466-1.89-10.514-0.443-13.784,2.959c-4.981,5.184-7.431,12.919-8.533,19.847C95.712,71.972,98.682,73.177,98.885,71.904
					L98.885,71.904z"/>
			</g>
		</g>
		<g id="XMLID_1499_">
			<g id="XMLID_73_">
				<path id="XMLID_77_" style="fill:#889268;" d="M145.349,75.659c0.325-5.294,0.028-10.358-4.408-13.878
					c-3.105-2.464-8.031-4.329-12.026-4.359c-3.774-0.028-5.017,2.706-2.441,5.518c3.804,4.153,9.497,6.933,14.712,8.767
					c0.901,0.317,3.751-0.843,2.076-1.432c-3.669-1.29-7.125-3.056-10.27-5.351c-0.675-0.492-5.3-3.631-4.866-5.039
					c0.429-1.392,3.466-0.132,4.22,0.103c3.054,0.953,6.065,2.501,7.956,5.169c2.296,3.238,2.086,7.292,1.855,11.062
					C142.102,77.105,145.279,76.801,145.349,75.659L145.349,75.659z"/>
			</g>
		</g>
		<g id="XMLID_1496_">
			<g id="XMLID_67_">
				<path id="XMLID_71_" style="fill:#889268;" d="M149.399,89.256c1.129-2.162,9.408-18.289,12.766-15.706
					c1.991,1.532-0.043,6.985-0.909,8.623c-2.253,4.264-7.095,7.332-12.046,6.151c-1.222-0.292-3.185,0.284-1.007,0.804
					c4.314,1.029,8.898,0.737,12.565-1.998c3.517-2.622,7.272-9.47,4.299-13.649c-2.072-2.912-6.159-1.865-8.417,0.074
					c-4.697,4.033-7.632,9.772-10.45,15.169C145.997,89.117,148.972,90.073,149.399,89.256L149.399,89.256z"/>
			</g>
		</g>
		<g id="XMLID_1493_">
			<g id="XMLID_61_">
				<path id="XMLID_65_" style="fill:#E2C268;" d="M30.325,28.055c-3.586-0.249-7.321,1.986-7.628,5.835
					c-0.296,3.715,3.078,6.967,6.751,6.721c3.121-0.209,6.506-3.223,4.444-6.449c-1.987-3.11-6.645-2.169-8.046,0.915
					c-0.628,1.383,2.584,1.623,3.157,0.362c0.94-2.07,3.2,0.625,1.715,2.285c-1.181,1.32-2.826,0.566-3.765-0.609
					c-1.832-2.292-1.006-7.187,2.651-6.933C31.321,30.302,32.472,28.204,30.325,28.055L30.325,28.055z"/>
			</g>
		</g>
		<g id="XMLID_1492_">
			<g id="XMLID_55_">
				<path id="XMLID_59_" style="fill:#59607C;" d="M33.955,28.782c-0.229-3.312-0.447-6.655,0.035-9.955
					c0.235-1.61,1.219-7.441,3.563-7.492c-1.016-0.451-2.031-0.902-3.047-1.352c1.842,1.47,0.88,6.967,0.571,8.672
					c-0.524,2.894-1.626,5.479-3.167,7.973c-0.478,0.774,3.527,2.825,4.3,2.268c2.033-1.464,4.065-2.928,6.098-4.392
					c1.894-1.364,4.511-4.176,6.911-4.187c-1.016-0.451-2.031-0.902-3.047-1.352c1.944,1.345-2.021,6.703-3.052,7.631
					c-3.021,2.721-7.197,3.177-11.088,3.106c-1.127-0.021,2.33,2.499,3.418,2.519c4.206,0.077,8.727-0.373,11.97-3.357
					c2.091-1.924,4.645-6.272,2.467-8.947c-1.327-1.631-4.127-2.564-6.055-1.783c-1.663,0.674-3.171,2.19-4.606,3.224
					c-2.439,1.757-4.878,3.514-7.317,5.271c1.433,0.756,2.867,1.512,4.3,2.268c3.061-4.951,6.779-16.232-0.364-19.516
					c-7.474-3.436-6.462,13.63-6.193,17.511C29.731,28.02,34.007,29.527,33.955,28.782L33.955,28.782z"/>
			</g>
		</g>
		<g id="XMLID_1489_">
			<g id="XMLID_52_">
				<path id="XMLID_98_" style="fill:#59607C;" d="M22.938,29.935c-6.258-0.907-13.787-6.82-20.188-3.742
					c-0.715,0.344-2.235,1.173-2.2,2.151c0.252,7.119,13.779,7.822,18.675,7.638c1.033-0.039,4.558-2.889,2.639-3.033
					c-5.339-0.399-10.142,1.998-13.815,5.793c-2.907,3.003-9.637,11.802-7.495,16.283c1.776,3.716,8.753,0.449,11.128-0.875
					c5.734-3.198,9.363-8.469,11.901-14.399c0.731-1.707-3.605-0.02-4.145,1.241c-1.05,2.452-2.225,4.86-3.853,6.99
					c-1.549,2.027-10.974,9.366-10.698,2.599c0.261-6.419,7.616-15.057,13.904-14.587c0.88-1.011,1.759-2.022,2.639-3.033
					c-3.864,0.145-16.357-0.642-16.567-6.537c-0.733,0.717-1.467,1.434-2.2,2.151c2.618-1.259,7.63,1.49,10.101,2.437
					c2.345,0.899,4.609,1.607,7.101,1.968C21.199,33.175,24.837,30.21,22.938,29.935L22.938,29.935z"/>
			</g>
		</g>
		<g id="XMLID_1486_">
			<g id="XMLID_177_">
				<path id="XMLID_182_" style="fill:#59607C;" d="M30.647,40.905c-0.568,4.671-0.107,9.34,1.534,13.766
					c1.073,2.894,2.883,7.321,5.795,8.828c7.6,3.933,4.827-15.036,4.243-18.104c-1.137,0.087-2.274,0.174-3.411,0.261
					c2.451,2.708,5.287,4.836,8.801,5.959c1.923,0.615,6.74,1.935,7.871-0.523c3.001-6.525-13.647-10.585-16.752-11.797
					c-2.965-1.157-1.848,2.772,0.121,3.54c2.065,0.806,4.13,1.612,6.195,2.417c1.413,0.551,3.469,0.922,4.646,1.813
					c1.675,0.378,1.863,0.717,0.562,1.017c-0.643,0.441-1.333,0.49-2.068,0.145c-2.517-0.318-4.861-2.011-6.51-3.832
					c-0.935-1.033-3.901-2.311-3.411,0.261c0.27,1.419,1.694,15.855-0.663,15.285c0.672,0.432,1.343,0.864,2.015,1.296
					c-4.573-4.836-5.619-12.281-4.846-18.64C34.991,40.772,30.956,38.369,30.647,40.905L30.647,40.905z"/>
			</g>
		</g>
		<g id="XMLID_1485_">
			<g id="XMLID_99_">
				<g id="XMLID_100_">
					<path id="XMLID_179_" style="fill:#C1974A;" d="M160.548,101.864c0.199,0.063,0.272,0.086,0.479,0.353
						c0.749,0.826,1.525,2.129,1.429,3.469c-0.085,1.348-1.05,2.718-3.448,3.802c-0.088,0.039-0.481,0.159-0.656,0.14
						c-4.012-1.136-8.187-1.835-12.435-2.255c-9.204-0.915-18.72-0.432-28.419-0.213c-9.743,0.219-19.459,0.052-29.093-0.136
						c-9.639-0.185-19.219-0.356-28.733-0.082c-4.754,0.147-9.496,0.37-14.2,0.801l-4.178,0.386l-3.811,0.492
						c0,0-0.75,0.041-2.008,0.111c-1.261,0.055-3.004,0.261-5.033,0.414c-2.037,0.122-4.3,0.444-6.614,0.695
						c-2.328,0.202-4.622,0.637-6.753,0.886c-1.802,0.239-3.264,0.535-4.473,0.72c-1.21,0.184-2.158,0.279-2.872,0.298
						c-1.431,0.032-1.913-0.225-1.689-0.722c0.227-0.489,1.171-1.197,2.594-2.027c1.424-0.82,3.308-1.831,5.48-2.629
						c-0.244,0.022,0.936-0.427,2.855-1.115c0.48-0.168,1.003-0.368,1.568-0.548c0.568-0.168,1.171-0.346,1.798-0.531
						c1.259-0.366,2.614-0.76,3.976-1.156c2.741-0.711,5.536-1.349,7.643-1.825c2.116-0.404,3.536-0.675,3.536-0.675
						c1.309-0.157,2.618-0.371,3.929-0.47l5.071-0.471c2.407-0.189,4.813-0.307,7.22-0.463l7.206-0.258
						c9.596-0.222,19.132-0.034,28.608,0.14c9.481,0.183,18.885,0.321,28.266,0.102c9.412-0.216,19.064-0.711,28.911,0.253
						C151.322,99.803,155.978,100.572,160.548,101.864z"/>
				</g>
			</g>
		</g>
		<g id="XMLID_1482_">
			<g id="XMLID_32_">
				<path id="XMLID_95_" style="fill:#7F8961;" d="M21.043,84.905C15.69,82.293,7.559,77.829,8.648,70.518
					c0.722-4.844,5.907-2.487,7.499,0.366c1.776,3.184,2.95,6.704,3.785,10.238c0.212,0.899,3.21,0.944,3.158,0.727
					c-1.757-7.445-5.083-17.256-14.632-15.2c-4.21,0.907-3.232,5.985-1.691,8.937c2.454,4.703,7.341,7.182,11.904,9.409
					C19.222,85.265,22.348,85.542,21.043,84.905L21.043,84.905z"/>
			</g>
		</g>
		<g id="XMLID_1479_">
			<g id="XMLID_188_">
				<path id="XMLID_192_" style="fill:#7F8961;" d="M33.145,89.576c-0.317-5.17-0.345-10.831,2.738-15.264
					c0.44-0.535,0.88-1.069,1.32-1.604c3.39-1.989,4.783-1.786,4.178,0.612c0.104,1.475-0.645,2.667-1.351,3.883
					c-1.503,2.586-3.426,4.958-5.431,7.163c-0.319,0.351,2.162-0.526,2.618-1.027c2.592-2.851,7.14-7.342,7.232-11.438
					c0.086-3.822-3.71-2.082-5.858-0.991c-7.77,3.946-8.819,12.201-8.332,20.139C30.257,91.034,33.191,90.327,33.145,89.576
					L33.145,89.576z"/>
			</g>
		</g>
		<g id="XMLID_1476_">
			<g id="XMLID_184_">
				<g id="XMLID_185_">
					<path id="XMLID_186_" style="fill:#E30A46;" d="M95.983,37.615c0,0-0.001-0.004-0.099-0.019
						c-0.072-0.009-0.158-0.004-0.254,0.01c-0.097-0.012-0.207,0.165-0.325,0.237c-0.229,0.192-0.507,0.378-0.826,0.492
						c-0.316,0.115-0.681,0.153-1.083,0.02c-0.201-0.068-0.413-0.182-0.635-0.359c-0.111-0.092-0.215-0.184-0.325-0.324
						c-0.111-0.189-0.225-0.416-0.31-0.681c-0.027-0.075-0.117-0.456-0.121-0.648c0.236-2.187,1.015-3.965,1.891-5.224
						c0.44-0.655,0.914-1.173,1.407-1.701l1.557-1.693l0.401-0.436l0.1-0.109l0.05-0.054c0.017-0.017,0.035-0.055,0.045,0.012
						l0.141,0.495c0.667,2.392,1.373,4.673,1.949,7.314l0.401,1.945l0.186,1.026c0.118,0.685,0.225,1.372,0.324,2.06
						c0.194,1.377,0.346,2.76,0.455,4.146c0.053,0.693,0.098,1.387,0.131,2.082c0.027,0.709,0.066,1.348,0.059,2.151
						c-0.016,0.791-0.089,1.756-0.54,2.768c-0.451,1.012-1.21,1.79-1.925,2.316c-0.724,0.536-1.431,0.891-2.062,1.204
						c-0.651,0.319-1.358,0.641-2.169,0.892c-0.811,0.242-1.76,0.436-2.864,0.287c-1.096-0.13-2.255-0.764-2.956-1.575
						c-0.717-0.801-1.095-1.637-1.384-2.403c-0.273-0.759-0.472-1.489-0.627-2.236c-0.605-2.989-0.482-5.803-0.518-8.464
						l-0.031-8.133c0.029-1.427,0.114-3.051,0.81-4.722c0.168-0.408,0.387-0.818,0.676-1.248c0.282-0.413,0.615-0.774,0.974-1.108
						c0.188-0.158,0.371-0.32,0.577-0.459c0.208-0.15,0.376-0.256,0.718-0.443c0.604-0.286,1.236-0.515,1.875-0.59
						c0.633-0.065,1.26-0.029,1.836,0.132c0.577,0.163,1.071,0.468,1.6,0.74c0.15,0.533,0.363,1.006,0.46,1.588l0.004,1.886
						l0.008,4.047l0.016,8.094l0.007,4.058c-0.011,1.405-0.053,2.903-0.453,4.507c-0.204,0.799-0.511,1.631-1.003,2.427
						c-0.485,0.796-1.182,1.529-1.996,2.062c-1.656,1.069-3.387,1.259-4.838,1.364c-0.711,0.04-1.502,0.087-2.429-0.039
						c-0.92-0.14-2.03-0.448-3.003-1.457c-0.459-0.464-0.782-1.157-0.921-1.711c-0.133-0.505-0.177-0.875-0.23-1.126
						c-0.025-0.128-0.048-0.22-0.066-0.277c-0.009-0.029-0.016-0.051-0.021-0.057c0.011-0.029-0.06,0.028,0.107-0.073
						c-0.34-0.1-0.102-0.044-0.182-0.074l-0.014-0.028L80.51,50.45l-0.056-0.113l-0.113-0.226l-0.225-0.453l-0.451-0.906
						l-0.225-0.456l-0.199-0.548c-0.258-0.731-0.534-1.471-0.757-2.203l-0.475-2.162c-0.146-0.722-0.18-1.452-0.272-2.178
						c-0.243-2.908-0.026-5.792,0.455-8.582l0.318-1.56c0.073-0.331,0.126-0.67,0.215-0.995l0.506-1.962
						c0,0,0.522-1.508,1.369-3.458c0.834-1.959,2.039-4.325,3.134-6.206c1.777-3.218,2.561-4.073,2.792-3.582
						c0.229,0.495-0.15,2.375-0.779,4.549c0.136-0.2-0.731,2.365-1.476,4.975c-0.362,1.308-0.717,2.626-0.934,3.622
						c-0.247,0.992-0.359,1.661-0.359,1.661c-0.147,0.596-0.321,1.189-0.446,1.786l-0.182,0.896l-0.186,0.908
						c-0.113,0.62-0.181,1.242-0.275,1.862c-0.301,2.481-0.329,4.96,0.033,7.352l0.387,1.759c0.118,0.595,0.357,1.074,0.518,1.62
						c0.102,0.272,0.146,0.518,0.291,0.814l0.443,0.89l0.443,0.89l0.111,0.223l0.028,0.056l0.014,0.028
						c0.016,0.031-0.107-0.197-0.04-0.073l0.116,0.221c0.143,0.293,0.24,0.574,0.305,0.817c0.134,0.494,0.182,0.874,0.233,1.129
						c0.025,0.133,0.048,0.223,0.065,0.282c0.005,0.018,0.002,0.009,0.002,0.009s-0.001-0.003-0.008-0.009
						c0.008,0.011,0.026,0.018,0.04,0.028c0.059,0.039,0.161,0.087,0.323,0.125c0.321,0.081,0.827,0.104,1.41,0.077
						c0.614-0.026,1.197-0.074,1.715-0.164c1.064-0.192,1.737-0.526,2.196-1.111c0.483-0.58,0.79-1.556,0.926-2.68
						c0.144-1.133,0.127-2.363,0.123-3.718l-0.008-3.978L91.54,31.75l-0.006-3.085c-0.01,0.004,0.023-0.008-0.002,0.003
						c-0.038,0.019-0.074,0.043-0.109,0.07c-0.074,0.047-0.143,0.105-0.211,0.163c-0.133,0.12-0.263,0.251-0.36,0.394
						c-0.181,0.23-0.391,0.709-0.51,1.153c-0.262,0.936-0.298,2.117-0.292,3.409l0.038,7.953c0.014,2.669-0.015,5.212,0.536,7.446
						c0.258,1.126,0.727,2.193,1.074,2.409c0.157,0.113,0.284,0.176,0.591,0.183c0.303,0.005,0.752-0.086,1.24-0.264
						c0.489-0.175,1.025-0.428,1.581-0.71c0.535-0.27,0.985-0.538,1.29-0.799c0.311-0.268,0.445-0.471,0.536-0.718
						c0.097-0.27,0.147-0.724,0.141-1.296c-0.051-2.508-0.264-5.119-0.628-7.65c-0.092-0.636-0.194-1.271-0.303-1.904L95.983,37.615
						z"/>
				</g>
			</g>
		</g>
		<g id="XMLID_1475_">
			<g id="XMLID_44_">
				<g id="XMLID_90_">
					<path id="XMLID_183_" style="fill:#577C64;" d="M148.603,40.123c0,0.063,0.001,0.084-0.097,0.172
						c-0.282,0.292-0.704,0.772-1.299,1.099c-0.295,0.158-0.652,0.255-1.068,0.172c-0.416-0.088-0.923-0.365-1.4-1.05
						c-0.033-0.049-0.153-0.293-0.17-0.421c0.01-1.516,0.461-2.933,1.143-4.156c0.694-1.222,1.612-2.288,2.752-3.127
						c2.592-1.895,5.621-2.421,8.319-2.594l0.511-0.028c0.193-0.008,0.274-0.017,0.633-0.02c0.639,0,1.276,0.075,1.851,0.263
						c1.151,0.36,2.035,1.221,2.376,2.325c0.345,1.098,0.102,2.307-0.615,3.315c-0.344,0.497-0.827,0.985-1.291,1.339
						c-0.179,0.136-0.363,0.265-0.554,0.385c-0.202,0.124-0.395,0.232-0.539,0.305c-2.235,1.194-4.639,1.882-7.008,2.286
						c-1.169,0.194-2.403,0.36-3.72,0.347c-1.308-0.021-2.738-0.21-4.133-0.879c-1.389-0.645-2.629-1.864-3.28-3.325
						c-0.676-1.453-0.768-2.994-0.591-4.399c0.182-1.417,0.662-2.741,1.389-3.939c0.355-0.603,0.788-1.168,1.283-1.691
						c0.235-0.269,0.528-0.501,0.795-0.747c0.273-0.212,0.538-0.421,0.82-0.61c2.266-1.54,4.839-2.159,7.21-2.475
						c1.195-0.156,2.366-0.241,3.508-0.31c1.149-0.066,2.35-0.124,3.616-0.047c1.258,0.07,2.602,0.291,3.922,0.81
						c1.316,0.522,2.577,1.409,3.495,2.485c1.848,2.156,2.651,4.8,2.916,7.294c0.259,2.522,0.064,4.826-0.091,7.132
						c-0.114,1.2-0.28,2.734-1.318,4.206c-0.522,0.724-1.168,1.242-1.751,1.629c-0.596,0.396-1.109,0.657-1.642,0.939
						c-4.245,2.252-8.992,3.517-13.783,3.731c-2.396,0.101-4.809-0.037-7.174-0.481c-1.17-0.217-2.37-0.453-3.669-0.985
						c-0.64-0.265-1.293-0.612-1.898-1.064c-0.778-0.61-0.683-0.583-0.858-0.733c-1.051-1.046-1.759-2.152-2.359-3.311
						c0,0-0.791-1.607-1.14-3.907c-0.396-2.278-0.149-5.29,0.941-7.442c0.867-1.847,1.947-2.694,2.577-3.049
						c0.657-0.349,0.914-0.288,0.901-0.018c-0.019,0.555-1.076,1.928-1.41,3.901c0.054-0.092-0.078,0.433-0.15,1.298
						c-0.08,0.862-0.042,2.079,0.211,3.276c0.241,1.2,0.684,2.359,1.089,3.175c0.214,0.403,0.387,0.739,0.537,0.956
						c0.139,0.223,0.218,0.35,0.218,0.35c0.241,0.429,0.504,0.835,0.776,1.19c0.136,0.178,0.276,0.345,0.418,0.499l0.216,0.221
						l0.109,0.103l0.169,0.145l0.22,0.169c0.592,0.424,1.397,0.733,2.35,0.965c0.969,0.233,2.007,0.409,3.02,0.546
						c2.044,0.251,4.119,0.268,6.174,0.078c4.094-0.389,8.169-1.686,11.668-3.737c0.39-0.235,0.682-0.457,0.86-0.655
						c0.171-0.185,0.288-0.393,0.405-0.715c0.228-0.644,0.296-1.624,0.363-2.741c0.14-2.178,0.227-4.251-0.105-6.137
						c-0.308-1.848-1.109-3.596-2.287-4.658c-1.139-1.043-2.844-1.455-4.849-1.475c-0.994-0.014-2.057,0.048-3.142,0.119
						c-1.071,0.073-2.114,0.168-3.115,0.325c-1.999,0.313-3.83,0.897-5.21,1.967c-1.275,0.921-2.123,2.624-2.266,4.221
						c-0.063,0.797,0.083,1.531,0.377,2.096c0.294,0.557,0.783,0.983,1.439,1.27c1.344,0.582,3.355,0.465,5.393,0.095
						c2.022-0.352,3.958-0.934,5.669-1.849c0.141-0.073,0.226-0.123,0.297-0.166c0.08-0.051,0.158-0.105,0.234-0.163l0.022-0.017
						l-0.774,0.039c-2.369,0.138-4.6,0.638-6.176,1.812C149.546,37.014,148.586,38.682,148.603,40.123z"/>
				</g>
			</g>
		</g>
	</g>
</g>
<g id="XMLID_229_">
</g>
<g id="XMLID_271_">
</g>
<g id="XMLID_272_">
</g>
<g id="XMLID_273_">
</g>
<g id="XMLID_274_">
</g>
<g id="XMLID_275_">
</g>
</svg>
