<?xml version="1.0" encoding="iso-8859-1"?>
<!-- Generator: Adobe Illustrator 19.0.0, SVG Export Plug-In . SVG Version: 6.00 Build 0)  -->
<svg version="1.1" id="Capa_1" xmlns="http://www.w3.org/2000/svg" xmlns:xlink="http://www.w3.org/1999/xlink" x="0px" y="0px"
	 viewBox="0 0 145 152" style="enable-background:new 0 0 145 152;" xml:space="preserve">
<g id="XMLID_27_">
	<g id="XMLID_2746_">
		<path id="XMLID_94_" d="M56.303,138.983c0.064,0.576,0.176,1.472,0.864,1.696c0.465,0.144,0.881,0.144,1.041,0.144
			c0.08,0,0.128,0.016,0.128,0.08c0,0.096-0.145,0.144-0.336,0.144c-0.353,0-2.081-0.048-2.674-0.096
			c-0.368-0.032-0.448-0.08-0.448-0.16c0-0.064,0.032-0.096,0.112-0.112c0.08-0.016,0.096-0.288,0.064-0.576l-0.769-8.259h-0.048
			l-3.922,8.323c-0.336,0.705-0.384,0.849-0.528,0.849c-0.112,0-0.192-0.16-0.496-0.736c-0.416-0.784-1.793-3.554-1.873-3.713
			c-0.144-0.288-1.937-4.13-2.112-4.562h-0.064l-0.64,7.427c-0.017,0.256-0.017,0.544-0.017,0.816c0,0.24,0.177,0.448,0.416,0.496
			c0.272,0.064,0.513,0.08,0.608,0.08c0.064,0,0.128,0.032,0.128,0.08c0,0.112-0.096,0.144-0.288,0.144
			c-0.592,0-1.36-0.048-1.488-0.048c-0.145,0-0.912,0.048-1.345,0.048c-0.16,0-0.271-0.032-0.271-0.144
			c0-0.048,0.079-0.08,0.159-0.08c0.129,0,0.24,0,0.48-0.048c0.528-0.096,0.576-0.72,0.641-1.329l1.152-10.436
			c0.016-0.176,0.08-0.288,0.176-0.288c0.097,0,0.16,0.064,0.24,0.24l4.898,10.068l4.705-10.052c0.064-0.144,0.129-0.256,0.24-0.256
			c0.112,0,0.16,0.128,0.192,0.432L56.303,138.983z"/>
		<path id="XMLID_96_" d="M62.426,134.693c0-2.113,0-2.497-0.032-2.929c-0.032-0.464-0.112-0.688-0.576-0.752
			c-0.112-0.016-0.353-0.032-0.48-0.032c-0.048,0-0.112-0.064-0.112-0.112c0-0.08,0.064-0.112,0.225-0.112
			c0.64,0,1.553,0.032,1.633,0.032c0.096,0,3.041,0.016,3.361,0c0.271-0.016,0.527-0.064,0.64-0.08
			c0.064-0.016,0.128-0.064,0.192-0.064c0.048,0,0.063,0.064,0.063,0.128c0,0.096-0.079,0.256-0.111,0.64
			c-0.017,0.128-0.048,0.736-0.08,0.896c-0.017,0.064-0.064,0.144-0.128,0.144c-0.08,0-0.112-0.064-0.112-0.176
			c0-0.096-0.016-0.32-0.08-0.48c-0.096-0.224-0.24-0.32-1.009-0.417c-0.239-0.032-1.872-0.048-2.032-0.048
			c-0.064,0-0.08,0.048-0.08,0.144v3.698c0,0.096,0,0.144,0.08,0.144c0.176,0,2.032,0,2.353-0.032
			c0.336-0.032,0.544-0.048,0.688-0.192c0.096-0.096,0.16-0.176,0.208-0.176s0.08,0.032,0.08,0.112s-0.08,0.304-0.112,0.752
			c-0.032,0.272-0.063,0.785-0.063,0.88c0,0.112-0.032,0.256-0.128,0.256c-0.064,0-0.097-0.048-0.097-0.128
			c0-0.128,0-0.272-0.063-0.448c-0.049-0.192-0.177-0.353-0.721-0.417c-0.384-0.048-1.889-0.064-2.129-0.064
			c-0.08,0-0.096,0.048-0.096,0.096v1.136c0,0.464-0.017,2.049,0,2.321c0.032,0.912,0.288,1.088,1.681,1.088
			c0.368,0,1.04,0,1.408-0.144c0.368-0.16,0.561-0.4,0.641-0.944c0.032-0.16,0.063-0.208,0.144-0.208s0.097,0.112,0.097,0.208
			c0,0.096-0.112,1.024-0.192,1.312c-0.096,0.352-0.24,0.352-0.784,0.352c-1.057,0-1.873-0.032-2.449-0.048
			C63.659,141,63.291,141,63.083,141c-0.032,0-0.305,0-0.608,0.016c-0.272,0.016-0.593,0.032-0.816,0.032
			c-0.145,0-0.225-0.032-0.225-0.112c0-0.048,0.032-0.112,0.112-0.112c0.128,0,0.304-0.048,0.433-0.064
			c0.271-0.048,0.304-0.32,0.368-0.72c0.08-0.56,0.08-1.633,0.08-2.945V134.693z"/>
		<path id="XMLID_98_" d="M72.842,134.693c0-2.113,0-2.497-0.032-2.929c-0.032-0.464-0.112-0.688-0.576-0.752
			c-0.112-0.016-0.353-0.032-0.48-0.032c-0.048,0-0.112-0.064-0.112-0.112c0-0.08,0.064-0.112,0.225-0.112
			c0.64,0,1.553,0.032,1.633,0.032c0.159,0,1.056-0.032,1.889-0.032c1.408,0,3.985-0.128,5.65,1.553
			c0.704,0.704,1.376,1.841,1.376,3.458c0,1.712-0.736,3.025-1.521,3.825c-0.608,0.625-1.873,1.569-4.273,1.569
			c-0.608,0-1.36-0.048-1.969-0.08c-0.608-0.048-1.089-0.08-1.152-0.08c-0.032,0-0.288,0.016-0.577,0.016
			c-0.288,0.016-0.624,0.032-0.848,0.032c-0.145,0-0.225-0.032-0.225-0.112c0-0.048,0.032-0.112,0.112-0.112
			c0.128,0,0.304-0.032,0.433-0.064c0.271-0.064,0.304-0.32,0.368-0.72c0.08-0.56,0.08-1.633,0.08-2.945V134.693z M74.123,136.166
			c0,1.44,0,2.705,0.016,2.961c0.017,0.336,0.048,0.832,0.16,0.976c0.176,0.256,0.672,0.544,2.337,0.544
			c1.297,0,2.449-0.432,3.298-1.232c0.736-0.688,1.104-1.985,1.104-3.233c0-1.729-0.753-2.833-1.329-3.41
			c-1.328-1.344-2.881-1.521-4.562-1.521c-0.272,0-0.721,0.048-0.849,0.096s-0.176,0.112-0.176,0.272V136.166z"/>
		<path id="XMLID_101_" d="M88.523,137.094c0,1.312,0,2.385,0.063,2.945c0.049,0.4,0.097,0.656,0.513,0.72
			c0.208,0.032,0.512,0.064,0.64,0.064c0.08,0,0.112,0.064,0.112,0.112c0,0.064-0.063,0.112-0.224,0.112
			c-0.784,0-1.697-0.048-1.761-0.048c-0.08,0-0.961,0.048-1.393,0.048c-0.145,0-0.225-0.032-0.225-0.112
			c0-0.048,0.032-0.112,0.112-0.112c0.128,0,0.304-0.032,0.433-0.064c0.271-0.064,0.319-0.32,0.368-0.72
			c0.063-0.56,0.08-1.633,0.08-2.945v-2.401c0-2.113,0-2.497-0.032-2.929c-0.032-0.464-0.145-0.672-0.448-0.736
			c-0.16-0.032-0.336-0.048-0.433-0.048c-0.063,0-0.111-0.064-0.111-0.112c0-0.08,0.063-0.112,0.224-0.112
			c0.464,0,1.345,0.032,1.425,0.032c0.063,0,0.977-0.032,1.408-0.032c0.16,0,0.225,0.032,0.225,0.112
			c0,0.048-0.064,0.112-0.112,0.112c-0.096,0-0.192,0-0.353,0.032c-0.384,0.08-0.464,0.272-0.496,0.752
			c-0.016,0.432-0.016,0.816-0.016,2.929V137.094z"/>
		<path id="XMLID_103_" d="M97.211,131.028c0.176-0.448,0.24-0.528,0.336-0.528c0.145,0,0.192,0.192,0.336,0.497
			c0.257,0.576,2.514,6.194,3.378,8.259c0.512,1.216,0.896,1.393,1.2,1.488c0.208,0.064,0.416,0.08,0.561,0.08
			c0.08,0,0.176,0.032,0.176,0.112s-0.16,0.112-0.32,0.112c-0.208,0-1.248,0-2.225-0.032c-0.272-0.016-0.496-0.016-0.496-0.096
			c0-0.064,0.032-0.064,0.096-0.096c0.08-0.032,0.225-0.144,0.128-0.368l-1.265-3.121c-0.031-0.064-0.048-0.08-0.128-0.08h-3.249
			c-0.064,0-0.112,0.032-0.145,0.112l-0.8,2.177c-0.128,0.336-0.208,0.672-0.208,0.912c0,0.272,0.24,0.368,0.48,0.368h0.128
			c0.111,0,0.144,0.048,0.144,0.112c0,0.08-0.08,0.112-0.208,0.112c-0.336,0-1.104-0.048-1.265-0.048
			c-0.144,0-0.848,0.048-1.425,0.048c-0.176,0-0.271-0.032-0.271-0.112c0-0.064,0.063-0.112,0.128-0.112
			c0.096,0,0.304-0.016,0.416-0.032c0.641-0.08,0.912-0.56,1.185-1.249L97.211,131.028z M98.78,136.694
			c0.064,0,0.064-0.032,0.048-0.096l-1.393-3.729c-0.08-0.208-0.16-0.208-0.24,0l-1.312,3.729c-0.016,0.064,0,0.096,0.049,0.096
			H98.78z"/>
	</g>
	<g id="XMLID_28_">
		<g id="XMLID_1656_">
			<g id="XMLID_1658_">
				<path id="XMLID_1664_" style="fill:#FFFFFF;stroke:#858585;stroke-width:0.4462;stroke-miterlimit:10;" d="M140.669,120H4.336
					c-2.137,0-3.886-1.749-3.886-3.886V13.886C0.45,11.749,2.199,10,4.336,10h136.334c2.137,0,3.886,1.749,3.886,3.886v102.229
					C144.555,118.251,142.806,120,140.669,120z"/>
				<rect id="XMLID_1662_" x="11.435" y="19.224" style="fill:#EA5345;" width="122" height="91.552"/>
				<circle id="XMLID_1660_" style="fill:#C2C1C1;" cx="139.059" cy="65" r="2.772"/>
			</g>
		</g>
		<g id="XMLID_1644_">
			<path id="XMLID_1650_" style="fill:#C63B27;" d="M123.702,98.387H21.168c-0.658,0-1.192-0.534-1.192-1.192V95.8
				c0-0.658,0.534-1.192,1.192-1.192h102.533c0.658,0,1.192,0.534,1.192,1.192v1.395C124.893,97.853,124.36,98.387,123.702,98.387z"
				/>
			<path id="XMLID_1648_" style="fill:#FCEE70;" d="M56.253,98.387H21.168c-0.658,0-1.192-0.534-1.192-1.192V95.8
				c0-0.658,0.534-1.192,1.192-1.192h35.085c0.658,0,1.192,0.534,1.192,1.192v1.395C57.445,97.853,56.911,98.387,56.253,98.387z"/>
			<circle id="XMLID_1646_" style="fill:#FFFFFF;" cx="56.452" cy="96.498" r="4.289"/>
		</g>
		<g id="XMLID_29_">
			<g id="XMLID_1600_">
				<g id="XMLID_1602_">
					<g id="XMLID_1606_">
						<g id="XMLID_1610_">
							<g id="XMLID_1612_">
								<g id="XMLID_1614_">
									<g id="XMLID_1616_">
										<g id="XMLID_1640_">
											<path id="XMLID_1642_" style="fill:#FFFFFF;" d="M90.348,56.761c0,9.893-8.026,17.909-17.914,17.909
												c-9.891,0-17.911-8.016-17.911-17.909c0-9.891,8.021-17.912,17.911-17.912C82.321,38.849,90.348,46.87,90.348,56.761z"/>
										</g>
									</g>
								</g>
							</g>
						</g>
					</g>
				</g>
			</g>
			<path id="XMLID_91_" style="fill:#FFFFFF;" d="M72.434,84.078c-15.064,0-27.319-12.255-27.319-27.317
				c0-15.064,12.255-27.319,27.319-27.319c15.065,0,27.322,12.255,27.322,27.319C99.755,71.823,87.499,84.078,72.434,84.078z
				 M72.434,33.308c-12.932,0-23.453,10.521-23.453,23.453c0,12.931,10.521,23.451,23.453,23.451
				c12.934,0,23.457-10.52,23.457-23.451C95.89,43.829,85.368,33.308,72.434,33.308z"/>
			<g id="XMLID_30_">
				<g id="XMLID_31_">
					<g id="XMLID_32_">
						<g id="XMLID_33_">
							<g id="XMLID_34_">
								<g id="XMLID_35_">
									<g id="XMLID_36_">
										<g id="XMLID_37_">
											<path id="XMLID_38_" style="fill:#5BB2E4;" d="M80.59,58.507l-11.131,6.87c-1.367,0.844-3.129-0.14-3.129-1.746V49.893
												c0-1.606,1.762-2.589,3.129-1.746l11.131,6.868C81.888,55.816,81.889,57.705,80.59,58.507z"/>
										</g>
									</g>
								</g>
							</g>
						</g>
					</g>
				</g>
			</g>
		</g>
	</g>
</g>
<g id="XMLID_93_">
</g>
<g id="XMLID_106_">
</g>
<g id="XMLID_107_">
</g>
<g id="XMLID_108_">
</g>
<g id="XMLID_109_">
</g>
<g id="XMLID_110_">
</g>
</svg>
