<?xml version="1.0" encoding="iso-8859-1"?>
<!-- Generator: Adobe Illustrator 19.0.0, SVG Export Plug-In . SVG Version: 6.00 Build 0)  -->
<svg version="1.1" id="Capa_1" xmlns="http://www.w3.org/2000/svg" xmlns:xlink="http://www.w3.org/1999/xlink" x="0px" y="0px"
	 viewBox="0 0 111 152" style="enable-background:new 0 0 111 152;" xml:space="preserve">
<g id="XMLID_92_">
	<path id="XMLID_2745_" style="fill:#010202;" d="M110.506,104.302c0,8.667-7.008,15.698-15.651,15.698H16.051
		C7.403,120,0.4,112.969,0.4,104.302V26.236c0-8.67,7.003-15.698,15.651-15.698h78.804c8.643,0,15.651,7.029,15.651,15.698V104.302z
		"/>
	<g id="XMLID_2690_">
		<path id="XMLID_95_" style="fill:#231F20;" d="M109.648,102.448c0,8.805-6.972,15.944-15.574,15.944H16.832
			c-8.602,0-15.574-7.139-15.574-15.944V25.947C1.258,17.142,8.23,10,16.832,10h77.242c8.602,0,15.574,7.142,15.574,15.947V102.448z
			"/>
		<linearGradient id="XMLID_125_" gradientUnits="userSpaceOnUse" x1="55.4527" y1="9.2818" x2="55.4527" y2="119.6709">
			<stop  offset="0" style="stop-color:#2D292A"/>
			<stop  offset="0.067" style="stop-color:#282425"/>
			<stop  offset="1" style="stop-color:#231F20"/>
		</linearGradient>
		<path id="XMLID_105_" style="fill:url(#XMLID_125_);" d="M109.463,101.962c0,8.773-6.965,15.885-15.558,15.885H17.001
			c-8.593,0-15.558-7.112-15.558-15.885v-75.88c0-8.773,6.965-15.887,15.558-15.887h76.904c8.593,0,15.558,7.115,15.558,15.887
			V101.962z"/>
		<linearGradient id="XMLID_126_" gradientUnits="userSpaceOnUse" x1="55.4528" y1="9.4826" x2="55.4528" y2="119.1132">
			<stop  offset="0" style="stop-color:#373335"/>
			<stop  offset="0.067" style="stop-color:#2D292B"/>
			<stop  offset="1" style="stop-color:#231F20"/>
		</linearGradient>
		<path id="XMLID_104_" style="fill:url(#XMLID_126_);" d="M109.278,101.476c0,8.74-6.959,15.826-15.543,15.826H17.169
			c-8.584,0-15.542-7.086-15.542-15.826V26.217c0-8.74,6.958-15.828,15.542-15.828h76.566c8.584,0,15.543,7.088,15.543,15.828
			V101.476z"/>
		<linearGradient id="XMLID_127_" gradientUnits="userSpaceOnUse" x1="55.4528" y1="9.6835" x2="55.4528" y2="118.5555">
			<stop  offset="0" style="stop-color:#423E40"/>
			<stop  offset="0.067" style="stop-color:#312E30"/>
			<stop  offset="1" style="stop-color:#231F20"/>
		</linearGradient>
		<path id="XMLID_103_" style="fill:url(#XMLID_127_);" d="M109.094,100.99c0,8.707-6.952,15.767-15.527,15.767H17.338
			c-8.575,0-15.526-7.059-15.526-15.767V26.352c0-8.707,6.951-15.769,15.526-15.769h76.229c8.575,0,15.527,7.061,15.527,15.769
			V100.99z"/>
		<linearGradient id="XMLID_128_" gradientUnits="userSpaceOnUse" x1="55.4528" y1="9.8844" x2="55.4528" y2="117.9978">
			<stop  offset="0" style="stop-color:#4D494B"/>
			<stop  offset="0.067" style="stop-color:#363435"/>
			<stop  offset="1" style="stop-color:#231F20"/>
		</linearGradient>
		<path id="XMLID_102_" style="fill:url(#XMLID_128_);" d="M108.909,100.504c0,8.675-6.946,15.708-15.511,15.708H17.507
			c-8.566,0-15.51-7.033-15.51-15.708V26.488c0-8.675,6.944-15.709,15.51-15.709h75.891c8.566,0,15.511,7.035,15.511,15.709V100.504
			z"/>
		<linearGradient id="XMLID_129_" gradientUnits="userSpaceOnUse" x1="55.4528" y1="10.0852" x2="55.4528" y2="117.4401">
			<stop  offset="0" style="stop-color:#595557"/>
			<stop  offset="0.067" style="stop-color:#3B393B"/>
			<stop  offset="1" style="stop-color:#231F20"/>
		</linearGradient>
		<path id="XMLID_101_" style="fill:url(#XMLID_129_);" d="M108.724,100.018c0,8.642-6.939,15.649-15.496,15.649H17.675
			c-8.557,0-15.494-7.006-15.494-15.649V26.623c0-8.642,6.937-15.65,15.494-15.65h75.553c8.557,0,15.496,7.008,15.496,15.65V100.018
			z"/>
		<linearGradient id="XMLID_130_" gradientUnits="userSpaceOnUse" x1="55.4528" y1="10.2861" x2="55.4528" y2="116.8824">
			<stop  offset="0" style="stop-color:#656164"/>
			<stop  offset="0.067" style="stop-color:#403E40"/>
			<stop  offset="1" style="stop-color:#231F20"/>
		</linearGradient>
		<path id="XMLID_100_" style="fill:url(#XMLID_130_);" d="M108.539,99.532c0,8.61-6.933,15.589-15.48,15.589H17.844
			c-8.548,0-15.478-6.98-15.478-15.589V26.758c0-8.609,6.93-15.591,15.478-15.591h75.215c8.548,0,15.48,6.981,15.48,15.591V99.532z"
			/>
		<linearGradient id="XMLID_131_" gradientUnits="userSpaceOnUse" x1="55.4529" y1="10.4869" x2="55.4529" y2="116.3248">
			<stop  offset="0" style="stop-color:#716E71"/>
			<stop  offset="0.067" style="stop-color:#454345"/>
			<stop  offset="1" style="stop-color:#231F20"/>
		</linearGradient>
		<path id="XMLID_99_" style="fill:url(#XMLID_131_);" d="M108.355,99.046c0,8.577-6.926,15.53-15.465,15.53H18.013
			c-8.539,0-15.462-6.953-15.462-15.53V26.893c0-8.577,6.923-15.531,15.462-15.531H92.89c8.539,0,15.465,6.955,15.465,15.531V99.046
			z"/>
		<linearGradient id="XMLID_132_" gradientUnits="userSpaceOnUse" x1="55.4529" y1="10.6878" x2="55.4529" y2="115.7671">
			<stop  offset="0" style="stop-color:#7E7C7E"/>
			<stop  offset="0.067" style="stop-color:#4A494B"/>
			<stop  offset="1" style="stop-color:#231F20"/>
		</linearGradient>
		<path id="XMLID_98_" style="fill:url(#XMLID_132_);" d="M108.17,98.56c0,8.544-6.919,15.471-15.449,15.471H18.182
			c-8.53,0-15.446-6.927-15.446-15.471V27.029c0-8.544,6.916-15.472,15.446-15.472h74.539c8.53,0,15.449,6.928,15.449,15.472V98.56z
			"/>
		<linearGradient id="XMLID_133_" gradientUnits="userSpaceOnUse" x1="55.4529" y1="10.8886" x2="55.4529" y2="115.2094">
			<stop  offset="0" style="stop-color:#8B8B8D"/>
			<stop  offset="0.067" style="stop-color:#4F4E50"/>
			<stop  offset="1" style="stop-color:#231F20"/>
		</linearGradient>
		<path id="XMLID_97_" style="fill:url(#XMLID_133_);" d="M107.985,98.074c0,8.512-6.913,15.412-15.434,15.412H18.35
			c-8.521,0-15.43-6.9-15.43-15.412v-70.91c0-8.511,6.909-15.413,15.43-15.413h74.201c8.521,0,15.434,6.901,15.434,15.413V98.074z"
			/>
		<linearGradient id="XMLID_134_" gradientUnits="userSpaceOnUse" x1="55.4529" y1="11.0895" x2="55.4529" y2="114.6517">
			<stop  offset="0" style="stop-color:#99999C"/>
			<stop  offset="0.067" style="stop-color:#545456"/>
			<stop  offset="1" style="stop-color:#231F20"/>
		</linearGradient>
		<path id="XMLID_96_" style="fill:url(#XMLID_134_);" d="M107.801,97.588c0,8.479-6.906,15.353-15.418,15.353H18.519
			c-8.512,0-15.414-6.874-15.414-15.353V27.299c0-8.479,6.902-15.353,15.414-15.353h73.863c8.512,0,15.418,6.875,15.418,15.353
			V97.588z"/>
		<linearGradient id="XMLID_135_" gradientUnits="userSpaceOnUse" x1="55.4529" y1="11.2903" x2="55.4529" y2="114.094">
			<stop  offset="0" style="stop-color:#A7A9AC"/>
			<stop  offset="0.067" style="stop-color:#595A5C"/>
			<stop  offset="1" style="stop-color:#231F20"/>
		</linearGradient>
		<path id="XMLID_94_" style="fill:url(#XMLID_135_);" d="M107.616,97.102c0,8.446-6.9,15.294-15.403,15.294H18.688
			c-8.503,0-15.398-6.847-15.398-15.294V27.434c0-8.446,6.895-15.294,15.398-15.294h73.526c8.503,0,15.403,6.848,15.403,15.294
			V97.102z"/>
	</g>
	<g id="XMLID_93_">
		<path id="XMLID_2689_" style="fill:#FBB906;" d="M27.121,46.478c0,0.767-0.153,2.148-0.422,3.069
			c-0.076,0.23-0.23,0.614-0.23,0.767c0,0.115,0.115,0.192,0.192,0.192c0.192,0,0.499-0.307,0.767-0.537
			c1.573-1.42,3.146-2.801,4.298-4.565c0.114-0.191,0.23-0.46,0.23-0.767c0-0.269-0.346-0.499-1.151-0.653
			c-1.918-0.422-4.451-0.844-5.103-0.844c-0.307,0-0.46,0.077-0.46,0.307c0,0.23,0.23,0.269,0.537,0.422
			C26.238,44.099,27.121,44.714,27.121,46.478L27.121,46.478z"/>
		<path id="XMLID_2684_" style="fill:#FBB906;" d="M36.072,46.478c0,0.767-0.153,2.148-0.422,3.069
			c-0.077,0.23-0.23,0.614-0.23,0.767c0,0.115,0.115,0.192,0.192,0.192c0.191,0,0.499-0.307,0.767-0.537
			c1.573-1.42,3.146-2.801,4.297-4.565c0.115-0.191,0.23-0.46,0.23-0.767c0-0.269-0.346-0.499-1.151-0.653
			c-1.918-0.422-4.451-0.844-5.103-0.844c-0.307,0-0.46,0.077-0.46,0.307c0,0.23,0.23,0.269,0.537,0.422
			C35.19,44.099,36.072,44.714,36.072,46.478L36.072,46.478z"/>
		<path id="XMLID_2683_" style="fill:#FBB906;" d="M45.024,46.478c0,0.767-0.153,2.148-0.422,3.069
			c-0.077,0.23-0.23,0.614-0.23,0.767c0,0.115,0.115,0.192,0.192,0.192c0.191,0,0.499-0.307,0.767-0.537
			c1.573-1.42,3.146-2.801,4.297-4.565c0.115-0.191,0.23-0.46,0.23-0.767c0-0.269-0.345-0.499-1.151-0.653
			c-1.918-0.422-4.451-0.844-5.103-0.844c-0.307,0-0.46,0.077-0.46,0.307c0,0.23,0.23,0.269,0.537,0.422
			C44.142,44.099,45.024,44.714,45.024,46.478L45.024,46.478z"/>
		<path id="XMLID_2682_" style="fill:#FBB906;" d="M53.976,46.478c0,0.767-0.153,2.148-0.422,3.069
			c-0.077,0.23-0.23,0.614-0.23,0.767c0,0.115,0.115,0.192,0.192,0.192c0.191,0,0.499-0.307,0.767-0.537
			c1.573-1.42,3.146-2.801,4.297-4.565c0.115-0.191,0.23-0.46,0.23-0.767c0-0.269-0.345-0.499-1.151-0.653
			c-1.918-0.422-4.451-0.844-5.103-0.844c-0.307,0-0.46,0.077-0.46,0.307c0,0.23,0.23,0.269,0.537,0.422
			C53.094,44.099,53.976,44.714,53.976,46.478L53.976,46.478z"/>
		<path id="XMLID_1664_" style="fill:#FBB906;" d="M62.928,46.478c0,0.767-0.153,2.148-0.422,3.069
			c-0.076,0.23-0.23,0.614-0.23,0.767c0,0.115,0.115,0.192,0.192,0.192c0.191,0,0.499-0.307,0.767-0.537
			c1.573-1.42,3.146-2.801,4.298-4.565c0.115-0.191,0.23-0.46,0.23-0.767c0-0.269-0.345-0.499-1.151-0.653
			c-1.918-0.422-4.451-0.844-5.103-0.844c-0.307,0-0.46,0.077-0.46,0.307c0,0.23,0.23,0.269,0.537,0.422
			C62.045,44.099,62.928,44.714,62.928,46.478L62.928,46.478z"/>
		<path id="XMLID_1662_" style="fill:#FBB906;" d="M71.879,46.478c0,0.767-0.153,2.148-0.422,3.069
			c-0.077,0.23-0.23,0.614-0.23,0.767c0,0.115,0.115,0.192,0.192,0.192c0.192,0,0.499-0.307,0.767-0.537
			c1.573-1.42,3.146-2.801,4.297-4.565c0.115-0.191,0.23-0.46,0.23-0.767c0-0.269-0.345-0.499-1.151-0.653
			c-1.918-0.422-4.451-0.844-5.103-0.844c-0.307,0-0.46,0.077-0.46,0.307c0,0.23,0.23,0.269,0.537,0.422
			C70.997,44.099,71.879,44.714,71.879,46.478L71.879,46.478z"/>
		<path id="XMLID_1660_" style="fill:#FBB906;" d="M80.831,46.478c0,0.767-0.153,2.148-0.422,3.069
			c-0.077,0.23-0.23,0.614-0.23,0.767c0,0.115,0.115,0.192,0.192,0.192c0.192,0,0.499-0.307,0.767-0.537
			c1.573-1.42,3.146-2.801,4.297-4.565c0.115-0.191,0.23-0.46,0.23-0.767c0-0.269-0.346-0.499-1.151-0.653
			c-1.918-0.422-4.451-0.844-5.103-0.844c-0.307,0-0.46,0.077-0.46,0.307c0,0.23,0.23,0.269,0.537,0.422
			C79.949,44.099,80.831,44.714,80.831,46.478L80.831,46.478z"/>
		<path id="XMLID_1606_" style="fill-rule:evenodd;clip-rule:evenodd;fill:#CBCBCB;" d="M90.228,99.346
			c0.391,0,0.772,0.101,1.144,0.302c0.372,0.2,0.662,0.486,0.87,0.86c0.207,0.372,0.311,0.761,0.311,1.166
			c0,0.401-0.103,0.787-0.308,1.157c-0.204,0.37-0.49,0.658-0.86,0.863c-0.368,0.204-0.754,0.305-1.157,0.305
			c-0.403,0-0.79-0.102-1.159-0.305c-0.368-0.205-0.655-0.493-0.861-0.863c-0.206-0.37-0.308-0.756-0.308-1.157
			c0-0.405,0.104-0.793,0.312-1.166c0.21-0.374,0.5-0.661,0.873-0.86C89.456,99.447,89.838,99.346,90.228,99.346L90.228,99.346z
			 M90.228,99.731c-0.327,0-0.646,0.084-0.956,0.253c-0.308,0.167-0.55,0.406-0.725,0.719c-0.175,0.311-0.262,0.634-0.262,0.971
			c0,0.335,0.085,0.657,0.256,0.965c0.173,0.306,0.413,0.546,0.722,0.719c0.308,0.171,0.63,0.256,0.965,0.256
			c0.335,0,0.657-0.085,0.965-0.256c0.308-0.173,0.548-0.412,0.719-0.719c0.17-0.308,0.256-0.63,0.256-0.965
			c0-0.337-0.087-0.661-0.262-0.971c-0.173-0.312-0.414-0.552-0.725-0.719C90.871,99.815,90.553,99.731,90.228,99.731L90.228,99.731
			z M89.208,102.96v-2.504h0.86c0.294,0,0.507,0.024,0.639,0.071c0.131,0.046,0.236,0.126,0.314,0.241
			c0.078,0.115,0.117,0.237,0.117,0.367c0,0.183-0.066,0.342-0.197,0.478c-0.129,0.136-0.302,0.212-0.518,0.228
			c0.089,0.037,0.159,0.081,0.213,0.133c0.101,0.099,0.224,0.264,0.37,0.496l0.305,0.49h-0.493l-0.222-0.395
			c-0.175-0.311-0.316-0.505-0.422-0.583c-0.074-0.057-0.182-0.086-0.324-0.086h-0.237v1.064H89.208L89.208,102.96z M89.612,101.551
			h0.49c0.234,0,0.394-0.035,0.478-0.105c0.086-0.07,0.129-0.163,0.129-0.278c0-0.074-0.021-0.14-0.062-0.197
			c-0.041-0.06-0.099-0.104-0.173-0.133c-0.072-0.029-0.207-0.043-0.404-0.043h-0.459V101.551L89.612,101.551z"/>
		<path id="XMLID_1465_" style="fill:#FFFFFF;" d="M12.932,65.053c0,19.779,13.504,36.403,31.795,41.157
			c0.409-0.531,1.052-0.874,1.774-0.874c3.708,0,7.273-3.006,7.273-6.714v-9.56C38.797,88.194,26.92,75.772,26.92,60.577v-4.476
			c-0.066-0.95-1.253-1.78-1.449-1.78c-0.131,0-0.229-0.131-0.229-0.229c0-0.164,0.131-0.229,0.458-0.229
			c0.925,0,2.657,0.062,2.899,0.065c0.242-0.003,1.974-0.065,2.899-0.065c0.327,0,0.458,0.065,0.458,0.229
			c0,0.098-0.098,0.229-0.229,0.229c-0.197,0-1.384,0.83-1.449,1.78v4.476c0,13.341,10.376,24.258,23.499,25.122v-5.611
			c-10.029-0.851-17.904-9.261-17.904-19.511v-4.476c-0.065-0.95-1.253-1.78-1.449-1.78c-0.131,0-0.229-0.131-0.229-0.229
			c0-0.164,0.131-0.229,0.458-0.229c0.925,0,2.657,0.062,2.898,0.065c0.242-0.003,1.974-0.065,2.899-0.065
			c0.327,0,0.458,0.065,0.458,0.229c0,0.098-0.098,0.229-0.229,0.229c-0.197,0-1.384,0.83-1.449,1.78v4.476
			c0,8.394,6.374,15.3,14.547,16.139v-5.641c-5.073-0.805-8.952-5.199-8.952-10.498v-4.476c-0.065-0.95-1.253-1.78-1.449-1.78
			c-0.132,0-0.229-0.131-0.229-0.229c0-0.164,0.131-0.229,0.458-0.229c0.925,0,2.657,0.062,2.898,0.065
			c0.242-0.003,1.974-0.065,2.899-0.065c0.327,0,0.458,0.065,0.458,0.229c0,0.098-0.098,0.229-0.229,0.229
			c-0.197,0-1.384,0.83-1.449,1.78v4.476c0,3.439,2.387,6.321,5.595,7.079v-7.079v-4.476c-0.065-0.95-1.253-1.78-1.449-1.78
			c-0.131,0-0.229-0.131-0.229-0.229c0-0.164,0.131-0.229,0.458-0.229c0.925,0,2.657,0.062,2.899,0.065
			c0.242-0.003,1.974-0.065,2.898-0.065c0.328,0,0.458,0.065,0.458,0.229c0,0.098-0.098,0.229-0.229,0.229
			c-0.196,0-1.384,0.83-1.449,1.78v4.476v7.079c3.208-0.758,5.595-3.64,5.595-7.079v-4.476c-0.066-0.95-1.253-1.78-1.449-1.78
			c-0.131,0-0.229-0.131-0.229-0.229c0-0.164,0.131-0.229,0.458-0.229c0.925,0,2.657,0.062,2.899,0.065
			c0.241-0.003,1.973-0.065,2.898-0.065c0.328,0,0.458,0.065,0.458,0.229c0,0.098-0.098,0.229-0.229,0.229
			c-0.196,0-1.384,0.83-1.449,1.78v4.476c0,5.3-3.878,9.694-8.952,10.498v5.641c8.172-0.84,14.547-7.745,14.547-16.139v-4.476
			c-0.066-0.95-1.253-1.78-1.449-1.78c-0.131,0-0.229-0.131-0.229-0.229c0-0.164,0.131-0.229,0.458-0.229
			c0.925,0,2.657,0.062,2.899,0.065c0.241-0.003,1.974-0.065,2.899-0.065c0.327,0,0.458,0.065,0.458,0.229
			c0,0.098-0.098,0.229-0.229,0.229c-0.196,0-1.384,0.83-1.449,1.78v4.476c0,10.249-7.874,18.66-17.903,19.511v5.611
			C70.254,84.835,80.63,73.918,80.63,60.577v-4.476c-0.065-0.95-1.253-1.78-1.449-1.78c-0.131,0-0.229-0.131-0.229-0.229
			c0-0.164,0.131-0.229,0.458-0.229c0.925,0,2.657,0.062,2.899,0.065c0.241-0.003,1.974-0.065,2.899-0.065
			c0.327,0,0.458,0.065,0.458,0.229c0,0.098-0.098,0.229-0.229,0.229c-0.196,0-1.384,0.83-1.449,1.78v4.476
			c0,15.195-11.877,27.616-26.855,28.485v9.56c0,3.708,3.565,6.714,7.273,6.714c0.723,0,1.365,0.342,1.774,0.873
			c18.291-4.753,31.795-21.378,31.795-41.157c0-23.484-19.037-42.521-42.521-42.521C31.969,22.532,12.932,41.569,12.932,65.053
			L12.932,65.053z M9.575,65.053c0-25.338,20.54-45.877,45.878-45.877c25.337,0,45.877,20.54,45.877,45.877
			c0,25.338-20.54,45.878-45.877,45.878C30.115,110.93,9.575,90.391,9.575,65.053L9.575,65.053z"/>
	</g>
	<g id="XMLID_2746_">
		<path id="XMLID_107_" style="fill:#3C3C3B;" d="M38.911,138.983c0.064,0.576,0.176,1.472,0.864,1.696
			c0.465,0.144,0.881,0.144,1.041,0.144c0.08,0,0.128,0.016,0.128,0.08c0,0.096-0.145,0.144-0.336,0.144
			c-0.353,0-2.081-0.048-2.674-0.096c-0.368-0.032-0.448-0.08-0.448-0.16c0-0.064,0.032-0.096,0.112-0.112
			c0.08-0.016,0.096-0.288,0.064-0.576l-0.769-8.259h-0.048l-3.922,8.323c-0.336,0.705-0.384,0.849-0.528,0.849
			c-0.112,0-0.192-0.16-0.496-0.736c-0.416-0.784-1.793-3.554-1.873-3.713c-0.144-0.288-1.937-4.13-2.112-4.562h-0.064l-0.64,7.427
			c-0.017,0.256-0.017,0.544-0.017,0.816c0,0.24,0.177,0.448,0.416,0.496c0.272,0.064,0.513,0.08,0.608,0.08
			c0.064,0,0.128,0.032,0.128,0.08c0,0.112-0.096,0.144-0.288,0.144c-0.592,0-1.36-0.048-1.488-0.048
			c-0.145,0-0.912,0.048-1.345,0.048c-0.16,0-0.271-0.032-0.271-0.144c0-0.048,0.079-0.08,0.159-0.08c0.129,0,0.24,0,0.48-0.048
			c0.528-0.096,0.576-0.72,0.641-1.329l1.152-10.436c0.016-0.176,0.08-0.288,0.176-0.288c0.097,0,0.16,0.064,0.24,0.24l4.898,10.068
			l4.705-10.052c0.064-0.144,0.129-0.256,0.24-0.256c0.112,0,0.16,0.128,0.192,0.432L38.911,138.983z"/>
		<path id="XMLID_109_" style="fill:#3C3C3B;" d="M45.034,134.693c0-2.113,0-2.497-0.032-2.929
			c-0.032-0.464-0.112-0.688-0.576-0.752c-0.112-0.016-0.353-0.032-0.48-0.032c-0.048,0-0.112-0.064-0.112-0.112
			c0-0.08,0.064-0.112,0.225-0.112c0.64,0,1.553,0.032,1.633,0.032c0.096,0,3.041,0.016,3.361,0c0.271-0.016,0.527-0.064,0.64-0.08
			c0.064-0.016,0.128-0.064,0.192-0.064c0.048,0,0.063,0.064,0.063,0.128c0,0.096-0.079,0.256-0.111,0.64
			c-0.017,0.128-0.048,0.736-0.08,0.896c-0.017,0.064-0.064,0.144-0.128,0.144c-0.08,0-0.112-0.064-0.112-0.176
			c0-0.096-0.016-0.32-0.08-0.48c-0.096-0.224-0.24-0.32-1.009-0.417c-0.239-0.032-1.872-0.048-2.032-0.048
			c-0.064,0-0.08,0.048-0.08,0.144v3.698c0,0.096,0,0.144,0.08,0.144c0.176,0,2.032,0,2.353-0.032
			c0.336-0.032,0.544-0.048,0.688-0.192c0.096-0.096,0.16-0.176,0.208-0.176s0.08,0.032,0.08,0.112s-0.08,0.304-0.112,0.752
			c-0.032,0.272-0.063,0.785-0.063,0.88c0,0.112-0.032,0.256-0.128,0.256c-0.064,0-0.097-0.048-0.097-0.128
			c0-0.128,0-0.272-0.063-0.448c-0.049-0.192-0.177-0.353-0.721-0.417c-0.384-0.048-1.889-0.064-2.129-0.064
			c-0.08,0-0.096,0.048-0.096,0.096v1.136c0,0.464-0.017,2.049,0,2.321c0.032,0.912,0.288,1.088,1.681,1.088
			c0.368,0,1.04,0,1.408-0.144c0.368-0.16,0.561-0.4,0.641-0.944c0.032-0.16,0.063-0.208,0.144-0.208s0.097,0.112,0.097,0.208
			c0,0.096-0.112,1.024-0.192,1.312c-0.096,0.352-0.24,0.352-0.784,0.352c-1.057,0-1.873-0.032-2.449-0.048
			C46.267,141,45.898,141,45.69,141c-0.032,0-0.305,0-0.608,0.016c-0.272,0.016-0.593,0.032-0.816,0.032
			c-0.145,0-0.225-0.032-0.225-0.112c0-0.048,0.032-0.112,0.112-0.112c0.128,0,0.304-0.048,0.433-0.064
			c0.271-0.048,0.304-0.32,0.368-0.72c0.08-0.56,0.08-1.633,0.08-2.945V134.693z"/>
		<path id="XMLID_111_" style="fill:#3C3C3B;" d="M55.45,134.693c0-2.113,0-2.497-0.032-2.929c-0.032-0.464-0.112-0.688-0.576-0.752
			c-0.112-0.016-0.353-0.032-0.48-0.032c-0.048,0-0.112-0.064-0.112-0.112c0-0.08,0.064-0.112,0.225-0.112
			c0.64,0,1.553,0.032,1.633,0.032c0.159,0,1.056-0.032,1.889-0.032c1.408,0,3.985-0.128,5.65,1.553
			c0.704,0.704,1.376,1.841,1.376,3.458c0,1.712-0.736,3.025-1.521,3.825c-0.608,0.625-1.873,1.569-4.273,1.569
			c-0.608,0-1.36-0.048-1.969-0.08c-0.608-0.048-1.089-0.08-1.152-0.08c-0.032,0-0.288,0.016-0.577,0.016
			c-0.288,0.016-0.624,0.032-0.848,0.032c-0.145,0-0.225-0.032-0.225-0.112c0-0.048,0.032-0.112,0.112-0.112
			c0.128,0,0.304-0.032,0.433-0.064c0.271-0.064,0.304-0.32,0.368-0.72c0.08-0.56,0.08-1.633,0.08-2.945V134.693z M56.73,136.166
			c0,1.44,0,2.705,0.016,2.961c0.017,0.336,0.048,0.832,0.16,0.976c0.176,0.256,0.672,0.544,2.337,0.544
			c1.297,0,2.449-0.432,3.298-1.232c0.736-0.688,1.104-1.985,1.104-3.233c0-1.729-0.753-2.833-1.329-3.41
			c-1.328-1.344-2.881-1.521-4.562-1.521c-0.272,0-0.721,0.048-0.849,0.096s-0.176,0.112-0.176,0.272V136.166z"/>
		<path id="XMLID_114_" style="fill:#3C3C3B;" d="M71.131,137.094c0,1.312,0,2.385,0.063,2.945c0.049,0.4,0.097,0.656,0.513,0.72
			c0.208,0.032,0.512,0.064,0.64,0.064c0.08,0,0.112,0.064,0.112,0.112c0,0.064-0.063,0.112-0.224,0.112
			c-0.784,0-1.697-0.048-1.761-0.048c-0.08,0-0.961,0.048-1.393,0.048c-0.145,0-0.225-0.032-0.225-0.112
			c0-0.048,0.032-0.112,0.112-0.112c0.128,0,0.304-0.032,0.433-0.064c0.271-0.064,0.319-0.32,0.368-0.72
			c0.063-0.56,0.08-1.633,0.08-2.945v-2.401c0-2.113,0-2.497-0.032-2.929c-0.032-0.464-0.145-0.672-0.448-0.736
			c-0.16-0.032-0.336-0.048-0.433-0.048c-0.063,0-0.111-0.064-0.111-0.112c0-0.08,0.063-0.112,0.224-0.112
			c0.464,0,1.345,0.032,1.425,0.032c0.063,0,0.977-0.032,1.408-0.032c0.16,0,0.225,0.032,0.225,0.112
			c0,0.048-0.064,0.112-0.112,0.112c-0.096,0-0.192,0-0.353,0.032c-0.384,0.08-0.464,0.272-0.496,0.752
			c-0.016,0.432-0.016,0.816-0.016,2.929V137.094z"/>
		<path id="XMLID_116_" style="fill:#3C3C3B;" d="M79.819,131.028c0.176-0.448,0.24-0.528,0.336-0.528
			c0.145,0,0.192,0.192,0.336,0.497c0.257,0.576,2.514,6.194,3.378,8.259c0.512,1.216,0.896,1.393,1.2,1.488
			c0.208,0.064,0.416,0.08,0.561,0.08c0.08,0,0.176,0.032,0.176,0.112s-0.16,0.112-0.32,0.112c-0.208,0-1.248,0-2.225-0.032
			C82.988,141,82.765,141,82.765,140.92c0-0.064,0.032-0.064,0.096-0.096c0.08-0.032,0.225-0.144,0.128-0.368l-1.265-3.121
			c-0.031-0.064-0.048-0.08-0.128-0.08h-3.249c-0.064,0-0.112,0.032-0.145,0.112l-0.8,2.177c-0.128,0.336-0.208,0.672-0.208,0.912
			c0,0.272,0.24,0.368,0.48,0.368h0.128c0.111,0,0.144,0.048,0.144,0.112c0,0.08-0.08,0.112-0.208,0.112
			c-0.336,0-1.104-0.048-1.265-0.048c-0.144,0-0.848,0.048-1.425,0.048c-0.176,0-0.271-0.032-0.271-0.112
			c0-0.064,0.063-0.112,0.128-0.112c0.096,0,0.304-0.016,0.416-0.032c0.641-0.08,0.912-0.56,1.185-1.249L79.819,131.028z
			 M81.388,136.694c0.064,0,0.064-0.032,0.048-0.096l-1.393-3.729c-0.08-0.208-0.16-0.208-0.24,0l-1.312,3.729
			c-0.016,0.064,0,0.096,0.049,0.096H81.388z"/>
	</g>
</g>
<g id="XMLID_106_">
</g>
<g id="XMLID_119_">
</g>
<g id="XMLID_120_">
</g>
<g id="XMLID_121_">
</g>
<g id="XMLID_122_">
</g>
<g id="XMLID_123_">
</g>
</svg>
