<?xml version="1.0" encoding="utf-8"?>
<!-- Generator: Adobe Illustrator 19.0.0, SVG Export Plug-In . SVG Version: 6.00 Build 0)  -->
<svg version="1.1" id="NP" xmlns="http://www.w3.org/2000/svg" xmlns:xlink="http://www.w3.org/1999/xlink" x="0px" y="0px"
	 viewBox="0 0 195 152" style="enable-background:new 0 0 195 152;" xml:space="preserve">
<style type="text/css">
	.st0{fill:url(#XMLID_74_);}
	.st1{fill:url(#XMLID_75_);}
	.st2{fill:url(#XMLID_76_);}
	.st3{fill:url(#XMLID_77_);}
	.st4{fill:url(#XMLID_78_);}
	.st5{filter:url(#Adobe_OpacityMaskFilter);}
	.st6{fill:url(#XMLID_92_);}
	.st7{mask:url(#XMLID_79_);fill:#808080;}
	.st8{fill:#E6E6E6;}
	.st9{fill:#3C3C3B;}
</style>
<g id="XMLID_2_">
	<g id="XMLID_6_">
		<g id="XMLID_7_">
			<g id="XMLID_17_">
				<linearGradient id="XMLID_74_" gradientUnits="userSpaceOnUse" x1="97.3351" y1="120" x2="97.3351" y2="10">
					<stop  offset="0" style="stop-color:#979797"/>
					<stop  offset="5.018470e-02" style="stop-color:#878787"/>
					<stop  offset="0.1508" style="stop-color:#616060"/>
					<stop  offset="0.2" style="stop-color:#4E4E4E"/>
					<stop  offset="0.224" style="stop-color:#545454"/>
					<stop  offset="0.2555" style="stop-color:#646464"/>
					<stop  offset="0.291" style="stop-color:#7F7F7F"/>
					<stop  offset="0.3296" style="stop-color:#A5A5A5"/>
					<stop  offset="0.3702" style="stop-color:#D5D5D5"/>
					<stop  offset="0.4" style="stop-color:#FDFDFD"/>
					<stop  offset="0.6" style="stop-color:#C2C1C1"/>
					<stop  offset="0.8" style="stop-color:#FDFDFD"/>
					<stop  offset="1" style="stop-color:#979797"/>
				</linearGradient>
				<circle id="XMLID_20_" class="st0" cx="97.3" cy="65" r="55"/>
				<linearGradient id="XMLID_75_" gradientUnits="userSpaceOnUse" x1="97.3357" y1="10.5089" x2="97.3357" y2="119.4944">
					<stop  offset="0" style="stop-color:#F0F0F0"/>
					<stop  offset="3.496046e-02" style="stop-color:#D6D5D5"/>
					<stop  offset="0.1055" style="stop-color:#9A9797"/>
					<stop  offset="0.2" style="stop-color:#4E4E4E"/>
					<stop  offset="0.224" style="stop-color:#545454"/>
					<stop  offset="0.2555" style="stop-color:#646464"/>
					<stop  offset="0.291" style="stop-color:#7F7F7F"/>
					<stop  offset="0.3296" style="stop-color:#A5A5A5"/>
					<stop  offset="0.3702" style="stop-color:#D5D5D5"/>
					<stop  offset="0.4" style="stop-color:#FDFDFD"/>
					<stop  offset="0.6" style="stop-color:#C2C1C1"/>
					<stop  offset="0.8" style="stop-color:#FDFDFD"/>
					<stop  offset="1" style="stop-color:#676767"/>
				</linearGradient>
				<circle id="XMLID_19_" class="st1" cx="97.3" cy="65" r="54.5"/>
				<linearGradient id="XMLID_76_" gradientUnits="userSpaceOnUse" x1="97.3351" y1="14.3569" x2="97.3351" y2="115.6473">
					<stop  offset="0" style="stop-color:#F0F0F0"/>
					<stop  offset="3.496046e-02" style="stop-color:#D6D5D5"/>
					<stop  offset="0.1055" style="stop-color:#9A9797"/>
					<stop  offset="0.2" style="stop-color:#4E4E4E"/>
					<stop  offset="0.224" style="stop-color:#545454"/>
					<stop  offset="0.2555" style="stop-color:#646464"/>
					<stop  offset="0.291" style="stop-color:#7F7F7F"/>
					<stop  offset="0.3296" style="stop-color:#A5A5A5"/>
					<stop  offset="0.3702" style="stop-color:#D5D5D5"/>
					<stop  offset="0.4" style="stop-color:#FDFDFD"/>
					<stop  offset="0.6" style="stop-color:#C2C1C1"/>
					<stop  offset="0.8" style="stop-color:#FDFDFD"/>
					<stop  offset="1" style="stop-color:#5B5B5B"/>
				</linearGradient>
				<circle id="XMLID_18_" class="st2" cx="97.3" cy="65" r="50.6"/>
			</g>
			<radialGradient id="XMLID_77_" cx="97.3357" cy="65.0016" r="54.493" gradientUnits="userSpaceOnUse">
				<stop  offset="0.93" style="stop-color:#FFFFFF"/>
				<stop  offset="0.965" style="stop-color:#D2D2D2"/>
				<stop  offset="0.998" style="stop-color:#FFFFFF"/>
			</radialGradient>
			<path id="XMLID_14_" class="st3" d="M97.3,10.5c-30.1,0-54.5,24.4-54.5,54.5c0,30.1,24.4,54.5,54.5,54.5
				c30.1,0,54.5-24.4,54.5-54.5C151.8,34.9,127.4,10.5,97.3,10.5z M97.3,115.6c-28,0-50.6-22.7-50.6-50.6s22.7-50.6,50.6-50.6
				c28,0,50.6,22.7,50.6,50.6S125.3,115.6,97.3,115.6z"/>
			<linearGradient id="XMLID_78_" gradientUnits="userSpaceOnUse" x1="97.3351" y1="15.4923" x2="97.3351" y2="114.5099">
				<stop  offset="0" style="stop-color:#6CA4D9"/>
				<stop  offset="0.9011" style="stop-color:#3074BA"/>
			</linearGradient>
			<circle id="XMLID_13_" class="st4" cx="97.3" cy="65" r="49.5"/>
			<defs>
				<filter id="Adobe_OpacityMaskFilter" filterUnits="userSpaceOnUse" x="47.8" y="15.5" width="99" height="99">
					<feColorMatrix  type="matrix" values="1 0 0 0 0  0 1 0 0 0  0 0 1 0 0  0 0 0 1 0"/>
				</filter>
			</defs>
			<mask maskUnits="userSpaceOnUse" x="47.8" y="15.5" width="99" height="99" id="XMLID_79_">
				<g id="XMLID_9_" class="st5">
					<radialGradient id="XMLID_92_" cx="97.3351" cy="65.0011" r="49.5085" gradientUnits="userSpaceOnUse">
						<stop  offset="0.9267" style="stop-color:#010202"/>
						<stop  offset="1" style="stop-color:#E6E6E6"/>
					</radialGradient>
					<circle id="XMLID_21_" class="st6" cx="97.3" cy="65" r="49.5"/>
				</g>
			</mask>
			<path id="XMLID_10_" class="st7" d="M146.8,65c0,27.3-22.2,49.5-49.5,49.5C70,114.5,47.8,92.3,47.8,65
				c0-27.3,22.2-49.5,49.5-49.5C124.7,15.5,146.8,37.7,146.8,65z M97.3,19.5c-25.1,0-45.5,20.4-45.5,45.5s20.4,45.5,45.5,45.5
				c25.1,0,45.5-20.4,45.5-45.5S122.4,19.5,97.3,19.5z"/>
		</g>
	</g>
	<g id="XMLID_5_">
		<path id="XMLID_63_" class="st8" d="M61.6,86.9V43h11.6l9.1,16.1c2.6,4.6,5.2,10.1,7.2,15h0.2c-0.7-5.8-0.8-11.7-0.8-18.3V43H98
			v43.9H87.6l-9.4-16.9c-2.6-4.7-5.5-10.4-7.6-15.5l-0.2,0.1c0.3,5.8,0.4,12,0.4,19.1v13.2H61.6z"/>
		<path id="XMLID_65_" class="st8" d="M106.6,43.6c3.1-0.5,7.4-0.9,13.4-0.9c6.1,0,10.5,1.2,13.4,3.5c2.8,2.2,4.7,5.9,4.7,10.2
			s-1.4,7.9-4,10.4c-3.4,3.2-8.4,4.6-14.3,4.6c-1.3,0-2.5-0.1-3.4-0.2v15.7h-9.8V43.6z M116.4,63.5c0.8,0.2,1.9,0.3,3.3,0.3
			c5.3,0,8.5-2.7,8.5-7.2c0-4-2.8-6.4-7.7-6.4c-2,0-3.4,0.2-4.1,0.4V63.5z"/>
	</g>
	<g id="XMLID_8_">
		<path id="XMLID_3_" class="st9" d="M13.3,138.9c0,1.3,0.2,1.7,0.6,1.9c0.3,0.1,0.7,0.1,0.8,0.1c0.1,0,0.1,0,0.1,0.1
			c0,0.1-0.1,0.1-0.3,0.1c-0.9,0-1.6,0-1.7,0c-0.1,0-0.8,0-1.5,0c-0.2,0-0.3,0-0.3-0.1c0-0.1,0-0.1,0.1-0.1c0.1,0,0.4,0,0.7-0.1
			c0.4-0.1,0.5-0.6,0.5-2l0-9.2c0-0.6,0-0.8,0.2-0.8s0.4,0.4,0.6,0.5c0.2,0.3,2.6,2.8,5.1,5.5c1.6,1.7,3.3,3.6,3.8,4.2l-0.2-8.1
			c0-1-0.1-1.4-0.6-1.5c-0.3-0.1-0.7-0.1-0.8-0.1c-0.1,0-0.1,0-0.1-0.1c0-0.1,0.1-0.1,0.3-0.1c0.7,0,1.5,0,1.7,0c0.2,0,0.7,0,1.4,0
			c0.2,0,0.3,0,0.3,0.1c0,0.1-0.1,0.1-0.2,0.1c-0.1,0-0.2,0-0.4,0c-0.5,0.1-0.6,0.5-0.6,1.4l0,9.4c0,1.1,0,1.1-0.1,1.1
			c-0.1,0-0.3-0.2-1.2-1c-0.2-0.2-2.5-2.5-4.2-4.3c-1.9-2-3.7-4-4.2-4.6L13.3,138.9z"/>
		<path id="XMLID_22_" class="st9" d="M30.6,130.6c3.2,0,5.6,1.9,5.6,5.1c0,3-2.3,5.6-5.7,5.6c-3.9,0-5.5-2.9-5.5-5.3
			C25,133.7,26.7,130.6,30.6,130.6z M30.9,140.7c1.3,0,3.8-0.7,3.8-4.6c0-3.3-2-5-4.2-5c-2.4,0-4,1.5-4,4.4
			C26.4,138.7,28.3,140.7,30.9,140.7z"/>
		<path id="XMLID_25_" class="st9" d="M41.4,137.1c0,1.3,0,2.4,0.1,2.9c0,0.4,0.1,0.7,0.5,0.7c0.2,0,0.5,0.1,0.6,0.1
			c0.1,0,0.1,0.1,0.1,0.1c0,0.1-0.1,0.1-0.2,0.1c-0.8,0-1.7,0-1.7,0c-0.1,0-1,0-1.5,0c-0.2,0-0.2,0-0.2-0.1c0,0,0-0.1,0.1-0.1
			c0.1,0,0.3,0,0.4-0.1c0.3-0.1,0.4-0.3,0.4-0.7c0.1-0.6,0.1-1.6,0.1-2.9v-5.7l-2,0c-0.9,0-1.2,0.1-1.4,0.4
			c-0.2,0.2-0.2,0.3-0.2,0.4c0,0.1-0.1,0.1-0.1,0.1c0,0-0.1,0-0.1-0.1c0-0.1,0.3-1.4,0.3-1.5c0-0.1,0.1-0.3,0.1-0.3
			c0.1,0,0.2,0.1,0.6,0.2c0.4,0,0.9,0.1,1.1,0.1h5.3c0.5,0,0.8,0,1-0.1c0.2,0,0.3-0.1,0.4-0.1c0.1,0,0.1,0.1,0.1,0.2
			c0,0.4,0,1.4,0,1.6c0,0.1-0.1,0.2-0.1,0.2s-0.1,0-0.1-0.2l0-0.1c0-0.4-0.4-0.7-1.7-0.8l-1.8,0V137.1z"/>
		<path id="XMLID_27_" class="st9" d="M48.5,137.1c0,1.3,0,2.4,0.1,2.9c0,0.4,0.1,0.7,0.5,0.7c0.2,0,0.5,0.1,0.6,0.1
			c0.1,0,0.1,0.1,0.1,0.1c0,0.1-0.1,0.1-0.2,0.1c-0.8,0-1.7,0-1.8,0c-0.1,0-1,0-1.4,0c-0.1,0-0.2,0-0.2-0.1c0,0,0-0.1,0.1-0.1
			c0.1,0,0.3,0,0.4-0.1c0.3-0.1,0.3-0.3,0.4-0.7c0.1-0.6,0.1-1.6,0.1-2.9v-2.4c0-2.1,0-2.5,0-2.9c0-0.5-0.1-0.7-0.4-0.7
			c-0.2,0-0.3,0-0.4,0c-0.1,0-0.1-0.1-0.1-0.1c0-0.1,0.1-0.1,0.2-0.1c0.5,0,1.3,0,1.4,0c0.1,0,1,0,1.4,0c0.2,0,0.2,0,0.2,0.1
			c0,0-0.1,0.1-0.1,0.1c-0.1,0-0.2,0-0.4,0c-0.4,0.1-0.5,0.3-0.5,0.8c0,0.4,0,0.8,0,2.9V137.1z"/>
		<path id="XMLID_29_" class="st9" d="M52.6,139.8c-1.4-1.2-1.7-2.7-1.7-4c0-0.9,0.3-2.5,1.6-3.7c0.8-0.8,2.1-1.5,4.3-1.5
			c0.6,0,1.4,0,2,0.2c0.5,0.1,1,0.2,1.4,0.2c0.1,0,0.2,0.1,0.2,0.1c0,0.1,0,0.3-0.1,0.8c0,0.4,0,1.2,0,1.4c0,0.2-0.1,0.3-0.2,0.3
			c-0.1,0-0.1-0.1-0.1-0.3c0-0.5-0.2-1.1-0.6-1.4c-0.5-0.4-1.5-0.8-2.8-0.8c-1.8,0-2.7,0.5-3.2,0.9c-1,1-1.3,2.2-1.3,3.6
			c0,2.6,2.1,4.9,5.1,4.9c1.1,0,1.8-0.1,2.3-0.6c0.3-0.3,0.5-0.9,0.5-1.1c0-0.1,0-0.2,0.1-0.2c0.1,0,0.1,0.1,0.1,0.2
			c0,0.1-0.2,1.3-0.3,1.7c-0.1,0.3-0.1,0.3-0.4,0.4c-0.6,0.2-1.6,0.3-2.5,0.3C55.1,141.2,53.7,140.7,52.6,139.8z"/>
		<path id="XMLID_31_" class="st9" d="M64.3,137.1c0,1.3,0,2.4,0.1,2.9c0,0.4,0.1,0.7,0.5,0.7c0.2,0,0.5,0.1,0.6,0.1
			c0.1,0,0.1,0.1,0.1,0.1c0,0.1-0.1,0.1-0.2,0.1c-0.8,0-1.7,0-1.8,0c-0.1,0-1,0-1.4,0c-0.1,0-0.2,0-0.2-0.1c0,0,0-0.1,0.1-0.1
			c0.1,0,0.3,0,0.4-0.1c0.3-0.1,0.3-0.3,0.4-0.7c0.1-0.6,0.1-1.6,0.1-2.9v-2.4c0-2.1,0-2.5,0-2.9c0-0.5-0.1-0.7-0.4-0.7
			c-0.2,0-0.3,0-0.4,0c-0.1,0-0.1-0.1-0.1-0.1c0-0.1,0.1-0.1,0.2-0.1c0.5,0,1.3,0,1.4,0c0.1,0,1,0,1.4,0c0.2,0,0.2,0,0.2,0.1
			c0,0-0.1,0.1-0.1,0.1c-0.1,0-0.2,0-0.4,0c-0.4,0.1-0.5,0.3-0.5,0.8c0,0.4,0,0.8,0,2.9V137.1z"/>
		<path id="XMLID_33_" class="st9" d="M68.1,134.7c0-2.1,0-2.5,0-2.9c0-0.5-0.1-0.7-0.6-0.8c-0.1,0-0.4,0-0.5,0c0,0-0.1-0.1-0.1-0.1
			c0-0.1,0.1-0.1,0.2-0.1c0.6,0,1.6,0,1.6,0c0.1,0,3,0,3.4,0c0.3,0,0.5-0.1,0.6-0.1c0.1,0,0.1-0.1,0.2-0.1c0,0,0.1,0.1,0.1,0.1
			c0,0.1-0.1,0.3-0.1,0.6c0,0.1,0,0.7-0.1,0.9c0,0.1-0.1,0.1-0.1,0.1c-0.1,0-0.1-0.1-0.1-0.2c0-0.1,0-0.3-0.1-0.5
			c-0.1-0.2-0.2-0.3-1-0.4c-0.2,0-1.9,0-2,0c-0.1,0-0.1,0-0.1,0.1v3.7c0,0.1,0,0.1,0.1,0.1c0.2,0,2,0,2.4,0c0.3,0,0.5,0,0.7-0.2
			c0.1-0.1,0.2-0.2,0.2-0.2s0.1,0,0.1,0.1c0,0.1-0.1,0.3-0.1,0.8c0,0.3-0.1,0.8-0.1,0.9c0,0.1,0,0.3-0.1,0.3c-0.1,0-0.1,0-0.1-0.1
			c0-0.1,0-0.3-0.1-0.4c0-0.2-0.2-0.4-0.7-0.4c-0.4,0-1.9-0.1-2.1-0.1c-0.1,0-0.1,0-0.1,0.1v1.1c0,0.5,0,2,0,2.3
			c0,0.9,0.3,1.1,1.7,1.1c0.4,0,1,0,1.4-0.1c0.4-0.2,0.6-0.4,0.6-0.9c0-0.2,0.1-0.2,0.1-0.2s0.1,0.1,0.1,0.2c0,0.1-0.1,1-0.2,1.3
			c-0.1,0.4-0.2,0.4-0.8,0.4c-1.1,0-1.9,0-2.4,0c-0.6,0-1,0-1.2,0c0,0-0.3,0-0.6,0c-0.3,0-0.6,0-0.8,0c-0.1,0-0.2,0-0.2-0.1
			c0,0,0-0.1,0.1-0.1c0.1,0,0.3,0,0.4-0.1c0.3,0,0.3-0.3,0.4-0.7c0.1-0.6,0.1-1.6,0.1-2.9V134.7z"/>
		<path id="XMLID_35_" class="st9" d="M76.1,134.7c0-2.1,0-2.5,0-2.9c0-0.5-0.1-0.7-0.6-0.8c-0.1,0-0.4,0-0.5,0c0,0-0.1-0.1-0.1-0.1
			c0-0.1,0.1-0.1,0.2-0.1c0.6,0,1.6,0,1.7,0c0.1,0,1.3,0,1.8,0c0.9,0,1.9,0.1,2.6,0.6c0.4,0.3,1,0.9,1,1.9c0,1-0.4,2-1.7,3.1
			c1.2,1.4,2.1,2.7,2.9,3.5c0.8,0.8,1.2,0.9,1.6,0.9c0.3,0,0.4,0,0.5,0s0.1,0.1,0.1,0.1c0,0.1-0.1,0.1-0.3,0.1h-0.9
			c-0.8,0-1.2-0.1-1.5-0.3c-0.6-0.3-1.1-1-1.9-2c-0.6-0.7-1.2-1.6-1.5-2c-0.1-0.1-0.1-0.1-0.2-0.1l-1.8,0c-0.1,0-0.1,0-0.1,0.1v0.3
			c0,1.3,0,2.4,0.1,2.9c0,0.4,0.1,0.7,0.6,0.7c0.2,0,0.5,0.1,0.6,0.1c0.1,0,0.1,0.1,0.1,0.1c0,0.1-0.1,0.1-0.2,0.1
			c-0.8,0-1.7,0-1.7,0c0,0-1,0-1.4,0c-0.1,0-0.2,0-0.2-0.1c0,0,0-0.1,0.1-0.1c0.1,0,0.3,0,0.4-0.1c0.3-0.1,0.3-0.3,0.4-0.7
			c0.1-0.6,0.1-1.6,0.1-2.9V134.7z M77.3,135.8c0,0.1,0,0.1,0.1,0.2c0.2,0.1,0.9,0.2,1.6,0.2c0.3,0,0.7,0,1.1-0.2
			c0.5-0.3,0.8-1,0.8-2.1c0-1.7-0.9-2.7-2.4-2.7c-0.4,0-0.9,0-1,0.1c-0.1,0-0.1,0.1-0.1,0.2V135.8z"/>
		<path id="XMLID_38_" class="st9" d="M90.3,130.6c3.2,0,5.6,1.9,5.6,5.1c0,3-2.3,5.6-5.7,5.6c-3.9,0-5.5-2.9-5.5-5.3
			C84.7,133.7,86.4,130.6,90.3,130.6z M90.6,140.7c1.3,0,3.8-0.7,3.8-4.6c0-3.3-2-5-4.2-5c-2.4,0-4,1.5-4,4.4
			C86.1,138.7,88,140.7,90.6,140.7z"/>
		<path id="XMLID_41_" class="st9" d="M103.2,133.6c0-2.5,0-2.9,0-3.5c0-0.5-0.2-0.8-0.7-0.9c-0.1,0-0.4,0-0.5,0
			c-0.1,0-0.1,0-0.1-0.1c0-0.1,0.1-0.1,0.3-0.1c0.7,0,1.7,0,1.8,0c0.4,0,1.3,0,2,0c2,0,2.7,0.7,3,0.9c0.4,0.3,0.8,1.1,0.8,1.9
			c0,2.3-1.7,3.8-3.9,3.8c-0.1,0-0.3,0-0.3,0c-0.1,0-0.2,0-0.2-0.1c0-0.1,0.1-0.1,0.4-0.1c1.6,0,2.8-1.1,2.8-2.6
			c0-0.5,0-1.6-0.9-2.5s-1.8-0.8-2.2-0.8c-0.3,0-0.5,0-0.7,0.1c-0.1,0-0.1,0.1-0.1,0.3v6.6c0,1.5,0,2.8,0.1,3.5
			c0,0.5,0.1,0.8,0.6,0.9c0.2,0,0.6,0.1,0.7,0.1c0.1,0,0.1,0,0.1,0.1c0,0.1-0.1,0.1-0.3,0.1c-0.9,0-1.9,0-2,0c0,0-1.1,0-1.5,0
			c-0.2,0-0.3,0-0.3-0.1c0,0,0-0.1,0.1-0.1c0.1,0,0.3,0,0.5-0.1c0.3-0.1,0.4-0.4,0.5-0.9c0.1-0.7,0.1-1.9,0.1-3.5V133.6z"/>
		<path id="XMLID_43_" class="st9" d="M112,134.7c0-2.1,0-2.5,0-2.9c0-0.5-0.1-0.7-0.6-0.8c-0.1,0-0.4,0-0.5,0c0,0-0.1-0.1-0.1-0.1
			c0-0.1,0.1-0.1,0.2-0.1c0.6,0,1.6,0,1.7,0c0.1,0,1.3,0,1.8,0c0.9,0,1.9,0.1,2.6,0.6c0.4,0.3,1,0.9,1,1.9c0,1-0.4,2-1.7,3.1
			c1.2,1.4,2.1,2.7,2.9,3.5c0.8,0.8,1.2,0.9,1.6,0.9c0.3,0,0.4,0,0.5,0s0.1,0.1,0.1,0.1c0,0.1-0.1,0.1-0.3,0.1h-0.9
			c-0.8,0-1.2-0.1-1.5-0.3c-0.6-0.3-1.1-1-1.9-2c-0.6-0.7-1.2-1.6-1.5-2c-0.1-0.1-0.1-0.1-0.2-0.1l-1.8,0c-0.1,0-0.1,0-0.1,0.1v0.3
			c0,1.3,0,2.4,0.1,2.9c0,0.4,0.1,0.7,0.6,0.7c0.2,0,0.5,0.1,0.6,0.1c0.1,0,0.1,0.1,0.1,0.1c0,0.1-0.1,0.1-0.2,0.1
			c-0.8,0-1.7,0-1.7,0c0,0-1,0-1.4,0c-0.1,0-0.2,0-0.2-0.1c0,0,0-0.1,0.1-0.1c0.1,0,0.3,0,0.4-0.1c0.3-0.1,0.3-0.3,0.4-0.7
			c0.1-0.6,0.1-1.6,0.1-2.9V134.7z M113.2,135.8c0,0.1,0,0.1,0.1,0.2c0.2,0.1,0.9,0.2,1.6,0.2c0.3,0,0.7,0,1.1-0.2
			c0.5-0.3,0.8-1,0.8-2.1c0-1.7-0.9-2.7-2.4-2.7c-0.4,0-0.9,0-1,0.1c-0.1,0-0.1,0.1-0.1,0.2V135.8z"/>
		<path id="XMLID_46_" class="st9" d="M126.2,130.6c3.2,0,5.6,1.9,5.6,5.1c0,3-2.3,5.6-5.7,5.6c-3.9,0-5.5-2.9-5.5-5.3
			C120.6,133.7,122.3,130.6,126.2,130.6z M126.5,140.7c1.3,0,3.8-0.7,3.8-4.6c0-3.3-2-5-4.2-5c-2.4,0-4,1.5-4,4.4
			C122.1,138.7,124,140.7,126.5,140.7z"/>
		<path id="XMLID_49_" class="st9" d="M133.9,134.7c0-2.1,0-2.5,0-2.9c0-0.5-0.1-0.7-0.6-0.8c-0.1,0-0.4,0-0.5,0
			c0,0-0.1-0.1-0.1-0.1c0-0.1,0.1-0.1,0.2-0.1c0.6,0,1.5,0,1.6,0c0.3,0,3.3,0,3.6,0c0.3,0,0.5,0,0.6-0.1c0.1,0,0.1-0.1,0.2-0.1
			c0.1,0,0.1,0.1,0.1,0.1c0,0.1-0.1,0.3-0.1,0.6c0,0.1,0,0.7-0.1,0.9c0,0.1-0.1,0.1-0.1,0.1c-0.1,0-0.1-0.1-0.1-0.2
			c0-0.1,0-0.3-0.1-0.5s-0.4-0.4-1-0.4l-2.3,0c-0.1,0-0.1,0-0.1,0.1v3.7c0,0.1,0,0.1,0.1,0.1l1.9,0c0.2,0,0.4,0,0.6,0
			c0.3,0,0.5-0.1,0.7-0.2c0.1-0.1,0.1-0.1,0.2-0.1c0.1,0,0.1,0,0.1,0.1c0,0.1-0.1,0.3-0.1,0.8c0,0.3,0,0.8,0,0.9
			c0,0.1,0,0.3-0.1,0.3c-0.1,0-0.1-0.1-0.1-0.1c0-0.1,0-0.3-0.1-0.5c-0.1-0.2-0.3-0.4-0.7-0.4c-0.4,0-2,0-2.3,0
			c-0.1,0-0.1,0-0.1,0.1v1.1c0,1.3,0,2.4,0.1,2.9c0,0.4,0.1,0.7,0.5,0.7c0.2,0,0.5,0.1,0.6,0.1c0.1,0,0.1,0.1,0.1,0.1
			c0,0.1-0.1,0.1-0.2,0.1c-0.8,0-1.7,0-1.8,0c-0.1,0-1,0-1.4,0c-0.1,0-0.2,0-0.2-0.1c0,0,0-0.1,0.1-0.1c0.1,0,0.3,0,0.4-0.1
			c0.3,0,0.3-0.3,0.4-0.7c0.1-0.6,0.1-1.6,0.1-2.9V134.7z"/>
		<path id="XMLID_51_" class="st9" d="M141.7,134.7c0-2.1,0-2.5,0-2.9c0-0.5-0.1-0.7-0.6-0.8c-0.1,0-0.4,0-0.5,0
			c0,0-0.1-0.1-0.1-0.1c0-0.1,0.1-0.1,0.2-0.1c0.6,0,1.6,0,1.6,0c0.1,0,3,0,3.4,0c0.3,0,0.5-0.1,0.6-0.1c0.1,0,0.1-0.1,0.2-0.1
			c0,0,0.1,0.1,0.1,0.1c0,0.1-0.1,0.3-0.1,0.6c0,0.1,0,0.7-0.1,0.9c0,0.1-0.1,0.1-0.1,0.1c-0.1,0-0.1-0.1-0.1-0.2
			c0-0.1,0-0.3-0.1-0.5c-0.1-0.2-0.2-0.3-1-0.4c-0.2,0-1.9,0-2,0c-0.1,0-0.1,0-0.1,0.1v3.7c0,0.1,0,0.1,0.1,0.1c0.2,0,2,0,2.4,0
			c0.3,0,0.5,0,0.7-0.2c0.1-0.1,0.2-0.2,0.2-0.2s0.1,0,0.1,0.1c0,0.1-0.1,0.3-0.1,0.8c0,0.3-0.1,0.8-0.1,0.9c0,0.1,0,0.3-0.1,0.3
			c-0.1,0-0.1,0-0.1-0.1c0-0.1,0-0.3-0.1-0.4c0-0.2-0.2-0.4-0.7-0.4c-0.4,0-1.9-0.1-2.1-0.1c-0.1,0-0.1,0-0.1,0.1v1.1
			c0,0.5,0,2,0,2.3c0,0.9,0.3,1.1,1.7,1.1c0.4,0,1,0,1.4-0.1c0.4-0.2,0.6-0.4,0.6-0.9c0-0.2,0.1-0.2,0.1-0.2s0.1,0.1,0.1,0.2
			c0,0.1-0.1,1-0.2,1.3c-0.1,0.4-0.2,0.4-0.8,0.4c-1.1,0-1.9,0-2.4,0c-0.6,0-1,0-1.2,0c0,0-0.3,0-0.6,0c-0.3,0-0.6,0-0.8,0
			c-0.1,0-0.2,0-0.2-0.1c0,0,0-0.1,0.1-0.1c0.1,0,0.3,0,0.4-0.1c0.3,0,0.3-0.3,0.4-0.7c0.1-0.6,0.1-1.6,0.1-2.9V134.7z M146,128.6
			c0.1,0.1,0,0.2-0.1,0.2c0,0-0.2,0-0.5,0c-0.8,0.1-1.9,0.4-2.4,0.7c-0.1,0-0.2,0.1-0.2,0.1c0,0-0.1,0-0.1-0.1c0,0,0-0.1,0.1-0.1
			c0.6-0.4,2.1-1.3,2.2-1.4c0.3-0.2,0.4-0.2,0.4-0.2c0,0,0.1,0,0.2,0.1C145.7,128.1,145.9,128.3,146,128.6z"/>
		<path id="XMLID_54_" class="st9" d="M152.8,137.1c0,1.3,0,2.4,0.1,2.9c0,0.4,0.1,0.7,0.5,0.7c0.2,0,0.5,0.1,0.6,0.1
			c0.1,0,0.1,0.1,0.1,0.1c0,0.1-0.1,0.1-0.2,0.1c-0.8,0-1.7,0-1.7,0c-0.1,0-1,0-1.5,0c-0.2,0-0.2,0-0.2-0.1c0,0,0-0.1,0.1-0.1
			c0.1,0,0.3,0,0.4-0.1c0.3-0.1,0.4-0.3,0.4-0.7c0.1-0.6,0.1-1.6,0.1-2.9v-5.7l-2,0c-0.9,0-1.2,0.1-1.4,0.4
			c-0.2,0.2-0.2,0.3-0.2,0.4c0,0.1-0.1,0.1-0.1,0.1c0,0-0.1,0-0.1-0.1c0-0.1,0.3-1.4,0.3-1.5c0-0.1,0.1-0.3,0.1-0.3
			c0.1,0,0.2,0.1,0.6,0.2c0.4,0,0.9,0.1,1.1,0.1h5.3c0.5,0,0.8,0,1-0.1c0.2,0,0.3-0.1,0.4-0.1c0.1,0,0.1,0.1,0.1,0.2
			c0,0.4,0,1.4,0,1.6c0,0.1-0.1,0.2-0.1,0.2s-0.1,0-0.1-0.2l0-0.1c0-0.4-0.4-0.7-1.7-0.8l-1.8,0V137.1z"/>
		<path id="XMLID_56_" class="st9" d="M159.9,137.1c0,1.3,0,2.4,0.1,2.9c0,0.4,0.1,0.7,0.5,0.7c0.2,0,0.5,0.1,0.6,0.1
			c0.1,0,0.1,0.1,0.1,0.1c0,0.1-0.1,0.1-0.2,0.1c-0.8,0-1.7,0-1.8,0c-0.1,0-1,0-1.4,0c-0.1,0-0.2,0-0.2-0.1c0,0,0-0.1,0.1-0.1
			c0.1,0,0.3,0,0.4-0.1c0.3-0.1,0.3-0.3,0.4-0.7c0.1-0.6,0.1-1.6,0.1-2.9v-2.4c0-2.1,0-2.5,0-2.9c0-0.5-0.1-0.7-0.4-0.7
			c-0.2,0-0.3,0-0.4,0c-0.1,0-0.1-0.1-0.1-0.1c0-0.1,0.1-0.1,0.2-0.1c0.5,0,1.3,0,1.4,0c0.1,0,1,0,1.4,0c0.2,0,0.2,0,0.2,0.1
			c0,0-0.1,0.1-0.1,0.1c-0.1,0-0.2,0-0.4,0c-0.4,0.1-0.5,0.3-0.5,0.8c0,0.4,0,0.8,0,2.9V137.1z"/>
		<path id="XMLID_58_" class="st9" d="M164,139.8c-1.4-1.2-1.7-2.7-1.7-4c0-0.9,0.3-2.5,1.6-3.7c0.8-0.8,2.1-1.5,4.3-1.5
			c0.6,0,1.4,0,2,0.2c0.5,0.1,1,0.2,1.4,0.2c0.1,0,0.2,0.1,0.2,0.1c0,0.1,0,0.3-0.1,0.8c0,0.4,0,1.2,0,1.4c0,0.2-0.1,0.3-0.2,0.3
			c-0.1,0-0.1-0.1-0.1-0.3c0-0.5-0.2-1.1-0.6-1.4c-0.5-0.4-1.5-0.8-2.8-0.8c-1.8,0-2.7,0.5-3.2,0.9c-1,1-1.3,2.2-1.3,3.6
			c0,2.6,2.1,4.9,5.1,4.9c1.1,0,1.8-0.1,2.3-0.6c0.3-0.3,0.5-0.9,0.5-1.1c0-0.1,0-0.2,0.1-0.2c0.1,0,0.1,0.1,0.1,0.2
			c0,0.1-0.2,1.3-0.3,1.7c-0.1,0.3-0.1,0.3-0.4,0.4c-0.6,0.2-1.6,0.3-2.5,0.3C166.5,141.2,165.1,140.7,164,139.8z"/>
		<path id="XMLID_60_" class="st9" d="M178.2,130.6c3.2,0,5.6,1.9,5.6,5.1c0,3-2.3,5.6-5.7,5.6c-3.9,0-5.5-2.9-5.5-5.3
			C172.6,133.7,174.3,130.6,178.2,130.6z M178.5,140.7c1.3,0,3.8-0.7,3.8-4.6c0-3.3-2-5-4.2-5c-2.4,0-4,1.5-4,4.4
			C174.1,138.7,176,140.7,178.5,140.7z"/>
	</g>
</g>
<g id="XMLID_1_">
</g>
<g id="XMLID_68_">
</g>
<g id="XMLID_69_">
</g>
<g id="XMLID_70_">
</g>
<g id="XMLID_71_">
</g>
<g id="XMLID_72_">
</g>
</svg>
