<?xml version="1.0" encoding="iso-8859-1"?>
<!-- Generator: Adobe Illustrator 19.0.0, SVG Export Plug-In . SVG Version: 6.00 Build 0)  -->
<svg version="1.1" id="Capa_1" xmlns="http://www.w3.org/2000/svg" xmlns:xlink="http://www.w3.org/1999/xlink" x="0px" y="0px"
	 viewBox="0 0 161 152" style="enable-background:new 0 0 161 152;" xml:space="preserve">
<g id="XMLID_53_">
	<g id="XMLID_56_">
		<g id="XMLID_57_">
			<g id="XMLID_67_">
				<linearGradient id="XMLID_178_" gradientUnits="userSpaceOnUse" x1="80.5349" y1="120" x2="80.5349" y2="10">
					<stop  offset="0" style="stop-color:#979797"/>
					<stop  offset="0.0502" style="stop-color:#878787"/>
					<stop  offset="0.1508" style="stop-color:#616060"/>
					<stop  offset="0.2" style="stop-color:#4E4E4E"/>
					<stop  offset="0.224" style="stop-color:#545454"/>
					<stop  offset="0.2555" style="stop-color:#646464"/>
					<stop  offset="0.291" style="stop-color:#7F7F7F"/>
					<stop  offset="0.3296" style="stop-color:#A5A5A5"/>
					<stop  offset="0.3702" style="stop-color:#D5D5D5"/>
					<stop  offset="0.4" style="stop-color:#FDFDFD"/>
					<stop  offset="0.6" style="stop-color:#C2C1C1"/>
					<stop  offset="0.8" style="stop-color:#FDFDFD"/>
					<stop  offset="1" style="stop-color:#979797"/>
				</linearGradient>
				<circle id="XMLID_70_" style="fill:url(#XMLID_178_);" cx="80.535" cy="65.001" r="54.999"/>
				<linearGradient id="XMLID_179_" gradientUnits="userSpaceOnUse" x1="80.5355" y1="10.5089" x2="80.5355" y2="119.4944">
					<stop  offset="0" style="stop-color:#F0F0F0"/>
					<stop  offset="0.035" style="stop-color:#D6D5D5"/>
					<stop  offset="0.1055" style="stop-color:#9A9797"/>
					<stop  offset="0.2" style="stop-color:#4E4E4E"/>
					<stop  offset="0.224" style="stop-color:#545454"/>
					<stop  offset="0.2555" style="stop-color:#646464"/>
					<stop  offset="0.291" style="stop-color:#7F7F7F"/>
					<stop  offset="0.3296" style="stop-color:#A5A5A5"/>
					<stop  offset="0.3702" style="stop-color:#D5D5D5"/>
					<stop  offset="0.4" style="stop-color:#FDFDFD"/>
					<stop  offset="0.6" style="stop-color:#C2C1C1"/>
					<stop  offset="0.8" style="stop-color:#FDFDFD"/>
					<stop  offset="1" style="stop-color:#676767"/>
				</linearGradient>
				<circle id="XMLID_69_" style="fill:url(#XMLID_179_);" cx="80.535" cy="65.001" r="54.493"/>
				<linearGradient id="XMLID_180_" gradientUnits="userSpaceOnUse" x1="80.5349" y1="14.3569" x2="80.5349" y2="115.6473">
					<stop  offset="0" style="stop-color:#F0F0F0"/>
					<stop  offset="0.035" style="stop-color:#D6D5D5"/>
					<stop  offset="0.1055" style="stop-color:#9A9797"/>
					<stop  offset="0.2" style="stop-color:#4E4E4E"/>
					<stop  offset="0.224" style="stop-color:#545454"/>
					<stop  offset="0.2555" style="stop-color:#646464"/>
					<stop  offset="0.291" style="stop-color:#7F7F7F"/>
					<stop  offset="0.3296" style="stop-color:#A5A5A5"/>
					<stop  offset="0.3702" style="stop-color:#D5D5D5"/>
					<stop  offset="0.4" style="stop-color:#FDFDFD"/>
					<stop  offset="0.6" style="stop-color:#C2C1C1"/>
					<stop  offset="0.8" style="stop-color:#FDFDFD"/>
					<stop  offset="1" style="stop-color:#5B5B5B"/>
				</linearGradient>
				<circle id="XMLID_68_" style="fill:url(#XMLID_180_);" cx="80.535" cy="65.001" r="50.645"/>
			</g>
			<radialGradient id="XMLID_181_" cx="80.5355" cy="65.0016" r="54.493" gradientUnits="userSpaceOnUse">
				<stop  offset="0.93" style="stop-color:#FFFFFF"/>
				<stop  offset="0.965" style="stop-color:#D2D2D2"/>
				<stop  offset="0.998" style="stop-color:#FFFFFF"/>
			</radialGradient>
			<path id="XMLID_64_" style="fill:url(#XMLID_181_);" d="M80.534,10.509c-30.096,0-54.492,24.397-54.492,54.492
				c0,30.097,24.397,54.493,54.492,54.493c30.096,0,54.494-24.397,54.494-54.493C135.029,34.906,110.63,10.509,80.534,10.509z
				 M80.534,115.647c-27.97,0-50.644-22.677-50.644-50.646s22.674-50.644,50.644-50.644c27.972,0,50.645,22.675,50.645,50.644
				S108.507,115.647,80.534,115.647z"/>
			<linearGradient id="XMLID_182_" gradientUnits="userSpaceOnUse" x1="80.5349" y1="15.4923" x2="80.5349" y2="114.5099">
				<stop  offset="0" style="stop-color:#6CA4D9"/>
				<stop  offset="0.9011" style="stop-color:#3074BA"/>
			</linearGradient>
			<circle id="XMLID_63_" style="fill:url(#XMLID_182_);" cx="80.535" cy="65.001" r="49.508"/>
			<defs>
				<filter id="Adobe_OpacityMaskFilter" filterUnits="userSpaceOnUse" x="31.027" y="15.492" width="99.017" height="99.018">
					<feColorMatrix  type="matrix" values="1 0 0 0 0  0 1 0 0 0  0 0 1 0 0  0 0 0 1 0"/>
				</filter>
			</defs>
			<mask maskUnits="userSpaceOnUse" x="31.027" y="15.492" width="99.017" height="99.018" id="XMLID_183_">
				<g id="XMLID_59_" style="filter:url(#Adobe_OpacityMaskFilter);">
					<radialGradient id="XMLID_184_" cx="80.5349" cy="65.0011" r="49.5085" gradientUnits="userSpaceOnUse">
						<stop  offset="0.9267" style="stop-color:#010202"/>
						<stop  offset="1" style="stop-color:#E6E6E6"/>
					</radialGradient>
					<circle id="XMLID_60_" style="fill:url(#XMLID_184_);" cx="80.535" cy="65.001" r="49.508"/>
				</g>
			</mask>
			<path id="XMLID_58_" style="mask:url(#XMLID_183_);fill:#808080;" d="M130.043,65.001c0,27.344-22.166,49.509-49.509,49.509
				c-27.342,0-49.508-22.165-49.508-49.509c0-27.343,22.166-49.509,49.508-49.509C107.877,15.492,130.043,37.658,130.043,65.001z
				 M80.534,19.545c-25.105,0-45.457,20.35-45.457,45.456s20.352,45.457,45.457,45.457c25.106,0,45.456-20.351,45.456-45.457
				S105.64,19.545,80.534,19.545z"/>
		</g>
	</g>
	<g id="XMLID_55_">
		<path id="XMLID_167_" style="fill:#E6E6E6;" d="M44.849,86.859V42.965h11.593l9.117,16.086c2.604,4.624,5.21,10.094,7.164,15.044
			h0.195c-0.651-5.796-0.847-11.723-0.847-18.3v-12.83h9.117v43.894h-10.42l-9.378-16.932c-2.604-4.689-5.471-10.355-7.619-15.5
			l-0.196,0.065c0.261,5.796,0.392,11.983,0.392,19.146v13.22H44.849z"/>
		<path id="XMLID_169_" style="fill:#E6E6E6;" d="M89.789,43.551c3.062-0.521,7.359-0.912,13.416-0.912
			c6.122,0,10.485,1.172,13.416,3.517c2.8,2.214,4.688,5.861,4.688,10.159s-1.433,7.945-4.038,10.42
			c-3.386,3.191-8.4,4.624-14.262,4.624c-1.303,0-2.475-0.065-3.387-0.195v15.695h-9.834V43.551z M99.623,63.479
			c0.847,0.196,1.889,0.261,3.321,0.261c5.275,0,8.531-2.67,8.531-7.164c0-4.038-2.8-6.447-7.749-6.447
			c-2.02,0-3.387,0.195-4.104,0.391V63.479z"/>
	</g>
	<g id="XMLID_54_">
		<path id="XMLID_124_" style="fill:#3C3C3B;" d="M3.681,138.871c0.032,1.312,0.192,1.729,0.624,1.857
			c0.305,0.08,0.656,0.096,0.801,0.096c0.08,0,0.128,0.032,0.128,0.096c0,0.096-0.096,0.128-0.288,0.128
			c-0.912,0-1.553-0.048-1.696-0.048c-0.145,0-0.816,0.048-1.537,0.048c-0.16,0-0.256-0.016-0.256-0.128
			c0-0.064,0.048-0.096,0.128-0.096c0.128,0,0.416-0.016,0.656-0.096c0.4-0.112,0.48-0.576,0.48-2.033l0.016-9.172
			c0-0.625,0.048-0.8,0.176-0.8s0.4,0.352,0.561,0.512c0.24,0.272,2.625,2.849,5.09,5.49c1.585,1.697,3.329,3.649,3.842,4.178
			l-0.176-8.131c-0.017-1.041-0.128-1.393-0.625-1.521c-0.288-0.064-0.656-0.08-0.784-0.08c-0.111,0-0.128-0.048-0.128-0.112
			c0-0.096,0.128-0.112,0.32-0.112c0.721,0,1.488,0.048,1.665,0.048c0.176,0,0.704-0.048,1.36-0.048
			c0.176,0,0.288,0.016,0.288,0.112c0,0.064-0.064,0.112-0.176,0.112c-0.08,0-0.192,0-0.385,0.048
			c-0.528,0.112-0.592,0.464-0.592,1.425l-0.032,9.379c0,1.057-0.032,1.137-0.145,1.137c-0.128,0-0.319-0.176-1.168-1.024
			c-0.176-0.16-2.481-2.513-4.178-4.338c-1.856-2.001-3.666-4.018-4.178-4.594L3.681,138.871z"/>
		<path id="XMLID_126_" style="fill:#3C3C3B;" d="M20.163,130.564c3.169,0,5.57,1.937,5.57,5.106c0,3.041-2.257,5.554-5.65,5.554
			c-3.857,0-5.507-2.897-5.507-5.346C14.576,133.685,16.273,130.564,20.163,130.564z M20.483,140.664c1.264,0,3.81-0.672,3.81-4.61
			c0-3.266-1.985-4.978-4.21-4.978c-2.354,0-4.05,1.473-4.05,4.434C16.033,138.679,17.938,140.664,20.483,140.664z"/>
		<path id="XMLID_129_" style="fill:#3C3C3B;" d="M30.178,137.094c0,1.312,0,2.385,0.063,2.945c0.048,0.4,0.112,0.656,0.544,0.72
			c0.192,0.032,0.513,0.064,0.641,0.064c0.096,0,0.112,0.064,0.112,0.112c0,0.064-0.064,0.112-0.225,0.112
			c-0.768,0-1.664-0.048-1.744-0.048c-0.064,0-1.041,0.048-1.457,0.048c-0.16,0-0.224-0.032-0.224-0.112
			c0-0.048,0.031-0.096,0.111-0.096c0.129,0,0.288-0.032,0.417-0.064c0.288-0.064,0.368-0.336,0.416-0.736
			c0.063-0.56,0.063-1.633,0.063-2.945v-5.714l-2.032,0.032c-0.881,0.016-1.217,0.112-1.425,0.432
			c-0.16,0.24-0.176,0.336-0.225,0.432c-0.031,0.112-0.08,0.128-0.144,0.128c-0.032,0-0.096-0.032-0.096-0.112
			c0-0.144,0.288-1.36,0.304-1.473c0.032-0.08,0.096-0.256,0.145-0.256c0.096,0,0.239,0.112,0.624,0.16
			c0.4,0.048,0.944,0.064,1.104,0.064h5.313c0.465,0,0.785-0.032,1.009-0.064c0.208-0.032,0.336-0.064,0.4-0.064
			c0.063,0,0.063,0.08,0.063,0.16c0,0.416-0.048,1.393-0.048,1.553c0,0.112-0.063,0.176-0.128,0.176s-0.096-0.048-0.112-0.24
			l-0.016-0.144c-0.048-0.417-0.353-0.72-1.696-0.752l-1.761-0.032V137.094z"/>
		<path id="XMLID_131_" style="fill:#3C3C3B;" d="M36.545,137.094c0,1.312,0,2.385,0.063,2.945c0.049,0.4,0.097,0.656,0.513,0.72
			c0.208,0.032,0.512,0.064,0.64,0.064c0.08,0,0.112,0.064,0.112,0.112c0,0.064-0.063,0.112-0.224,0.112
			c-0.784,0-1.697-0.048-1.761-0.048c-0.08,0-0.961,0.048-1.393,0.048c-0.145,0-0.225-0.032-0.225-0.112
			c0-0.048,0.032-0.112,0.112-0.112c0.128,0,0.304-0.032,0.433-0.064c0.271-0.064,0.319-0.32,0.368-0.72
			c0.063-0.56,0.08-1.633,0.08-2.945v-2.401c0-2.113,0-2.497-0.032-2.929c-0.032-0.464-0.145-0.672-0.448-0.736
			c-0.16-0.032-0.336-0.048-0.433-0.048c-0.063,0-0.111-0.064-0.111-0.112c0-0.08,0.063-0.112,0.224-0.112
			c0.464,0,1.345,0.032,1.425,0.032c0.063,0,0.977-0.032,1.408-0.032c0.16,0,0.225,0.032,0.225,0.112
			c0,0.048-0.064,0.112-0.112,0.112c-0.096,0-0.192,0-0.353,0.032c-0.384,0.08-0.464,0.272-0.496,0.752
			c-0.016,0.432-0.016,0.816-0.016,2.929V137.094z"/>
		<path id="XMLID_133_" style="fill:#3C3C3B;" d="M39.777,139.768c-1.376-1.185-1.713-2.737-1.713-4.034
			c0-0.913,0.337-2.497,1.585-3.713c0.849-0.816,2.129-1.457,4.29-1.457c0.561,0,1.36,0.048,2.049,0.16
			c0.528,0.096,0.977,0.192,1.44,0.208c0.145,0,0.176,0.064,0.176,0.144c0,0.112-0.031,0.272-0.063,0.768
			c-0.017,0.448-0.017,1.201-0.032,1.393c-0.016,0.208-0.08,0.288-0.16,0.288c-0.096,0-0.112-0.096-0.112-0.288
			c0-0.528-0.224-1.072-0.592-1.36c-0.496-0.417-1.521-0.752-2.77-0.752c-1.809,0-2.673,0.48-3.169,0.944
			c-1.04,0.96-1.265,2.177-1.265,3.554c0,2.609,2.064,4.93,5.074,4.93c1.057,0,1.761-0.08,2.321-0.64
			c0.304-0.304,0.496-0.88,0.544-1.137c0.032-0.144,0.048-0.192,0.144-0.192c0.064,0,0.128,0.096,0.128,0.192
			c0,0.096-0.191,1.281-0.336,1.745c-0.08,0.256-0.111,0.304-0.352,0.4c-0.576,0.224-1.633,0.304-2.545,0.304
			C42.306,141.224,40.881,140.728,39.777,139.768z"/>
		<path id="XMLID_135_" style="fill:#3C3C3B;" d="M50.673,137.094c0,1.312,0,2.385,0.063,2.945c0.049,0.4,0.097,0.656,0.513,0.72
			c0.208,0.032,0.512,0.064,0.64,0.064c0.08,0,0.112,0.064,0.112,0.112c0,0.064-0.063,0.112-0.224,0.112
			c-0.784,0-1.697-0.048-1.761-0.048c-0.08,0-0.961,0.048-1.393,0.048c-0.145,0-0.225-0.032-0.225-0.112
			c0-0.048,0.032-0.112,0.112-0.112c0.128,0,0.304-0.032,0.433-0.064c0.271-0.064,0.319-0.32,0.368-0.72
			c0.063-0.56,0.08-1.633,0.08-2.945v-2.401c0-2.113,0-2.497-0.032-2.929c-0.032-0.464-0.145-0.672-0.448-0.736
			c-0.16-0.032-0.336-0.048-0.433-0.048c-0.063,0-0.111-0.064-0.111-0.112c0-0.08,0.063-0.112,0.224-0.112
			c0.464,0,1.345,0.032,1.425,0.032c0.063,0,0.977-0.032,1.408-0.032c0.16,0,0.225,0.032,0.225,0.112
			c0,0.048-0.064,0.112-0.112,0.112c-0.096,0-0.192,0-0.353,0.032c-0.384,0.08-0.464,0.272-0.496,0.752
			c-0.016,0.432-0.016,0.816-0.016,2.929V137.094z"/>
		<path id="XMLID_137_" style="fill:#3C3C3B;" d="M53.697,134.693c0-2.113,0-2.497-0.032-2.929
			c-0.032-0.464-0.112-0.688-0.576-0.752c-0.112-0.016-0.353-0.032-0.48-0.032c-0.048,0-0.112-0.064-0.112-0.112
			c0-0.08,0.064-0.112,0.225-0.112c0.64,0,1.553,0.032,1.633,0.032c0.096,0,3.041,0.016,3.361,0c0.271-0.016,0.527-0.064,0.64-0.08
			c0.064-0.016,0.128-0.064,0.192-0.064c0.048,0,0.063,0.064,0.063,0.128c0,0.096-0.079,0.256-0.111,0.64
			c-0.017,0.128-0.048,0.736-0.08,0.896c-0.017,0.064-0.064,0.144-0.128,0.144c-0.08,0-0.112-0.064-0.112-0.176
			c0-0.096-0.016-0.32-0.08-0.48c-0.096-0.224-0.24-0.32-1.009-0.417c-0.239-0.032-1.872-0.048-2.032-0.048
			c-0.064,0-0.08,0.048-0.08,0.144v3.698c0,0.096,0,0.144,0.08,0.144c0.176,0,2.032,0,2.353-0.032
			c0.336-0.032,0.544-0.048,0.688-0.192c0.096-0.096,0.16-0.176,0.208-0.176s0.08,0.032,0.08,0.112c0,0.08-0.08,0.304-0.112,0.752
			c-0.032,0.272-0.063,0.785-0.063,0.88c0,0.112-0.032,0.256-0.128,0.256c-0.064,0-0.097-0.048-0.097-0.128
			c0-0.128,0-0.272-0.063-0.448c-0.049-0.192-0.177-0.353-0.721-0.417c-0.384-0.048-1.889-0.064-2.129-0.064
			c-0.08,0-0.096,0.048-0.096,0.096v1.136c0,0.464-0.017,2.049,0,2.321c0.032,0.912,0.288,1.088,1.681,1.088
			c0.368,0,1.04,0,1.408-0.144c0.368-0.16,0.561-0.4,0.641-0.944c0.032-0.16,0.063-0.208,0.144-0.208s0.097,0.112,0.097,0.208
			c0,0.096-0.112,1.024-0.192,1.312c-0.096,0.352-0.24,0.352-0.784,0.352c-1.057,0-1.873-0.032-2.449-0.048
			C54.929,141,54.561,141,54.353,141c-0.032,0-0.305,0-0.608,0.016c-0.272,0.016-0.593,0.032-0.816,0.032
			c-0.145,0-0.225-0.032-0.225-0.112c0-0.048,0.032-0.112,0.112-0.112c0.128,0,0.304-0.048,0.433-0.064
			c0.271-0.048,0.304-0.32,0.368-0.72c0.08-0.56,0.08-1.633,0.08-2.945V134.693z"/>
		<path id="XMLID_139_" style="fill:#3C3C3B;" d="M60.913,134.693c0-2.113,0-2.497-0.032-2.929
			c-0.032-0.464-0.112-0.688-0.576-0.752c-0.112-0.016-0.353-0.032-0.48-0.032c-0.048,0-0.112-0.064-0.112-0.112
			c0-0.08,0.064-0.112,0.225-0.112c0.64,0,1.584,0.032,1.664,0.032c0.145,0,1.329-0.032,1.761-0.032c0.896,0,1.889,0.08,2.625,0.592
			c0.353,0.256,0.977,0.912,0.977,1.857c0,1.008-0.416,1.984-1.729,3.105c1.152,1.44,2.129,2.673,2.945,3.521
			c0.752,0.768,1.217,0.896,1.568,0.944c0.272,0.048,0.416,0.048,0.496,0.048s0.128,0.064,0.128,0.112
			c0,0.08-0.08,0.112-0.336,0.112h-0.88c-0.801,0-1.152-0.08-1.505-0.272c-0.608-0.32-1.12-0.977-1.921-2.001
			c-0.592-0.736-1.217-1.617-1.521-1.984c-0.064-0.064-0.096-0.08-0.192-0.08l-1.792-0.032c-0.064,0-0.097,0.032-0.097,0.112v0.32
			c0,1.312,0,2.369,0.064,2.929c0.048,0.4,0.128,0.656,0.56,0.72c0.192,0.032,0.497,0.064,0.625,0.064
			c0.096,0,0.111,0.064,0.111,0.112c0,0.064-0.063,0.112-0.224,0.112c-0.769,0-1.665-0.048-1.729-0.048
			c-0.017,0-0.961,0.048-1.393,0.048c-0.145,0-0.225-0.032-0.225-0.112c0-0.048,0.032-0.112,0.112-0.112
			c0.128,0,0.304-0.032,0.433-0.064c0.271-0.064,0.304-0.32,0.368-0.72c0.08-0.56,0.08-1.633,0.08-2.945V134.693z M62.128,135.846
			c0,0.08,0.032,0.128,0.097,0.176c0.208,0.112,0.928,0.208,1.552,0.208c0.337,0,0.721-0.016,1.057-0.24
			c0.48-0.32,0.849-1.04,0.849-2.081c0-1.697-0.929-2.673-2.433-2.673c-0.417,0-0.865,0.048-1.009,0.08
			c-0.064,0.032-0.112,0.08-0.112,0.16V135.846z"/>
		<path id="XMLID_142_" style="fill:#3C3C3B;" d="M74.274,130.564c3.169,0,5.57,1.937,5.57,5.106c0,3.041-2.257,5.554-5.65,5.554
			c-3.857,0-5.507-2.897-5.507-5.346C68.687,133.685,70.384,130.564,74.274,130.564z M74.594,140.664c1.264,0,3.81-0.672,3.81-4.61
			c0-3.266-1.985-4.978-4.21-4.978c-2.354,0-4.05,1.473-4.05,4.434C70.144,138.679,72.049,140.664,74.594,140.664z"/>
		<path id="XMLID_145_" style="fill:#3C3C3B;" d="M85.584,133.589c0-2.497,0-2.945-0.032-3.457c-0.032-0.544-0.16-0.801-0.688-0.913
			c-0.128-0.032-0.4-0.048-0.544-0.048c-0.064,0-0.128-0.032-0.128-0.096c0-0.096,0.08-0.128,0.256-0.128
			c0.72,0,1.681,0.048,1.809,0.048c0.353,0,1.28-0.048,2.017-0.048c2.001,0,2.722,0.672,2.978,0.912
			c0.352,0.336,0.8,1.057,0.8,1.905c0,2.273-1.664,3.81-3.938,3.81c-0.08,0-0.256,0-0.336-0.016c-0.08,0-0.176-0.032-0.176-0.112
			c0-0.128,0.096-0.144,0.432-0.144c1.553,0,2.77-1.137,2.77-2.609c0-0.528-0.048-1.601-0.896-2.465s-1.825-0.8-2.193-0.8
			c-0.271,0-0.544,0.032-0.688,0.096c-0.097,0.032-0.128,0.144-0.128,0.304v6.579c0,1.537,0,2.801,0.08,3.473
			c0.048,0.464,0.144,0.816,0.624,0.88c0.224,0.032,0.576,0.064,0.72,0.064c0.097,0,0.128,0.048,0.128,0.096
			c0,0.08-0.079,0.128-0.256,0.128c-0.88,0-1.889-0.048-1.969-0.048c-0.048,0-1.057,0.048-1.536,0.048
			c-0.177,0-0.257-0.032-0.257-0.128c0-0.048,0.032-0.096,0.129-0.096c0.144,0,0.336-0.032,0.479-0.064
			c0.32-0.064,0.4-0.416,0.465-0.88c0.08-0.672,0.08-1.937,0.08-3.473V133.589z"/>
		<path id="XMLID_147_" style="fill:#3C3C3B;" d="M93.633,134.693c0-2.113,0-2.497-0.032-2.929
			c-0.032-0.464-0.112-0.688-0.576-0.752c-0.112-0.016-0.353-0.032-0.48-0.032c-0.048,0-0.112-0.064-0.112-0.112
			c0-0.08,0.064-0.112,0.225-0.112c0.64,0,1.584,0.032,1.664,0.032c0.145,0,1.329-0.032,1.761-0.032c0.896,0,1.889,0.08,2.625,0.592
			c0.353,0.256,0.977,0.912,0.977,1.857c0,1.008-0.416,1.984-1.729,3.105c1.152,1.44,2.129,2.673,2.945,3.521
			c0.752,0.768,1.217,0.896,1.568,0.944c0.272,0.048,0.416,0.048,0.496,0.048s0.128,0.064,0.128,0.112
			c0,0.08-0.08,0.112-0.336,0.112h-0.88c-0.801,0-1.152-0.08-1.505-0.272c-0.608-0.32-1.12-0.977-1.921-2.001
			c-0.592-0.736-1.217-1.617-1.521-1.984c-0.064-0.064-0.096-0.08-0.192-0.08l-1.792-0.032c-0.064,0-0.097,0.032-0.097,0.112v0.32
			c0,1.312,0,2.369,0.064,2.929c0.048,0.4,0.128,0.656,0.56,0.72c0.192,0.032,0.497,0.064,0.625,0.064
			c0.096,0,0.111,0.064,0.111,0.112c0,0.064-0.063,0.112-0.224,0.112c-0.769,0-1.665-0.048-1.729-0.048
			c-0.017,0-0.961,0.048-1.393,0.048c-0.145,0-0.225-0.032-0.225-0.112c0-0.048,0.032-0.112,0.112-0.112
			c0.128,0,0.304-0.032,0.433-0.064c0.271-0.064,0.304-0.32,0.368-0.72c0.08-0.56,0.08-1.633,0.08-2.945V134.693z M94.849,135.846
			c0,0.08,0.032,0.128,0.097,0.176c0.208,0.112,0.928,0.208,1.552,0.208c0.337,0,0.721-0.016,1.057-0.24
			c0.48-0.32,0.849-1.04,0.849-2.081c0-1.697-0.929-2.673-2.433-2.673c-0.417,0-0.865,0.048-1.009,0.08
			c-0.064,0.032-0.112,0.08-0.112,0.16V135.846z"/>
		<path id="XMLID_150_" style="fill:#3C3C3B;" d="M106.994,130.564c3.169,0,5.57,1.937,5.57,5.106c0,3.041-2.257,5.554-5.65,5.554
			c-3.857,0-5.507-2.897-5.507-5.346C101.407,133.685,103.104,130.564,106.994,130.564z M107.314,140.664
			c1.264,0,3.81-0.672,3.81-4.61c0-3.266-1.985-4.978-4.21-4.978c-2.354,0-4.05,1.473-4.05,4.434
			C102.864,138.679,104.769,140.664,107.314,140.664z"/>
		<path id="XMLID_153_" style="fill:#3C3C3B;" d="M113.905,134.693c0-2.113,0-2.497-0.032-2.929
			c-0.032-0.464-0.112-0.688-0.576-0.752c-0.112-0.016-0.353-0.032-0.48-0.032c-0.048,0-0.112-0.064-0.112-0.112
			c0-0.08,0.064-0.112,0.225-0.112c0.64,0,1.521,0.032,1.601,0.032c0.271,0,3.329,0.016,3.649,0c0.271-0.016,0.512-0.016,0.64-0.064
			c0.08-0.016,0.145-0.08,0.192-0.08c0.064,0,0.096,0.064,0.096,0.128c0,0.096-0.063,0.256-0.111,0.64
			c-0.017,0.128-0.032,0.736-0.064,0.896c-0.016,0.064-0.063,0.144-0.128,0.144c-0.063,0-0.112-0.064-0.112-0.16
			c0-0.112-0.048-0.336-0.128-0.512s-0.416-0.4-0.96-0.4l-2.305-0.032c-0.08,0-0.112,0.032-0.112,0.144v3.713
			c0,0.08,0,0.128,0.096,0.128l1.921-0.016c0.24,0,0.448,0,0.641-0.016c0.336-0.032,0.528-0.08,0.656-0.24
			c0.063-0.08,0.128-0.144,0.176-0.144c0.064,0,0.08,0.048,0.08,0.112c0,0.08-0.096,0.304-0.128,0.752
			c-0.032,0.272-0.048,0.816-0.048,0.913c0,0.128-0.032,0.272-0.129,0.272c-0.079,0-0.096-0.064-0.096-0.128
			c-0.016-0.144-0.032-0.336-0.096-0.496c-0.064-0.192-0.288-0.368-0.721-0.432c-0.352-0.048-2.017-0.032-2.257-0.032
			c-0.08,0-0.096,0.032-0.096,0.128v1.088c0,1.345,0,2.417,0.063,2.945c0.049,0.4,0.128,0.656,0.513,0.72
			c0.208,0.032,0.512,0.064,0.64,0.064c0.08,0,0.112,0.064,0.112,0.112c0,0.064-0.063,0.112-0.224,0.112
			c-0.784,0-1.697-0.048-1.761-0.048c-0.08,0-0.961,0.048-1.393,0.048c-0.145,0-0.225-0.032-0.225-0.112
			c0-0.048,0.032-0.112,0.112-0.112c0.128,0,0.304-0.048,0.433-0.064c0.271-0.048,0.304-0.32,0.368-0.72
			c0.08-0.56,0.08-1.633,0.08-2.945V134.693z"/>
		<path id="XMLID_155_" style="fill:#3C3C3B;" d="M120.865,134.693c0-2.113,0-2.497-0.032-2.929
			c-0.032-0.464-0.112-0.688-0.576-0.752c-0.112-0.016-0.353-0.032-0.48-0.032c-0.048,0-0.112-0.064-0.112-0.112
			c0-0.08,0.064-0.112,0.225-0.112c0.64,0,1.553,0.032,1.633,0.032c0.096,0,3.041,0.016,3.361,0c0.271-0.016,0.527-0.064,0.64-0.08
			c0.064-0.016,0.128-0.064,0.192-0.064c0.048,0,0.063,0.064,0.063,0.128c0,0.096-0.079,0.256-0.111,0.64
			c-0.017,0.128-0.048,0.736-0.08,0.896c-0.017,0.064-0.064,0.144-0.128,0.144c-0.08,0-0.112-0.064-0.112-0.176
			c0-0.096-0.016-0.32-0.08-0.48c-0.096-0.224-0.24-0.32-1.009-0.417c-0.239-0.032-1.872-0.048-2.032-0.048
			c-0.064,0-0.08,0.048-0.08,0.144v3.698c0,0.096,0,0.144,0.08,0.144c0.176,0,2.032,0,2.353-0.032
			c0.336-0.032,0.544-0.048,0.688-0.192c0.096-0.096,0.16-0.176,0.208-0.176s0.08,0.032,0.08,0.112c0,0.08-0.08,0.304-0.112,0.752
			c-0.032,0.272-0.063,0.785-0.063,0.88c0,0.112-0.032,0.256-0.128,0.256c-0.064,0-0.097-0.048-0.097-0.128
			c0-0.128,0-0.272-0.063-0.448c-0.049-0.192-0.177-0.353-0.721-0.417c-0.384-0.048-1.889-0.064-2.129-0.064
			c-0.08,0-0.096,0.048-0.096,0.096v1.136c0,0.464-0.017,2.049,0,2.321c0.032,0.912,0.288,1.088,1.681,1.088
			c0.368,0,1.04,0,1.408-0.144c0.368-0.16,0.561-0.4,0.641-0.944c0.032-0.16,0.063-0.208,0.144-0.208s0.097,0.112,0.097,0.208
			c0,0.096-0.112,1.024-0.192,1.312c-0.096,0.352-0.24,0.352-0.784,0.352c-1.057,0-1.873-0.032-2.449-0.048
			c-0.592-0.032-0.96-0.032-1.168-0.032c-0.032,0-0.305,0-0.608,0.016c-0.272,0.016-0.593,0.032-0.816,0.032
			c-0.145,0-0.225-0.032-0.225-0.112c0-0.048,0.032-0.112,0.112-0.112c0.128,0,0.304-0.048,0.433-0.064
			c0.271-0.048,0.304-0.32,0.368-0.72c0.08-0.56,0.08-1.633,0.08-2.945V134.693z M125.234,128.611c0.08,0.144,0,0.192-0.063,0.192
			c-0.049,0-0.208-0.032-0.48,0c-0.784,0.08-1.905,0.448-2.433,0.672c-0.112,0.048-0.209,0.08-0.24,0.08
			c-0.032,0-0.08-0.032-0.08-0.096c0-0.048,0.032-0.08,0.111-0.128c0.577-0.4,2.065-1.296,2.178-1.36
			c0.271-0.16,0.368-0.208,0.448-0.208c0.048,0,0.079,0.032,0.159,0.144C124.946,128.067,125.058,128.291,125.234,128.611z"/>
		<path id="XMLID_158_" style="fill:#3C3C3B;" d="M131.154,137.094c0,1.312,0,2.385,0.063,2.945c0.048,0.4,0.112,0.656,0.544,0.72
			c0.192,0.032,0.513,0.064,0.641,0.064c0.096,0,0.112,0.064,0.112,0.112c0,0.064-0.064,0.112-0.225,0.112
			c-0.768,0-1.664-0.048-1.744-0.048c-0.064,0-1.041,0.048-1.457,0.048c-0.16,0-0.224-0.032-0.224-0.112
			c0-0.048,0.031-0.096,0.111-0.096c0.129,0,0.288-0.032,0.417-0.064c0.288-0.064,0.368-0.336,0.416-0.736
			c0.063-0.56,0.063-1.633,0.063-2.945v-5.714l-2.032,0.032c-0.881,0.016-1.217,0.112-1.425,0.432
			c-0.16,0.24-0.176,0.336-0.225,0.432c-0.031,0.112-0.079,0.128-0.144,0.128c-0.032,0-0.096-0.032-0.096-0.112
			c0-0.144,0.288-1.36,0.304-1.473c0.032-0.08,0.096-0.256,0.145-0.256c0.096,0,0.239,0.112,0.624,0.16
			c0.4,0.048,0.944,0.064,1.104,0.064h5.313c0.465,0,0.785-0.032,1.009-0.064c0.208-0.032,0.336-0.064,0.4-0.064
			c0.063,0,0.063,0.08,0.063,0.16c0,0.416-0.048,1.393-0.048,1.553c0,0.112-0.063,0.176-0.128,0.176s-0.096-0.048-0.112-0.24
			l-0.016-0.144c-0.048-0.417-0.353-0.72-1.696-0.752l-1.761-0.032V137.094z"/>
		<path id="XMLID_160_" style="fill:#3C3C3B;" d="M137.521,137.094c0,1.312,0,2.385,0.063,2.945c0.049,0.4,0.097,0.656,0.513,0.72
			c0.208,0.032,0.512,0.064,0.64,0.064c0.08,0,0.112,0.064,0.112,0.112c0,0.064-0.063,0.112-0.224,0.112
			c-0.784,0-1.697-0.048-1.761-0.048c-0.08,0-0.961,0.048-1.393,0.048c-0.145,0-0.225-0.032-0.225-0.112
			c0-0.048,0.032-0.112,0.112-0.112c0.128,0,0.304-0.032,0.433-0.064c0.271-0.064,0.319-0.32,0.368-0.72
			c0.063-0.56,0.08-1.633,0.08-2.945v-2.401c0-2.113,0-2.497-0.032-2.929c-0.032-0.464-0.145-0.672-0.448-0.736
			c-0.16-0.032-0.336-0.048-0.433-0.048c-0.063,0-0.111-0.064-0.111-0.112c0-0.08,0.063-0.112,0.224-0.112
			c0.464,0,1.345,0.032,1.425,0.032c0.063,0,0.977-0.032,1.408-0.032c0.16,0,0.225,0.032,0.225,0.112
			c0,0.048-0.064,0.112-0.112,0.112c-0.096,0-0.192,0-0.353,0.032c-0.384,0.08-0.464,0.272-0.496,0.752
			c-0.016,0.432-0.016,0.816-0.016,2.929V137.094z"/>
		<path id="XMLID_162_" style="fill:#3C3C3B;" d="M140.751,139.768c-1.376-1.185-1.713-2.737-1.713-4.034
			c0-0.913,0.337-2.497,1.585-3.713c0.849-0.816,2.129-1.457,4.29-1.457c0.561,0,1.36,0.048,2.049,0.16
			c0.528,0.096,0.977,0.192,1.44,0.208c0.145,0,0.176,0.064,0.176,0.144c0,0.112-0.031,0.272-0.063,0.768
			c-0.017,0.448-0.017,1.201-0.032,1.393c-0.016,0.208-0.08,0.288-0.16,0.288c-0.096,0-0.112-0.096-0.112-0.288
			c0-0.528-0.224-1.072-0.592-1.36c-0.496-0.417-1.521-0.752-2.77-0.752c-1.809,0-2.673,0.48-3.169,0.944
			c-1.04,0.96-1.265,2.177-1.265,3.554c0,2.609,2.064,4.93,5.074,4.93c1.057,0,1.761-0.08,2.321-0.64
			c0.304-0.304,0.496-0.88,0.544-1.137c0.032-0.144,0.048-0.192,0.144-0.192c0.064,0,0.128,0.096,0.128,0.192
			c0,0.096-0.191,1.281-0.336,1.745c-0.08,0.256-0.111,0.304-0.352,0.4c-0.576,0.224-1.633,0.304-2.545,0.304
			C143.281,141.224,141.856,140.728,140.751,139.768z"/>
		<path id="XMLID_164_" style="fill:#3C3C3B;" d="M154.209,130.564c3.169,0,5.57,1.937,5.57,5.106c0,3.041-2.257,5.554-5.65,5.554
			c-3.857,0-5.507-2.897-5.507-5.346C148.623,133.685,150.32,130.564,154.209,130.564z M154.53,140.664
			c1.264,0,3.81-0.672,3.81-4.61c0-3.266-1.985-4.978-4.21-4.978c-2.354,0-4.05,1.473-4.05,4.434
			C150.08,138.679,151.985,140.664,154.53,140.664z"/>
	</g>
</g>
<g id="XMLID_123_">
</g>
<g id="XMLID_172_">
</g>
<g id="XMLID_173_">
</g>
<g id="XMLID_174_">
</g>
<g id="XMLID_175_">
</g>
<g id="XMLID_176_">
</g>
</svg>
