<?xml version="1.0" encoding="utf-8"?>
<!-- Generator: Adobe Illustrator 19.0.0, SVG Export Plug-In . SVG Version: 6.00 Build 0)  -->
<svg version="1.1" id="Capa_1" xmlns="http://www.w3.org/2000/svg" xmlns:xlink="http://www.w3.org/1999/xlink" x="0px" y="0px"
	 viewBox="0 0 1280 390" style="enable-background:new 0 0 1280 390;" xml:space="preserve">
<style type="text/css">
	.st0{clip-path:url(#XMLID_85_);}
	.st1{fill-rule:evenodd;clip-rule:evenodd;fill:url(#XMLID_86_);}
	.st2{fill:#FFFFFF;}
	.st3{fill-rule:evenodd;clip-rule:evenodd;fill:url(#XMLID_87_);}
	.st4{fill-rule:evenodd;clip-rule:evenodd;fill:url(#XMLID_88_);}
	.st5{fill-rule:evenodd;clip-rule:evenodd;fill:url(#XMLID_89_);}
	.st6{fill-rule:evenodd;clip-rule:evenodd;fill:url(#XMLID_90_);}
	.st7{fill-rule:evenodd;clip-rule:evenodd;fill:url(#XMLID_91_);}
	.st8{fill-rule:evenodd;clip-rule:evenodd;fill:url(#XMLID_92_);}
	.st9{fill-rule:evenodd;clip-rule:evenodd;fill:url(#XMLID_93_);}
</style>
<defs>
	<rect id="XMLID_77_" width="1280" height="390"/>
</defs>
<clipPath id="XMLID_85_">
	<use xlink:href="#XMLID_77_"  style="overflow:visible;"/>
</clipPath>
<g id="XMLID_66_" class="st0">
	
		<radialGradient id="XMLID_86_" cx="679.4008" cy="25.0933" r="845.3675" gradientTransform="matrix(0.9877 0.1564 -0.1564 0.9877 -2.7014 -65.1961)" gradientUnits="userSpaceOnUse">
		<stop  offset="0" style="stop-color:#E63312"/>
		<stop  offset="1" style="stop-color:#9C1006"/>
	</radialGradient>
	<path id="XMLID_76_" class="st1" d="M-14.5-16.1L-14.5-16.1l0.5-3.3c239.2-13.2,405.5,73.7,634.1,163.1c22.8,8.9,44,16.7,62.8,23.4
		l18.7-27.8l29.2-43.3l0,0l29.4-43.5c0.5-0.7,0.5-0.8,0.7-1.1l0,0l0-0.1l0,0l0,0l0,0l0,0c1.6-1.8,13.6-2.5,74.8,36.1
		c61.2,38.6,175.5,115.9,277.2,189.4c101.7,73.5,141.3,79.5,169.9,82l150.8-952.4L110.2-803.4L-14.5-16.1z"/>
	<path id="XMLID_75_" class="st2" d="M911.8,234.4c-9.2-5.9-18.4-11.7-27.7-17.2l3.6-5.4c2.8-4.1,1.7-9.8-1.1-16.1
		c-2.9-6.6-7.8-13.6-12.3-20c-2.8-3.9-10.4-12.4-20.1-22.9c-6.8-7.3-13.6-14.4-20.6-21.5l9.9,6.3c14.7,9.4,32.5,20.6,49.9,31.6
		c6.6,4.1,13.2,8.3,19.8,12.4c26.2,16,51.6,33.8,77.2,51c52.3,35.2,113.6,76.4,148.8,96c36,19.7,77.7,30.1,118.4,33.4
		c5.8,0.5,10.8,0.7,14.9,0.7c3.2,0,6.5,0,9.7-0.3l-1.3,8.4c-27.4,6.6-54.9,7.9-82,4.7c-29.5-3.5-58.6-11.9-87-23.4
		c-54.4-22-105.8-55.1-151.1-85.4C940,252.7,924,242.2,911.8,234.4z"/>
	<path id="XMLID_74_" class="st2" d="M-16.2-5.6l1.6-9.9c178.2,1.9,335.7,70.3,522.4,151.4c17.6,7.7,35.5,15.4,55.2,23.9
		c31.9,13.7,59.2,25.4,82.7,35.2c23.7,9.9,43.8,18.1,60.9,24.9c12.7,12.8,25.6,25.3,38.7,37.7c12.4,11.7,24.9,23.2,37.2,34.8
		c-3.3-0.6-6.5-1.2-9.8-1.8c-3.7-0.7-10.9-2.8-21.8-6.5c-16.6-5.7-32.9-12.1-49.2-18.6c-23.4-9.4-46.6-19.4-69.6-29.7
		c-24-10.7-47.7-21.8-71.5-32.8C454.5,153.8,316.4,89.8,226.9,55.7C166.6,32.9,104.5,12.6,40.8,1.4C30.6-0.4,20.7-1.9,11.2-3.1
		C2.1-4.2-7-5.1-16.2-5.6z"/>
	
		<linearGradient id="XMLID_87_" gradientUnits="userSpaceOnUse" x1="168.5348" y1="29.0577" x2="699.11" y2="287.8365" gradientTransform="matrix(0.9877 0.1564 -0.1564 0.9877 -2.7014 -65.1961)">
		<stop  offset="0" style="stop-color:#0075BF"/>
		<stop  offset="0.2995" style="stop-color:#0074BD"/>
		<stop  offset="0.4686" style="stop-color:#006EB6"/>
		<stop  offset="0.6051" style="stop-color:#0064AA"/>
		<stop  offset="0.7243" style="stop-color:#005799"/>
		<stop  offset="0.8322" style="stop-color:#004785"/>
		<stop  offset="0.9304" style="stop-color:#00346F"/>
		<stop  offset="1" style="stop-color:#12245B"/>
	</linearGradient>
	<path id="XMLID_73_" class="st3" d="M-17-0.5C7,4.2,104.4,27.2,226.4,81.2c165.7,73.2,332.6,178,507.3,243
		c19.5,7.2,31.3,10.8,36.4,11.8c17.3,3.3,31.3,5.3,36.9-2.3c0.6-0.9,1.4-1.9,2.1-3.1c0.6-6.5-7.1-15.5-10.2-19.6
		c-2.1-2.8-9.7-10.3-20.5-20.4c-1.8-0.3-3.6-0.6-5.4-1c-5.1-1-16.9-4.5-36.4-11.8c-22.9-8.5-45.8-17.8-68.5-27.5
		c-22.3-9.5-47.2-20.7-74.9-33.5c-108.9-50.4-267-124.5-365.8-162.2C128.6,16.8,46.4-3.2-16-6.9L-17-0.5z"/>
	
		<linearGradient id="XMLID_88_" gradientUnits="userSpaceOnUse" x1="958.4943" y1="116.8494" x2="1271.2876" y2="290.2336" gradientTransform="matrix(0.9877 0.1564 -0.1564 0.9877 -2.7014 -65.1961)">
		<stop  offset="0" style="stop-color:#12245B"/>
		<stop  offset="1" style="stop-color:#0075BF"/>
	</linearGradient>
	<path id="XMLID_72_" class="st4" d="M1281.1,369.7c-114.2,28-229-43.4-319.5-104.1c-42.9-28.8-65.4-42.8-76.6-49.4l-26.8,39.4
		c14.1,8.3,40.6,23.6,86.6,49.5c92.1,51.9,227.2,110.7,335,73L1281.1,369.7z"/>
	
		<linearGradient id="XMLID_89_" gradientUnits="userSpaceOnUse" x1="167.2137" y1="-5.0256" x2="577.7965" y2="195.229" gradientTransform="matrix(0.9877 0.1564 -0.1564 0.9877 -2.7014 -65.1961)">
		<stop  offset="0" style="stop-color:#E63312"/>
		<stop  offset="0.2879" style="stop-color:#E43212"/>
		<stop  offset="0.4832" style="stop-color:#DD2E11"/>
		<stop  offset="0.6512" style="stop-color:#D2280F"/>
		<stop  offset="0.8036" style="stop-color:#C3200D"/>
		<stop  offset="0.9442" style="stop-color:#AF150A"/>
		<stop  offset="1" style="stop-color:#A51008"/>
	</linearGradient>
	<path id="XMLID_71_" class="st5" d="M-14.8-14.2C180.4-12.1,351,70,562.5,161.1c63.3,27.3,109.4,46.5,143.6,60.1
		c-13.5-13.7-24.4-25.4-26.3-28.8c-3.7-7.1-2.9-17.5,2.2-24l1.7-2.5c-19-6.7-40.1-14.5-63.3-23.6C391.8,52.8,225.4-34.1-13.8-20.8
		L-14.8-14.2z"/>
	
		<linearGradient id="XMLID_90_" gradientUnits="userSpaceOnUse" x1="817.7584" y1="-14.4825" x2="1283.8721" y2="243.8886" gradientTransform="matrix(0.9877 0.1564 -0.1564 0.9877 -2.7014 -65.1961)">
		<stop  offset="0" style="stop-color:#9C1006"/>
		<stop  offset="1" style="stop-color:#E63312"/>
	</linearGradient>
	<path id="XMLID_70_" class="st6" d="M760.8,49.8c1.2-1.8,13.4-2.8,75.1,36.1s175.5,115.9,277.2,189.3
		c101.7,73.5,141.3,79.5,169.9,82l-1,6.5c-15.2,1.7-87-2.6-143.5-34c-56.4-31.4-180.1-118.5-226-147c-24-14.9-51.5-32.4-72.5-45.7
		c-20.3-21.2-44.2-45.2-57.7-57.5c-20.2-18.4-24.3-23.3-23.4-27.1l0.8-1.2L760.8,49.8z"/>
	
		<linearGradient id="XMLID_91_" gradientUnits="userSpaceOnUse" x1="719.9901" y1="76.1324" x2="914.5953" y2="184.0039" gradientTransform="matrix(0.9877 0.1564 -0.1564 0.9877 -2.7014 -65.1961)">
		<stop  offset="0" style="stop-color:#FFFFFF"/>
		<stop  offset="0.1665" style="stop-color:#F9F9F9"/>
		<stop  offset="0.4381" style="stop-color:#E7E7E7"/>
		<stop  offset="0.7789" style="stop-color:#C9C9C9"/>
		<stop  offset="1" style="stop-color:#B2B2B2"/>
	</linearGradient>
	<path id="XMLID_69_" class="st7" d="M731.3,93.6l-30.4,45c0,0,12.8,17.8,62.5,65.2c23.8,22.7,46.5,45.8,59.1,60.4
		c13.6,15.9,15,21.6,14.8,24.5c0.8-1.2,14.9-22.1,19.1-28.4l8.7-13c1.5-16.5-40.8-56.5-58.5-76c-10.6-11.7-32.3-33.1-49.8-50.2
		C742,106.8,731.3,93.6,731.3,93.6z"/>
	
		<linearGradient id="XMLID_92_" gradientUnits="userSpaceOnUse" x1="724.8613" y1="28.4038" x2="933.6862" y2="130.2545" gradientTransform="matrix(0.9877 0.1564 -0.1564 0.9877 -2.7014 -65.1961)">
		<stop  offset="0" style="stop-color:#FBCEB4"/>
		<stop  offset="0.27" style="stop-color:#E30613"/>
		<stop  offset="1" style="stop-color:#B20F0B"/>
	</linearGradient>
	<path id="XMLID_68_" class="st8" d="M760.9,49.7c-0.3,0.3-0.3,0.4-0.8,1.2l-29.4,43.5c0,0,10.7,13.2,25.4,27.6
		c17.5,17.1,39.2,38.6,49.8,50.2c17.7,19.5,60.1,59.4,58.5,75.9c0,0,18.2-26.7,24.3-35.7c6.1-9.1-4.2-24.8-13.4-37.6
		c-9.2-12.9-68-73.5-92.3-95.8C758.7,56.9,757.7,54.4,760.9,49.7z"/>
	
		<linearGradient id="XMLID_93_" gradientUnits="userSpaceOnUse" x1="697.5584" y1="131.7202" x2="894.764" y2="227.9038" gradientTransform="matrix(0.9877 0.1564 -0.1564 0.9877 -2.7014 -65.1961)">
		<stop  offset="0" style="stop-color:#BCD0ED"/>
		<stop  offset="0.16" style="stop-color:#0075BF"/>
		<stop  offset="1" style="stop-color:#142C6B"/>
	</linearGradient>
	<path id="XMLID_67_" class="st9" d="M680.7,168.8c-5.1,6.5-5.9,16.9-2.2,24c3.7,7.1,45.4,48.5,70.1,71.5c24.7,23,45.2,42.1,48.9,47
		c3.7,4.9,13.7,16.4,9.1,22.8c2.8-3.7,19.5-28.8,31.2-46.1c0.2-2.8-1.1-8.5-14.8-24.5c-12.5-14.7-35.2-37.7-59.1-60.4
		c-49.7-47.4-62.5-65.2-62.5-65.2L680.7,168.8z"/>
</g>
<g id="XMLID_78_" class="st0">
</g>
<g id="XMLID_79_" class="st0">
</g>
<g id="XMLID_80_" class="st0">
</g>
<g id="XMLID_81_" class="st0">
</g>
<g id="XMLID_82_" class="st0">
</g>
<g id="XMLID_83_" class="st0">
</g>
</svg>
