<?xml version="1.0" encoding="utf-8"?>
<!-- Generator: Adobe Illustrator 19.0.0, SVG Export Plug-In . SVG Version: 6.00 Build 0)  -->
<svg version="1.1" id="Capa_1" xmlns="http://www.w3.org/2000/svg" xmlns:xlink="http://www.w3.org/1999/xlink" x="0px" y="0px"
	 viewBox="0 0 1280 390" style="enable-background:new 0 0 1280 390;" xml:space="preserve">
<style type="text/css">
	.st0{clip-path:url(#XMLID_97_);}
	.st1{fill-rule:evenodd;clip-rule:evenodd;fill:url(#XMLID_98_);}
	.st2{fill-rule:evenodd;clip-rule:evenodd;fill:url(#XMLID_99_);}
	.st3{fill-rule:evenodd;clip-rule:evenodd;fill:url(#XMLID_100_);}
	.st4{fill:url(#XMLID_101_);}
	.st5{fill:url(#XMLID_102_);}
	.st6{fill-rule:evenodd;clip-rule:evenodd;fill:url(#XMLID_103_);}
	.st7{fill-rule:evenodd;clip-rule:evenodd;fill:url(#XMLID_104_);}
	.st8{fill:url(#XMLID_105_);}
	.st9{fill:url(#XMLID_106_);}
	.st10{fill-rule:evenodd;clip-rule:evenodd;fill:url(#XMLID_107_);}
	.st11{fill-rule:evenodd;clip-rule:evenodd;fill:url(#XMLID_108_);}
	.st12{fill-rule:evenodd;clip-rule:evenodd;fill:url(#XMLID_109_);}
	.st13{fill-rule:evenodd;clip-rule:evenodd;fill:url(#XMLID_110_);}
	.st14{fill:url(#XMLID_111_);}
</style>
<defs>
	<rect id="XMLID_89_" width="1280" height="390"/>
</defs>
<clipPath id="XMLID_97_">
	<use xlink:href="#XMLID_89_"  style="overflow:visible;"/>
</clipPath>
<g id="XMLID_66_" class="st0">
	
		<radialGradient id="XMLID_98_" cx="680.4474" cy="24.3463" r="1030.9365" gradientTransform="matrix(0.9877 0.1564 -0.1564 0.9877 -3.8467 -64.6566)" gradientUnits="userSpaceOnUse">
		<stop  offset="0" style="stop-color:#0075BF"/>
		<stop  offset="1" style="stop-color:#162259"/>
	</radialGradient>
	<path id="XMLID_87_" class="st1" d="M-14.5-16.2L-14.5-16.2l0.5-3.3c239.2-13.2,405.5,73.7,634.1,163.1c22.8,8.9,44,16.7,62.8,23.4
		l18.7-27.8l29.2-43.3l29.4-43.5c0.5-0.7,0.5-0.8,0.7-1.1l0,0l0-0.1l0,0l0,0l0,0l0,0c1.6-1.8,13.6-2.5,74.8,36.1
		c61.2,38.6,175.5,115.9,277.2,189.4c101.7,73.5,141.3,79.5,169.9,82l150.8-952.4L110.2-803.4L-14.5-16.2z"/>
	
		<linearGradient id="XMLID_99_" gradientUnits="userSpaceOnUse" x1="-2.9522" y1="165.7691" x2="864.7477" y2="165.7691" gradientTransform="matrix(0.9877 0.1564 -0.1564 0.9877 -3.8467 -64.6566)">
		<stop  offset="0" style="stop-color:#FFFFFF"/>
		<stop  offset="0.3042" style="stop-color:#FDFDFD"/>
		<stop  offset="0.5106" style="stop-color:#F7F7F7"/>
		<stop  offset="0.6881" style="stop-color:#ECECEB"/>
		<stop  offset="0.8482" style="stop-color:#DCDCDC"/>
		<stop  offset="0.997" style="stop-color:#C7C7C6"/>
		<stop  offset="1" style="stop-color:#C6C6C6"/>
	</linearGradient>
	<path id="XMLID_86_" class="st2" d="M-17-0.5C7,4.2,104.4,27.2,226.4,81.2c165.7,73.2,332.6,178,507.3,243
		c19.5,7.2,31.3,10.8,36.4,11.8c17.3,3.3,31.3,5.3,36.9-2.3c0.6-0.9,1.4-1.9,2.1-3.1c0.6-6.5-7.1-15.5-10.2-19.6
		c-2.1-2.8-9.7-10.3-20.5-20.4c-1.8-0.3-3.6-0.6-5.4-1c-5.1-1-16.9-4.5-36.4-11.8c-22.9-8.5-45.8-17.8-68.5-27.5
		c-22.3-9.5-47.2-20.7-74.9-33.5c-108.9-50.4-267-124.5-365.8-162.2C128.6,16.8,46.4-3.2-16-6.9L-17-0.5z"/>
	
		<linearGradient id="XMLID_100_" gradientUnits="userSpaceOnUse" x1="-8.9949" y1="98.5151" x2="751.9682" y2="98.5151" gradientTransform="matrix(0.9877 0.1564 -0.1564 0.9877 -3.8467 -64.6566)">
		<stop  offset="0" style="stop-color:#FFFFFF"/>
		<stop  offset="0.3042" style="stop-color:#FDFDFD"/>
		<stop  offset="0.5106" style="stop-color:#F7F7F7"/>
		<stop  offset="0.6881" style="stop-color:#ECECEB"/>
		<stop  offset="0.8482" style="stop-color:#DCDCDC"/>
		<stop  offset="0.997" style="stop-color:#C7C7C6"/>
		<stop  offset="1" style="stop-color:#C6C6C6"/>
	</linearGradient>
	<path id="XMLID_85_" class="st3" d="M-14.8-14.2C180.4-12.1,351,70,562.5,161.1c63.3,27.3,109.4,46.5,143.6,60.1
		c-13.5-13.7-24.4-25.4-26.3-28.9c-3.7-7.1-2.9-17.5,2.2-24l1.7-2.5c-19-6.7-40.1-14.5-63.3-23.6C391.8,52.8,225.4-34.1-13.8-20.8
		L-14.8-14.2z"/>
	
		<linearGradient id="XMLID_101_" gradientUnits="userSpaceOnUse" x1="171.5119" y1="8.4792" x2="700.0437" y2="266.2614" gradientTransform="matrix(0.9877 0.1564 -0.1564 0.9877 -3.8467 -64.6566)">
		<stop  offset="0" style="stop-color:#0075BF"/>
		<stop  offset="0.2995" style="stop-color:#0073BD"/>
		<stop  offset="0.4686" style="stop-color:#006DB5"/>
		<stop  offset="0.6051" style="stop-color:#0063A9"/>
		<stop  offset="0.7243" style="stop-color:#005698"/>
		<stop  offset="0.8322" style="stop-color:#004584"/>
		<stop  offset="0.9304" style="stop-color:#05326D"/>
		<stop  offset="1" style="stop-color:#162259"/>
	</linearGradient>
	<path id="XMLID_84_" class="st4" d="M-16.7-2.2l2.7-16.9c173.3-7.6,334,46.8,520.4,126.6c66.1,28.3,138.9,56.9,172.4,69.4
		c6.9,19.4,54.7,70.1,67.8,82.4c12.4,11.7,64.2,56.6,61.9,66.5c-5.9,1.7-21.7,2.4-52.3-7.4c-65.7-21-173.5-72.2-233.4-101.9
		C363.1,137.3,209.5,49.5,36.9,8.4C18.3,3.9-1.6-0.4-16.7-2.2z"/>
	
		<linearGradient id="XMLID_102_" gradientUnits="userSpaceOnUse" x1="-5.0297" y1="140.7527" x2="847.8615" y2="140.7527" gradientTransform="matrix(0.9877 0.1564 -0.1564 0.9877 -3.8467 -64.6566)">
		<stop  offset="0" style="stop-color:#FFFFFF"/>
		<stop  offset="0.3995" style="stop-color:#FEFEFE"/>
		<stop  offset="0.5692" style="stop-color:#F8F8F8"/>
		<stop  offset="0.6954" style="stop-color:#EFEFEF"/>
		<stop  offset="0.8" style="stop-color:#E3E2E2"/>
		<stop  offset="0.8913" style="stop-color:#D1D1D1"/>
		<stop  offset="0.9719" style="stop-color:#BCBCBB"/>
		<stop  offset="1" style="stop-color:#B2B2B2"/>
	</linearGradient>
	<path id="XMLID_83_" class="st5" d="M-16.2-5.2l1.8-11.1c178.2,1.9,338.9,66.8,525.6,147.9c66,28.7,124.6,52.7,189.3,79.4
		c12.7,12.8,33.6,34.1,46.7,46.5c12.4,11.7,36.5,36.2,48.9,47.9c-15.1-3.6-35.8-9.3-45.9-12.7C684.9,269.8,622,239,559.5,210
		C393.6,133.1,222.6,34.9,40.6,2.7C21.7-0.7,2.9-4.1-16.2-5.2z"/>
	
		<linearGradient id="XMLID_103_" gradientUnits="userSpaceOnUse" x1="883.0192" y1="200.9872" x2="1350.8448" y2="200.9872" gradientTransform="matrix(0.9877 0.1564 -0.1564 0.9877 -3.8467 -64.6566)">
		<stop  offset="0" style="stop-color:#C6C6C6"/>
		<stop  offset="1" style="stop-color:#FFFFFF"/>
	</linearGradient>
	<path id="XMLID_82_" class="st6" d="M1281.1,369.7c-114.2,28-229-43.4-319.5-104.1c-42.9-28.8-65.4-42.8-76.6-49.4l-26.8,39.4
		c14.1,8.3,40.6,23.6,86.6,49.5c92.1,51.9,227.2,110.7,335,73L1281.1,369.7z"/>
	
		<linearGradient id="XMLID_104_" gradientUnits="userSpaceOnUse" x1="744.4653" y1="109.2932" x2="1364.3784" y2="109.2932" gradientTransform="matrix(0.9877 0.1564 -0.1564 0.9877 -3.8467 -64.6566)">
		<stop  offset="0" style="stop-color:#C6C6C6"/>
		<stop  offset="1" style="stop-color:#FFFFFF"/>
	</linearGradient>
	<path id="XMLID_81_" class="st7" d="M760.8,49.8c1.2-1.8,13.4-2.8,75.1,36.1c61.7,38.9,175.5,115.9,277.2,189.4
		c101.7,73.5,141.3,79.5,169.9,82l-1,6.5c-15.2,1.7-87-2.6-143.5-34c-56.4-31.4-180.1-118.5-226-147c-24-14.9-51.5-32.4-72.5-45.7
		c-20.3-21.2-44.2-45.2-57.7-57.5c-20.2-18.4-24.3-23.3-23.4-27.1l0.8-1.2L760.8,49.8z"/>
	
		<linearGradient id="XMLID_105_" gradientUnits="userSpaceOnUse" x1="839.2584" y1="36.722" x2="1249.6312" y2="264.1955" gradientTransform="matrix(0.9877 0.1564 -0.1564 0.9877 -3.8467 -64.6566)">
		<stop  offset="0" style="stop-color:#162259"/>
		<stop  offset="1" style="stop-color:#0075BF"/>
	</linearGradient>
	<path id="XMLID_80_" class="st8" d="M864.1,244c5-6.8,11.4-17,17.1-25.1l5.8-9.1c3.2-4.6-3.1-17.3-6.8-24.6
		c-4.6-9.1-48.9-53.8-55.6-61.3c-3.8-4.3-24.5-25.3-36.9-37.1c-9.3-8.8-19.5-19.8-27.3-27.8c0.1-1.5,10.9,1.9,23.6,9
		c54,30.2,105.7,64.5,163.8,104.3c62,42.5,130.4,89.9,177.5,122c40.3,27.4,79.2,52,128.2,61.6c9.3,1.8,19.8,3.2,29.2,2.8l-2.8,17.5
		c-23.5,7.1-52.5,12.6-90.7,9.6c-30.7-2.4-71.9-10.9-105.4-24c-67.1-26.5-120.9-57.4-191.2-99.8C884.9,257.5,876.9,252.4,864.1,244z
		"/>
	
		<linearGradient id="XMLID_106_" gradientUnits="userSpaceOnUse" x1="806.3863" y1="146.0663" x2="1337.048" y2="146.0663" gradientTransform="matrix(0.9877 0.1564 -0.1564 0.9877 -3.8467 -64.6566)">
		<stop  offset="0" style="stop-color:#C6C6C6"/>
		<stop  offset="1" style="stop-color:#FFFFFF"/>
	</linearGradient>
	<path id="XMLID_79_" class="st9" d="M878.3,225.9l9.4-14.1c2.8-4.1,1.7-9.8-1.1-16.1c-2.9-6.6-7.8-13.6-12.3-20
		c-2.8-3.9-10.4-12.4-20.1-22.9c-6.8-7.3-35.9-36.9-42.8-44c50.7,32.9,128.1,84.4,179.8,119.1c52.3,35.2,114,75.7,149.1,95.3
		c41.5,22.7,93.5,44.6,141.9,39.5l-1.5,9.6c-110.5,26.3-227.5-36.8-323.5-96.5C931.3,259.7,899.4,240,878.3,225.9z"/>
	
		<linearGradient id="XMLID_107_" gradientUnits="userSpaceOnUse" x1="737.0237" y1="26.2624" x2="923.9883" y2="129.8985" gradientTransform="matrix(0.9877 0.1564 -0.1564 0.9877 -3.8467 -64.6566)">
		<stop  offset="0" style="stop-color:#FFFFFF"/>
		<stop  offset="0.6" style="stop-color:#E7E7E7"/>
		<stop  offset="1" style="stop-color:#A8A8A7"/>
	</linearGradient>
	<path id="XMLID_78_" class="st10" d="M760.9,49.7c-0.3,0.3-0.3,0.4-0.8,1.2l-29.4,43.5c0,0,10.7,13.2,25.4,27.6
		c17.5,17.1,39.2,38.6,49.8,50.2c17.7,19.5,60.1,59.4,58.5,75.9c0,0,18.2-26.7,24.3-35.7c6.1-9.1-4.2-24.8-13.4-37.6
		c-9.2-12.9-68-73.5-92.3-95.8C758.7,56.9,757.7,54.4,760.9,49.7z"/>
	
		<linearGradient id="XMLID_108_" gradientUnits="userSpaceOnUse" x1="709.325" y1="130.4922" x2="885.0473" y2="227.8967" gradientTransform="matrix(0.9877 0.1564 -0.1564 0.9877 -3.8467 -64.6566)">
		<stop  offset="0" style="stop-color:#FFFFFF"/>
		<stop  offset="0.6" style="stop-color:#E7E7E7"/>
		<stop  offset="1" style="stop-color:#B2B2B2"/>
	</linearGradient>
	<path id="XMLID_77_" class="st11" d="M680.7,168.8c-5.1,6.5-5.9,16.9-2.2,24c3.7,7.1,45.4,48.5,70.1,71.5
		c24.7,23,45.2,42.1,48.9,47c3.7,4.9,13.7,16.4,9.1,22.8c2.8-3.7,19.5-28.8,31.2-46.1c0.2-2.8-1.1-8.5-14.8-24.5
		c-12.5-14.7-35.2-37.7-59.1-60.4c-49.7-47.4-62.5-65.2-62.5-65.2L680.7,168.8z"/>
	
		<linearGradient id="XMLID_109_" gradientUnits="userSpaceOnUse" x1="700.3762" y1="72.0653" x2="936.1086" y2="187.0396" gradientTransform="matrix(0.9877 0.1564 -0.1564 0.9877 -3.8467 -64.6566)">
		<stop  offset="0" style="stop-color:#BCD0ED"/>
		<stop  offset="0.25" style="stop-color:#0071B8"/>
		<stop  offset="1" style="stop-color:#152056"/>
	</linearGradient>
	<path id="XMLID_76_" class="st12" d="M753.2,61.1l-58.4,86.6l-12.5,18.7c-1,1.7-1.6,10.6,6.8,20c9.3,10.3,25.2,27,51.2,51.8
		c23.8,22.7,46.8,45.3,60.1,59.1c10.9,11.3,14.7,19.9,14.6,24.4c0.8-1.2,37.1-55,41.3-61.3l26-38.3c6.1-16.5-16.3-39.7-53.7-79.8
		c-11.2-12-33.3-34.1-50.9-51.2C763,76.6,752.8,66.7,753.2,61.1z"/>
	
		<linearGradient id="XMLID_110_" gradientUnits="userSpaceOnUse" x1="721.8353" y1="76.4048" x2="914.3849" y2="183.1368" gradientTransform="matrix(0.9877 0.1564 -0.1564 0.9877 -3.8467 -64.6566)">
		<stop  offset="0" style="stop-color:#FFFFFF"/>
		<stop  offset="1" style="stop-color:#B2B2B2"/>
	</linearGradient>
	<path id="XMLID_75_" class="st13" d="M739.9,80.9l-45.9,68c-1,10.3,9.9,22.1,59.6,69.5c23.8,22.7,46.6,43.9,59.1,58.6
		c13.6,15.9,15,21.5,15.4,25.2c0.8-1.2,24-35.6,28.2-41.9l14-20.6c3.3-15.6-39-59.3-56.7-78.8c-10.6-11.7-32.3-33.1-49.8-50.2
		C749.1,96.4,740.4,86.4,739.9,80.9z"/>
	
		<linearGradient id="XMLID_111_" gradientUnits="userSpaceOnUse" x1="773.8185" y1="109.2283" x2="858.9232" y2="143.6128" gradientTransform="matrix(0.9877 0.1564 -0.1564 0.9877 -3.8467 -64.6566)">
		<stop  offset="0" style="stop-color:#0094D5"/>
		<stop  offset="0.25" style="stop-color:#0071B8"/>
		<stop  offset="1" style="stop-color:#162259"/>
	</linearGradient>
	<path id="XMLID_88_" class="st14" d="M819.1,197.7l-16.2-16.5l4.5-23.2l-20.7,6.6l-16-16.4l-4.4,22.9l-20.6,6.6l16.2,16.5
		l-4.5,23.2l20.7-6.6l16,16.4l4.4-22.9L819.1,197.7L819.1,197.7z M757.2,181.1l7.6-2.4l-1.6,8.5L757.2,181.1L757.2,181.1z
		 M765.4,207.8l1.5-8.3l5.8,5.9L765.4,207.8L765.4,207.8z M796.4,183l-3,15.9l-14.4,4.6l-10.7-11l3-15.9l14.4-4.6L796.4,183
		L796.4,183z M790.4,215.1l-6.1-6.3l7.8-2.5L790.4,215.1L790.4,215.1z M801.6,188.2l6,6.1l-7.6,2.4L801.6,188.2L801.6,188.2z
		 M799.3,167.6l-1.6,8.3L792,170L799.3,167.6L799.3,167.6z M774.3,160.3l6.1,6.3l-7.7,2.5L774.3,160.3z"/>
</g>
<g id="XMLID_90_" class="st0">
</g>
<g id="XMLID_91_" class="st0">
</g>
<g id="XMLID_92_" class="st0">
</g>
<g id="XMLID_93_" class="st0">
</g>
<g id="XMLID_94_" class="st0">
</g>
<g id="XMLID_95_" class="st0">
</g>
</svg>
