<?xml version="1.0" encoding="iso-8859-1"?>
<!-- Generator: Adobe Illustrator 19.0.0, SVG Export Plug-In . SVG Version: 6.00 Build 0)  -->
<svg version="1.1" id="Capa_1" xmlns="http://www.w3.org/2000/svg" xmlns:xlink="http://www.w3.org/1999/xlink" x="0px" y="0px"
	 viewBox="0 0 266 266" style="enable-background:new 0 0 266 266;" xml:space="preserve">
<path id="Blue_1_" style="fill:#3D5A99;" d="M251.319,266.001c8.107,0,14.681-6.574,14.681-14.681V14.681
	C266,6.572,259.426,0,251.319,0H14.681C6.571,0,0,6.572,0,14.681V251.32c0,8.108,6.571,14.681,14.681,14.681H251.319z"/>
<path id="f" style="fill:#FFFFFF;" d="M183.535,266.001v-103.01h34.577l5.176-40.145h-39.753V97.216
	c0-11.623,3.227-19.544,19.896-19.544l21.258-0.01V41.757c-3.678-0.489-16.296-1.582-30.977-1.582
	c-30.649,0-51.633,18.708-51.633,53.065v29.606h-34.665v40.145h34.665v103.01H183.535z"/>
<g id="XMLID_40_">
</g>
<g id="XMLID_41_">
</g>
<g id="XMLID_42_">
</g>
<g id="XMLID_43_">
</g>
<g id="XMLID_44_">
</g>
<g id="XMLID_45_">
</g>
</svg>
