<?xml version="1.0" encoding="iso-8859-1"?>
<!-- Generator: Adobe Illustrator 19.0.0, SVG Export Plug-In . SVG Version: 6.00 Build 0)  -->
<svg version="1.1" id="Capa_1" xmlns="http://www.w3.org/2000/svg" xmlns:xlink="http://www.w3.org/1999/xlink" x="0px" y="0px"
	 viewBox="0 0 584 584" style="enable-background:new 0 0 584 584;" xml:space="preserve">
<g id="Icon_Shape">
	<defs>
		<path id="XMLID_25_" d="M583.954,435.8c0,3.198-0.097,10.132-0.29,15.489c-0.47,13.107-1.509,30.019-3.08,37.726
			c-2.361,11.58-5.926,22.51-10.574,31.608c-5.499,10.762-12.515,20.402-20.849,28.722c-8.317,8.303-17.947,15.29-28.694,20.768
			c-9.145,4.66-20.144,8.227-31.79,10.578c-7.629,1.54-24.415,2.56-37.439,3.022c-5.362,0.191-12.298,0.287-15.484,0.287
			L148.2,583.954c-3.198,0-10.131-0.097-15.488-0.29c-13.107-0.471-30.019-1.509-37.726-3.08
			c-11.58-2.361-22.51-5.926-31.608-10.574c-10.762-5.499-20.403-12.515-28.722-20.849c-8.303-8.317-15.29-17.947-20.767-28.694
			c-4.661-9.146-8.228-20.144-10.579-31.79c-1.54-7.629-2.559-24.415-3.022-37.439C0.096,445.875,0,438.939,0,435.754L0.046,148.2
			c0-3.198,0.097-10.132,0.29-15.489c0.47-13.107,1.509-30.019,3.08-37.725c2.361-11.58,5.926-22.511,10.574-31.609
			c5.499-10.762,12.515-20.402,20.849-28.722c8.317-8.303,17.947-15.29,28.694-20.768c9.145-4.66,20.145-8.227,31.79-10.578
			c7.629-1.54,24.415-2.56,37.439-3.022C138.125,0.096,145.061,0,148.246,0L435.8,0.046c3.198,0,10.132,0.097,15.489,0.29
			c13.107,0.471,30.019,1.509,37.726,3.08c11.58,2.361,22.51,5.926,31.608,10.574c10.762,5.499,20.402,12.515,28.722,20.849
			c8.302,8.317,15.29,17.947,20.767,28.694c4.661,9.146,8.227,20.144,10.579,31.79c1.54,7.629,2.559,24.415,3.022,37.439
			c0.191,5.362,0.287,12.298,0.287,15.484L583.954,435.8z"/>
	</defs>
	<linearGradient id="XMLID_102_" gradientUnits="userSpaceOnUse" x1="292" y1="584.0003" x2="292" y2="6.454684e-09">
		<stop  offset="0" style="stop-color:#25CF43"/>
		<stop  offset="1" style="stop-color:#61FD7D"/>
	</linearGradient>
	<use xlink:href="#XMLID_25_"  style="overflow:visible;fill-rule:evenodd;clip-rule:evenodd;fill:url(#XMLID_102_);"/>
	<clipPath id="XMLID_103_">
		<use xlink:href="#XMLID_25_"  style="overflow:visible;"/>
	</clipPath>
</g>
<g id="WA_Logo">
	<g id="XMLID_82_">
		<path id="XMLID_83_" style="fill-rule:evenodd;clip-rule:evenodd;fill:#FFFFFF;" d="M445.584,139.798
			c-39.303-39.335-91.571-61.009-147.258-61.031c-114.742,0-208.128,93.35-208.174,208.093
			c-0.015,36.678,9.571,72.481,27.787,104.039l-29.533,107.84L198.762,469.8c30.405,16.578,64.639,25.316,99.48,25.33h0.085
			c0.007,0-0.006,0,0.001,0c114.73,0,208.124-93.362,208.171-208.105C506.521,231.419,484.888,179.133,445.584,139.798z
			 M298.328,459.982h-0.071c-31.047-0.012-61.499-8.35-88.064-24.11l-6.318-3.749l-65.486,17.173l17.48-63.828l-4.115-6.544
			c-17.32-27.54-26.468-59.37-26.454-92.052c0.038-95.37,77.657-172.958,173.097-172.958c46.214,0.018,89.657,18.033,122.325,50.727
			c32.667,32.694,50.648,76.153,50.63,122.37C471.313,382.388,393.694,459.982,298.328,459.982z M393.235,330.438
			c-5.202-2.603-30.775-15.183-35.543-16.918c-4.768-1.735-8.235-2.603-11.703,2.603c-3.467,5.205-13.436,16.918-16.47,20.388
			c-3.034,3.471-6.068,3.905-11.269,1.302c-5.202-2.602-21.962-8.094-41.829-25.809c-15.462-13.787-25.902-30.817-28.936-36.022
			s-0.323-8.02,2.281-10.612c2.34-2.33,5.201-6.073,7.802-9.11c2.601-3.037,3.468-5.206,5.201-8.676
			c1.734-3.471,0.867-6.507-0.434-9.11c-1.3-2.603-11.703-28.197-16.037-38.608c-4.222-10.14-8.51-8.768-11.703-8.927
			c-3.03-0.151-6.502-0.183-9.969-0.183c-3.468,0-9.103,1.301-13.87,6.507c-4.768,5.206-18.205,17.786-18.205,43.38
			c0,25.594,18.638,50.32,21.239,53.79c2.601,3.471,36.678,55.993,88.856,78.517c12.41,5.357,22.099,8.556,29.653,10.954
			c12.461,3.957,23.8,3.399,32.763,2.06c9.993-1.493,30.774-12.58,35.109-24.726c4.334-12.146,4.334-22.557,3.034-24.727
			C401.904,334.342,398.436,333.041,393.235,330.438z"/>
	</g>
</g>
<g id="XMLID_95_">
</g>
<g id="XMLID_96_">
</g>
<g id="XMLID_97_">
</g>
<g id="XMLID_98_">
</g>
<g id="XMLID_99_">
</g>
<g id="XMLID_100_">
</g>
</svg>
