<?xml version="1.0" encoding="utf-8"?>
<!-- Generator: Adobe Illustrator 19.0.0, SVG Export Plug-In . SVG Version: 6.00 Build 0)  -->
<svg version="1.1" id="Capa_1" xmlns="http://www.w3.org/2000/svg" xmlns:xlink="http://www.w3.org/1999/xlink" x="0px" y="0px"
	 viewBox="0 0 1280 390" style="enable-background:new 0 0 1280 390;" xml:space="preserve">
<style type="text/css">
	.st0{clip-path:url(#XMLID_119_);}
	.st1{fill-rule:evenodd;clip-rule:evenodd;fill:url(#XMLID_120_);}
	.st2{fill:#FFFFFF;}
	.st3{fill-rule:evenodd;clip-rule:evenodd;fill:url(#XMLID_121_);}
	.st4{fill-rule:evenodd;clip-rule:evenodd;fill:url(#XMLID_122_);}
	.st5{fill-rule:evenodd;clip-rule:evenodd;fill:url(#XMLID_123_);}
	.st6{fill-rule:evenodd;clip-rule:evenodd;fill:url(#XMLID_124_);}
	.st7{fill-rule:evenodd;clip-rule:evenodd;fill:#FFFFFF;}
	.st8{fill-rule:evenodd;clip-rule:evenodd;fill:url(#XMLID_125_);}
	.st9{fill-rule:evenodd;clip-rule:evenodd;fill:url(#XMLID_126_);}
	.st10{fill-rule:evenodd;clip-rule:evenodd;fill:url(#XMLID_127_);}
</style>
<defs>
	<rect id="XMLID_110_" width="1280" height="390"/>
</defs>
<clipPath id="XMLID_119_">
	<use xlink:href="#XMLID_110_"  style="overflow:visible;"/>
</clipPath>
<g id="XMLID_66_" class="st0">
	
		<radialGradient id="XMLID_120_" cx="633.5441" cy="-31.6182" r="948.4616" gradientTransform="matrix(0.9877 0.1564 -0.1564 0.9877 33.7245 -2.0438)" gradientUnits="userSpaceOnUse">
		<stop  offset="0" style="stop-color:#0075BF"/>
		<stop  offset="1" style="stop-color:#162259"/>
	</radialGradient>
	<path id="XMLID_109_" class="st1" d="M-14.5-16.2L-14.5-16.2l0.5-3.3c239.2-13.2,405.5,73.7,634.1,163.1
		c22.8,8.9,44,16.7,62.8,23.4l18.7-27.8l29.2-43.3l29.4-43.5c0.5-0.7,0.5-0.8,0.7-1.1l0,0l0-0.1l0,0l0,0l0,0l0,0
		c1.6-1.8,13.6-2.5,74.8,36.1c61.2,38.6,175.5,115.9,277.2,189.4c101.7,73.5,141.3,79.5,169.9,82l150.8-952.4L110.2-803.4
		L-14.5-16.2z"/>
	<path id="XMLID_108_" class="st2" d="M911.8,234.4c-9.2-5.9-18.4-11.7-27.7-17.2l3.6-5.4c2.8-4.1,1.7-9.8-1.1-16.1
		c-2.9-6.6-7.8-13.6-12.3-20c-2.8-3.9-10.4-12.4-20.1-22.9c-6.8-7.3-13.6-14.4-20.6-21.5l9.9,6.3c14.7,9.4,32.5,20.6,49.9,31.6
		c6.6,4.1,13.2,8.3,19.8,12.4c26.2,16,51.6,33.8,77.2,51c52.3,35.2,113.6,76.4,148.8,96c36,19.7,77.7,30.1,118.4,33.4
		c5.8,0.5,10.8,0.7,14.9,0.7c3.2,0,6.5,0,9.7-0.3l-1.3,8.4c-27.4,6.6-54.9,7.9-82,4.7c-29.5-3.5-58.6-11.9-87-23.4
		c-54.4-22-105.8-55.1-151.1-85.4C940,252.7,924,242.2,911.8,234.4z"/>
	<path id="XMLID_107_" class="st2" d="M-16.2-5.6l1.6-9.9c178.2,1.9,335.7,70.3,522.4,151.4c17.6,7.7,35.5,15.4,55.2,23.9
		c31.9,13.7,59.2,25.3,82.7,35.2c23.7,9.9,43.8,18.1,60.9,24.9c12.7,12.8,25.6,25.3,38.7,37.7c12.4,11.7,24.9,23.2,37.2,34.8
		c-3.3-0.6-6.5-1.2-9.8-1.8c-3.7-0.7-10.9-2.8-21.8-6.5c-16.6-5.7-32.9-12.1-49.2-18.6c-23.4-9.4-46.6-19.4-69.6-29.7
		c-24-10.7-47.7-21.8-71.5-32.8C454.5,153.8,316.4,89.8,226.9,55.7C166.6,32.9,104.5,12.6,40.8,1.4C30.6-0.4,20.7-1.9,11.2-3.1
		C2.1-4.2-7-5.1-16.2-5.6z"/>
	
		<linearGradient id="XMLID_121_" gradientUnits="userSpaceOnUse" x1="122.6779" y1="-27.6198" x2="653.2532" y2="231.1591" gradientTransform="matrix(0.9877 0.1564 -0.1564 0.9877 33.7245 -2.0438)">
		<stop  offset="0" style="stop-color:#E42313"/>
		<stop  offset="0.2995" style="stop-color:#E32313"/>
		<stop  offset="0.4686" style="stop-color:#DD2112"/>
		<stop  offset="0.6051" style="stop-color:#D31F10"/>
		<stop  offset="0.7243" style="stop-color:#C61C0E"/>
		<stop  offset="0.8322" style="stop-color:#B3180A"/>
		<stop  offset="0.9304" style="stop-color:#9D1306"/>
		<stop  offset="1" style="stop-color:#8A1002"/>
	</linearGradient>
	<path id="XMLID_106_" class="st3" d="M-17-0.5C7,4.2,104.4,27.2,226.4,81.2c165.7,73.2,332.6,178,507.3,243
		c19.5,7.2,31.3,10.8,36.4,11.8c17.3,3.3,31.3,5.3,36.9-2.3c0.6-0.9,1.4-1.9,2.1-3.1c0.6-6.5-7.1-15.5-10.2-19.6
		c-2.1-2.8-9.7-10.3-20.5-20.4c-1.8-0.3-3.6-0.6-5.4-1c-5.1-1-16.9-4.5-36.4-11.8c-22.9-8.5-45.8-17.8-68.5-27.5
		c-22.3-9.5-47.2-20.7-74.9-33.5c-108.9-50.4-267-124.5-365.8-162.2C128.6,16.8,46.4-3.2-16-6.9L-17-0.5z"/>
	
		<linearGradient id="XMLID_122_" gradientUnits="userSpaceOnUse" x1="912.7803" y1="60.251" x2="1225.2872" y2="233.4764" gradientTransform="matrix(0.9877 0.1564 -0.1564 0.9877 33.7245 -2.0438)">
		<stop  offset="0" style="stop-color:#841001"/>
		<stop  offset="1" style="stop-color:#E42313"/>
	</linearGradient>
	<path id="XMLID_105_" class="st4" d="M1281.1,369.7c-114.2,28-229-43.4-319.5-104.1c-42.9-28.8-65.4-42.8-76.6-49.4l-26.8,39.4
		c14.1,8.3,40.6,23.6,86.6,49.5c92.1,51.9,227.2,110.7,335,73L1281.1,369.7z"/>
	
		<linearGradient id="XMLID_123_" gradientUnits="userSpaceOnUse" x1="97.6626" y1="-73.2586" x2="555.6381" y2="150.111" gradientTransform="matrix(0.9877 0.1564 -0.1564 0.9877 33.7245 -2.0438)">
		<stop  offset="0" style="stop-color:#0075BF"/>
		<stop  offset="0.2995" style="stop-color:#0073BD"/>
		<stop  offset="0.4686" style="stop-color:#006DB5"/>
		<stop  offset="0.6051" style="stop-color:#0063A9"/>
		<stop  offset="0.7243" style="stop-color:#005698"/>
		<stop  offset="0.8322" style="stop-color:#004584"/>
		<stop  offset="0.9304" style="stop-color:#05326D"/>
		<stop  offset="1" style="stop-color:#162259"/>
	</linearGradient>
	<path id="XMLID_104_" class="st5" d="M-14.8-14.2C180.4-12.1,351,70,562.5,161.1c63.3,27.3,109.4,46.5,143.6,60.1
		c-13.5-13.7-24.4-25.4-26.3-28.9c-3.7-7.1-2.9-17.5,2.2-24l1.7-2.5c-19-6.7-40.1-14.5-63.3-23.6C391.8,52.8,225.4-34.1-13.8-20.8
		L-14.8-14.2z"/>
	
		<linearGradient id="XMLID_124_" gradientUnits="userSpaceOnUse" x1="797.6339" y1="-56.8965" x2="1212.2775" y2="172.9442" gradientTransform="matrix(0.9877 0.1564 -0.1564 0.9877 33.7245 -2.0438)">
		<stop  offset="0" style="stop-color:#162259"/>
		<stop  offset="1" style="stop-color:#0075BF"/>
	</linearGradient>
	<path id="XMLID_103_" class="st6" d="M760.8,49.8c1.2-1.8,13.4-2.8,75.1,36.1c61.7,38.9,175.5,115.9,277.2,189.4
		c101.7,73.5,141.3,79.5,169.9,82l-1,6.5c-15.2,1.7-87-2.6-143.5-34c-56.4-31.4-180.1-118.5-226-147c-24-14.9-51.5-32.4-72.5-45.7
		c-20.3-21.2-44.2-45.2-57.7-57.5c-20.2-18.4-24.3-23.3-23.4-27.1l0.8-1.2L760.8,49.8z"/>
	<polygon id="XMLID_102_" class="st7" points="407.2,61.3 406.4,71.5 415.9,75.4 406,77.7 405.2,87.9 399.9,79.2 390,81.7 
		396.6,73.9 391.2,65.2 400.7,69.1 	"/>
	<polygon id="XMLID_101_" class="st7" points="452.9,79.9 452.1,90.2 461.7,94.2 451.6,96.6 450.8,106.9 445.4,98.1 435.3,100.6 
		442,92.7 436.6,83.9 446.2,87.8 	"/>
	<polygon id="XMLID_100_" class="st7" points="498.9,97.7 498,108.6 508.2,112.7 497.5,115.3 496.7,126.2 491,116.9 480.4,119.5 
		487.5,111.2 481.7,101.9 491.8,106.1 	"/>
	<polygon id="XMLID_99_" class="st7" points="544.7,115.8 543.8,127.2 554.4,131.5 543.3,134.2 542.5,145.6 536.5,135.9 
		525.4,138.6 532.8,129.9 526.8,120.2 537.3,124.5 	"/>
	<polygon id="XMLID_98_" class="st7" points="590.3,134.5 589.5,145.9 600.1,150.2 588.9,152.9 588.1,164.3 582.1,154.6 571,157.3 
		578.4,148.6 572.4,138.9 583,143.2 	"/>
	<polygon id="XMLID_97_" class="st7" points="636,153.2 635.1,164.6 645.7,169 634.6,171.6 633.7,183.1 627.7,173.3 616.6,176 
		624,167.3 618,157.6 628.6,162 	"/>
	<polygon id="XMLID_96_" class="st7" points="681.6,171.9 680.7,183.3 691.3,187.7 680.2,190.4 679.4,201.8 673.4,192 662.2,194.8 
		669.7,186 663.6,176.3 674.2,180.7 	"/>
	<polygon id="XMLID_95_" class="st7" points="124.1,-15.4 125,-10 130.4,-9.2 125.6,-6.7 126.5,-1.3 122.6,-5.1 117.7,-2.6 
		120.2,-7.5 116.3,-11.4 121.7,-10.5 	"/>
	<polygon id="XMLID_94_" class="st7" points="22.4,-21.2 23.3,-18.5 26.1,-18.6 23.8,-16.9 24.7,-14.2 22.4,-15.9 20.2,-14.2 
		21,-16.9 18.7,-18.5 21.5,-18.5 	"/>
	<polygon id="XMLID_93_" class="st7" points="172.6,-8.7 173.4,-2 180.1,-0.7 173.9,2.1 174.7,8.9 170.1,3.9 164,6.7 167.3,0.8 
		162.7,-4.2 169.3,-2.8 	"/>
	<polygon id="XMLID_92_" class="st7" points="72.1,-20.3 73.1,-16.2 77.3,-15.9 73.7,-13.7 74.7,-9.6 71.5,-12.3 67.9,-10.1 
		69.5,-14 66.3,-16.7 70.5,-16.4 	"/>
	<polygon id="XMLID_91_" class="st7" points="221.5,0.9 222.2,8.7 229.8,10.4 222.6,13.5 223.4,21.2 218.2,15.4 211.1,18.5 
		215.1,11.8 209.9,5.9 217.5,7.6 	"/>
	<polygon id="XMLID_90_" class="st7" points="268,13.1 268.1,21.6 276.2,24.2 268.1,26.9 268.2,35.4 263.2,28.5 255.1,31.2 
		260.1,24.3 255,17.5 263.1,20.1 	"/>
	<polygon id="XMLID_89_" class="st7" points="313.9,27.3 313.7,36.7 322.5,39.8 313.5,42.4 313.3,51.7 308,44 299.1,46.7 
		304.8,39.3 299.4,31.6 308.2,34.8 	"/>
	<polygon id="XMLID_88_" class="st7" points="361.6,44 360.8,54.1 370.2,57.9 360.3,60.3 359.6,70.4 354.3,61.8 344.4,64.2 
		351,56.5 345.7,47.9 355,51.7 	"/>
	<polygon id="XMLID_87_" class="st7" points="822.7,84.6 819.9,95.7 829.6,101.8 818.2,102.5 815.4,113.7 811.2,103 799.8,103.8 
		808.6,96.5 804.3,85.9 813.9,92 	"/>
	<polygon id="XMLID_86_" class="st7" points="781.7,60.9 779,72 788.8,77.9 777.4,78.9 774.8,90 770.4,79.5 759,80.4 767.7,73 
		763.3,62.4 773,68.4 	"/>
	<polygon id="XMLID_85_" class="st7" points="864.7,111.3 861.7,122.3 871.2,128.6 859.8,129.1 856.8,140.1 852.8,129.4 
		841.3,129.9 850.3,122.8 846.3,112.1 855.8,118.4 	"/>
	<polygon id="XMLID_84_" class="st7" points="1068.9,249.2 1066.1,259.5 1075,265.4 1064.3,265.8 1061.5,276.1 1057.8,266.1 
		1047.1,266.6 1055.5,260 1051.7,250 1060.6,255.9 	"/>
	<polygon id="XMLID_83_" class="st7" points="906.2,137.5 903.1,148.5 912.7,154.8 901.2,155.3 898.2,166.3 894.2,155.6 
		882.8,156.1 891.7,149 887.7,138.3 897.2,144.6 	"/>
	<polygon id="XMLID_82_" class="st7" points="1109.5,276.6 1106.8,286.4 1115.3,292 1105.1,292.4 1102.4,302.3 1098.9,292.7 
		1088.7,293.2 1096.7,286.8 1093.1,277.3 1101.6,282.9 	"/>
	<polygon id="XMLID_81_" class="st7" points="947.8,163.9 944.7,175 954.3,181.2 942.8,181.7 939.8,192.8 935.8,182 924.4,182.6 
		933.4,175.5 929.3,164.8 938.9,171.1 	"/>
	<polygon id="XMLID_80_" class="st7" points="1150.3,305.4 1148,313.7 1155.2,318.5 1146.6,318.8 1144.3,327.1 1141.3,319.1 
		1132.7,319.5 1139.4,314.1 1136.4,306.1 1143.6,310.8 	"/>
	<polygon id="XMLID_79_" class="st7" points="988.9,191.1 985.9,202.2 995.4,208.4 984,208.9 981,220 977,209.2 965.5,209.8 
		974.5,202.7 970.5,191.9 980,198.3 	"/>
	<polygon id="XMLID_78_" class="st7" points="1191.5,329.4 1190.5,336.4 1196.9,339.5 1189.9,340.7 1189,347.8 1185.6,341.5 
		1178.6,342.7 1183.6,337.6 1180.2,331.4 1186.6,334.5 	"/>
	<polygon id="XMLID_77_" class="st7" points="1029,220 1025.9,231 1035.5,237.3 1024.1,237.8 1021,248.8 1017,238.1 1005.6,238.6 
		1014.6,231.5 1010.5,220.8 1020.1,227.1 	"/>
	<polygon id="XMLID_76_" class="st7" points="1234.2,347.8 1234.3,352 1238.3,353.2 1234.3,354.5 1234.4,358.7 1231.9,355.4 
		1227.9,356.7 1230.3,353.3 1227.8,350 1231.8,351.2 	"/>
	<polygon id="XMLID_75_" class="st7" points="1263.9,355.8 1264.3,358.4 1266.9,358.8 1264.6,360 1265,362.6 1263.2,360.8 
		1260.8,362 1262,359.6 1260.1,357.8 1262.7,358.2 	"/>
	
		<linearGradient id="XMLID_125_" gradientUnits="userSpaceOnUse" x1="674.1351" y1="19.4559" x2="868.7403" y2="127.3273" gradientTransform="matrix(0.9877 0.1564 -0.1564 0.9877 33.7245 -2.0438)">
		<stop  offset="0" style="stop-color:#FFFFFF"/>
		<stop  offset="0.1665" style="stop-color:#F9F9F9"/>
		<stop  offset="0.4381" style="stop-color:#E7E7E7"/>
		<stop  offset="0.7789" style="stop-color:#C9C9C9"/>
		<stop  offset="1" style="stop-color:#B2B2B2"/>
	</linearGradient>
	<path id="XMLID_74_" class="st8" d="M731.3,93.6l-30.4,45c0,0,12.8,17.8,62.5,65.2c23.8,22.7,46.5,45.8,59.1,60.4
		c13.6,15.9,15,21.6,14.8,24.5c0.8-1.2,14.9-22.1,19.1-28.4l8.7-13c1.5-16.5-40.8-56.5-58.5-76c-10.6-11.7-32.3-33.1-49.8-50.2
		C742,106.8,731.3,93.6,731.3,93.6z"/>
	
		<linearGradient id="XMLID_126_" gradientUnits="userSpaceOnUse" x1="680.112" y1="-27.7337" x2="886.7228" y2="73.0371" gradientTransform="matrix(0.9877 0.1564 -0.1564 0.9877 33.7245 -2.0438)">
		<stop  offset="0" style="stop-color:#BCD0ED"/>
		<stop  offset="0.33" style="stop-color:#0071B8"/>
		<stop  offset="1" style="stop-color:#17255F"/>
	</linearGradient>
	<path id="XMLID_73_" class="st9" d="M760.9,49.7c-0.3,0.3-0.3,0.4-0.8,1.2l-29.4,43.5c0,0,10.7,13.2,25.4,27.6
		c17.5,17.1,39.2,38.6,49.8,50.2c17.7,19.5,60.1,59.4,58.5,75.9c0,0,18.2-26.7,24.3-35.7c6.1-9.1-4.2-24.8-13.4-37.6
		c-9.2-12.9-68-73.5-92.3-95.8C758.7,56.9,757.7,54.4,760.9,49.7z"/>
	
		<linearGradient id="XMLID_127_" gradientUnits="userSpaceOnUse" x1="651.7016" y1="75.0427" x2="848.9083" y2="171.2268" gradientTransform="matrix(0.9877 0.1564 -0.1564 0.9877 33.7245 -2.0438)">
		<stop  offset="0" style="stop-color:#F3997B"/>
		<stop  offset="0.3" style="stop-color:#DB0812"/>
		<stop  offset="1" style="stop-color:#971005"/>
	</linearGradient>
	<path id="XMLID_72_" class="st10" d="M680.7,168.8c-5.1,6.5-5.9,16.9-2.2,24c3.7,7.1,45.4,48.5,70.1,71.5
		c24.7,23,45.2,42.1,48.9,47c3.7,4.9,13.7,16.4,9.1,22.8c2.8-3.7,19.5-28.8,31.2-46.1c0.2-2.8-1.1-8.5-14.8-24.5
		c-12.5-14.7-35.2-37.7-59.1-60.4c-49.7-47.4-62.5-65.2-62.5-65.2L680.7,168.8z"/>
	<g id="XMLID_112_">
		<polygon id="XMLID_71_" class="st7" points="756,65 751.8,76.1 759.8,84 749.3,83 745.2,94.1 742.8,82.3 739.1,82 746.6,71 
			746.9,71.3 		"/>
		<polygon id="XMLID_70_" class="st7" points="789.7,99.5 785.6,110.6 793.5,118.5 783,117.4 778.9,128.5 776.6,116.8 766.1,115.8 
			775.1,109.6 772.7,97.9 780.7,105.8 		"/>
		<polygon id="XMLID_69_" class="st7" points="824.5,133 820.4,144 828.3,151.9 817.8,150.9 813.7,162 811.4,150.2 800.9,149.2 
			809.9,143 807.5,131.3 815.5,139.2 		"/>
		<polygon id="XMLID_68_" class="st7" points="857.5,168.3 853.4,179.4 861.4,187.3 850.9,186.2 846.8,197.3 844.4,185.6 
			833.9,184.6 843,178.4 840.6,166.7 848.5,174.6 		"/>
		<polygon id="XMLID_67_" class="st7" points="885.7,210.7 881.5,221.8 882.1,222.4 873.8,234.5 872.5,228 862,227 871.1,220.8 
			868.7,209.1 876.6,217 		"/>
	</g>
</g>
<g id="XMLID_111_" class="st0">
</g>
<g id="XMLID_113_" class="st0">
</g>
<g id="XMLID_114_" class="st0">
</g>
<g id="XMLID_115_" class="st0">
</g>
<g id="XMLID_116_" class="st0">
</g>
<g id="XMLID_117_" class="st0">
</g>
</svg>
