<?xml version="1.0" encoding="utf-8"?>
<!-- Generator: Adobe Illustrator 19.0.0, SVG Export Plug-In . SVG Version: 6.00 Build 0)  -->
<svg version="1.1" id="Capa_1" xmlns="http://www.w3.org/2000/svg" xmlns:xlink="http://www.w3.org/1999/xlink" x="0px" y="0px"
	 viewBox="0 0 1280 390" style="enable-background:new 0 0 1280 390;" xml:space="preserve">
<style type="text/css">
	.st0{clip-path:url(#XMLID_9_);}
	.st1{fill-rule:evenodd;clip-rule:evenodd;fill:url(#XMLID_10_);}
	.st2{fill-rule:evenodd;clip-rule:evenodd;fill:url(#XMLID_11_);}
	.st3{fill-rule:evenodd;clip-rule:evenodd;fill:url(#XMLID_12_);}
	.st4{fill-rule:evenodd;clip-rule:evenodd;fill:url(#XMLID_13_);}
	.st5{fill-rule:evenodd;clip-rule:evenodd;fill:url(#XMLID_14_);}
	.st6{fill-rule:evenodd;clip-rule:evenodd;fill:url(#XMLID_15_);}
	.st7{fill-rule:evenodd;clip-rule:evenodd;fill:url(#XMLID_16_);}
	.st8{fill:url(#XMLID_17_);}
	.st9{fill:url(#XMLID_18_);}
	.st10{fill-rule:evenodd;clip-rule:evenodd;fill:url(#XMLID_19_);}
	.st11{fill-rule:evenodd;clip-rule:evenodd;fill:url(#XMLID_20_);}
	.st12{fill-rule:evenodd;clip-rule:evenodd;fill:url(#XMLID_21_);}
	.st13{fill-rule:evenodd;clip-rule:evenodd;fill:url(#XMLID_22_);}
	.st14{fill-rule:evenodd;clip-rule:evenodd;fill:url(#XMLID_23_);}
</style>
<defs>
	<rect id="XMLID_1_" width="1280" height="390"/>
</defs>
<clipPath id="XMLID_9_">
	<use xlink:href="#XMLID_1_"  style="overflow:visible;"/>
</clipPath>
<g id="XMLID_66_" class="st0">
	
		<radialGradient id="XMLID_10_" cx="704.3339" cy="63.2405" r="845.3682" gradientTransform="matrix(0.9877 0.1563 -0.1563 0.9877 -19.3158 -106.9056)" gradientUnits="userSpaceOnUse">
		<stop  offset="0" style="stop-color:#0083CB"/>
		<stop  offset="1" style="stop-color:#192969"/>
	</radialGradient>
	<path id="XMLID_81_" class="st1" d="M-12.5-16.3L-12.5-16.3l0.5-3.3c239.2-13.3,405.5,73.6,634.2,163c22.8,8.9,44,16.7,62.8,23.4
		l18.6-27.8l29.2-43.3l29.4-43.5c0.5-0.7,0.5-0.8,0.7-1.1l0,0l0-0.1l0,0l0,0l0,0l0,0c1.6-1.8,13.6-2.5,74.8,36.1
		c61.2,38.6,175.5,115.8,277.2,189.3c101.7,73.5,141.3,79.4,169.9,82l150.7-952.4L112.1-803.6L-12.5-16.3z"/>
	
		<linearGradient id="XMLID_11_" gradientUnits="userSpaceOnUse" x1="895.6324" y1="111.1479" x2="1230.7531" y2="281.9004" gradientTransform="matrix(0.9877 0.1563 -0.1563 0.9877 -19.3158 -106.9056)">
		<stop  offset="0" style="stop-color:#D0D0D0"/>
		<stop  offset="1" style="stop-color:#FFFFFF"/>
	</linearGradient>
	<path id="XMLID_96_" class="st2" d="M762.9,49.6c1.2-1.8,13.4-2.8,75.1,36.1s175.5,115.8,277.2,189.3
		c101.7,73.5,141.3,79.4,169.9,82l-0.8,5.1l-0.2,1.4l-0.3,1.9c-15.2,1.7-91.8-0.1-168.8-40.9c-73.5-38.9-164.1-104.6-198.9-127.3
		c-29.7-19.4-40.4-26.6-48.3-32c-3.2-3.6-7.1-7.9-11.5-12.6c-6.8-7.3-13.6-14.4-20.6-21.5l2.6,1.6c-19.4-20.1-41.2-41.9-53.8-53.4
		c-20.2-18.4-24.3-23.3-23.4-27.1l0.8-1.2L762.9,49.6L762.9,49.6z M1283.3,368.5c-113.9,22.2-232-51.7-319.6-106.9
		c-43.5-27.5-63.5-40.4-75-47.8l1-1.7c0.8-1.2,1.3-2.6,1.5-4.1c-0.2,1.3-0.7,2.5-1.4,3.6l-3.6,5.4l0.1,0.1l-26,38.3
		c14.1,8.3,40.6,23.6,86.6,49.5c92.1,51.9,227.2,110.7,335,73l1.2-7.3l0.2-1.1L1283.3,368.5z"/>
	
		<linearGradient id="XMLID_12_" gradientUnits="userSpaceOnUse" x1="967.0602" y1="148.0756" x2="1310.7812" y2="338.6033" gradientTransform="matrix(0.9877 0.1563 -0.1563 0.9877 -19.3158 -106.9056)">
		<stop  offset="0" style="stop-color:#9C1006"/>
		<stop  offset="1" style="stop-color:#E63312"/>
	</linearGradient>
	<path id="XMLID_78_" class="st3" d="M1282.5,373.6c-114.4,31.9-235.7-35.6-327.2-91.6c-44-27-68.9-42.9-80.2-49.6l-14.8,22.9
		c14.1,8.3,40.6,23.6,86.6,49.5c92.1,51.9,227.2,110.7,335,73L1282.5,373.6z"/>
	
		<linearGradient id="XMLID_13_" gradientUnits="userSpaceOnUse" x1="199.8471" y1="39.9018" x2="725.3828" y2="307.6757" gradientTransform="matrix(0.9877 0.1563 -0.1563 0.9877 -19.3158 -106.9056)">
		<stop  offset="0" style="stop-color:#FFFFFF"/>
		<stop  offset="0.3248" style="stop-color:#FDFDFD"/>
		<stop  offset="0.5452" style="stop-color:#F7F7F7"/>
		<stop  offset="0.7346" style="stop-color:#ECECEB"/>
		<stop  offset="0.9055" style="stop-color:#DCDCDC"/>
		<stop  offset="1" style="stop-color:#D0D0D0"/>
	</linearGradient>
	<path id="XMLID_77_" class="st4" d="M-14.9-0.6C9,4.1,106.4,27.1,228.5,81c165.7,73.2,332.6,178,507.3,242.9
		c19.5,7.2,31.3,10.8,36.4,11.8c17.3,3.3,31.3,5.3,36.9-2.3c0.6-0.9,1.4-1.9,2.1-3.1c0.6-6.5-7.1-15.5-10.2-19.6
		c-2-2.7-8.9-9.5-18.7-18.8l2.4,0.4c-12.4-11.7-24.9-23.2-37.3-34.8c-13.1-12.4-26.1-24.9-38.7-37.7l-2.8-1.1
		c-12.5-12.7-22.2-23.2-23.9-26.5c-3.7-7.1-2.9-17.5,2.2-24l1.7-2.5c-19-6.7-40.1-14.5-63.3-23.6c-228.6-89.4-395-176.3-634.2-163
		l-0.8,5.3l0,0l-0.5,3.2c210.7,1.9,436.9,111.6,578.9,177.8c87.6,40.8,120.2,53.9,154.3,67.5c10,10.3,30.9,28.3,51.7,48
		c-34-9.7-79.3-28.8-113.2-43.4c-22.3-9.5-47.2-20.7-74.9-33.5C462.3,144.2,343.1,90,244.3,52.4C145.5,14.7,48.6-4.3-13.8-8
		l-0.1,0.9l-0.2,1.3L-14.9-0.6z"/>
	
		<linearGradient id="XMLID_14_" gradientUnits="userSpaceOnUse" x1="202.9506" y1="73.7145" x2="713.0862" y2="322.5242" gradientTransform="matrix(0.9877 0.1563 -0.1563 0.9877 -19.3158 -106.9056)">
		<stop  offset="0" style="stop-color:#E63312"/>
		<stop  offset="0.2744" style="stop-color:#E43212"/>
		<stop  offset="0.4607" style="stop-color:#DD2F11"/>
		<stop  offset="0.6208" style="stop-color:#D2290F"/>
		<stop  offset="0.7661" style="stop-color:#C3220D"/>
		<stop  offset="0.9001" style="stop-color:#AF190A"/>
		<stop  offset="1" style="stop-color:#9C1006"/>
	</linearGradient>
	<path id="XMLID_76_" class="st5" d="M-14.9-0.6C9,4.1,106.4,27.1,228.5,81c165.7,73.2,332.6,178,507.3,242.9
		c19.5,7.2,31.3,10.8,36.4,11.8c17.3,3.3,31.3,5.3,36.9-2.3c0.6-0.9,1.4-1.9,2.1-3.1c1.1-6.7-5.3-17.5-7.3-19.6
		c-23.9,2.4-97-26.2-125.4-38.4c-22.3-9.5-84-38.4-110.3-51.1c-96.3-46.3-242.6-120.7-340.9-159.7C129,22.5,44.7,1.6-14.3-4.5
		L-14.9-0.6z"/>
	
		<linearGradient id="XMLID_15_" gradientUnits="userSpaceOnUse" x1="192.7842" y1="31.8324" x2="603.367" y2="232.087" gradientTransform="matrix(0.9877 0.1563 -0.1563 0.9877 -19.3158 -106.9056)">
		<stop  offset="0" style="stop-color:#E84127"/>
		<stop  offset="0.2744" style="stop-color:#E63F26"/>
		<stop  offset="0.4607" style="stop-color:#DF3B23"/>
		<stop  offset="0.6208" style="stop-color:#D4331E"/>
		<stop  offset="0.7661" style="stop-color:#C42917"/>
		<stop  offset="0.9001" style="stop-color:#AF1C0E"/>
		<stop  offset="1" style="stop-color:#9C1006"/>
	</linearGradient>
	<path id="XMLID_75_" class="st6" d="M-12.3-17.5c209.2-8.1,428.7,99.9,569.1,158.3c17.8,7.4,114.9,48.5,126.8,53.2
		c-1.7-6.9-3-21.5,0.4-25.8l1.7-2.5c-19-6.7-40.1-14.5-63.3-23.6c-228.6-89.4-395-176.3-634.2-163L-12.3-17.5z"/>
	
		<linearGradient id="XMLID_16_" gradientUnits="userSpaceOnUse" x1="849.4602" y1="24.5254" x2="1304.5006" y2="276.7584" gradientTransform="matrix(0.9877 0.1563 -0.1563 0.9877 -19.3158 -106.9056)">
		<stop  offset="0" style="stop-color:#931004"/>
		<stop  offset="1" style="stop-color:#E84127"/>
	</linearGradient>
	<path id="XMLID_74_" class="st7" d="M762.9,49.6c1.2-1.8,13.4-2.8,75.1,36.1s175.5,115.8,277.2,189.3
		c101.7,73.5,141.3,79.4,169.9,82l-0.6,3.7c-23.2,0.3-84.3-5.4-158.8-52.8c-60.6-38.6-176.8-118.6-211.6-141.3
		c-42.2-27.6-110.4-70.8-129-80.9c-16.8-15.3-24.9-29.7-24-33.4l0.8-1.2L762.9,49.6z"/>
	
		<linearGradient id="XMLID_17_" gradientUnits="userSpaceOnUse" x1="194.3133" y1="56.9271" x2="663.9807" y2="285.9992" gradientTransform="matrix(0.9877 0.1563 -0.1563 0.9877 -19.3158 -106.9056)">
		<stop  offset="0" style="stop-color:#E63312"/>
		<stop  offset="0.2744" style="stop-color:#E43212"/>
		<stop  offset="0.4607" style="stop-color:#DD2F11"/>
		<stop  offset="0.6208" style="stop-color:#D2290F"/>
		<stop  offset="0.7661" style="stop-color:#C3220D"/>
		<stop  offset="0.9001" style="stop-color:#AF190A"/>
		<stop  offset="1" style="stop-color:#9C1006"/>
	</linearGradient>
	<path id="XMLID_73_" class="st8" d="M-13.7-8.3l0.7-4.4c210.7,1.9,436.9,111.9,578.8,178.1c87.6,40.8,120.2,53.9,154.3,67.5
		c10,10.3,30.9,28.3,51.7,48c-34-9.7-79.3-28.8-113.2-43.4c-22.3-9.5-47.2-20.7-74.9-33.5C462.3,144.2,343.1,90,244.3,52.4
		C145.5,14.7,48.6-4.5-13.7-8.3z"/>
	
		<linearGradient id="XMLID_18_" gradientUnits="userSpaceOnUse" x1="962.4874" y1="112.6267" x2="1311.4519" y2="306.0609" gradientTransform="matrix(0.9877 0.1563 -0.1563 0.9877 -19.3158 -106.9056)">
		<stop  offset="0" style="stop-color:#9C1006"/>
		<stop  offset="1" style="stop-color:#E63312"/>
	</linearGradient>
	<path id="XMLID_72_" class="st9" d="M889.7,212.1c2.8-4.1,1.7-9.8-1.1-16.1c-2.9-6.6-7.8-13.6-12.3-20c-1.4-1.9-7-9.6-10.9-14.2
		c8,5.5,18.3,12.5,50.9,33.8c32.6,21.3,125.8,87.6,198.9,127.3c76.3,41.5,153.4,44.2,168.6,42.4l-0.6,3.6
		c-118.5,22.1-231.9-52.1-319.5-107.4c-43.5-27.5-63.5-40.4-75-47.8L889.7,212.1z"/>
	
		<linearGradient id="XMLID_19_" gradientUnits="userSpaceOnUse" x1="748.0976" y1="64.0185" x2="955.621" y2="179.0506" gradientTransform="matrix(0.9877 0.1563 -0.1563 0.9877 -19.3158 -106.9056)">
		<stop  offset="0" style="stop-color:#FFFFFF"/>
		<stop  offset="0.1665" style="stop-color:#F9F9F9"/>
		<stop  offset="0.4381" style="stop-color:#E7E7E7"/>
		<stop  offset="0.7789" style="stop-color:#C9C9C9"/>
		<stop  offset="1" style="stop-color:#B2B2B2"/>
	</linearGradient>
	<path id="XMLID_71_" class="st10" d="M762.9,49.5c-0.3,0.3-0.3,0.4-0.8,1.2L727,103c0,0,10.7,13.2,25.4,27.6
		c17.6,17.1,39.2,38.6,49.8,50.2c17.7,19.5,60.1,59.4,58.6,75.9c0,0,24-35.4,30.2-44.5c6.1-9.1-4.4-24.7-13.6-37.6
		c-9.2-12.9-67.8-73.6-92.2-95.8C760.8,56.7,759.8,54.2,762.9,49.5z"/>
	
		<linearGradient id="XMLID_20_" gradientUnits="userSpaceOnUse" x1="760.6019" y1="61.8396" x2="955.6913" y2="156.9911" gradientTransform="matrix(0.9877 0.1563 -0.1563 0.9877 -19.3158 -106.9056)">
		<stop  offset="0" style="stop-color:#F6AF95"/>
		<stop  offset="0.38" style="stop-color:#E73E24"/>
		<stop  offset="1" style="stop-color:#B20F0B"/>
	</linearGradient>
	<path id="XMLID_70_" class="st11" d="M762.9,49.5c-0.3,0.3-0.3,0.4-0.8,1.2l-18.6,27.6c0.4,1.4,2.6,5.1,7.9,11
		c4.4,4.9,10.2,11.2,16.9,17.7c17.6,17.1,39.2,38.6,49.8,50.2c17.7,19.5,60.1,59.4,58.6,75.9c0,0,8-11.8,14.2-20.9
		c6.1-9.1-4.2-24.8-13.4-37.6c-9.2-12.9-68-73.5-92.4-95.7C760.8,56.7,759.8,54.2,762.9,49.5z"/>
	
		<linearGradient id="XMLID_21_" gradientUnits="userSpaceOnUse" x1="725.5363" y1="159.5066" x2="921.3651" y2="268.0563" gradientTransform="matrix(0.9877 0.1563 -0.1563 0.9877 -19.3158 -106.9056)">
		<stop  offset="0" style="stop-color:#FFFFFF"/>
		<stop  offset="0.1665" style="stop-color:#F9F9F9"/>
		<stop  offset="0.4381" style="stop-color:#E7E7E7"/>
		<stop  offset="0.7789" style="stop-color:#C9C9C9"/>
		<stop  offset="1" style="stop-color:#B2B2B2"/>
	</linearGradient>
	<path id="XMLID_69_" class="st12" d="M682.8,168.6c-5.1,6.5-5.9,16.9-2.2,24c3.7,7.1,45.4,48.5,70.1,71.5
		c24.7,23,45.2,42.1,48.9,47c3.7,4.9,13.7,16.4,9.1,22.8c2.8-3.7,23.1-34.1,34.8-51.5c0.2-2.8,1.9-11.1-11.7-27
		c-12.5-14.6-35.2-37.7-59.1-60.4c-49.8-47.4-63.7-65.5-63.7-65.5L682.8,168.6z"/>
	
		<linearGradient id="XMLID_22_" gradientUnits="userSpaceOnUse" x1="729.6565" y1="184.5869" x2="903.5453" y2="269.3981" gradientTransform="matrix(0.9877 0.1563 -0.1563 0.9877 -19.3158 -106.9056)">
		<stop  offset="0" style="stop-color:#F3997B"/>
		<stop  offset="0.31" style="stop-color:#E73E24"/>
		<stop  offset="1" style="stop-color:#B70E0C"/>
	</linearGradient>
	<path id="XMLID_68_" class="st13" d="M682.8,168.6c-0.4,0.5-0.8,1-1.1,1.5c-3.7,5.3-6.4,10.3-5.6,14.1c0.5,2.4,2.5,5.4,4.5,8.4
		l0.1,0.1c2.3,4.2,16.9,19.5,33.6,36.2l0.3,0.3c12.2,12.2,25.5,25,36.2,35c24.7,23,45.2,42.1,48.9,47c3.2,4.2,11,13.3,10.2,19.9
		c0,0.1,0,0.2,0,0.3l0,0c-0.2,0.9-0.5,1.8-1.1,2.6l0.1-0.1l-0.1,0.1c1.9-2.6,4-5.7,9.1-13.3l0,0l0.1-0.2l0.2-0.3l0.4-0.5l0.1-0.2
		l0.4-0.6l0.6-0.8l0.1-0.2l2.2-3.2l0.4-0.6l0.6-0.9l3.2-4.7l0,0l2.5-3.7c0.2-2.8-1.1-8.5-14.8-24.5c-12.5-14.7-35.2-37.7-59.1-60.4
		c-49.8-47.4-62.5-65.2-62.5-65.2l-2.5,3.7l0,0l-5.8,8.6L682.8,168.6z"/>
	
		<linearGradient id="XMLID_23_" gradientUnits="userSpaceOnUse" x1="741.0028" y1="121.5855" x2="933.4473" y2="215.447" gradientTransform="matrix(0.9877 0.1563 -0.1563 0.9877 -19.3158 -106.9056)">
		<stop  offset="0" style="stop-color:#F9C5AF"/>
		<stop  offset="0.34" style="stop-color:#E73E24"/>
		<stop  offset="1" style="stop-color:#B20F0B"/>
	</linearGradient>
	<path id="XMLID_67_" class="st14" d="M708.3,130.6c21.6,30,133.6,127.1,134.1,153.5c5.5-8.1,13.6-20.1,19-28.2
		c0-27.9-126.5-139.6-133.6-154L708.3,130.6z"/>
</g>
<g id="XMLID_2_" class="st0">
</g>
<g id="XMLID_3_" class="st0">
</g>
<g id="XMLID_4_" class="st0">
</g>
<g id="XMLID_5_" class="st0">
</g>
<g id="XMLID_6_" class="st0">
</g>
<g id="XMLID_7_" class="st0">
</g>
</svg>
