<?xml version="1.0" encoding="utf-8"?>
<!-- Generator: Adobe Illustrator 19.0.0, SVG Export Plug-In . SVG Version: 6.00 Build 0)  -->
<svg version="1.1" id="Capa_1" xmlns="http://www.w3.org/2000/svg" xmlns:xlink="http://www.w3.org/1999/xlink" x="0px" y="0px"
	 viewBox="0 0 302 152" style="enable-background:new 0 0 302 152;" xml:space="preserve">
<style type="text/css">
	.st0{clip-path:url(#XMLID_118_);}
	.st1{fill-rule:evenodd;clip-rule:evenodd;fill:url(#XMLID_119_);}
	.st2{fill:#FFFFFF;}
	.st3{fill-rule:evenodd;clip-rule:evenodd;fill:url(#XMLID_120_);}
	.st4{fill-rule:evenodd;clip-rule:evenodd;fill:url(#XMLID_121_);}
	.st5{fill-rule:evenodd;clip-rule:evenodd;fill:url(#XMLID_122_);}
	.st6{fill-rule:evenodd;clip-rule:evenodd;fill:url(#XMLID_123_);}
	.st7{fill-rule:evenodd;clip-rule:evenodd;fill:#FFFFFF;}
	.st8{fill-rule:evenodd;clip-rule:evenodd;fill:url(#XMLID_124_);}
	.st9{fill-rule:evenodd;clip-rule:evenodd;fill:url(#XMLID_125_);}
	.st10{fill-rule:evenodd;clip-rule:evenodd;fill:url(#XMLID_126_);}
</style>
<defs>
	<rect id="XMLID_110_" width="302" height="152"/>
</defs>
<clipPath id="XMLID_118_">
	<use xlink:href="#XMLID_110_"  style="overflow:visible;"/>
</clipPath>
<g id="XMLID_66_" class="st0">
	<radialGradient id="XMLID_119_" cx="154.0199" cy="95.5654" r="213.7578" gradientUnits="userSpaceOnUse">
		<stop  offset="0" style="stop-color:#0075BF"/>
		<stop  offset="1" style="stop-color:#162259"/>
	</radialGradient>
	<path id="XMLID_109_" class="st1" d="M0,101.2L0,101.2v-0.8c52.8-11.4,92.9,2.1,146.9,13.9c5.4,1.2,10.4,2.2,14.8,3l3.2-6.8l5-10.7
		l5-10.7c0.1-0.2,0.1-0.2,0.1-0.3l0,0l0,0l0,0l0,0l0,0l0,0c0.3-0.5,2.9-1,17.9,5.4c15,6.4,43.1,19.6,68.4,32.4
		c25.2,12.8,34.3,12.7,40.7,12.3V-78.4H0V101.2z"/>
	<path id="XMLID_108_" class="st2" d="M215,124.4c-2.2-1-4.5-1.9-6.8-2.9l0.6-1.3c0.5-1,0-2.2-0.8-3.5c-0.9-1.4-2.2-2.8-3.4-4
		c-0.8-0.8-2.7-2.4-5.3-4.4c-1.8-1.4-3.5-2.7-5.3-4.1l2.4,1.1c3.6,1.6,8,3.5,12.2,5.3c1.6,0.7,3.2,1.4,4.8,2.1
		c6.4,2.6,12.7,5.7,19,8.6c12.9,6,28,13,36.5,16.1c8.7,3.1,18.4,4,27.5,3.3c1.3-0.1,2.4-0.2,3.3-0.4c0.7-0.1,1.4-0.2,2.2-0.4v1.9
		c-5.9,2.4-11.9,3.7-18.1,3.9c-6.7,0.3-13.5-0.6-20.2-2.1c-12.9-3-25.5-8.5-36.6-13.7C222,127.4,218,125.7,215,124.4z"/>
	<path id="XMLID_107_" class="st2" d="M0,103.7v-2.3c39.7-5.9,77.2,3.8,121.6,15.3c4.2,1.1,8.4,2.2,13.1,3.4
		c7.6,1.9,14.1,3.6,19.6,4.9c5.6,1.4,10.4,2.5,14.4,3.4c3.3,2.4,6.6,4.7,9.9,7c3.2,2.2,6.4,4.3,9.5,6.4c-0.7,0-1.5,0-2.2-0.1
		c-0.9,0-2.5-0.2-5.1-0.7c-3.9-0.7-7.8-1.5-11.6-2.4c-5.5-1.3-11.1-2.7-16.5-4.2c-5.7-1.5-11.4-3.2-17.1-4.8
		c-25.4-7.2-58.4-16.6-79.5-21c-14.2-2.9-28.8-5.3-43.3-5.5c-2.3,0-4.6,0-6.7,0.1C4.1,103.3,2.1,103.5,0,103.7z"/>
	<linearGradient id="XMLID_120_" gradientUnits="userSpaceOnUse" x1="38.8844" y1="96.4666" x2="158.4618" y2="154.7884">
		<stop  offset="0" style="stop-color:#E42313"/>
		<stop  offset="0.2995" style="stop-color:#E32313"/>
		<stop  offset="0.4686" style="stop-color:#DD2112"/>
		<stop  offset="0.6051" style="stop-color:#D31F10"/>
		<stop  offset="0.7243" style="stop-color:#C61C0E"/>
		<stop  offset="0.8322" style="stop-color:#B3180A"/>
		<stop  offset="0.9304" style="stop-color:#9D1306"/>
		<stop  offset="1" style="stop-color:#8A1002"/>
	</linearGradient>
	<path id="XMLID_106_" class="st3" d="M0,104.8c5.5,0.2,28,1.9,57.1,9.6c39.5,10.5,80.3,27.9,121.5,36.2c4.6,0.9,7.3,1.3,8.5,1.3
		c4,0.1,7.1,0.1,8.1-1.8c0.1-0.2,0.2-0.5,0.4-0.8c-0.1-1.5-2.1-3.2-3-4c-0.6-0.6-2.5-1.9-5.3-3.8c-0.4,0-0.8,0-1.2,0
		c-1.2,0-3.9-0.4-8.5-1.3c-5.4-1.1-10.8-2.3-16.2-3.7c-5.3-1.3-11.2-2.9-17.9-4.8c-26-7.4-63.8-18.3-87.2-23.2
		C33,103.5,14,102,0,103.4V104.8z"/>
	<linearGradient id="XMLID_121_" gradientUnits="userSpaceOnUse" x1="216.9523" y1="116.2703" x2="287.3829" y2="155.3106">
		<stop  offset="0" style="stop-color:#841001"/>
		<stop  offset="1" style="stop-color:#E42313"/>
	</linearGradient>
	<path id="XMLID_105_" class="st4" d="M302,141.5c-24.4,10.3-52.5-1.6-74.8-11.9c-10.6-4.9-16.1-7.2-18.8-8.3l-4.6,9.7
		c3.4,1.3,9.9,3.8,21,8c22.3,8.3,54.5,16.6,77.1,4.4V141.5z"/>
	<linearGradient id="XMLID_122_" gradientUnits="userSpaceOnUse" x1="33.2466" y1="86.1808" x2="136.462" y2="136.5223">
		<stop  offset="0" style="stop-color:#0075BF"/>
		<stop  offset="0.2995" style="stop-color:#0073BD"/>
		<stop  offset="0.4686" style="stop-color:#006DB5"/>
		<stop  offset="0.6051" style="stop-color:#0063A9"/>
		<stop  offset="0.7243" style="stop-color:#005698"/>
		<stop  offset="0.8322" style="stop-color:#004584"/>
		<stop  offset="0.9304" style="stop-color:#05326D"/>
		<stop  offset="1" style="stop-color:#162259"/>
	</linearGradient>
	<path id="XMLID_104_" class="st5" d="M0,101.7c43.5-6.4,84.4,5.8,134.7,18.7c15.1,3.8,26,6.5,34.1,8.3c-3.5-2.6-6.3-4.8-6.9-5.5
		c-1.1-1.4-1.3-3.8-0.4-5.4l0.3-0.6c-4.5-0.8-9.4-1.8-14.9-3C92.9,102.3,52.8,88.8,0,100.2V101.7z"/>
	<linearGradient id="XMLID_123_" gradientUnits="userSpaceOnUse" x1="191.0014" y1="89.8684" x2="284.4509" y2="141.6683">
		<stop  offset="0" style="stop-color:#162259"/>
		<stop  offset="1" style="stop-color:#0075BF"/>
	</linearGradient>
	<path id="XMLID_103_" class="st6" d="M174.9,88.6c0.2-0.5,2.9-1.1,18,5.4c15.1,6.5,43.1,19.6,68.4,32.4
		c25.2,12.8,34.3,12.7,40.7,12.3v1.5c-3.3,0.9-19.5,2.5-33.1-2.5c-13.7-5-44.3-20-55.5-24.8c-5.9-2.5-12.6-5.4-17.7-7.6
		c-5.3-4-11.4-8.5-14.9-10.8c-5.1-3.4-6.2-4.3-6.2-5.2l0.1-0.3L174.9,88.6z"/>
	<polygon id="XMLID_102_" class="st7" points="96.6,103.6 96.8,105.9 99,106.4 96.9,107.3 97.1,109.6 95.6,107.9 93.5,108.8 
		94.7,106.8 93.2,105.1 95.4,105.6 	"/>
	<polygon id="XMLID_101_" class="st7" points="107.4,106.2 107.6,108.5 109.9,109 107.7,109.9 107.9,112.2 106.4,110.5 104.2,111.4 
		105.5,109.4 103.9,107.6 106.2,108.2 	"/>
	<polygon id="XMLID_100_" class="st7" points="118.3,108.5 118.5,111 120.9,111.5 118.6,112.5 118.8,114.9 117.2,113 114.9,114 
		116.2,111.9 114.6,110 117,110.6 	"/>
	<polygon id="XMLID_99_" class="st7" points="129.1,110.9 129.3,113.5 131.9,114.1 129.5,115.1 129.7,117.6 128,115.7 125.6,116.7 
		127,114.5 125.3,112.5 127.8,113.1 	"/>
	<polygon id="XMLID_98_" class="st7" points="140,113.5 140.2,116 142.7,116.6 140.3,117.6 140.5,120.2 138.8,118.2 136.5,119.2 
		137.8,117 136.1,115.1 138.6,115.7 	"/>
	<polygon id="XMLID_97_" class="st7" points="150.8,116 151,118.6 153.5,119.2 151.1,120.2 151.3,122.7 149.6,120.8 147.3,121.8 
		148.6,119.6 146.9,117.6 149.4,118.2 	"/>
	<polygon id="XMLID_96_" class="st7" points="161.6,118.6 161.8,121.1 164.3,121.7 161.9,122.7 162.1,125.3 160.5,123.3 
		158.1,124.3 159.4,122.1 157.7,120.2 160.2,120.8 	"/>
	<polygon id="XMLID_95_" class="st7" points="30.9,96.5 31.3,97.7 32.5,97.7 31.5,98.4 31.9,99.6 30.9,98.9 29.9,99.6 30.3,98.4 
		29.3,97.7 30.5,97.7 	"/>
	<polygon id="XMLID_94_" class="st7" points="8,98.8 8.3,99.4 9,99.3 8.5,99.7 8.8,100.3 8.2,100 7.8,100.5 7.9,99.8 7.3,99.6 
		7.9,99.4 	"/>
	<polygon id="XMLID_93_" class="st7" points="41.9,96.3 42.3,97.8 43.9,97.8 42.6,98.7 43,100.2 41.8,99.2 40.5,100.1 41.1,98.6 
		39.9,97.7 41.4,97.7 	"/>
	<polygon id="XMLID_92_" class="st7" points="19.1,97.3 19.5,98.2 20.4,98.1 19.7,98.7 20.1,99.6 19.3,99.1 18.6,99.7 18.8,98.8 
		18,98.3 18.9,98.2 	"/>
	<polygon id="XMLID_91_" class="st7" points="53.1,96.7 53.6,98.4 55.3,98.6 53.8,99.5 54.3,101.2 52.9,100.1 51.4,101 52.1,99.4 
		50.7,98.2 52.5,98.4 	"/>
	<polygon id="XMLID_90_" class="st7" points="63.9,97.8 64.2,99.7 66.1,100 64.4,100.9 64.8,102.7 63.4,101.4 61.7,102.3 
		62.6,100.6 61.2,99.2 63.1,99.5 	"/>
	<polygon id="XMLID_89_" class="st7" points="74.6,99.4 74.9,101.4 77,101.8 75.1,102.7 75.4,104.8 73.9,103.3 72,104.2 73,102.3 
		71.6,100.8 73.6,101.2 	"/>
	<polygon id="XMLID_88_" class="st7" points="85.8,101.4 86,103.7 88.2,104.2 86.1,105.1 86.3,107.3 84.8,105.6 82.7,106.5 
		83.9,104.5 82.4,102.8 84.7,103.3 	"/>
	<polygon id="XMLID_87_" class="st7" points="189.9,94.2 189.7,96.7 192.1,97.7 189.5,98.3 189.3,100.9 188,98.7 185.5,99.3 
		187.2,97.3 185.9,95.1 188.2,96.1 	"/>
	<polygon id="XMLID_86_" class="st7" points="180,90.3 179.8,92.9 182.1,93.9 179.6,94.5 179.5,97.1 178.1,94.9 175.6,95.5 
		177.3,93.5 175.9,91.3 178.3,92.3 	"/>
	<polygon id="XMLID_85_" class="st7" points="200.2,98.6 199.9,101.2 202.3,102.2 199.7,102.8 199.5,105.3 198.2,103.1 195.7,103.6 
		197.4,101.7 196.1,99.5 198.5,100.5 	"/>
	<polygon id="XMLID_84_" class="st7" points="250.5,122.1 250.3,124.5 252.4,125.5 250.1,126 249.8,128.4 248.6,126.3 246.3,126.8 
		247.9,125 246.7,122.9 248.9,123.9 	"/>
	<polygon id="XMLID_83_" class="st7" points="210.4,103 210.1,105.5 212.4,106.6 209.9,107.1 209.6,109.7 208.3,107.4 205.8,108 
		207.6,106.1 206.3,103.8 208.6,104.9 	"/>
	<polygon id="XMLID_82_" class="st7" points="260.5,126.8 260.3,129.1 262.4,130 260.1,130.5 259.9,132.8 258.7,130.8 256.5,131.2 
		258,129.5 256.9,127.5 259,128.5 	"/>
	<polygon id="XMLID_81_" class="st7" points="220.6,107.4 220.3,110 222.6,111 220.1,111.5 219.8,114.1 218.5,111.9 216,112.4 
		217.8,110.5 216.5,108.2 218.8,109.3 	"/>
	<polygon id="XMLID_80_" class="st7" points="270.6,131.8 270.4,133.7 272.2,134.5 270.3,134.9 270,136.8 269.1,135.1 267.2,135.5 
		268.5,134.1 267.5,132.4 269.3,133.2 	"/>
	<polygon id="XMLID_79_" class="st7" points="230.7,112 230.4,114.6 232.7,115.6 230.2,116.1 229.9,118.7 228.6,116.5 226.1,117 
		227.9,115.1 226.6,112.8 228.9,113.9 	"/>
	<polygon id="XMLID_78_" class="st7" points="280.6,135.6 280.7,137.2 282.2,137.7 280.7,138.2 280.7,139.8 279.8,138.5 
		278.2,139.1 279.2,137.8 278.2,136.5 279.7,137 	"/>
	<polygon id="XMLID_77_" class="st7" points="240.6,117 240.3,119.6 242.7,120.6 240.1,121.2 239.9,123.7 238.6,121.5 236.1,122 
		237.8,120.1 236.5,117.9 238.9,118.9 	"/>
	<polygon id="XMLID_76_" class="st7" points="290.8,138.2 291,139.2 291.9,139.3 291.1,139.7 291.2,140.7 290.5,140 289.7,140.4 
		290.1,139.6 289.5,138.9 290.4,139.1 	"/>
	<polygon id="XMLID_75_" class="st7" points="297.7,139 297.9,139.5 298.5,139.5 298,139.9 298.2,140.5 297.7,140.1 297.2,140.5 
		297.4,139.9 296.9,139.6 297.5,139.5 	"/>
	<linearGradient id="XMLID_124_" gradientUnits="userSpaceOnUse" x1="163.1681" y1="107.0762" x2="207.0268" y2="131.3875">
		<stop  offset="0" style="stop-color:#FFFFFF"/>
		<stop  offset="0.1665" style="stop-color:#F9F9F9"/>
		<stop  offset="0.4381" style="stop-color:#E7E7E7"/>
		<stop  offset="0.7789" style="stop-color:#C9C9C9"/>
		<stop  offset="1" style="stop-color:#B2B2B2"/>
	</linearGradient>
	<path id="XMLID_74_" class="st8" d="M169.9,99.4l-5.2,11.1c0,0,3.5,3.5,16.2,12.3c6.1,4.2,12,8.5,15.3,11.4
		c3.6,3.1,4.1,4.3,4.1,4.9c0.1-0.3,2.5-5.4,3.3-7l1.5-3.2c-0.2-3.7-11.1-11.1-15.7-14.8c-2.8-2.2-8.3-6.2-12.9-9.4
		C172.7,101.9,169.9,99.4,169.9,99.4z"/>
	<linearGradient id="XMLID_125_" gradientUnits="userSpaceOnUse" x1="164.5151" y1="96.4409" x2="211.0796" y2="119.1519">
		<stop  offset="0" style="stop-color:#BCD0ED"/>
		<stop  offset="0.33" style="stop-color:#0071B8"/>
		<stop  offset="1" style="stop-color:#17255F"/>
	</linearGradient>
	<path id="XMLID_73_" class="st9" d="M174.9,88.6c0,0.1-0.1,0.1-0.1,0.3l-5,10.7c0,0,2.8,2.6,6.6,5.3c4.5,3.2,10.1,7.2,12.9,9.4
		c4.6,3.7,15.5,11.1,15.7,14.8c0,0,3.1-6.6,4.2-8.8c1-2.2-1.8-5.4-4.3-7.9c-2.5-2.5-17.7-14-23.9-18.1
		C174.7,90.3,174.4,89.7,174.9,88.6z"/>
	<linearGradient id="XMLID_126_" gradientUnits="userSpaceOnUse" x1="158.1122" y1="119.6039" x2="202.5572" y2="141.2812">
		<stop  offset="0" style="stop-color:#F3997B"/>
		<stop  offset="0.3" style="stop-color:#DB0812"/>
		<stop  offset="1" style="stop-color:#971005"/>
	</linearGradient>
	<path id="XMLID_72_" class="st10" d="M161.3,117.9c-0.9,1.6-0.7,4,0.4,5.4c1.1,1.4,11.8,9.2,18.1,13.4c6.3,4.2,11.5,7.8,12.5,8.7
		c1,1,3.6,3.2,2.8,4.8c0.5-0.9,3.3-7.1,5.3-11.4c0-0.6-0.6-1.9-4.1-4.9c-3.3-2.8-9.2-7.2-15.3-11.4c-12.7-8.8-16.2-12.3-16.2-12.3
		L161.3,117.9z"/>
	<g>
		<polygon id="XMLID_71_" class="st7" points="174.4,92.2 173.8,94.8 175.9,96.2 173.5,96.4 173,99 172.1,96.5 171.2,96.5 
			172.5,93.8 172.6,93.9 		"/>
		<polygon id="XMLID_70_" class="st7" points="183.1,98.6 182.6,101.3 184.6,102.7 182.2,102.9 181.7,105.5 180.8,103 178.4,103.1 
			180.2,101.4 179.3,98.9 181.3,100.4 		"/>
		<polygon id="XMLID_69_" class="st7" points="192,104.9 191.5,107.5 193.5,108.9 191.2,109.1 190.6,111.7 189.7,109.2 187.3,109.3 
			189.1,107.6 188.2,105.1 190.2,106.6 		"/>
		<polygon id="XMLID_68_" class="st7" points="200.6,111.6 200.1,114.2 202.1,115.7 199.8,115.8 199.2,118.4 198.3,115.9 195.9,116 
			197.7,114.3 196.8,111.8 198.8,113.3 		"/>
		<polygon id="XMLID_67_" class="st7" points="208.4,120 207.8,122.6 208,122.7 206.6,125.7 206.1,124.3 203.7,124.5 205.5,122.8 
			204.5,120.3 206.6,121.7 		"/>
	</g>
</g>
<g id="XMLID_111_" class="st0">
</g>
<g id="XMLID_112_" class="st0">
</g>
<g id="XMLID_113_" class="st0">
</g>
<g id="XMLID_114_" class="st0">
</g>
<g id="XMLID_115_" class="st0">
</g>
<g id="XMLID_116_" class="st0">
</g>
</svg>
