<?xml version="1.0" encoding="utf-8"?>
<!-- Generator: Adobe Illustrator 19.0.0, SVG Export Plug-In . SVG Version: 6.00 Build 0)  -->
<svg version="1.1" id="Capa_1" xmlns="http://www.w3.org/2000/svg" xmlns:xlink="http://www.w3.org/1999/xlink" x="0px" y="0px"
	 viewBox="0 0 1280 390" style="enable-background:new 0 0 1280 390;" xml:space="preserve">
<style type="text/css">
	.st0{clip-path:url(#XMLID_85_);}
	.st1{fill-rule:evenodd;clip-rule:evenodd;fill:url(#XMLID_86_);}
	.st2{fill:url(#XMLID_87_);}
	.st3{fill-rule:evenodd;clip-rule:evenodd;fill:url(#XMLID_88_);}
	.st4{fill-rule:evenodd;clip-rule:evenodd;fill:url(#XMLID_89_);}
	.st5{fill-rule:evenodd;clip-rule:evenodd;fill:url(#XMLID_90_);}
	.st6{fill-rule:evenodd;clip-rule:evenodd;fill:url(#XMLID_91_);}
	.st7{fill-rule:evenodd;clip-rule:evenodd;fill:url(#XMLID_92_);}
	.st8{fill-rule:evenodd;clip-rule:evenodd;fill:url(#XMLID_93_);}
	.st9{fill-rule:evenodd;clip-rule:evenodd;fill:url(#XMLID_94_);}
	.st10{fill-rule:evenodd;clip-rule:evenodd;fill:url(#XMLID_95_);}
</style>
<defs>
	<rect id="XMLID_77_" width="1280" height="390"/>
</defs>
<clipPath id="XMLID_85_">
	<use xlink:href="#XMLID_77_"  style="overflow:visible;"/>
</clipPath>
<g id="XMLID_66_" class="st0">
	
		<radialGradient id="XMLID_86_" cx="678.6196" cy="25.1379" r="948.4616" gradientTransform="matrix(0.9877 0.1564 -0.1564 0.9877 -1.9202 -65.1346)" gradientUnits="userSpaceOnUse">
		<stop  offset="0" style="stop-color:#FFEA00"/>
		<stop  offset="1" style="stop-color:#F7A600"/>
	</radialGradient>
	<path id="XMLID_76_" class="st1" d="M-14.5-16.2L-14.5-16.2l0.5-3.3c239.2-13.2,405.5,73.7,634.1,163.1c22.8,8.9,44,16.7,62.8,23.4
		l18.7-27.8l29.2-43.3l0,0l29.4-43.5c0.5-0.7,0.5-0.8,0.7-1.1l0,0l0-0.1l0,0l0,0l0,0l0,0c1.6-1.8,13.6-2.5,74.8,36.1
		c61.2,38.6,175.5,115.9,277.2,189.4c101.7,73.5,141.3,79.5,169.9,82l150.8-952.4L110.2-803.4L-14.5-16.2z"/>
	
		<linearGradient id="XMLID_87_" gradientUnits="userSpaceOnUse" x1="839.2106" y1="7.1027" x2="1257.3359" y2="238.8734" gradientTransform="matrix(0.9877 0.1564 -0.1564 0.9877 -1.9202 -65.1346)">
		<stop  offset="0" style="stop-color:#FBBA00"/>
		<stop  offset="7.220471e-02" style="stop-color:#FDC200"/>
		<stop  offset="0.3089" style="stop-color:#FFD61A"/>
		<stop  offset="0.5444" style="stop-color:#FFE532"/>
		<stop  offset="0.7763" style="stop-color:#FFED3E"/>
		<stop  offset="1" style="stop-color:#FFF042"/>
	</linearGradient>
	<path id="XMLID_75_" class="st2" d="M875,175.4c-2.8-3.9-10.4-12.4-20.1-22.9c-6.8-7.3-13.6-14.4-20.6-21.5
		c-16.7-17.7-33.9-35.1-51.8-51.4C766,64.6,758.1,56.3,759,52.5l1.8-2.6c1.2-1.8,13.4-2.8,75.1,36.1s175.5,115.9,277.2,189.3
		c101.7,73.5,141.3,79.5,169.9,82l-1.8,11.6c-127,16.2-226-63.3-316.4-124c-37.9-25.4-71.1-46.7-78.3-51.3
		C883.5,187.4,879.1,181.1,875,175.4z"/>
	
		<linearGradient id="XMLID_88_" gradientUnits="userSpaceOnUse" x1="966.1452" y1="101.4559" x2="1265.566" y2="267.4276" gradientTransform="matrix(0.9877 0.1564 -0.1564 0.9877 -1.9202 -65.1346)">
		<stop  offset="0" style="stop-color:#162259"/>
		<stop  offset="1" style="stop-color:#0075BF"/>
	</linearGradient>
	<path id="XMLID_74_" class="st3" d="M1281.4,367.6c-127,16.2-226-63.3-316.4-124c-37.9-25.4-72.3-47.4-79.6-52.1
		c4,7.8,5.9,15.2,2.4,20.4c-2.3,3.3-9.3,13.2-11,15.9c3,1.8,37.8,22.8,82.6,51.8c91.4,59.3,213.3,117.8,321,94.3L1281.4,367.6z"/>
	
		<linearGradient id="XMLID_89_" gradientUnits="userSpaceOnUse" x1="116.759" y1="-26.6938" x2="612.3407" y2="215.0175" gradientTransform="matrix(0.9877 0.1564 -0.1564 0.9877 -1.9202 -65.1346)">
		<stop  offset="0" style="stop-color:#FFF042"/>
		<stop  offset="0.7" style="stop-color:#FFDF00"/>
		<stop  offset="1" style="stop-color:#FDC300"/>
	</linearGradient>
	<path id="XMLID_73_" class="st4" d="M-15.6-9.2c195.3,2,439.8,130.9,576.1,190.6c136.3,59.7,153.9,67.6,185.6,78.2
		c-13.5-13.7-63.5-62-66.3-67.3c-4.6-8.6-2.9-17,3.8-26.4c-19-6.7-40.1-14.5-63.3-23.6C391.8,52.8,225.4-34.1-13.8-20.8L-15.6-9.2z"
		/>
	
		<linearGradient id="XMLID_90_" gradientUnits="userSpaceOnUse" x1="166.4571" y1="22.4501" x2="697.0596" y2="281.2422" gradientTransform="matrix(0.9877 0.1564 -0.1564 0.9877 -1.9202 -65.1346)">
		<stop  offset="0" style="stop-color:#0075BF"/>
		<stop  offset="0.2995" style="stop-color:#0073BD"/>
		<stop  offset="0.4686" style="stop-color:#006DB5"/>
		<stop  offset="0.6051" style="stop-color:#0063A9"/>
		<stop  offset="0.7243" style="stop-color:#005698"/>
		<stop  offset="0.8322" style="stop-color:#004584"/>
		<stop  offset="0.9304" style="stop-color:#05326D"/>
		<stop  offset="1" style="stop-color:#162259"/>
	</linearGradient>
	<path id="XMLID_72_" class="st5" d="M791.7,302.7c-15.6-15.4-32-29.9-47.7-45.2c-34.5-11.2-46.9-17.8-183.3-77.5
		C424.4,120.3,179.9-8.5-15.4-10.6l-1,6c62.3,3.7,144,27.1,242.8,64.8c98.8,37.7,256,117.4,364.9,167.8c27.7,12.8,52.6,24,74.9,33.5
		c22.7,9.7,45.5,19,68.5,27.5c19.5,7.2,31.3,10.8,36.4,11.8C782,303,785.7,303.4,791.7,302.7z"/>
	
		<linearGradient id="XMLID_91_" gradientUnits="userSpaceOnUse" x1="194.6947" y1="43.5357" x2="670.3732" y2="275.5396" gradientTransform="matrix(0.9877 0.1564 -0.1564 0.9877 -1.9202 -65.1346)">
		<stop  offset="0" style="stop-color:#E63312"/>
		<stop  offset="0.2744" style="stop-color:#E43212"/>
		<stop  offset="0.4607" style="stop-color:#DD2F11"/>
		<stop  offset="0.6208" style="stop-color:#D2290F"/>
		<stop  offset="0.7661" style="stop-color:#C3220D"/>
		<stop  offset="0.9001" style="stop-color:#AF190A"/>
		<stop  offset="1" style="stop-color:#9C1006"/>
	</linearGradient>
	<path id="XMLID_71_" class="st6" d="M-17-0.5C7,4.2,104.4,27.2,226.4,81.2c165.7,73.2,332.6,178,507.3,243
		c19.5,7.2,31.3,10.8,36.4,11.8c17.3,3.3,31.3,5.3,36.9-2.3c5.5-7.4-3.3-16.9-8.1-22.8c-2.4-2.9-6.4-7.3-7.7-8.7
		c-8-0.1-9,0.1-19.8-2.1c-5.1-1-16.9-4.5-36.4-11.8c-22.9-8.5-45.8-17.8-68.5-27.5c-22.3-9.5-47.2-20.7-74.9-33.5
		C482.6,176.9,325.4,97.1,226.6,59.4C127.8,21.8,46.1-1.6-16.2-5.4L-17-0.5z"/>
	
		<linearGradient id="XMLID_92_" gradientUnits="userSpaceOnUse" x1="941.5258" y1="109.4191" x2="1285.4375" y2="300.0525" gradientTransform="matrix(0.9877 0.1564 -0.1564 0.9877 -1.9202 -65.1346)">
		<stop  offset="0" style="stop-color:#8F1003"/>
		<stop  offset="1" style="stop-color:#E63312"/>
	</linearGradient>
	<path id="XMLID_70_" class="st7" d="M1280.6,372.6c-107.7,23.5-229.6-35.1-321-94.3c-44.7-29-78.7-49.5-81.7-51.3l-19.7,28.5
		c14.1,8.3,40.6,23.6,86.6,49.5c92.1,51.9,227.2,110.7,335,73L1280.6,372.6z"/>
	
		<linearGradient id="XMLID_93_" gradientUnits="userSpaceOnUse" x1="715.8017" y1="29.7638" x2="947.9493" y2="158.4453" gradientTransform="matrix(0.9877 0.1564 -0.1564 0.9877 -1.9202 -65.1346)">
		<stop  offset="0" style="stop-color:#FFFDEE"/>
		<stop  offset="0.34" style="stop-color:#FFF042"/>
		<stop  offset="1" style="stop-color:#FAB400"/>
	</linearGradient>
	<path id="XMLID_69_" class="st8" d="M731.3,93.6l-0.6,0.9l0,0L715,117.8c0,0,12.8,17.8,62.5,65.2c23.8,22.7,46.5,45.8,59.1,60.4
		c13.6,15.9,15,21.6,14.8,24.5c0.8-1.2,0.8-1.2,5-7.5l8.1-12.1c8-11.9,16.3-23.8,24.3-35.7c6.1-9.1-4.2-24.8-13.4-37.6
		c-9.2-12.9-68-73.5-92.3-95.8c-24.4-22.2-25.4-24.7-22.2-29.4c-0.3,0.3-0.3,0.4-0.8,1.2L731.3,93.6z"/>
	
		<linearGradient id="XMLID_94_" gradientUnits="userSpaceOnUse" x1="716.0222" y1="105.0415" x2="902.7243" y2="196.1022" gradientTransform="matrix(0.9877 0.1564 -0.1564 0.9877 -1.9202 -65.1346)">
		<stop  offset="0" style="stop-color:#BCD0ED"/>
		<stop  offset="0.32" style="stop-color:#0071B8"/>
		<stop  offset="1" style="stop-color:#162259"/>
	</linearGradient>
	<path id="XMLID_68_" class="st9" d="M828.8,301.4c8.6-12.8,18.1-26.9,23.3-34.6c0.2-2.8-1.1-8.5-14.8-24.5
		c-12.5-14.7-35.2-37.7-59.1-60.4c-49.7-47.4-62.5-65.3-62.5-65.3l-23.3,34.6c0.5,0.7,13.7,18.7,62.5,65.2
		c23.8,22.7,46.5,45.8,59.1,60.4C827.7,292.9,829,298.6,828.8,301.4z"/>
	
		<linearGradient id="XMLID_95_" gradientUnits="userSpaceOnUse" x1="691.1162" y1="137.4158" x2="893.0281" y2="235.8948" gradientTransform="matrix(0.9877 0.1564 -0.1564 0.9877 -1.9202 -65.1346)">
		<stop  offset="0" style="stop-color:#FBCEB4"/>
		<stop  offset="0.31" style="stop-color:#E42313"/>
		<stop  offset="1" style="stop-color:#B20F0B"/>
	</linearGradient>
	<path id="XMLID_67_" class="st10" d="M680.7,168.8c-5.1,6.5-5.9,16.9-2.2,24c3.7,7.1,45.4,48.5,70.1,71.5
		c24.7,23,45.2,42.1,48.9,47c3.7,4.9,13.7,16.4,9.1,22.8c2.8-3.7,11.1-16.3,22.8-33.6c0.2-2.8-1.1-8.5-14.8-24.4
		c-12.5-14.7-35.2-37.7-59.1-60.4c-49.7-47.4-62.5-65.2-62.5-65.2L680.7,168.8z"/>
</g>
<g id="XMLID_78_" class="st0">
</g>
<g id="XMLID_79_" class="st0">
</g>
<g id="XMLID_80_" class="st0">
</g>
<g id="XMLID_81_" class="st0">
</g>
<g id="XMLID_82_" class="st0">
</g>
<g id="XMLID_83_" class="st0">
</g>
</svg>
