<?xml version="1.0" encoding="utf-8"?>
<!-- Generator: Adobe Illustrator 19.0.0, SVG Export Plug-In . SVG Version: 6.00 Build 0)  -->
<svg version="1.1" id="Capa_1" xmlns="http://www.w3.org/2000/svg" xmlns:xlink="http://www.w3.org/1999/xlink" x="0px" y="0px"
	 viewBox="0 0 302 152" style="enable-background:new 0 0 302 152;" xml:space="preserve">
<style type="text/css">
	.st0{clip-path:url(#XMLID_85_);}
	.st1{fill-rule:evenodd;clip-rule:evenodd;fill:url(#XMLID_86_);}
	.st2{fill:url(#XMLID_87_);}
	.st3{fill-rule:evenodd;clip-rule:evenodd;fill:url(#XMLID_88_);}
	.st4{fill-rule:evenodd;clip-rule:evenodd;fill:url(#XMLID_89_);}
	.st5{fill-rule:evenodd;clip-rule:evenodd;fill:url(#XMLID_90_);}
	.st6{fill-rule:evenodd;clip-rule:evenodd;fill:url(#XMLID_91_);}
	.st7{fill-rule:evenodd;clip-rule:evenodd;fill:url(#XMLID_92_);}
	.st8{fill-rule:evenodd;clip-rule:evenodd;fill:url(#XMLID_93_);}
	.st9{fill-rule:evenodd;clip-rule:evenodd;fill:url(#XMLID_94_);}
	.st10{fill-rule:evenodd;clip-rule:evenodd;fill:url(#XMLID_95_);}
</style>
<defs>
	<rect id="XMLID_77_" width="302" height="152"/>
</defs>
<clipPath id="XMLID_85_">
	<use xlink:href="#XMLID_77_"  style="overflow:visible;"/>
</clipPath>
<g id="XMLID_66_" class="st0">
	<radialGradient id="XMLID_86_" cx="154.0199" cy="95.5693" r="213.7578" gradientUnits="userSpaceOnUse">
		<stop  offset="0" style="stop-color:#FFEA00"/>
		<stop  offset="1" style="stop-color:#F7A600"/>
	</radialGradient>
	<path id="XMLID_76_" class="st1" d="M0,101.3L0,101.3v-0.8c52.8-11.4,92.9,2.1,146.9,13.9c5.4,1.2,10.4,2.2,14.8,3l3.2-6.8l5-10.7
		l0,0l5-10.7c0.1-0.2,0.1-0.2,0.1-0.3l0,0l0,0l0,0l0,0l0,0l0,0c0.3-0.5,2.9-1,17.9,5.4c15,6.4,43.1,19.6,68.4,32.4
		c25.2,12.8,34.3,12.7,40.7,12.3V-78.4H0V101.3z"/>
	<linearGradient id="XMLID_87_" gradientUnits="userSpaceOnUse" x1="190.2128" y1="91.5046" x2="284.447" y2="143.7395">
		<stop  offset="0" style="stop-color:#FBBA00"/>
		<stop  offset="7.220471e-02" style="stop-color:#FDC200"/>
		<stop  offset="0.3089" style="stop-color:#FFD61A"/>
		<stop  offset="0.5444" style="stop-color:#FFE532"/>
		<stop  offset="0.7763" style="stop-color:#FFED3E"/>
		<stop  offset="1" style="stop-color:#FFF042"/>
	</linearGradient>
	<path id="XMLID_75_" class="st2" d="M204.8,112.5c-0.8-0.8-2.7-2.4-5.3-4.4c-1.8-1.4-3.5-2.7-5.3-4.1c-4.3-3.3-8.8-6.6-13.4-9.6
		c-4.2-2.7-6.2-4.3-6.2-5.2l0.3-0.7c0.2-0.5,2.9-1.1,18,5.4c15.1,6.5,43.1,19.6,68.4,32.4c25.2,12.8,34.3,12.7,40.7,12.3v2.7
		c-27.7,8.1-52.5-6.1-74.8-16.4c-9.3-4.3-17.5-7.9-19.2-8.7C207.1,114.9,205.9,113.7,204.8,112.5z"/>
	<linearGradient id="XMLID_88_" gradientUnits="userSpaceOnUse" x1="218.8205" y1="112.7693" x2="286.3019" y2="150.1749">
		<stop  offset="0" style="stop-color:#162259"/>
		<stop  offset="1" style="stop-color:#0075BF"/>
	</linearGradient>
	<path id="XMLID_74_" class="st3" d="M302,141c-27.7,8.1-52.5-6.1-74.8-16.4c-9.3-4.3-17.8-8-19.6-8.8c1.2,1.6,1.8,3.2,1.2,4.4
		c-0.4,0.8-1.6,3.3-1.9,3.9c0.7,0.3,9.2,3.7,20.2,8.6c22.4,10,51.6,18.7,74.8,9.7V141z"/>
	<linearGradient id="XMLID_89_" gradientUnits="userSpaceOnUse" x1="27.3916" y1="83.8878" x2="139.0824" y2="138.363">
		<stop  offset="0" style="stop-color:#FFF042"/>
		<stop  offset="0.7" style="stop-color:#FFDF00"/>
		<stop  offset="1" style="stop-color:#FDC300"/>
	</linearGradient>
	<path id="XMLID_73_" class="st4" d="M0,102.8c43.5-6.4,102.5,13.6,135,22.1c32.5,8.5,36.6,9.6,44.1,10.9
		c-3.5-2.6-16.3-11.6-17.1-12.6c-1.3-1.8-1.2-3.7-0.1-6c-4.5-0.8-9.4-1.8-14.9-3C92.9,102.3,52.8,88.8,0,100.2V102.8z"/>
	<linearGradient id="XMLID_90_" gradientUnits="userSpaceOnUse" x1="38.5922" y1="94.9635" x2="158.1758" y2="153.2883">
		<stop  offset="0" style="stop-color:#0075BF"/>
		<stop  offset="0.2995" style="stop-color:#0073BD"/>
		<stop  offset="0.4686" style="stop-color:#006DB5"/>
		<stop  offset="0.6051" style="stop-color:#0063A9"/>
		<stop  offset="0.7243" style="stop-color:#005698"/>
		<stop  offset="0.8322" style="stop-color:#004584"/>
		<stop  offset="0.9304" style="stop-color:#05326D"/>
		<stop  offset="1" style="stop-color:#162259"/>
	</linearGradient>
	<path id="XMLID_72_" class="st5" d="M190.7,143.8c-4-2.9-8.2-5.5-12.2-8.4c-8.1-1.3-11.1-2.3-43.5-10.8
		c-32.5-8.5-91.4-28.6-135-22.1v1.4c14-1.4,33,1,56.3,5.9c23.3,4.9,61.1,17.1,87.2,24.5c6.6,1.9,12.6,3.5,17.9,4.8
		c5.4,1.4,10.8,2.6,16.2,3.7c4.6,0.9,7.3,1.3,8.5,1.3C188.6,144.2,189.4,144.2,190.7,143.8z"/>
	<linearGradient id="XMLID_91_" gradientUnits="userSpaceOnUse" x1="44.9562" y1="99.7156" x2="152.1614" y2="152.0031">
		<stop  offset="0" style="stop-color:#E63312"/>
		<stop  offset="0.2744" style="stop-color:#E43212"/>
		<stop  offset="0.4607" style="stop-color:#DD2F11"/>
		<stop  offset="0.6208" style="stop-color:#D2290F"/>
		<stop  offset="0.7661" style="stop-color:#C3220D"/>
		<stop  offset="0.9001" style="stop-color:#AF190A"/>
		<stop  offset="1" style="stop-color:#9C1006"/>
	</linearGradient>
	<path id="XMLID_71_" class="st6" d="M0,104.8c5.5,0.2,28,1.9,57.1,9.6c39.5,10.5,80.3,27.9,121.5,36.2c4.6,0.9,7.3,1.3,8.5,1.3
		c4,0.1,7.1,0.1,8.1-1.8c1-1.9-1.3-3.6-2.6-4.8c-0.6-0.6-1.7-1.4-2-1.7c-1.8,0.3-2,0.3-4.5,0.2c-1.2,0-3.9-0.4-8.5-1.3
		c-5.4-1.1-10.8-2.3-16.2-3.7c-5.3-1.3-11.2-2.9-17.9-4.8c-26-7.4-63.8-19.6-87.2-24.5C33,104.7,14,102.3,0,103.7V104.8z"/>
	<linearGradient id="XMLID_92_" gradientUnits="userSpaceOnUse" x1="213.2719" y1="114.564" x2="290.7804" y2="157.5276">
		<stop  offset="0" style="stop-color:#8F1003"/>
		<stop  offset="1" style="stop-color:#E63312"/>
	</linearGradient>
	<path id="XMLID_70_" class="st7" d="M302,142.1c-23.1,9-52.4,0.3-74.8-9.7c-11-4.9-19.3-8.2-20-8.5l-3.4,7c3.4,1.3,9.9,3.8,21,8
		c22.3,8.3,54.5,16.6,77.1,4.4V142.1z"/>
	<linearGradient id="XMLID_93_" gradientUnits="userSpaceOnUse" x1="162.3998" y1="96.6118" x2="214.7196" y2="125.6132">
		<stop  offset="0" style="stop-color:#FFFDEE"/>
		<stop  offset="0.34" style="stop-color:#FFF042"/>
		<stop  offset="1" style="stop-color:#FAB400"/>
	</linearGradient>
	<path id="XMLID_69_" class="st8" d="M169.9,99.4l-0.1,0.2l0,0l-2.7,5.7c0,0,3.5,3.5,16.2,12.3c6.1,4.2,12,8.5,15.3,11.4
		c3.6,3.1,4.1,4.3,4.1,4.9c0.1-0.3,0.1-0.3,0.9-1.8l1.4-3c1.4-2.9,2.8-5.9,4.2-8.8c1-2.2-1.8-5.4-4.3-7.9
		c-2.5-2.5-17.7-14-23.9-18.1c-6.2-4.1-6.5-4.6-6-5.8c0,0.1-0.1,0.1-0.1,0.3L169.9,99.4z"/>
	<linearGradient id="XMLID_94_" gradientUnits="userSpaceOnUse" x1="162.4495" y1="113.5774" x2="204.5271" y2="134.1">
		<stop  offset="0" style="stop-color:#BCD0ED"/>
		<stop  offset="0.32" style="stop-color:#0071B8"/>
		<stop  offset="1" style="stop-color:#162259"/>
	</linearGradient>
	<path id="XMLID_68_" class="st9" d="M198.9,142.2c1.5-3.1,3.1-6.6,4-8.5c0-0.6-0.5-1.9-4.1-4.9c-3.3-2.8-9.2-7.2-15.3-11.4
		c-12.7-8.8-16.2-12.3-16.2-12.3l-4,8.5c0.1,0.1,3.7,3.7,16.2,12.3c6.1,4.2,12,8.5,15.3,11.4C198.4,140.3,198.9,141.6,198.9,142.2z"
		/>
	<linearGradient id="XMLID_95_" gradientUnits="userSpaceOnUse" x1="156.8363" y1="120.8737" x2="202.3418" y2="143.0682">
		<stop  offset="0" style="stop-color:#FBCEB4"/>
		<stop  offset="0.31" style="stop-color:#E42313"/>
		<stop  offset="1" style="stop-color:#B20F0B"/>
	</linearGradient>
	<path id="XMLID_67_" class="st10" d="M161.3,117.9c-0.9,1.6-0.7,4,0.4,5.4c1.1,1.4,11.8,9.2,18.1,13.4c6.3,4.2,11.5,7.8,12.5,8.7
		c1,1,3.6,3.2,2.8,4.8c0.5-0.9,1.9-4,3.9-8.3c0-0.6-0.5-1.8-4.1-4.9c-3.3-2.8-9.2-7.2-15.3-11.4c-12.7-8.8-16.2-12.3-16.2-12.3
		L161.3,117.9z"/>
</g>
<g id="XMLID_78_" class="st0">
</g>
<g id="XMLID_79_" class="st0">
</g>
<g id="XMLID_80_" class="st0">
</g>
<g id="XMLID_81_" class="st0">
</g>
<g id="XMLID_82_" class="st0">
</g>
<g id="XMLID_83_" class="st0">
</g>
</svg>
