<?xml version="1.0" encoding="utf-8"?>
<!-- Generator: Adobe Illustrator 19.0.0, SVG Export Plug-In . SVG Version: 6.00 Build 0)  -->
<svg version="1.1" id="Capa_1" xmlns="http://www.w3.org/2000/svg" xmlns:xlink="http://www.w3.org/1999/xlink" x="0px" y="0px"
	 viewBox="0 0 1280 390" style="enable-background:new 0 0 1280 390;" xml:space="preserve">
<style type="text/css">
	.st0{clip-path:url(#XMLID_142_);}
	.st1{fill-rule:evenodd;clip-rule:evenodd;fill:url(#XMLID_143_);}
	.st2{fill:#FFFFFF;}
	.st3{fill-rule:evenodd;clip-rule:evenodd;fill:url(#XMLID_144_);}
	.st4{fill-rule:evenodd;clip-rule:evenodd;fill:url(#XMLID_145_);}
	.st5{fill-rule:evenodd;clip-rule:evenodd;fill:url(#XMLID_146_);}
	.st6{fill-rule:evenodd;clip-rule:evenodd;fill:url(#XMLID_147_);}
	.st7{fill-rule:evenodd;clip-rule:evenodd;fill:url(#XMLID_148_);}
	.st8{fill-rule:evenodd;clip-rule:evenodd;fill:url(#XMLID_149_);}
	.st9{fill-rule:evenodd;clip-rule:evenodd;fill:url(#XMLID_150_);}
	.st10{fill-rule:evenodd;clip-rule:evenodd;fill:#FBBA00;}
	.st11{fill-rule:evenodd;clip-rule:evenodd;fill:#873006;}
</style>
<defs>
	<rect id="XMLID_133_" width="1280" height="390"/>
</defs>
<clipPath id="XMLID_142_">
	<use xlink:href="#XMLID_133_"  style="overflow:visible;"/>
</clipPath>
<g id="XMLID_66_" class="st0">
	
		<radialGradient id="XMLID_143_" cx="675.7667" cy="24.8721" r="845.3682" gradientTransform="matrix(0.9877 0.1564 -0.1564 0.9877 0.8587 -64.4437)" gradientUnits="userSpaceOnUse">
		<stop  offset="0" style="stop-color:#0075BF"/>
		<stop  offset="1" style="stop-color:#162A66"/>
	</radialGradient>
	<path id="XMLID_130_" class="st1" d="M-14.5-16.2L-14.5-16.2l0.5-3.3c239.2-13.2,405.5,73.7,634.1,163.1
		c22.8,8.9,44,16.7,62.8,23.4l18.7-27.8l29.2-43.3l29.4-43.5c0.5-0.7,0.5-0.8,0.7-1.1l0,0l0-0.1l0,0l0,0l0,0l0,0
		c1.6-1.8,13.6-2.5,74.8,36.1c61.2,38.6,175.5,115.9,277.2,189.4c101.7,73.5,141.3,79.5,169.9,82l150.8-952.4L110.2-803.4
		L-14.5-16.2z"/>
	<path id="XMLID_129_" class="st2" d="M911.8,234.4c-9.2-5.9-18.4-11.7-27.7-17.2l3.6-5.4c2.8-4.1,1.7-9.8-1.1-16.1
		c-2.9-6.6-7.8-13.6-12.3-20c-2.8-3.9-10.4-12.4-20.1-22.9c-6.8-7.3-13.6-14.4-20.6-21.5l9.9,6.3c14.7,9.4,32.5,20.6,49.9,31.6
		c6.6,4.1,13.2,8.3,19.8,12.4c26.2,16,51.6,33.8,77.2,51c52.3,35.2,113.6,76.4,148.8,96c36,19.7,77.7,30.1,118.4,33.4
		c5.8,0.5,10.8,0.7,14.9,0.7c3.2,0,6.5,0,9.7-0.3l-1.3,8.4c-27.4,6.6-54.9,7.9-82,4.7c-29.5-3.5-58.6-11.9-87-23.4
		c-54.4-22-105.8-55.1-151.1-85.4C940,252.7,924,242.2,911.8,234.4z"/>
	<path id="XMLID_128_" class="st2" d="M-16.2-5.6l1.6-9.9c178.2,1.9,335.7,70.3,522.4,151.4c17.6,7.7,35.5,15.4,55.2,23.9
		c31.9,13.7,59.2,25.3,82.7,35.2c23.7,9.9,43.8,18.1,60.9,24.9c12.7,12.8,25.6,25.3,38.7,37.7c12.4,11.7,24.9,23.2,37.2,34.8
		c-3.3-0.6-6.5-1.2-9.8-1.8c-3.7-0.7-10.9-2.8-21.8-6.5c-16.6-5.7-32.9-12.1-49.2-18.6c-23.4-9.4-46.6-19.4-69.6-29.7
		c-24-10.7-47.7-21.8-71.5-32.8C454.5,153.8,316.4,89.8,226.9,55.7C166.6,32.9,104.5,12.6,40.8,1.4C30.6-0.4,20.7-1.9,11.2-3.1
		C2.1-4.2-7-5.1-16.2-5.6z"/>
	
		<linearGradient id="XMLID_144_" gradientUnits="userSpaceOnUse" x1="164.9006" y1="28.8705" x2="695.4759" y2="287.6493" gradientTransform="matrix(0.9877 0.1564 -0.1564 0.9877 0.8587 -64.4437)">
		<stop  offset="0" style="stop-color:#63B9E9"/>
		<stop  offset="0.3206" style="stop-color:#5FB7E7"/>
		<stop  offset="0.5014" style="stop-color:#53B0E3"/>
		<stop  offset="0.6475" style="stop-color:#3CA4DB"/>
		<stop  offset="0.7751" style="stop-color:#0095D0"/>
		<stop  offset="0.8893" style="stop-color:#0082C2"/>
		<stop  offset="0.9946" style="stop-color:#006EB2"/>
		<stop  offset="1" style="stop-color:#006DB1"/>
	</linearGradient>
	<path id="XMLID_127_" class="st3" d="M-17-0.5C7,4.2,104.4,27.2,226.4,81.2c165.7,73.2,332.6,178,507.3,243
		c19.5,7.2,31.3,10.8,36.4,11.8c17.3,3.3,31.3,5.3,36.9-2.3c0.6-0.9,1.4-1.9,2.1-3.1c0.6-6.5-7.1-15.5-10.2-19.6
		c-2.1-2.8-9.7-10.3-20.5-20.4c-1.8-0.3-3.6-0.6-5.4-1c-5.1-1-16.9-4.5-36.4-11.8c-22.9-8.5-45.8-17.8-68.5-27.5
		c-22.3-9.5-47.2-20.7-74.9-33.5c-108.9-50.4-267-124.5-365.8-162.2C128.6,16.8,46.4-3.2-16-6.9L-17-0.5z"/>
	
		<linearGradient id="XMLID_145_" gradientUnits="userSpaceOnUse" x1="955.003" y1="116.7413" x2="1267.5099" y2="289.9667" gradientTransform="matrix(0.9877 0.1564 -0.1564 0.9877 0.8587 -64.4437)">
		<stop  offset="0" style="stop-color:#0075BF"/>
		<stop  offset="1" style="stop-color:#63B9E9"/>
	</linearGradient>
	<path id="XMLID_126_" class="st4" d="M1281.1,369.7c-114.2,28-229-43.4-319.5-104.1c-42.9-28.8-65.4-42.8-76.6-49.4l-26.8,39.4
		c14.1,8.3,40.6,23.6,86.6,49.5c92.1,51.9,227.2,110.7,335,73L1281.1,369.7z"/>
	
		<linearGradient id="XMLID_146_" gradientUnits="userSpaceOnUse" x1="147.8539" y1="-12.8818" x2="589.8899" y2="202.7136" gradientTransform="matrix(0.9877 0.1564 -0.1564 0.9877 0.8587 -64.4437)">
		<stop  offset="0" style="stop-color:#63B9E9"/>
		<stop  offset="0.3206" style="stop-color:#5FB7E8"/>
		<stop  offset="0.5014" style="stop-color:#53B2E5"/>
		<stop  offset="0.6475" style="stop-color:#39AAE1"/>
		<stop  offset="0.7751" style="stop-color:#009FDB"/>
		<stop  offset="0.8893" style="stop-color:#0091D3"/>
		<stop  offset="0.9946" style="stop-color:#0081C9"/>
		<stop  offset="1" style="stop-color:#0080C9"/>
	</linearGradient>
	<path id="XMLID_125_" class="st5" d="M-14.8-14.2C180.4-12.1,351,70,562.5,161.1c63.3,27.3,109.4,46.5,143.6,60.1
		c-13.5-13.7-24.4-25.4-26.3-28.9c-3.7-7.1-2.9-17.5,2.2-24l1.7-2.5c-19-6.7-40.1-14.5-63.3-23.6C391.8,52.8,225.4-34.1-13.8-20.8
		L-14.8-14.2z"/>
	
		<linearGradient id="XMLID_147_" gradientUnits="userSpaceOnUse" x1="839.8566" y1="-0.4062" x2="1254.5002" y2="229.4345" gradientTransform="matrix(0.9877 0.1564 -0.1564 0.9877 0.8587 -64.4437)">
		<stop  offset="0" style="stop-color:#0075BF"/>
		<stop  offset="1" style="stop-color:#63B9E9"/>
	</linearGradient>
	<path id="XMLID_124_" class="st6" d="M760.8,49.8c1.2-1.8,13.4-2.8,75.1,36.1c61.7,38.9,175.5,115.9,277.2,189.4
		c101.7,73.5,141.3,79.5,169.9,82l-1,6.5c-15.2,1.7-87-2.6-143.5-34c-56.4-31.4-180.1-118.5-226-147c-24-14.9-51.5-32.4-72.5-45.7
		c-20.3-21.2-44.2-45.2-57.7-57.5c-20.2-18.4-24.3-23.3-23.4-27.1l0.8-1.2L760.8,49.8z"/>
	
		<linearGradient id="XMLID_148_" gradientUnits="userSpaceOnUse" x1="716.3578" y1="75.9462" x2="910.963" y2="183.8176" gradientTransform="matrix(0.9877 0.1564 -0.1564 0.9877 0.8587 -64.4437)">
		<stop  offset="0" style="stop-color:#FFFFFF"/>
		<stop  offset="0.1665" style="stop-color:#F9F9F9"/>
		<stop  offset="0.4381" style="stop-color:#E7E7E7"/>
		<stop  offset="0.7789" style="stop-color:#C9C9C9"/>
		<stop  offset="1" style="stop-color:#B2B2B2"/>
	</linearGradient>
	<path id="XMLID_123_" class="st7" d="M731.3,93.6l-30.4,45c0,0,12.8,17.8,62.5,65.2c23.8,22.7,46.5,45.8,59.1,60.4
		c13.6,15.9,15,21.6,14.8,24.5c0.8-1.2,14.9-22.1,19.1-28.4l8.7-13c1.5-16.5-40.8-56.5-58.5-76c-10.6-11.7-32.3-33.1-49.8-50.2
		C742,106.8,731.3,93.6,731.3,93.6z"/>
	
		<linearGradient id="XMLID_149_" gradientUnits="userSpaceOnUse" x1="722.3347" y1="28.7566" x2="928.9456" y2="129.5274" gradientTransform="matrix(0.9877 0.1564 -0.1564 0.9877 0.8587 -64.4437)">
		<stop  offset="0" style="stop-color:#D3E4F6"/>
		<stop  offset="0.26" style="stop-color:#63B9E9"/>
		<stop  offset="1" style="stop-color:#007EC5"/>
	</linearGradient>
	<path id="XMLID_122_" class="st8" d="M760.9,49.7c-0.3,0.3-0.3,0.4-0.8,1.2l-29.4,43.5c0,0,10.7,13.2,25.4,27.6
		c17.5,17.1,39.2,38.6,49.8,50.2c17.7,19.5,60.1,59.4,58.5,75.9c0,0,18.2-26.7,24.3-35.7c6.1-9.1-4.2-24.8-13.4-37.6
		c-9.2-12.9-68-73.5-92.3-95.8C758.7,56.9,757.7,54.4,760.9,49.7z"/>
	
		<linearGradient id="XMLID_150_" gradientUnits="userSpaceOnUse" x1="694.981" y1="132.0484" x2="890.0705" y2="227.1998" gradientTransform="matrix(0.9877 0.1564 -0.1564 0.9877 0.8587 -64.4437)">
		<stop  offset="0" style="stop-color:#D3E4F6"/>
		<stop  offset="0.2" style="stop-color:#63B9E9"/>
		<stop  offset="1" style="stop-color:#007EC5"/>
	</linearGradient>
	<path id="XMLID_121_" class="st9" d="M680.7,168.8c-5.1,6.5-5.9,16.9-2.2,24c3.7,7.1,45.4,48.5,70.1,71.5
		c24.7,23,45.2,42.1,48.9,47c3.7,4.9,13.7,16.4,9.1,22.8c2.8-3.7,19.5-28.8,31.2-46.1c0.2-2.8-1.1-8.5-14.8-24.5
		c-12.5-14.7-35.2-37.7-59.1-60.4c-49.7-47.4-62.5-65.2-62.5-65.2L680.7,168.8z"/>
	<g id="XMLID_135_">
		<path id="XMLID_132_" class="st10" d="M774,182.2L774,182.2L774,182.2L774,182.2L774,182.2z M774.7,188.7L774.7,188.7l-10,6.4
			L774.7,188.7L774.7,188.7z M792.3,185.6l-0.6-0.2l0,0L792.3,185.6L792.3,185.6z M775,190.5c0,0.3-1.1,1.6-1.3,1.9
			c-0.4,0.5-1,1.1-1.4,1.4c-0.8,0.5-2.2,1-2.8,1.9l-0.1,0.2l-0.8,1.6l-0.4,0.6c-0.5,0.7-1.4,0.7-1.5,0.9c-0.1,0.2-0.1,0.4,0.1,0.6
			l0,0c0.5,0.5,2.1-0.2,2.6-1l0.8-1.3c0.4-0.6,2.1-1.7,2.5-1.8l0.9-0.5c0.1-0.2,0.7-0.6,1-0.9c0.3-0.3,0.6-0.8,1-1.2
			c0.2-0.3,0.9-0.9,1.1-0.9l-0.6,0.8l-4.9,7.5c-0.1,0.3-2.1,2.2-1.3,3c0.4,0.2,0.7-0.3,1-0.8c0.3-0.4,0.7-0.8,1-1.2
			c0.6-0.9,1.3-1.7,2-2.6c1.2-1.8,2.7-3.4,3.9-5.2l-0.5,2l-0.5,1.7c-0.5,0.8-0.8,1.3-1.4,2.1l-0.2,0.3c-1.3,1.8-0.4,3.5-1.5,5
			l-0.2,0.2c-0.2,0.2-0.3,0.2-0.4,0.4l0,0c-0.1,0.1-0.1,0.3,0,0.4l0.1,0.1c0.4,0.4,1.2-0.2,1.5-0.8l0.1-0.1c1-1.3,0.3-2.6,1.5-4.4
			l0.6-0.9l0.3-0.3l0.3-0.4l0.4-0.6c0.8-1.2,0.6-2.6,1.6-4l-0.8,3.8c-0.1,0.5-0.3,1.8-0.5,2.5c-0.1,0.2-0.2,1-0.2,1.2
			c0,0.4-0.2,0.8-0.3,1.2c-0.2,0.8-0.3,1.7-0.5,2.4c-0.1,0.6-0.6,2-0.1,2.4c0.2,0.2,0.6,0,0.6-0.3l2.6-9.5l0.3-1l0.1-0.4l0.4-1.3
			l0,0l0.2,1.5c0.2,0.6,0.1,2.1,0.1,2.9c-0.1,0.9-0.6,2-0.7,2.9c-0.1,1.3,0.1,1.6,0.4,2.8c0.2,0.9,0.4,1.9-0.3,2.8l0,0.3l0.2,0.2
			c0.1,0.1,0.5,0,0.6-0.2l0.2-0.3c0.5-0.7,0.5-1.8,0.4-2.5c-0.1-1-0.4-1.3-0.3-2.4c0-0.5,0.1-0.7,0.2-1.2c0.1-0.5,0.3-0.8,0.4-1.2
			c0.1-0.4,0.2-0.9,0.3-1.2c0.3-1.3-0.5-3.3,0.1-4.4l0.5,3.1l0.7,4.8l0.1,0.9c0.2,0.6,0.6,4.6,0.8,4.8l0.2,0.2
			c0.1,0.1,0.3,0.1,0.4,0l0,0c0.4-0.6,0-2.1,0-2.8c0-0.8-0.2-2-0.3-2.8c-0.1-0.9-0.1-1.8-0.2-2.8c-0.2-1.6-0.3-3.1-0.4-4.7l0-0.5
			c0.1,0,1.1,2.1,1.2,2.5c0.6,1.3,0.6,2.7,0.7,3.7c0.1,0.6,0.2,1.2,0.5,1.8c0.2,0.4,0.7,1.4,1.1,1.7c0.1,0.4,0.5,0.9,0.6,1.5
			c0.1,0.3,0.1,0.5,0.1,0.8c0,0.2-0.1,0.6,0,0.8c0.2,0.2,0.5,0.1,0.6-0.2c0.5-0.8,0.2-2.4-0.2-3.1c-0.3-0.5-0.7-1-0.8-1.5
			c-0.1-0.3-0.4-1.2-0.4-1.5c-0.1-0.3-0.1-0.6-0.1-1.1L788,199l-0.2-0.9l-0.3-0.7l-0.8-1.8l-0.2-1l0,0l0.4,0.7l1.2,2.4
			c0.2,0.2,1.1,1.9,1.2,2.2c0.3,0.7,0.9,1.5,1.2,2.2c0.1,0.2,0.5,0.9,0.6,1.1c0.2,0.3,0.5,0.8,0.6,1.1c0.2,0.4,0.9,1.9,1.2,2.2
			l0.1,0.1c0.2,0.2,0.3,0.1,0.5,0l0.1-0.1c0.2-0.3-0.4-1.3-0.5-1.6c-0.2-0.4-0.5-1.2-0.7-1.5c-0.1-0.2-0.6-1.3-0.7-1.6
			c-0.1-0.4-0.5-1.1-0.7-1.5c-0.5-1-1-2.1-1.4-3.1c-0.2-0.6-1.3-2.7-1.4-3.1c0.9,0.8,2,1.8,2.6,2.7c0.4,0.6,1.2,2.5,1.4,2.8
			c0.1,0.3,0.6,1,0.9,1.2l0.3,0.3l1.4,1l0.6,0.6c0.6,0.6,0.6,1.5,0.8,1.7l0,0c0.1,0.1,0.3,0.1,0.4,0l0.1-0.2c0.4-0.6-0.4-2.3-1-2.9
			l-0.1-0.1l-1-0.8l-0.1-0.1c-0.4-0.4-0.5-0.7-0.7-0.9c-0.3-0.4-0.3-0.6-0.5-1c-0.3-0.6-0.5-1.4-0.9-1.9l-0.7-1.2
			c-0.4-0.4-0.8-0.9-1.3-1.4c-0.3-0.3-0.8-1.1-0.9-1.4l0.4,0.3l3,2.6c1.2,1.1,2.3,2,3.4,3.1c0.5,0.5,1.2,1.2,1.7,1.6
			c0.4,0.3,1.4,1.4,1.6,1l0.1-0.2c0.4-0.5-1.4-2-1.9-2.5c-0.4-0.4-0.8-0.8-1.2-1.2c-0.3-0.3-0.9-0.9-1.2-1.2
			c-0.6-0.7-1.7-1.8-2.4-2.4c-0.8-0.7-1.6-1.6-2.4-2.4c0.1,0,1.6,0.6,1.9,0.7c0.6,0.2,1.4,0.5,2,1.1c1.2,1.1,1.9,2,3.1,2.5
			c0.8,0.3,2.1,0.1,3,1l0.2,0.2c0.3,0.3,0.3,0.5,0.5,0.7l0.1,0.1c0.1,0.1,0.2,0.1,0.3,0l0.1-0.1c0.3-0.4-0.2-1.3-0.7-1.7l-0.3-0.3
			c-0.5-0.5-1.4-0.7-1.9-0.8c-0.4-0.1-1.5-0.6-1.9-1.1c-1.3-1.3-2.3-2.6-3.9-3.1c-0.7-0.2-0.9-0.3-1.6-1l4.2,1.4l7.3,2.4
			c0.1,0,0.3,0,0.3-0.1l0.1-0.1c0.1-0.2,0.1-0.5-0.1-0.7l0,0c-0.2-0.2-0.3-0.2-0.5-0.2l-6.4-2.7l-2.4-1l-1.9-0.8l1.9-0.1
			c0.3-0.1,1.1,0,1.5,0.1c0.4,0,1.2,0.4,1.6,0.5c0.6,0.3,1,0.4,1.6,0.5c0.8,0.1,1.6,0,2.4-0.3c0.4-0.1,0.9-0.1,1.4-0.1
			c0.1,0,0.6,0.1,0.7,0.3c0.2,0.2,0.5,0.5,0.7,0.2l0,0c0.2-0.2,0-0.6-0.2-0.9l-0.4-0.4c-0.4-0.4-1.1-0.5-1.6-0.5
			c-0.4,0-0.9,0.1-1.3,0.2l-1.3,0c-0.3-0.1-0.7-0.2-1-0.3c-0.3-0.1-0.7-0.4-1-0.5c-0.3-0.1-0.7-0.3-1-0.4c-0.8-0.3-1.6-0.3-2.4-0.2
			c-0.6,0.1-1-0.1-1.4-0.1l-0.3-0.2l0.1,0l3.5-0.4l5.2-0.6l1-0.1l1.7-0.2c0.2-0.1,0.4,0,0.5-0.3l0.1-0.1c0.1-0.1,0-0.2,0-0.3
			c-0.1-0.3-0.3-0.4-0.6-0.4l-1.8,0.1l-8.4,0.3l-0.1,0l-1.1,0l2.2-1.2c0.9-0.8,3.1-0.4,4.3-0.8c0.7-0.2,1.4-0.8,2.1-1.4
			c0.2-0.2,0.8-0.4,1.1-0.5c0.5-0.1,0.7,0,1.1,0.1l0.3-0.3l-0.1-0.3l-0.4-0.3c-0.5-0.4-1.4-0.2-1.9-0.1c-0.7,0.2-1.1,0.8-1.8,1.1
			l-1,0.3l-0.9,0.1l-0.8,0l-1.1,0c-0.3,0.1-0.6,0.1-0.9,0.2c-0.3,0.1-0.6,0.2-0.9,0.4c-0.3,0.2-0.6,0.3-0.9,0.5
			c-0.3,0.2-0.6,0.2-0.9,0.3l-0.4,0l2.1-1.4l1.8-1.1c0.3-0.3,2.6-1.7,3.1-2c0.5-0.3,2.9-1.8,3.1-2.1l0.1-0.1c0.1-0.1,0-0.4,0-0.5
			l-0.2-0.2c-0.3-0.3-1.8,0.7-2.1,0.9c-0.3,0.1-0.7,0.4-1.1,0.6c-0.4,0.2-0.7,0.4-1.1,0.6c-0.6,0.3-1.6,0.8-2.1,1.2
			c-0.3,0.2-0.8,0.4-1.1,0.5c-0.4,0.3-0.7,0.4-1.1,0.6l-0.9,0.5L791,179l-0.2,0.1l-0.4,0.1c0.3-0.5,1-1.5,1.3-1.8
			c0.2-0.2,0.4-0.5,0.7-0.8c0.2-0.3,0.5-0.4,0.7-0.6c0.8-0.7,2-0.8,2.9-2l0.2-0.3c0.3-0.4,0.4-1.1,0.8-1.6l0.2-0.3
			c0.6-0.9,1.5-0.8,1.6-1c0.1-0.2,0.1-0.4-0.1-0.6c-0.6-0.6-2,0.1-2.5,0.8l-0.2,0.3l-0.6,1.1c-0.3,0.6-2.2,1.8-2.5,1.8l-0.6,0.3
			c-0.4,0.3-0.7,0.4-1.1,0.9c-0.4,0.4-0.7,0.9-1.1,1.3c-0.3,0.4-0.9,0.9-1.1,0.9l2.2-3.4c0.9-1.3,1.6-2.6,2.6-3.9
			c0.5-0.7,0.8-1.3,1.2-1.9c0.3-0.4,1.2-1.6,0.8-1.9l-0.1-0.1c-0.4-0.4-0.7,0-1,0.5c-0.3,0.5-0.6,0.8-1,1.3
			c-0.6,0.8-1.3,1.8-1.9,2.5c-0.6,0.7-1.4,1.8-1.9,2.5c-0.6,0.9-1.3,1.6-1.9,2.5l-0.2,0.3c-0.1-0.2,0.5-2.5,0.6-2.9
			c0.3-1.1,1-1.9,1.8-3c1.4-1.9,0.5-3.7,1.5-5.1l0.3-0.4c0.1-0.1,0.2,0,0.4-0.3l0.1-0.1c0.1-0.1,0-0.4-0.1-0.4
			c-0.4-0.4-1.2,0.1-1.5,0.5l-0.3,0.4c-0.4,0.6-0.5,1.9-0.6,2.5c-0.2,0.9-0.7,1.6-1.4,2.6l-0.7,0.8l-0.4,0.6c-0.4,0.6-0.5,1.5-0.7,2
			c-0.1,0.3-0.1,0.7-0.3,1c-0.2,0.4-0.3,0.6-0.6,1l1-4.6l1.7-8.4c0-0.2,0-0.3-0.2-0.4l-0.1-0.1c-0.2-0.2-0.4,0.1-0.6,0.3l-1.1,4.2
			l-1.9,6.8l-0.3,1.2l-0.1,0l-0.2-1.6l0-0.5c-0.2-0.7,0-1.9,0.1-2.7c0.2-0.9,0.6-1.8,0.6-2.7c0-1.2-0.1-1.5-0.4-2.6
			c-0.2-0.8-0.3-1.8,0.3-2.7c0-0.1,0-0.3-0.1-0.4l-0.1-0.1c-0.1-0.1-0.5,0-0.6,0.1l-0.4,0.5c-0.4,0.6-0.5,2-0.3,2.6
			c0.1,0.5,0.4,1.9,0.2,2.3c0.1,0.6-0.7,2.5-0.8,3.3c0,0.1-0.1,0.6-0.1,0.7c0,0.2,0,0.5,0,0.7c0,0.4,0.1,1,0.1,1.3
			c0.1,0.4,0.1,1.4-0.1,1.9l-0.3-2l-0.4-2.5l0-0.2l-0.3-2.1c-0.2-0.8-0.9-6.5-1.1-6.8l-0.1-0.1c-0.1-0.1-0.4-0.2-0.5-0.1l-0.1,0.1
			c-0.2,0.4,0,1.2,0,1.6l0.1,1l0.1,1.1l0.1,0.6l0.2,2.3l0.1,1.4l0.3,2.9l0,0.6l0,0.1l0.2,1.9l-0.1,0l-0.8-1.6
			c-0.3-0.3-0.9-2-0.9-2.4c-0.1-0.4-0.1-0.8-0.2-1.2c0-0.4,0-0.8-0.1-1.2c-0.2-0.8-0.3-1.6-0.9-2.4c-0.5-0.7-1.1-1.6-1.2-2.3
			l-0.1-0.7c-0.1-0.2,0.2-0.6,0-0.8l-0.1-0.1c-0.1-0.1-0.4,0-0.5,0.2l-0.1,0.1c-0.2,0.3-0.2,1.1-0.2,1.4c0.1,0.5,0.1,0.8,0.3,1.3
			c0.2,0.5,0.4,0.8,0.7,1.3c0.2,0.3,0.4,1,0.5,1.3l0.2,1.8l0,0.1l0,1l0,0.1l0.2,1.4l0.2,0.6l0.9,2.1l0.2,1l0,0.1l-0.5-1l-1.2-2.4
			l-4.5-8.5l-0.3-0.3c-0.2,0-0.3-0.1-0.4,0.1l-0.1,0.1c-0.1,0.1,0,0.3,0,0.4l1.5,3.3l0.5,1.1l3.5,7.6c-1-0.9-2.6-2.3-3.1-3.3
			c-0.4-0.9-1.1-2.6-1.9-3.4l-0.4-0.4l-1.2-0.8l-0.7-0.7c-0.5-0.5-0.6-1.5-0.8-1.7l0,0c-0.1-0.1-0.3,0-0.4,0.1
			c-0.5,0.7,0.2,2.3,0.8,2.9l0.2,0.2l1,0.8l0.3,0.3c0.7,0.7,1.5,2.3,1.7,3c0.1,0.4,0.5,1.1,0.8,1.5c0.2,0.3,0.9,1.2,1.3,1.5
			c0.3,0.3,0.5,0.5,0.7,0.8c0.2,0.3,0.3,0.6,0.5,0.8l-0.1,0.1l-1.4-1.3c-0.1,0-4.1-3.6-4.5-3.9c-0.7-0.7-1.5-1.3-2.2-2
			c-0.3-0.3-0.8-0.7-1.1-0.9c-0.4-0.3-0.7-0.8-1-0.4l0,0c-0.4,0.6,1.2,1.7,1.6,2.3c0.4,0.5,1.6,1.7,2.2,2.2l5.3,5.4
			c-0.1,0-1.7-0.7-2-0.8c-0.5-0.2-1.5-0.6-2-1.1c-1.1-1.1-2.1-2.2-3.2-2.5c-1.1-0.3-1.9-0.1-3.1-1.3l-0.4-0.6
			c-0.1-0.1-0.3,0-0.3,0.1c-0.1,0.2-0.1,0.4-0.1,0.6c0.1,0.5,0.4,0.9,0.9,1.3l0.1,0.1c0.6,0.6,1.4,0.7,2,0.9c0.5,0.1,1.4,0.6,2,1.2
			l0.1,0.1l1.4,1.5l0.5,0.4c0.5,0.5,1,0.6,1.4,0.9c0.1,0,0.8,0.3,0.9,0.4c0.5,0.2,0.4,0.1,0.9,0.6l0.2,0.2l-2.2-0.7
			c-0.4-0.1-1.9-0.6-2.4-0.8c-0.8-0.3-1.7-0.5-2.4-0.8c-0.8-0.3-1.6-0.6-2.4-0.8c-0.4-0.1-0.9-0.3-1.2-0.4c-0.4-0.1-0.9-0.4-1.2,0
			c-0.1,0.2,0,0.5,0.1,0.6l0,0c0.1,0.1,2.6,1.1,2.9,1.3c0.4,0.1,2.7,1.1,2.9,1.3l1.6,0.6l2.4,1.1l1.1,0.4l0.3,0.2l-1.2,0.1l-1.9,0.1
			c-0.3,0-0.7-0.1-1-0.2c-0.9-0.3-1.7-0.8-2.6-1c-0.7-0.1-1,0-1.6,0.1l-1.2,0.3c-0.2,0.1-0.9,0-1.2-0.1c-0.4-0.1-0.9-0.8-1.2-0.5
			l0,0c-0.2,0.2,0,0.6,0.2,0.9l0.4,0.3c0.6,0.6,1.8,0.7,2.3,0.5c0.9-0.2,1.2-0.3,2.2-0.1c0.5,0.1,1.8,0.7,2.3,1
			c0.8,0.5,1.5,0.3,2.3,0.4l0.8,0c0.4,0,1.1,0.1,1.5,0.3l-1.3,0.2l-1.6,0.2l-0.3,0l-0.9,0.1l-3.3,0.4l-0.6,0.1
			c-0.5,0.2-3.6,0.3-3.7,0.5l-0.2,0.2c-0.1,0.1,0,0.3,0,0.4l0.2,0.2c0.1,0.1,1.7,0,2,0l1.1-0.1l1.1,0l0.7,0l0.9,0l4.5-0.2l1.4-0.1
			l-1.7,1c-0.4,0.3-1.5,0.7-1.9,0.8c-0.6,0.1-1.4,0-2,0.1c-0.5,0.1-1.4,0.3-1.9,0.7c-0.5,0.4-1.4,1.1-1.9,1.3l-0.7,0.1
			c-0.2,0.1-0.6-0.3-0.8,0l-0.1,0.1c-0.1,0.2-0.1,0.5,0,0.6l0.3,0.3c0.1,0.1,0.8,0.2,0.9,0.2l1.2-0.2c0.6-0.3,1-0.7,1.6-1
			c0.4-0.3,1.1-0.4,1.6-0.5c0.5-0.1,1.1,0,1.7,0c0.3,0,0.5,0,0.8,0c0.2,0,0.7-0.2,0.8-0.2c0.1-0.1,1.2-0.6,1.5-0.8
			c0.5-0.2,1-0.5,1.5-0.4l-2.8,1.8l-7,4.6c-0.1,0-0.1,0-0.2,0.1l-0.1,0.2c-0.1,0.1,0,0.2,0,0.4c0.1,0.3,0.4,0.4,0.6,0.3l0.5-0.2
			L775,190.5L775,190.5z"/>
		<path id="XMLID_131_" class="st11" d="M777.3,193l0.5-0.6l0.3,0.3l-0.7,1c-1.1,1.6-2.5,3.2-3.6,4.8c-0.4,0.5-1.4,2.1-1.8,2.5
			c-0.3,0.3-1.6,2.4-1.9,2.1c-0.3-0.3,1.2-2.3,1.6-2.8c1.9-2.7,3.6-5.7,5.6-8.5l0.3,0.3l-3.2,4.9l0,0L777.3,193L777.3,193z
			 M781.9,194.4c-0.3,1.8,0.5,3.5,0.2,5.1c0,0.2-0.4,1.7-0.4,1.8c1.3-2.7,0.4-3.6,0.5-5.2c0-0.6,0.2-1,0.3-1.6l0.4,0.1
			c-0.2,0.3-0.3,1.6-0.3,1.9c0,1.3,0.4,2-0.1,3.7c-0.3,1.2-0.7,2-0.7,3.2c-0.1,2.1,1,3-0.3,4.9c-0.1,0.1-0.2,0.1-0.4,0
			c0.6-0.9,0.5-2.1,0.3-2.9c-0.6-2.6-0.5-2.5,0.1-5c0.6-2.5-0.2-3.9-0.1-6.1L781.9,194.4L781.9,194.4z M782.5,194.4l1.2,0.1
			c0.6-0.1,2.1-0.3,2.6-0.6c1.3-0.8,2.2-1.4,3.2-2.8c1.7-2.4,2.2-6.4,1-9.3c-0.7-1.8-1.2-2.8-3-4.5c-0.8-0.8-1.7-1.1-2.5-1.5l-2-0.5
			c-0.9-0.2-2.1,0-3,0.3c-0.9,0.3-1.4,0.6-2.2,1.1c-0.5,0.3-1.7,1.5-1.9,2c-1.1,1.6-1.4,3.2-1.6,4.6c0.1,0.2-0.1,0.9,0,1.3
			c0.2,1.7,0.2,1.9,0.7,3.6c0.5,1.7,2,3.5,3.3,4.6c0.3,0.3,1.9,1.1,2.2,1.2C781.1,194.2,781.9,194.3,782.5,194.4L782.5,194.4z
			 M778.6,193l-0.2-0.1c-0.4,0.6-0.6,2.3-0.9,3c-0.4,1.3-0.5,1.6-1.5,3c-0.8,1.2-1.3,1.9-1.4,3c-0.2,3.4-0.9,2.9-1.4,3.6
			c0.4,0.4,1-0.2,1.3-0.7c1.2-1.7-0.2-2.3,2.3-5.4l0.8-0.9c0.7-1,0.8-2.6,1.2-3.3c0.3-0.4,0.5-1,0.8-1.4l-0.4-0.2l-0.4,0.6
			c-0.8,1.2-0.7,3.1-1.5,4l-0.8,0.9l0,0c0.9-1.3,1.1-1.6,1.3-2.9c0.1-0.6,0.5-2.3,0.9-2.8L778.6,193L778.6,193z M779.8,194.5
			l0.1-0.7c0.1,0.1,0.2,0.1,0.3,0.1c0.2,0.2-1.3,6-1.2,6.5l1.8-6.3l0.4,0.2c-0.3,0.5-3.3,12.7-3.6,13.1c-0.1,0.1-0.1,0.1-0.2,0.2
			l-0.2-0.2c0.1-1.4,1-4.8,1.3-6.5c0.1-0.5,0.5-2.8,0.6-3.2C779.4,196.8,779.6,195.5,779.8,194.5L779.8,194.5z M776.8,191.4
			l-0.3-0.4c-0.3,0.3-0.9,0.5-1.2,0.9c-0.7,0.9-1.4,2-2.3,2.4c-0.2,0.1-1,0.4-1.2,0.4c0.2-0.1,0.8-0.4,1.1-0.6
			c0.8-0.5,1.5-1.7,2.1-2.5c0.3-0.5,0.8-0.8,1.1-1.2l-0.3-0.4c-0.9,0.9-0.8,1-1.6,2.1c-1.9,2.7-3.3,2.1-4.4,3.7
			c-0.4,0.6-0.7,1.4-1.2,2.1c-0.9,1.3-2.1,1.1-1.7,1.4c0.5,0.5,1.8-0.3,2.2-0.9c0.3-0.5,0.6-1.1,0.7-1.3c0.9-1.3,2.5-1.8,3.6-2.4
			c0.9-0.5,1.7-2,2.5-2.7C776.2,191.8,776.7,191.6,776.8,191.4L776.8,191.4z M775,190.5c0,0.4-1.8,2.7-2.6,3.3
			c-0.8,0.5-2.4,1.1-3,2.1c-0.5,0.8-0.6,1.3-1.2,2.2c-0.5,0.7-1.4,0.7-1.5,0.9c-0.2,0.2,0,0.5,0.1,0.6c0.5,0.5,2.1-0.2,2.6-1
			l0.8-1.3c0.7-1.2,3-1.9,3.4-2.2c0.7-0.6,1.4-1.3,2-2.1c0.2-0.3,0.9-0.9,1.1-0.9c-0.8,1.1-5.2,7.9-5.5,8.3c-0.1,0.3-2.1,2.2-1.3,3
			c0.4,0.2,0.7-0.3,1-0.8c0.3-0.4,0.7-0.8,1-1.2c0.6-0.9,1.3-1.7,2-2.6c1.2-1.8,2.7-3.4,3.9-5.2c-0.2,0.9-0.7,3-1,3.8
			c-0.3,0.6-1.1,1.7-1.6,2.3c-1.3,1.9-0.3,3.4-1.6,5.2c-0.2,0.3-0.9,0.4-0.3,0.9c0.5,0.4,1.2-0.3,1.6-0.8c1.1-1.5,0-2.7,2.4-5.6
			c1.9-2.1,1.2-3.3,2.4-5c-0.2,1.1-1.4,6.6-1.5,7.5c0,0.4-0.7,3.2-0.7,3.7c-0.1,0.6-0.6,2-0.1,2.4c0.2,0.2,0.6,0,0.6-0.3l2.6-9.5
			l0.7-2.7l0,0c0.2,1.5,0.4,2.8,0.3,4.4c-0.1,0.9-0.6,2-0.7,2.9c-0.1,1.3,0.1,1.6,0.4,2.8c0.2,0.9,0.4,1.9-0.3,2.8l0,0.3
			c0.5,0.5,0.7,0.3,1.1-0.3c1-1.5,0-3.2,0.1-4.9c0.1-1.1,0.4-1.6,0.6-2.5c0.1-0.4,0.2-0.9,0.3-1.2c0.3-1.3-0.5-3.3,0.1-4.4
			c0.1,0.9,1.9,13.4,2.1,13.6c1.2,1.1,0.6-2.2,0.6-2.7l-0.5-5.5c-0.2-1.6-0.4-3.6-0.5-5.2c0.1,0,1.1,2.1,1.2,2.5
			c0.9,2.2,0.4,3.6,1.2,5.5c0.2,0.4,0.7,1.4,1.1,1.7c0.1,0.4,0.5,0.9,0.6,1.5c0.2,0.8-0.1,1.3,0.1,1.5c0.6,0.6,1.4-1.4,0.4-3.3
			c-0.8-1.4-0.9-1.4-1.2-3c-0.3-1.6,0-2.8-0.7-4.5c-0.6-1.6-0.7-1-1-2.8l0,0c0.4,0.7,1.4,2.8,1.6,3.1c0.7,1,2.2,4.2,3,5.6
			c1.1,1.9,1.8,4.2,2.4,3.2c0.2-0.3-0.4-1.3-0.5-1.6c-0.2-0.4-0.5-1.2-0.7-1.5l-2.8-6.2c-0.2-0.6-1.3-2.7-1.4-3.1
			c0.9,0.8,2,1.8,2.6,2.7c0.9,1.2,1.2,3.2,2.6,4.3l1.4,1c1.4,1.2,1.1,2,1.5,2.4c0.2,0.2,0.4-0.1,0.5-0.2c0.4-0.6-0.4-2.4-1.1-3
			c-0.4-0.3-0.8-0.5-1.2-0.9c-1.3-1.4-1.5-2.9-2.1-3.8l-0.7-1.2c-0.5-0.6-2-1.8-2.2-2.8c1.1,0.9,2.3,2,3.4,2.9
			c1.2,1.1,2.3,2,3.4,3.1c0.5,0.5,1.2,1.2,1.7,1.6c0.8,0.6,1.3,1.5,1.8,0.8c0.4-0.5-1.4-2-1.9-2.5c-0.5-0.5-2-1.9-2.4-2.4
			c-0.5-0.6-4-4.1-4.8-4.9c0.1,0,1.6,0.6,1.9,0.7c2.8,1.1,2.9,2.7,5.1,3.6c1,0.4,2,0.1,3.1,1.1c0.3,0.3,0.6,1.1,1,0.6
			c0.4-0.6-0.5-1.6-1-2c-1-0.9-2.5-0.5-3.8-1.9c-1.3-1.3-2.3-2.6-3.9-3.1c-0.7-0.2-0.9-0.3-1.6-1l4.2,1.4l7.3,2.4
			c0.5,0.1,0.6-0.5,0.3-0.9c-0.2-0.2-9.3-4-11.2-4.8l1.9-0.1c0.3-0.1,1.1,0,1.5,0.1c1.5,0.1,2.5,1.8,5.6,0.8
			c1.9-0.6,2.4,0.9,2.8,0.4c0.4-0.5-0.3-1-0.6-1.3c-0.4-0.4-1.1-0.5-1.6-0.5c-0.4,0-0.9,0.1-1.3,0.2l-1.3,0c-1-0.1-2-0.9-3.1-1.2
			c-1.4-0.4-3,0.1-4.1-0.5c0.3-0.1,8.5-1,9.7-1.1c0.5-0.1,1.9-0.1,2.2-0.5c0.3-0.4-0.2-0.8-0.5-0.8l-1.8,0.1c-1.2,0-7.9,0.2-8.5,0.4
			l-1.1,0l2.2-1.2c0.9-0.8,3.1-0.4,4.3-0.8c1.1-0.4,1.9-1.6,3.1-1.9c0.5-0.1,0.7,0,1.1,0.1l0.3-0.3c-0.1-0.4-0.2-0.4-0.5-0.7
			c-0.5-0.4-1.4-0.2-1.9-0.1c-1.1,0.3-1.3,1.4-3.7,1.6c-1.4,0.1-2.3-0.1-3.7,0.6c-0.7,0.4-1.4,0.7-2.2,0.8l2.1-1.4l1.8-1.1
			c1-0.9,5.8-3.5,6.3-4.2c0.2-0.2-0.1-0.5-0.2-0.6c-0.3-0.3-2.7,1.2-3.2,1.5c-1,0.6-2.2,1-3.2,1.7c-0.3,0.2-0.8,0.4-1.1,0.5
			c-0.7,0.4-1.3,0.7-2,1.1c-0.4,0.2-0.6,0.4-1.1,0.6c0.3-0.5,1-1.5,1.3-1.8c0.2-0.2,0.4-0.5,0.7-0.8c0.7-0.9,2.7-1.3,3.6-2.6
			c0.5-0.7,0.7-1.5,1.2-2.2c0.6-0.9,1.5-0.8,1.6-1c0.5-0.8-1.6-1.4-2.8,0.6l-0.6,1.1c-0.3,0.6-2.2,1.8-2.5,1.8
			c-0.4,0.1-1.4,0.8-1.7,1.2c-0.4,0.4-1.6,2.3-2.2,2.3l2.2-3.4c0.9-1.3,1.6-2.6,2.6-3.9c0.5-0.7,0.8-1.3,1.2-1.9
			c0.4-0.5,1.2-1.5,0.8-2c-0.4-0.4-0.7,0-1,0.5c-1.5,2.1-3.3,4.1-4.7,6.3c-0.7,1-1.5,1.9-2.2,2.8c-0.1-0.2,0.5-2.5,0.6-2.9
			c0.3-1.1,1-1.9,1.8-3c1.4-1.9,0.5-3.7,1.5-5.1c0.5-0.7,0.4-0.4,0.7-0.8c0.3-0.5-0.8-1-1.6,0.1c-1.5,2.1,0,2.6-2.3,5.5
			c-0.4,0.5-0.7,0.8-1.1,1.4c-0.7,1.1-0.5,2.5-1.6,4c0.4-1.8,2.6-12.7,2.6-13.1c0-0.5-0.6-0.8-0.9-0.2c-0.1,0.2-3,11-3.3,12.3
			l-0.1,0l-0.2-1.6c-0.1-1.2-0.2-1.9,0.1-3.2c0.2-0.9,0.6-1.8,0.6-2.7c0-1.2-0.1-1.5-0.4-2.6c-0.6-2.6,0.8-2.5,0.1-3.2
			c-0.1-0.1-0.5,0-0.6,0.1l-0.4,0.5c-0.4,0.6-0.5,2-0.3,2.6c0.8,2.9-0.5,4.7-0.6,5.6c0,0.6-0.1,0.6-0.1,1.4c0,1.1,0.4,2.3,0,3.2
			c-0.1-0.8-0.9-6.3-1-6.8c-0.2-1-0.9-6.5-1.2-6.8c-0.2-0.2-0.4-0.2-0.6,0c-0.3,0.4,0,2.1,0.1,2.6c0.3,3.6,0.6,7.3,1,10.9l-0.1,0
			c-0.8-1.6-1.8-3.4-1.9-5.3c-0.1-3.6-2-4.3-2.2-5.9c-0.2-1.3,0.2-1.2-0.2-1.6c-0.4-0.4-1.2,0.8-0.5,3c0.3,0.9,1,1.4,1.2,2.6
			c0.3,1.6,0.2,3.5,0.7,5l0.9,2.1c0.1,0.2,0.2,0.9,0.2,1c-1.2-2.2-6-11.5-6.3-11.9c-0.4-0.6-1-0.2-0.8,0.3
			c0.2,0.7,5.4,11.9,5.5,12.1c-1-0.9-2.6-2.3-3.1-3.3c-0.5-1.2-1.2-2.9-2.3-3.8l-1.2-0.8c-1.4-1.1-1.1-2-1.5-2.4
			c-0.1-0.1-0.3,0-0.4,0.1c-0.6,0.8,0.3,2.5,1,3.1c0.4,0.4,0.9,0.6,1.3,1c1.6,1.6,1.3,3.7,3.7,6c0.9,0.8,1,1.4,1.3,1.6l-0.1,0.1
			l-1.4-1.3c-0.2-0.1-5.8-5.1-6.7-5.9c-0.3-0.3-0.8-0.7-1.1-0.9c-0.4-0.3-0.7-0.8-1.1-0.3c-0.4,0.6,1.2,1.7,1.6,2.3
			c0.4,0.5,1.6,1.7,2.2,2.2l5.3,5.4c-0.1,0-1.7-0.7-2-0.8c-2.3-0.7-3.4-3.1-5.2-3.7c-1.1-0.3-1.9-0.1-3.1-1.3
			c-0.2-0.2-0.4-1-0.8-0.5c-0.4,0.6,0.4,1.5,0.8,2c1.2,1.1,2.5,0.5,4.1,2.1c0.6,0.6,1.2,1.3,1.9,1.9c1,1,2.2,0.9,3.2,1.8l0.2,0.2
			l-2.2-0.7c-0.9-0.2-6-2-7.3-2.5c-0.4-0.1-0.9-0.3-1.2-0.4c-0.4-0.1-0.9-0.4-1.2,0c-0.1,0.2,0,0.5,0.2,0.6l9.8,4.2
			c0.5,0.2,0.9,0.3,1.4,0.6c-1.1,0.1-3,0.3-4,0c-1.7-0.6-2.4-1.3-4.2-0.9c-0.8,0.2-1.5,0.5-2.4,0.2c-0.4-0.1-0.9-0.8-1.2-0.4
			c-0.5,0.7,1.3,2.1,2.9,1.7c0.9-0.2,1.2-0.3,2.2-0.1c0.5,0.1,1.8,0.7,2.3,1c1.5,0.8,3.2-0.1,4.5,0.6c-1.5,0.2-7.3,0.8-8.1,1
			c-0.5,0.2-3.6,0.3-3.7,0.5c-0.3,0.4-0.2,0.5,0.1,0.9c0.1,0.1,11.8-0.4,11.8-0.4c-1,0.6-2.6,1.6-3.7,1.7c-1.2,0.1-2.9-0.1-3.9,0.9
			c-0.5,0.4-1.4,1.1-1.9,1.3c-1.2,0.3-1.3-0.2-1.6,0.1c-0.4,0.6,0.6,1.1,1.2,1.1l1.2-0.2c0.9-0.3,1-1.2,3.2-1.5
			c1-0.2,2.2,0.1,3.3-0.2c0.6-0.2,2-1.3,2.9-1.1c-1.5,0.9-9.9,6.3-10,6.5c-0.5,0.7,0.2,1,0.5,0.9C766.1,195.4,773.1,191.4,775,190.5
			L775,190.5L775,190.5z M774.8,190.3l0.9-0.5l-0.2-0.4l-5.2,2.7l4.9-3.2l-0.2-0.3c-0.7,0.3-8.9,5.7-10.3,6.6l0,0
			c-0.1,0.1-0.3,0.3-0.1,0.4c0.2,0.2,2.2-0.9,2.6-1.1C767.8,194,774.2,190.5,774.8,190.3L774.8,190.3z M774.5,188.2l0.4-0.1
			l-0.1-0.5c-0.3,0-1.1,0.1-1.4,0.2c-1,0.4-1.8,1.1-2.8,1.2c-0.3,0-1.2,0-1.4-0.1c0.2-0.1,1.1-0.1,1.4-0.1c0.9-0.1,2.7-1.4,4-1.9
			l-0.1-0.5l-0.7,0.2c-1,0.5-1.9,1.2-3,1.6c-0.7,0.2-3,0.1-3.2,0.4c-1.2-0.2-3,2.8-4.6,1.9c-0.4,0.6,1.4,1.1,2.9-0.1
			c2.3-1.8,3.7-0.4,5.7-1.3C772.5,188.9,773.7,188.1,774.5,188.2L774.5,188.2z M773.8,186.2l-9.9,0.3c-2.4,0.4-2.8-0.5-0.2-0.5
			c1,0,10.4-1.3,10.5-1.2c0.1,0.1,0.1,0.3,0.1,0.4c-2,0.2-4,0.4-6,0.7c0.7,0.1,5.9-0.3,6-0.1c0.1,0.1,0.1,0.3,0.1,0.4L773.8,186.2
			L773.8,186.2z M773.7,184.2c-1.3-0.7-3,0.2-4.6-0.7c-1-0.4-1.7-0.9-2.7-1c-1.5-0.2-2.8,0.8-4.2-0.5c-0.2-0.2-0.4-0.5-0.3-0.6
			c0.1-0.1,0.4,0.2,0.6,0.3c1.9,0.8,3.4-0.7,5.4,0.2c0.6,0.3,1.7,0.8,2.4,0.8l3.9-0.1c0.1,0.1,0,0.4,0,0.6c-1.7-0.2-2.8,0.2-4.3,0
			c-0.2,0-1.4-0.5-1.4-0.5c0.7,0.4,1.2,0.8,2.1,0.9c0.8,0.1,2.9-0.2,3.6,0.4l0,0.4L773.7,184.2L773.7,184.2z M784.7,196.7
			c-0.1-0.3-0.2-2.1-0.3-2.2c0,0-0.3,0-0.3,0.1c-0.1,0.1,0.6,6,0.5,6.7l-1-6.7l-0.1-0.1l-0.3,0c0,0.6,0.9,5.8,1,7c0.1,0.6,1,7,1.1,7
			l0.2,0.2c0.3-0.5-0.1-2.4-0.1-3.1C785.5,204.6,784.6,197.6,784.7,196.7L784.7,196.7z M785.1,195.3c0.2,0.2,0.6,1.2,0.8,1.6
			c0.9,1.9,0.9,2.8,1.1,4.7c0.3,2.3,1.5,2.9,2.1,4.7c0.3,0.8,0,1.4,0.1,1.6c0.7,0.1,0.4-1.6,0.4-1.9c-0.2-1.4-1.8-2.6-1.8-5.1
			c0.1-2.7-0.7-3.3-1.3-5.2c-0.3-1-0.1-2.1-0.7-1.6c0.1,0.5,0.2,1,0.3,1.6c0.3,1.2,1.1,1.9,1.2,3.2c0,0.3,0.1,1.4,0,1.6
			c-0.1-0.4-0.1-1.1-0.2-1.6c-0.3-1.2-0.9-2-1.3-3.2c-0.1-0.2-0.6-1.6-0.6-1.6c0,0-0.3,0-0.4,0.1
			C784.7,194.6,785.1,195.1,785.1,195.3L785.1,195.3z M776.7,176.9c0.1,0.1,0.2,0.3,0.2,0.4l-0.3,0.3l-0.4-0.8
			c-0.6-1.3-2.1-1.9-2.8-3.7c-0.6-1.5-1.1-3-2.3-4l-1.1-0.8c-0.4-0.3-1.4-1.9-0.9-2.7c0.2,0.2,0.1,1.2,1.5,2.4
			c1,0.8,1.7,0.9,2.3,2.2c0.4,0.7,1.1,2.3,1.3,2.8c0.3,0.5,2.8,3.1,3.4,3.6l-0.3,0.4l-0.1-0.1c-0.2-0.5-1.7-2-2.3-2.5
			c-1.2-1.2-1-1.7-1.6-2.6c0,0.5,0.8,2.2,1.2,2.7c0.7,0.7,1.3,1.1,1.8,1.9C776.4,176.4,776.5,176.7,776.7,176.9L776.7,176.9z
			 M778.8,175.4c0.1,0.5,0.4,0.1-0.1,0.6l-3.2-6c0,0.4,2.9,6.1,2.7,6.3c-0.1,0.1,0,0-0.2,0.1l-0.1-0.1c0-0.2-1.3-2.9-1.5-3.2l-3-6.5
			c-0.2-0.5-0.5-1.1-0.7-1.6c-0.1-0.3-0.8-1.4-0.6-1.6c0.1-0.1,0.2-0.1,0.2,0c0.3,0.3,4,7.7,4.8,9.1
			C777.7,173.3,778.3,174.6,778.8,175.4L778.8,175.4z M782.2,174.9l0,0.2c-0.5,0.1-0.4-0.2-0.6-1.4l-0.7-4.9l-0.1,0
			c0,0.2,0.6,6.2,0.5,6.3c-0.1,0.1-0.4,0.1-0.4-0.2c0-0.7-0.2-2.7-0.3-3.5c-0.2-2.3-0.4-4.7-0.6-7c-0.1-0.7-0.4-3.2-0.1-3.6l0.2,0.2
			c0.1,0.1,1,6.3,1.1,6.9c0.1,1.2,0.4,2.3,0.5,3.5C781.8,172.2,782,174.2,782.2,174.9L782.2,174.9z M780.6,174.8l0.1,0.4
			c-0.1,0.1-0.4,0.2-0.5,0.1c0,0-0.5-1.4-0.6-1.6c-0.4-1-1.2-2.1-1.3-3.2c0-0.2-0.1-1.5-0.2-1.6c-0.5,3,1.7,4.6,1.5,6.6
			c-0.2,0.1-0.4,0.2-0.4-0.1c0.1-0.9-0.6-2.3-1-3.3c-0.7-1.5-0.4-3.1-0.7-4.6c-0.3-1.7-0.9-2-1.5-3.4c-0.2-0.4-0.5-2.5,0.2-2.4
			l0,1.2c0.2,1.4,1.6,2.7,1.7,3.4c0.3,0.5,0.5,2.1,0.5,2.6C778.8,171.8,779.5,172.2,780.6,174.8L780.6,174.8z M791.2,186.4
			c1.7,0.2,2.9-0.2,4.2,0c0.3,0,1.4,0.5,1.5,0.5c-0.7-0.7-2-0.9-2.8-0.8c-0.4,0-1,0.1-1.4,0.1c-0.2,0-1.3-0.3-1.4-0.4
			c-0.1-0.1,0-0.4,0-0.5c2.2,0.6,1.7,0.3,3.6,0.4c1.9,0.1,3.5,1.9,5.5,1.4c3-0.8,3.8,1.8,2.8,0.9c-0.6-0.5-1.7-0.4-2.4-0.3
			c-1.2,0.3-1.8,0.5-3.2,0c-1.4-0.5-1.9-0.9-3.3-0.9c-1.1,0-2.1,0.2-3.2,0.1L791.2,186.4L791.2,186.4z M791.9,184.8
			c-0.4,0.1-0.7,0.3-0.7-0.3l6-0.7c-0.3-0.2-5.9,0.3-6.1,0.1c-0.1-0.1-0.1-0.3-0.1-0.4l2.1-0.1c0.5,0.1,1.9-0.1,2.6-0.1
			c0.8,0.1,1.8-0.2,2.6-0.1c0.7,0.1,4.9-0.3,5.1-0.1c0.1,0.1,0,0.2,0,0.3c-0.2,0.2-5.1,0.6-5.8,0.7c-0.9,0.2-2,0.1-2.9,0.4
			C794.1,184.7,792.6,184.6,791.9,184.8L791.9,184.8z M791.3,183.1l-0.2,0l-0.1-0.5c2.3-0.7,3-1.9,4.5-1.9l0.9-0.1l-0.2-0.1
			c-0.1,0-1.1,0-1.4,0c-1,0.1-1.7,0.9-2.7,1.2c-0.3,0.1-1.1,0.3-1.4,0.2l-0.1-0.4l1-0.2c1.2,0,2-1.4,4.4-1.3c0.8,0,2.4,0,3.2-0.7
			c0.8-0.8,2.4-1.6,3.4-0.6l0,0.3c-1.5-0.9-3.3,1.7-4.8,1.9c-0.4,0.1-1.8,0.2-2.3,0.1c-0.7,0.2-1.4,0.3-2.1,0.8
			C792.7,182.3,792,182.7,791.3,183.1L791.3,183.1z M793.5,179.2l-3,1.9l-0.2-0.3l4.9-3.1l0-0.1l-5.1,2.7l-0.2-0.4
			c1.2-0.7,5.4-2.8,5.8-3.1c0.8-0.6,1.8-0.9,2.6-1.4c0.4-0.2,2.4-1.5,2.6-1.2c0.1,0.1,0,0.2,0,0.3
			C800.7,174.6,794.5,178.5,793.5,179.2L793.5,179.2z M790.1,179.1l-0.5,0.4l-0.3-0.4c0.3-0.5,0.7-0.7,1.2-1.4c0.6-0.8,1.2-2,2-2.4
			c0.2-0.1,1-0.5,1.1-0.6c-0.2,0-1,0.3-1.2,0.5c-1.4,0.8-1.5,1.7-2.3,2.4c-0.4,0.4-0.9,0.6-1.2,0.9l-0.3-0.4
			c0.4-0.4,1.1-0.5,1.7-1.5c2.1-3,3.7-2,5.2-4.1c0.3-0.5,0.5-1,0.9-1.5c0.4-0.6,1.7-1.3,2.1-0.8c0.3,0.3-0.9,0.2-1.6,1.3
			c-0.4,0.7-0.4,0.9-1.3,2.2c-0.6,0.9-1.8,1.3-2.6,1.8C791.9,176.4,791,177.8,790.1,179.1L790.1,179.1z M784,174.8l0,0.4l-0.5,0
			c0.3-1.9-0.5-3.5-0.2-5.1c0.1-0.4,0.4-1.5,0.4-1.7c-1.3,2.8-0.4,3.5-0.6,5.2c0,0.6-0.2,1-0.2,1.6l-0.5,0c0.4-1,0.3-2.3,0.2-3.4
			c-0.3-2.5,1.2-3.9,0.9-6.7c-0.1-0.6-0.3-1-0.3-1.6c0-1,0.1-1.4,0.7-2.1c0.1-0.1,0.2-0.1,0.4,0c-1.2,2,0.2,3.5,0.1,5.6
			c-0.1,1.9-1.1,3-0.6,5.6L784,174.8L784,174.8z M785.1,175.6l1.4-6.5l-1.8,6.4c-0.2-0.1-0.2,0-0.3-0.2c-0.1-0.1,1.7-6.4,1.9-7.1
			c0.1-0.6,1.5-5.9,1.7-6.2c0.1-0.1,0.1-0.1,0.2,0c0.1,0.1-0.8,4.5-0.9,5.1c-0.1,0.5-0.2,1.3-0.3,1.7c-0.3,0.9-1.2,6.3-1.4,6.9
			L785.1,175.6L785.1,175.6z M803.1,192.5c-0.1,0.1-0.1,0.2-0.2,0.2l-11.9-4l-0.1-0.1l0.1-0.4l5.8,2l-5.7-2.5l0.1-0.4
			c2,0.9,11.5,4.7,11.8,5C803.1,192.4,803.1,192.5,803.1,192.5L803.1,192.5z M786.6,194.1l-0.1-0.1l0.3-0.2l3.1,5.9
			c-0.1-0.7-2.8-5.9-2.6-6.1c0-0.1,0.1-0.1,0.2-0.2c0.3,0.5,2.8,6.1,3,6.6c0.4,0.9,3,6.1,2.8,6.4l-0.1,0.1c-0.6-0.3-1.2-2.2-1.8-3.2
			c-0.2-0.2-1.4-2.6-1.6-3.1c-0.5-1-1.2-2.1-1.6-3.1C788.1,196.9,786.6,194.1,786.6,194.1L786.6,194.1z M790.2,195.6
			c-0.1-0.3-1.7-1.6-2.1-2.1c-0.4-0.5-0.3-0.3,0-0.7c0.3,0.3,0.7,1,1,1.3c0.8,0.7,1.9,1.6,2.4,2.6c0.2,0.4,0.5,1.1,0.7,1.4
			c0-0.5-0.8-2.2-1.4-2.8c-0.5-0.4-1-0.9-1.4-1.4c-0.3-0.5-0.6-1-0.9-1.4l0.3-0.3c0.6,0.9,0.5,1.2,1.6,2.2c2,1.9,1.7,3,2.5,4.2
			c0.3,0.5,0.8,1.5,1.3,1.9c0.5,0.3,0.9,0.7,1.3,1.1c0.4,0.4,1.1,1.9,0.8,2.4l-0.1,0.2c-0.2-0.3-0.1-1.2-1.5-2.3
			c-0.6-0.5-1.1-0.7-1.6-1.2C791.9,199.2,792,197.2,790.2,195.6L790.2,195.6z M792,194.3l-2.8-2.5l0.2-0.3l4.7,4.2l0,0l-4.5-4.6
			l0.2-0.3c1.8,1.7,3.4,3.5,5.4,5.4c0.7,0.6,1.6,1.6,2.3,2.3c0.3,0.4,0.7,0.7,1.1,1.1c0.3,0.3,1.1,0.8,0.9,1.1
			c-0.2,0.3-1.5-1.1-1.9-1.4c-0.5-0.5-1.4-1.2-1.9-1.7C794.5,196.5,793.2,195.4,792,194.3L792,194.3z M790.4,190.6l-0.3-0.2
			c0.4-0.7,0.2-0.4,1.5,0.3c1.8,0.9,1.6,0,3.9,2.2c-1.1-1.5-1.2-1.5-2.9-2.2c-0.8-0.3-1.3-0.6-2-1.3l0.2-0.4l0.8,0.7
			c1,0.9,2.4,0.9,3.6,2.1c1.3,1.3,1.9,2.3,3.6,2.9c0.9,0.3,1.3,0.2,2.2,1.1c0.4,0.4,0.8,1,0.5,1.4c-0.5-0.5-0.4-1.1-2-1.6
			c-0.4-0.1-1.3-0.2-1.5-0.3c-2.5-1.1-2.4-2.6-5.4-3.8C792,191.3,790.7,190.9,790.4,190.6L790.4,190.6z M764,172.9
			c0-0.1,0-0.2,0.1-0.3c0.2,0.2,0.2,0.4,0.5,0.8c1,1,2,0.9,2.9,1.1c2.1,0.6,2.7,2.9,5.8,3.9c0.6,0.2,1.3,0.5,1.9,0.8
			c0.4,0.2,0.3,0.2,0.1,0.6c-0.4-0.4-2.1-1.1-2.6-1.2c-1.1-0.3-1.5-0.6-2.7-1.7c0.2,0.3,0.5,0.6,0.8,0.9c1.5,1.4,2.4,0.8,4.2,2.6
			l-0.2,0.4c-1.9-1.8-2.6-1.1-4.2-2.7l-0.8-0.8c-0.4-0.4-0.5-0.6-0.9-1c-1.6-1.5-2.8-0.9-4.1-2.1C764.3,173.6,764.1,173.3,764,172.9
			L764,172.9z M787.6,176.9c1.3-1.8,2.7-3.5,4-5.3c0.6-0.8,1.4-1.8,2-2.6c0.3-0.4,1.7-2.5,2-2.3c0.2,0.2-0.5,1.1-0.6,1.4
			c-0.3,0.5-0.6,0.9-0.9,1.4c-1.8,2.6-3.7,5.7-5.5,8.4l-0.3-0.3c0.4-0.6,3.1-4.6,3.2-5l-3.6,4.6l-0.3-0.3L787.6,176.9L787.6,176.9z
			 M773,181.8l-5.1-2.2c-1-0.5-5-1.9-5.4-2.3c-0.1-0.1,0,0-0.1-0.2l0.1-0.1c0.2-0.2,2.3,0.7,2.6,0.8c0.4,0.1,2.4,0.8,2.7,0.9
			l6.3,2.1l0.5,0.2l-0.1,0.3l-5.8-1.9l5.7,2.5c-0.1,0.1,0,0.2-0.1,0.3C774.3,182.4,773.2,181.9,773,181.8L773,181.8z M772.1,174.1
			l4.2,3.7l-0.2,0.4l-4.9-4.4l0,0c1.2,1.2,3.6,3.8,4.7,4.8l-0.2,0.3c-1.7-1.6-3.2-3.3-4.9-4.9c-0.7-0.7-1.7-1.7-2.4-2.5
			c-0.7-0.7-1.9-1.8-2.3-2.5c0.3-0.4,0.4,0,0.7,0.2C767.3,169.8,771.7,173.7,772.1,174.1L772.1,174.1z M791,164.8
			c0.3-0.4,0.9-0.8,1.2-0.5c-0.2,0.3-0.5,0.4-0.7,0.7c-0.6,0.9-0.6,2.1-0.7,3c-0.2,2.3-2.1,3-2.9,6c-0.2,0.7-0.4,2.3-0.8,2.9
			l-0.4-0.3c0.4-0.6,0.8-2.2,0.9-2.9c0.2-1.2,0.4-1.6,1.3-2.8l0,0c-0.3,0.3-0.6,0.6-0.8,0.9c-1,1.6-0.6,2.6-1.9,4.6l-0.4-0.3
			c0.7-1,0.9-1.3,1.2-2.5c0.5-2.1,0.8-2,1.9-3.4C790.9,167.4,789.8,166.5,791,164.8L791,164.8z M779.6,189.1c-0.3-0.3-0.4-0.7-0.5-1
			c0-0.4-0.3-0.7-0.3-1l0,0c2.4,3,1,1,2.7,2.6c-0.1,0-1.5-0.2-1.7-0.3L779.6,189.1L779.6,189.1z M778.7,186.9c0.4-0.1,1.1,0,1.5,0.4
			c0.3,0.3,0.2,0.5,0.4,0.7c0.2,0.1,0.5,0.3,0.8,0.5c0.3,0.3,0.5,1.1,0.5,1.5l-1-1.2c-0.1,0-0.5-0.2-0.7-0.3
			c-0.2-0.2-0.3-0.6-0.4-0.7L778.7,186.9L778.7,186.9z M778.3,186.8c0.1,0,0.8,0,1,0c1.1,0,1.1,0.6,1.4,1c0.1,0.1,0.5,0.2,0.7,0.4
			c0.6,0.6,0.3,1.5,0.7,2.1l-0.1,0.1c-1-0.9-1.4,0.1-2.2-0.6l-0.1,0.1c0.3,0.5,0.4,1.2,0,1.8c0-0.5,0.4-1.1-0.4-1.8
			c-0.9-0.9-1.2-0.2-1.7-0.1c0.4-0.6,1-0.7,1.5-0.5l0.1-0.1c-0.3-0.3-0.4-0.7-0.4-1C778.8,187.5,778.9,187.5,778.3,186.8
			L778.3,186.8z M780.6,184.6l0.3,0.2c-0.2,0-0.5-0.2-0.6,0c-0.2,0.2-0.3,0.5,0,0.7c0.3,0.3,0.4,0.1,0.7,0c-0.2,0.3,0,0.8,0.2,1.1
			c0.5,0.5,0.7,0.4,1.2,0.3c-0.2,0.6,0.3,1.2,0.7,0.7c0.2-0.3,0-0.3,0.1-0.6c0.7,1-0.4,1.5-0.7,1.1c-0.3-0.3-0.4-0.7-0.5-0.7
			c-0.1-0.1-0.5-0.2-0.8-0.5c-0.3-0.3-0.5-0.7-0.6-0.8c0,0-0.4-0.1-0.5-0.2C779.5,185.3,780,184.3,780.6,184.6L780.6,184.6z
			 M779.6,181.3l-0.3-0.9l0.1,0c0.4,0.6,0.5,1.2,1.2,1.8c0.8,0.8,1.5,0.5,2,0.9l-0.1,0.1c-0.4-0.1-1.1,0.1-1.5-0.3
			C780.1,182.1,780,182,779.6,181.3L779.6,181.3z M781,180.6c-0.4,0-0.6,0.3-0.7,0.7l-0.1,0l-0.3-0.9
			C780.2,180.4,780.9,180.4,781,180.6L781,180.6z M781.1,182.1c0.4,0,0.5-0.4,0.5-0.8c0.2,0,0.3,0.8,0.3,1c-0.2,0.1-0.8,0-1-0.2
			L781.1,182.1L781.1,182.1z M781.8,181.1c0.3,0.3,0.5,1.3,0.5,1.7c-0.4-0.1-0.9-0.1-1.4-0.6c-0.5-0.5-1.5-1.6-1.3-2.1
			c0,0,0.9,0.1,1,0.2C781.4,180.4,781.6,180.9,781.8,181.1L781.8,181.1z M779.1,179.7c0.3-0.5,2.1-0.1,2.6,0.6
			c0.5,0.7,0.6,0.8,0.8,1.6c0.1,0.5,0.4,0.9,0.4,0.9c-0.4,0.6-0.5-1.6-1.1-2.1l-0.4-0.4C780.4,179.4,779.5,180,779.1,179.7
			L779.1,179.7z M779.5,178.6c0.2,0,0.5,0,0.7-0.1c0.7-0.1,1.7,0.2,2.3,0.8c0.7,0.7,1,1.3,1.4,2.2c0.1,0.5,0.1,0.5,0,1
			c-0.8,2.2-2.2,2.3-2.6,2.8l-0.1-0.1l0-0.2L781,185c1.3-0.3,1.7-0.7,2.4-2c-0.1-0.2,0.5-1-0.3-2.1c0.1-0.3-0.5-0.8-0.7-1.1
			c-1.2-1.1-2.5-0.9-3-1.1L779.5,178.6L779.5,178.6z M782.9,185.4c0.6-1.3,0.6-1.3,1.6-2.2c0.3-0.3,0.4-0.3,0.8-0.2
			c1,0.2,1.5,0.4,2.2,1.1c0.8,0.8,1.4,3.2,1.1,3.3c-0.4-1-0.5-2.2-1.5-3.1c-0.5-0.5-1.7-1.2-2.3-0.9c-0.4,0.2-0.8,0.4-1.1,0.9
			c-0.4,0.6-0.9,1.8-0.7,2.5l-0.4-0.1L782.9,185.4L782.9,185.4z M784.2,184.9l0-0.1c0.4,0.4,0.3,1.2,1.2,2.1c0.5,0.4,1.6,0.9,1.7,1
			c-0.3,0-1.3-0.2-1.6-0.5C784.2,186.1,784.7,186.6,784.2,184.9L784.2,184.9z M785.9,185.4c-0.5,0-0.5,0.6-0.5,0.9
			c-0.3-0.3-0.4-0.9-0.4-1.2l1,0.1L785.9,185.4L785.9,185.4z M786.6,186l0-0.1c0.2,0.2,0.4,0.9,0.4,1.2l-0.9-0.2
			C786.2,186.8,786.8,186.6,786.6,186L786.6,186z M787.3,187.5c-0.2-0.1-0.5-0.1-0.9-0.3c-0.9-0.5-1.5-1.2-1.8-2.3
			c0.4-0.1,1.3,0,1.7,0.4c1.1,1.1,0.8,1.6,1.1,2.1L787.3,187.5L787.3,187.5z M785.8,184.6c0.3,0.1,0.7,0.3,1,0.6
			c0.7,0.7,0.8,1.4,1,2.1l0,0.6l-0.1,0c-0.6-0.9,0.4-1.1-1.4-2.9c-0.5-0.5-2.5-0.1-2-0.8c0.1-0.1,0.3,0.2,0.5,0.2L785.8,184.6z"/>
	</g>
</g>
<g id="XMLID_134_" class="st0">
</g>
<g id="XMLID_136_" class="st0">
</g>
<g id="XMLID_137_" class="st0">
</g>
<g id="XMLID_138_" class="st0">
</g>
<g id="XMLID_139_" class="st0">
</g>
<g id="XMLID_140_" class="st0">
</g>
</svg>
