<?xml version="1.0" encoding="utf-8"?>
<!-- Generator: Adobe Illustrator 19.0.0, SVG Export Plug-In . SVG Version: 6.00 Build 0)  -->
<svg version="1.1" id="Capa_1" xmlns="http://www.w3.org/2000/svg" xmlns:xlink="http://www.w3.org/1999/xlink" x="0px" y="0px"
	 viewBox="0 0 302 152" style="enable-background:new 0 0 302 152;" xml:space="preserve">
<style type="text/css">
	.st0{clip-path:url(#XMLID_139_);}
	.st1{fill-rule:evenodd;clip-rule:evenodd;fill:url(#XMLID_140_);}
	.st2{fill:#FFFFFF;}
	.st3{fill-rule:evenodd;clip-rule:evenodd;fill:url(#XMLID_141_);}
	.st4{fill-rule:evenodd;clip-rule:evenodd;fill:url(#XMLID_142_);}
	.st5{fill-rule:evenodd;clip-rule:evenodd;fill:url(#XMLID_143_);}
	.st6{fill-rule:evenodd;clip-rule:evenodd;fill:url(#XMLID_144_);}
	.st7{fill-rule:evenodd;clip-rule:evenodd;fill:url(#XMLID_145_);}
	.st8{fill-rule:evenodd;clip-rule:evenodd;fill:url(#XMLID_146_);}
	.st9{fill-rule:evenodd;clip-rule:evenodd;fill:url(#XMLID_147_);}
	.st10{fill-rule:evenodd;clip-rule:evenodd;fill:#FBBA00;}
	.st11{fill-rule:evenodd;clip-rule:evenodd;fill:#873006;}
</style>
<defs>
	<rect id="XMLID_131_" width="302" height="152"/>
</defs>
<clipPath id="XMLID_139_">
	<use xlink:href="#XMLID_131_"  style="overflow:visible;"/>
</clipPath>
<g id="XMLID_66_" class="st0">
	<radialGradient id="XMLID_140_" cx="154.0199" cy="95.5654" r="190.5233" gradientUnits="userSpaceOnUse">
		<stop  offset="0" style="stop-color:#0075BF"/>
		<stop  offset="1" style="stop-color:#162A66"/>
	</radialGradient>
	<path id="XMLID_130_" class="st1" d="M0,101.2L0,101.2v-0.8c52.8-11.4,92.9,2.1,146.9,13.9c5.4,1.2,10.4,2.2,14.8,3l3.2-6.8l5-10.7
		l5-10.7c0.1-0.2,0.1-0.2,0.1-0.3l0,0l0,0l0,0l0,0l0,0l0,0c0.3-0.5,2.9-1,17.9,5.4c15,6.4,43.1,19.6,68.4,32.4
		c25.2,12.8,34.3,12.7,40.7,12.3V-78.4H0V101.2z"/>
	<path id="XMLID_129_" class="st2" d="M215,124.4c-2.2-1-4.5-1.9-6.8-2.9l0.6-1.3c0.5-1,0-2.2-0.8-3.5c-0.9-1.4-2.2-2.8-3.4-4
		c-0.8-0.8-2.7-2.4-5.3-4.4c-1.8-1.4-3.5-2.7-5.3-4.1l2.4,1.1c3.6,1.6,8,3.5,12.2,5.3c1.6,0.7,3.2,1.4,4.8,2.1
		c6.4,2.6,12.7,5.7,19,8.6c12.9,6,28,13,36.5,16.1c8.7,3.1,18.4,4,27.5,3.3c1.3-0.1,2.4-0.2,3.3-0.4c0.7-0.1,1.4-0.2,2.2-0.4v1.9
		c-5.9,2.4-11.9,3.7-18.1,3.9c-6.7,0.3-13.5-0.6-20.2-2.1c-12.9-3-25.5-8.5-36.6-13.7C222,127.4,218,125.7,215,124.4z"/>
	<path id="XMLID_128_" class="st2" d="M0,103.7v-2.3c39.7-5.9,77.2,3.8,121.6,15.3c4.2,1.1,8.4,2.2,13.1,3.4
		c7.6,1.9,14.1,3.6,19.6,4.9c5.6,1.4,10.4,2.5,14.4,3.4c3.3,2.4,6.6,4.7,9.9,7c3.2,2.2,6.4,4.3,9.5,6.4c-0.7,0-1.5,0-2.2-0.1
		c-0.9,0-2.5-0.2-5.1-0.7c-3.9-0.7-7.8-1.5-11.6-2.4c-5.5-1.3-11.1-2.7-16.5-4.2c-5.7-1.5-11.4-3.2-17.1-4.8
		c-25.4-7.2-58.4-16.6-79.5-21c-14.2-2.9-28.8-5.3-43.3-5.5c-2.3,0-4.6,0-6.7,0.1C4.1,103.3,2.1,103.5,0,103.7z"/>
	<linearGradient id="XMLID_141_" gradientUnits="userSpaceOnUse" x1="38.8844" y1="96.4666" x2="158.4618" y2="154.7884">
		<stop  offset="0" style="stop-color:#63B9E9"/>
		<stop  offset="0.3206" style="stop-color:#5FB7E7"/>
		<stop  offset="0.5014" style="stop-color:#53B0E3"/>
		<stop  offset="0.6475" style="stop-color:#3CA4DB"/>
		<stop  offset="0.7751" style="stop-color:#0095D0"/>
		<stop  offset="0.8893" style="stop-color:#0082C2"/>
		<stop  offset="0.9946" style="stop-color:#006EB2"/>
		<stop  offset="1" style="stop-color:#006DB1"/>
	</linearGradient>
	<path id="XMLID_127_" class="st3" d="M0,104.8c5.5,0.2,28,1.9,57.1,9.6c39.5,10.5,80.3,27.9,121.5,36.2c4.6,0.9,7.3,1.3,8.5,1.3
		c4,0.1,7.1,0.1,8.1-1.8c0.1-0.2,0.2-0.5,0.4-0.8c-0.1-1.5-2.1-3.2-3-4c-0.6-0.6-2.5-1.9-5.3-3.8c-0.4,0-0.8,0-1.2,0
		c-1.2,0-3.9-0.4-8.5-1.3c-5.4-1.1-10.8-2.3-16.2-3.7c-5.3-1.3-11.2-2.9-17.9-4.8c-26-7.4-63.8-18.3-87.2-23.2
		C33,103.5,14,102,0,103.4V104.8z"/>
	<linearGradient id="XMLID_142_" gradientUnits="userSpaceOnUse" x1="216.9523" y1="116.2703" x2="287.3829" y2="155.3106">
		<stop  offset="0" style="stop-color:#0075BF"/>
		<stop  offset="1" style="stop-color:#63B9E9"/>
	</linearGradient>
	<path id="XMLID_126_" class="st4" d="M302,141.5c-24.4,10.3-52.5-1.6-74.8-11.9c-10.6-4.9-16.1-7.2-18.8-8.3l-4.6,9.7
		c3.4,1.3,9.9,3.8,21,8c22.3,8.3,54.5,16.6,77.1,4.4V141.5z"/>
	<linearGradient id="XMLID_143_" gradientUnits="userSpaceOnUse" x1="35.0426" y1="87.0567" x2="134.6656" y2="135.6461">
		<stop  offset="0" style="stop-color:#63B9E9"/>
		<stop  offset="0.3206" style="stop-color:#5FB7E8"/>
		<stop  offset="0.5014" style="stop-color:#53B2E5"/>
		<stop  offset="0.6475" style="stop-color:#39AAE1"/>
		<stop  offset="0.7751" style="stop-color:#009FDB"/>
		<stop  offset="0.8893" style="stop-color:#0091D3"/>
		<stop  offset="0.9946" style="stop-color:#0081C9"/>
		<stop  offset="1" style="stop-color:#0080C9"/>
	</linearGradient>
	<path id="XMLID_125_" class="st5" d="M0,101.7c43.5-6.4,84.4,5.8,134.7,18.7c15.1,3.8,26,6.5,34.1,8.3c-3.5-2.6-6.3-4.8-6.9-5.5
		c-1.1-1.4-1.3-3.8-0.4-5.4l0.3-0.6c-4.5-0.8-9.4-1.8-14.9-3C92.9,102.3,52.8,88.8,0,100.2V101.7z"/>
	<linearGradient id="XMLID_144_" gradientUnits="userSpaceOnUse" x1="191.0014" y1="89.8684" x2="284.4509" y2="141.6683">
		<stop  offset="0" style="stop-color:#0075BF"/>
		<stop  offset="1" style="stop-color:#63B9E9"/>
	</linearGradient>
	<path id="XMLID_124_" class="st6" d="M174.9,88.6c0.2-0.5,2.9-1.1,18,5.4c15.1,6.5,43.1,19.6,68.4,32.4
		c25.2,12.8,34.3,12.7,40.7,12.3v1.5c-3.3,0.9-19.5,2.5-33.1-2.5c-13.7-5-44.3-20-55.5-24.8c-5.9-2.5-12.6-5.4-17.7-7.6
		c-5.3-4-11.4-8.5-14.9-10.8c-5.1-3.4-6.2-4.3-6.2-5.2l0.1-0.3L174.9,88.6z"/>
	<linearGradient id="XMLID_145_" gradientUnits="userSpaceOnUse" x1="163.1681" y1="107.0762" x2="207.0268" y2="131.3875">
		<stop  offset="0" style="stop-color:#FFFFFF"/>
		<stop  offset="0.1665" style="stop-color:#F9F9F9"/>
		<stop  offset="0.4381" style="stop-color:#E7E7E7"/>
		<stop  offset="0.7789" style="stop-color:#C9C9C9"/>
		<stop  offset="1" style="stop-color:#B2B2B2"/>
	</linearGradient>
	<path id="XMLID_123_" class="st7" d="M169.9,99.4l-5.2,11.1c0,0,3.5,3.5,16.2,12.3c6.1,4.2,12,8.5,15.3,11.4
		c3.6,3.1,4.1,4.3,4.1,4.9c0.1-0.3,2.5-5.4,3.3-7l1.5-3.2c-0.2-3.7-11.1-11.1-15.7-14.8c-2.8-2.2-8.3-6.2-12.9-9.4
		C172.7,101.9,169.9,99.4,169.9,99.4z"/>
	<linearGradient id="XMLID_146_" gradientUnits="userSpaceOnUse" x1="164.5151" y1="96.4409" x2="211.0796" y2="119.1519">
		<stop  offset="0" style="stop-color:#D3E4F6"/>
		<stop  offset="0.26" style="stop-color:#63B9E9"/>
		<stop  offset="1" style="stop-color:#007EC5"/>
	</linearGradient>
	<path id="XMLID_122_" class="st8" d="M174.9,88.6c0,0.1-0.1,0.1-0.1,0.3l-5,10.7c0,0,2.8,2.6,6.6,5.3c4.5,3.2,10.1,7.2,12.9,9.4
		c4.6,3.7,15.5,11.1,15.7,14.8c0,0,3.1-6.6,4.2-8.8c1-2.2-1.8-5.4-4.3-7.9c-2.5-2.5-17.7-14-23.9-18.1
		C174.7,90.3,174.4,89.7,174.9,88.6z"/>
	<linearGradient id="XMLID_147_" gradientUnits="userSpaceOnUse" x1="158.3503" y1="119.7201" x2="202.3182" y2="141.1647">
		<stop  offset="0" style="stop-color:#D3E4F6"/>
		<stop  offset="0.2" style="stop-color:#63B9E9"/>
		<stop  offset="1" style="stop-color:#007EC5"/>
	</linearGradient>
	<path id="XMLID_121_" class="st9" d="M161.3,117.9c-0.9,1.6-0.7,4,0.4,5.4c1.1,1.4,11.8,9.2,18.1,13.4c6.3,4.2,11.5,7.8,12.5,8.7
		c1,1,3.6,3.2,2.8,4.8c0.5-0.9,3.3-7.1,5.3-11.4c0-0.6-0.6-1.9-4.1-4.9c-3.3-2.8-9.2-7.2-15.3-11.4c-12.7-8.8-16.2-12.3-16.2-12.3
		L161.3,117.9z"/>
	<g>
		<path class="st10" d="M182.5,117.6L182.5,117.6L182.5,117.6L182.5,117.6L182.5,117.6z M182.9,119L182.9,119l-2,1.8L182.9,119
			L182.9,119z M186.7,117.7l-0.1,0l0,0L186.7,117.7L186.7,117.7z M183,119.4c0,0.1-0.2,0.4-0.2,0.5c-0.1,0.1-0.2,0.3-0.3,0.3
			c-0.2,0.1-0.5,0.3-0.6,0.5l0,0l-0.1,0.4l-0.1,0.2c-0.1,0.2-0.3,0.2-0.3,0.2c0,0,0,0.1,0,0.1l0,0c0.1,0.1,0.5-0.1,0.5-0.3l0.1-0.3
			c0.1-0.2,0.4-0.4,0.5-0.5l0.2-0.1c0,0,0.1-0.2,0.2-0.2c0.1-0.1,0.1-0.2,0.2-0.3c0-0.1,0.2-0.2,0.2-0.2l-0.1,0.2l-0.8,1.8
			c0,0.1-0.4,0.6-0.2,0.7c0.1,0,0.1-0.1,0.2-0.2c0.1-0.1,0.1-0.2,0.2-0.3c0.1-0.2,0.2-0.4,0.3-0.7c0.2-0.4,0.5-0.8,0.7-1.3l0,0.5
			l-0.1,0.4c-0.1,0.2-0.1,0.3-0.2,0.5l0,0.1c-0.2,0.4,0,0.8-0.2,1.2l0,0.1c0,0.1-0.1,0.1-0.1,0.1l0,0c0,0,0,0.1,0,0.1l0,0
			c0.1,0.1,0.3-0.1,0.3-0.2l0,0c0.2-0.3,0-0.6,0.2-1l0.1-0.2l0-0.1l0.1-0.1l0.1-0.1c0.1-0.3,0-0.6,0.2-1l0,0.9c0,0.1,0,0.4,0,0.6
			c0,0,0,0.2,0,0.3c0,0.1,0,0.2,0,0.3c0,0.2,0,0.4,0,0.6c0,0.1-0.1,0.5,0.1,0.5c0.1,0,0.1,0,0.1-0.1l0.2-2.2l0-0.2l0-0.1l0-0.3l0,0
			l0.1,0.3c0.1,0.1,0.1,0.5,0.1,0.6c0,0.2-0.1,0.5,0,0.7c0,0.3,0.1,0.4,0.2,0.6c0.1,0.2,0.2,0.4,0,0.6l0,0.1l0.1,0
			c0,0,0.1,0,0.1-0.1l0-0.1c0.1-0.2,0-0.4,0-0.6c-0.1-0.2-0.1-0.3-0.1-0.5c0-0.1,0-0.2,0-0.3c0-0.1,0-0.2,0-0.3c0-0.1,0-0.2,0-0.3
			c0-0.3-0.2-0.7-0.1-1l0.2,0.7l0.3,1l0.1,0.2c0.1,0.1,0.3,1,0.3,1l0.1,0c0,0,0.1,0,0.1,0l0,0c0.1-0.1-0.1-0.5-0.1-0.6
			c0-0.2-0.1-0.4-0.2-0.6c-0.1-0.2-0.1-0.4-0.1-0.6c-0.1-0.3-0.2-0.7-0.3-1l0-0.1c0,0,0.3,0.4,0.4,0.5c0.2,0.3,0.2,0.6,0.3,0.8
			c0,0.1,0.1,0.3,0.2,0.4c0.1,0.1,0.2,0.3,0.3,0.4c0,0.1,0.1,0.2,0.2,0.3c0,0.1,0,0.1,0,0.2c0,0.1,0,0.1,0,0.2c0,0,0.1,0,0.1-0.1
			c0.1-0.2,0-0.5-0.2-0.7c-0.1-0.1-0.2-0.2-0.2-0.3c0-0.1-0.1-0.3-0.1-0.3c0-0.1-0.1-0.1-0.1-0.2l-0.1-0.4l-0.1-0.2l-0.1-0.2
			l-0.2-0.4l-0.1-0.2l0,0l0.1,0.1l0.4,0.5c0,0,0.3,0.4,0.4,0.5c0.1,0.2,0.2,0.3,0.3,0.5c0,0,0.1,0.2,0.2,0.2c0,0.1,0.1,0.2,0.2,0.2
			c0,0.1,0.3,0.4,0.3,0.4l0,0c0,0,0.1,0,0.1,0l0,0c0-0.1-0.1-0.3-0.2-0.3c-0.1-0.1-0.1-0.2-0.2-0.3c0,0-0.2-0.3-0.2-0.3
			c0-0.1-0.1-0.2-0.2-0.3c-0.1-0.2-0.3-0.4-0.4-0.6c-0.1-0.1-0.4-0.6-0.4-0.6c0.2,0.2,0.5,0.3,0.7,0.5c0.1,0.1,0.3,0.5,0.4,0.6
			c0,0.1,0.2,0.2,0.2,0.2l0.1,0l0.3,0.2l0.2,0.1c0.2,0.1,0.2,0.3,0.2,0.4l0,0c0,0,0.1,0,0.1,0l0,0c0.1-0.1-0.2-0.5-0.3-0.6l0,0
			l-0.3-0.1l0,0c-0.1-0.1-0.1-0.1-0.2-0.2c-0.1-0.1-0.1-0.1-0.2-0.2c-0.1-0.1-0.2-0.3-0.3-0.4l-0.2-0.2c-0.1-0.1-0.2-0.2-0.3-0.3
			c-0.1-0.1-0.2-0.2-0.2-0.3l0.1,0l0.8,0.5c0.3,0.2,0.6,0.4,0.9,0.6c0.1,0.1,0.3,0.2,0.4,0.3c0.1,0,0.4,0.3,0.4,0.2l0,0
			c0.1-0.1-0.4-0.4-0.5-0.5c-0.1-0.1-0.2-0.1-0.3-0.2c-0.1,0-0.2-0.2-0.3-0.2c-0.2-0.1-0.4-0.3-0.6-0.5c-0.2-0.1-0.4-0.3-0.6-0.5
			c0,0,0.4,0.1,0.5,0.1c0.1,0,0.3,0.1,0.5,0.2c0.3,0.2,0.5,0.4,0.8,0.5c0.2,0,0.5,0,0.7,0.1l0,0c0.1,0,0.1,0.1,0.1,0.1l0,0
			c0,0,0.1,0,0.1,0l0,0c0.1-0.1-0.1-0.3-0.2-0.4l-0.1-0.1c-0.1-0.1-0.3-0.1-0.4-0.1c-0.1,0-0.4-0.1-0.5-0.2c-0.3-0.2-0.6-0.5-1-0.6
			c-0.2,0-0.2,0-0.4-0.2l1,0.2l1.7,0.3c0,0,0.1,0,0.1,0l0,0c0,0,0-0.1,0-0.1l0,0c0,0-0.1,0-0.1,0l-1.5-0.4l-0.6-0.1l-0.4-0.1
			l0.4-0.1c0.1,0,0.3,0,0.3,0c0.1,0,0.3,0,0.4,0.1c0.1,0,0.2,0.1,0.4,0.1c0.2,0,0.4-0.1,0.5-0.1c0.1,0,0.2-0.1,0.3-0.1
			c0,0,0.1,0,0.2,0c0.1,0,0.1,0.1,0.2,0l0,0c0-0.1,0-0.1-0.1-0.2l-0.1-0.1c-0.1-0.1-0.3-0.1-0.4-0.1c-0.1,0-0.2,0-0.3,0.1l-0.3,0
			c-0.1,0-0.2,0-0.2,0c-0.1,0-0.2-0.1-0.3-0.1c-0.1,0-0.2,0-0.2-0.1c-0.2,0-0.4,0-0.5,0c-0.1,0-0.2,0-0.3,0l-0.1,0l0,0l0.8-0.2
			l1.1-0.3l0.2-0.1l0.4-0.1c0,0,0.1,0,0.1-0.1l0,0c0,0,0,0,0-0.1c0-0.1-0.1-0.1-0.1-0.1l-0.4,0.1l-1.9,0.4l0,0l-0.2,0l0.4-0.4
			c0.2-0.2,0.7-0.2,0.9-0.3c0.1-0.1,0.3-0.2,0.4-0.4c0-0.1,0.2-0.1,0.2-0.2c0.1,0,0.2,0,0.3,0l0.1-0.1l0-0.1l-0.1-0.1
			c-0.1-0.1-0.3,0-0.4,0c-0.2,0.1-0.2,0.2-0.4,0.3l-0.2,0.1l-0.2,0.1l-0.2,0l-0.3,0c-0.1,0-0.1,0-0.2,0.1c-0.1,0-0.1,0.1-0.2,0.1
			c-0.1,0-0.1,0.1-0.2,0.1c-0.1,0.1-0.1,0.1-0.2,0.1l-0.1,0l0.4-0.4l0.4-0.3c0-0.1,0.5-0.5,0.6-0.6c0.1-0.1,0.6-0.5,0.6-0.6l0,0
			c0,0,0-0.1,0-0.1l0,0c-0.1,0-0.4,0.2-0.4,0.3c-0.1,0-0.2,0.1-0.2,0.2c-0.1,0.1-0.1,0.1-0.2,0.2c-0.1,0.1-0.3,0.2-0.4,0.3
			c-0.1,0.1-0.2,0.1-0.2,0.2c-0.1,0.1-0.1,0.1-0.2,0.2l-0.2,0.1l-0.1,0.1l0,0l-0.1,0c0.1-0.1,0.2-0.4,0.2-0.5c0-0.1,0.1-0.1,0.1-0.2
			c0-0.1,0.1-0.1,0.1-0.1c0.2-0.2,0.4-0.3,0.6-0.5l0-0.1c0.1-0.1,0.1-0.3,0.1-0.4l0-0.1c0.1-0.2,0.3-0.2,0.3-0.3c0,0,0-0.1,0-0.1
			c-0.2-0.1-0.4,0.1-0.5,0.3l0,0.1l-0.1,0.3c-0.1,0.2-0.4,0.5-0.5,0.5l-0.1,0.1c-0.1,0.1-0.1,0.1-0.2,0.2c-0.1,0.1-0.1,0.2-0.2,0.3
			c0,0.1-0.2,0.2-0.2,0.2l0.4-0.8c0.2-0.3,0.3-0.6,0.4-0.9c0.1-0.2,0.1-0.3,0.2-0.5c0.1-0.1,0.2-0.4,0.1-0.4l0,0
			c-0.1-0.1-0.2,0-0.2,0.1c-0.1,0.1-0.1,0.2-0.2,0.3c-0.1,0.2-0.2,0.4-0.3,0.6c-0.1,0.2-0.2,0.4-0.3,0.6c-0.1,0.2-0.2,0.4-0.3,0.6
			l0,0.1c0,0,0-0.6,0-0.7c0-0.3,0.2-0.5,0.3-0.7c0.2-0.5,0-0.8,0.2-1.2l0-0.1c0,0,0,0,0.1-0.1l0,0c0,0,0-0.1,0-0.1
			c-0.1-0.1-0.3,0.1-0.3,0.2l-0.1,0.1c-0.1,0.1,0,0.4-0.1,0.6c0,0.2-0.1,0.4-0.2,0.6l-0.1,0.2l-0.1,0.1c-0.1,0.1-0.1,0.3-0.1,0.5
			c0,0.1,0,0.2,0,0.2c0,0.1,0,0.1-0.1,0.2l0.1-1.1l0.1-1.9c0,0,0-0.1-0.1-0.1l0,0c0,0-0.1,0-0.1,0.1l-0.1,1l-0.2,1.6l0,0.3l0,0
			l-0.1-0.4l0-0.1c-0.1-0.2-0.1-0.4-0.1-0.6c0-0.2,0.1-0.4,0-0.6c0-0.3-0.1-0.3-0.2-0.6c-0.1-0.2-0.1-0.4,0-0.6c0,0,0-0.1,0-0.1l0,0
			c0,0-0.1,0-0.1,0l-0.1,0.1c-0.1,0.1,0,0.5,0,0.6c0,0.1,0.2,0.4,0.1,0.5c0.1,0.1-0.1,0.6-0.1,0.8c0,0,0,0.1,0,0.2
			c0,0.1,0,0.1,0,0.2c0,0.1,0.1,0.2,0.1,0.3c0,0.1,0.1,0.3,0,0.4l-0.1-0.4l-0.2-0.5l0,0l-0.1-0.5c-0.1-0.2-0.4-1.4-0.5-1.5l0,0
			c0,0-0.1,0-0.1,0l0,0c0,0.1,0,0.3,0,0.4l0.1,0.2l0.1,0.2l0,0.1l0.1,0.5l0.1,0.3l0.2,0.6l0,0.1l0,0l0.1,0.4l0,0l-0.2-0.3
			c-0.1-0.1-0.3-0.4-0.3-0.5c0-0.1-0.1-0.2-0.1-0.3c0-0.1,0-0.2-0.1-0.3c-0.1-0.2-0.1-0.3-0.3-0.5c-0.1-0.1-0.3-0.3-0.4-0.5l0-0.2
			c0,0,0-0.1,0-0.2l0,0c0,0-0.1,0-0.1,0.1l0,0c0,0.1,0,0.2,0,0.3c0,0.1,0.1,0.2,0.1,0.3c0.1,0.1,0.1,0.2,0.2,0.3
			c0,0.1,0.1,0.2,0.2,0.3l0.1,0.4l0,0l0,0.2l0,0l0.1,0.3l0.1,0.1l0.3,0.4l0.1,0.2l0,0l-0.2-0.2l-0.4-0.5l-1.3-1.7l-0.1-0.1
			c0,0-0.1,0-0.1,0l0,0c0,0,0,0.1,0,0.1l0.4,0.7l0.1,0.2l1.1,1.6c-0.3-0.2-0.7-0.4-0.8-0.6c-0.1-0.2-0.3-0.5-0.5-0.7l-0.1-0.1
			l-0.3-0.1l-0.2-0.1c-0.1-0.1-0.2-0.3-0.2-0.3l0,0c0,0-0.1,0-0.1,0c-0.1,0.2,0.1,0.5,0.3,0.6l0.1,0l0.3,0.1l0.1,0
			c0.2,0.1,0.4,0.5,0.5,0.6c0,0.1,0.2,0.2,0.2,0.3c0.1,0.1,0.3,0.2,0.3,0.3c0.1,0.1,0.1,0.1,0.2,0.2c0.1,0.1,0.1,0.1,0.1,0.2l0,0
			l-0.4-0.2c0,0-1-0.6-1.1-0.7c-0.2-0.1-0.4-0.2-0.6-0.4c-0.1-0.1-0.2-0.1-0.3-0.2c-0.1-0.1-0.2-0.1-0.2,0l0,0
			c-0.1,0.1,0.3,0.3,0.4,0.4c0.1,0.1,0.4,0.3,0.6,0.4l1.4,1c0,0-0.4-0.1-0.5-0.1c-0.1,0-0.3-0.1-0.5-0.2c-0.3-0.2-0.5-0.4-0.8-0.4
			c-0.3,0-0.4,0-0.7-0.2l-0.1-0.1c0,0-0.1,0-0.1,0c0,0,0,0.1,0,0.1c0,0.1,0.1,0.2,0.2,0.3l0,0c0.2,0.1,0.3,0.1,0.5,0.1
			c0.1,0,0.3,0.1,0.5,0.2l0,0l0.4,0.3l0.1,0.1c0.1,0.1,0.2,0.1,0.4,0.1c0,0,0.2,0,0.2,0c0.1,0,0.1,0,0.2,0.1l0.1,0l-0.5-0.1
			c-0.1,0-0.4-0.1-0.6-0.1c-0.2,0-0.4-0.1-0.6-0.1c-0.2,0-0.4-0.1-0.6-0.1c-0.1,0-0.2,0-0.3,0c-0.1,0-0.2-0.1-0.3,0c0,0,0,0.1,0,0.1
			l0,0c0,0,0.6,0.2,0.7,0.2c0.1,0,0.6,0.1,0.7,0.2l0.4,0.1l0.6,0.2l0.3,0.1l0.1,0l-0.3,0.1l-0.4,0.1c-0.1,0-0.1,0-0.2,0
			c-0.2,0-0.4-0.1-0.6-0.1c-0.1,0-0.2,0-0.4,0.1l-0.3,0.1c0,0-0.2,0-0.3,0c-0.1,0-0.2-0.1-0.3-0.1l0,0c0,0.1,0,0.1,0.1,0.2l0.1,0.1
			c0.2,0.1,0.4,0.1,0.5,0c0.2-0.1,0.3-0.1,0.5-0.1c0.1,0,0.4,0.1,0.6,0.1c0.2,0.1,0.4,0,0.5,0l0.2,0c0.1,0,0.2,0,0.3,0l-0.3,0.1
			l-0.4,0.1l-0.1,0l-0.2,0.1l-0.7,0.2l-0.1,0c-0.1,0.1-0.8,0.2-0.8,0.2l0,0.1c0,0,0,0.1,0,0.1l0.1,0c0,0,0.4-0.1,0.4-0.1l0.2-0.1
			l0.3,0l0.2,0l0.2,0l1-0.2l0.3-0.1l-0.4,0.3c-0.1,0.1-0.3,0.2-0.4,0.2c-0.1,0-0.3,0.1-0.4,0.1c-0.1,0-0.3,0.1-0.4,0.2
			c-0.1,0.1-0.3,0.3-0.4,0.4l-0.2,0c0,0-0.1,0-0.2,0l0,0c0,0,0,0.1,0,0.1l0.1,0c0,0,0.2,0,0.2,0l0.3-0.1c0.1-0.1,0.2-0.2,0.3-0.3
			c0.1-0.1,0.2-0.1,0.3-0.2c0.1,0,0.3,0,0.4-0.1c0.1,0,0.1,0,0.2,0c0,0,0.1-0.1,0.2-0.1c0,0,0.3-0.2,0.3-0.2
			c0.1-0.1,0.2-0.1,0.3-0.1l-0.6,0.5l-1.4,1.3c0,0,0,0,0,0l0,0c0,0,0,0,0,0.1c0,0.1,0.1,0.1,0.1,0.1l0.1-0.1L183,119.4L183,119.4z"
			/>
		<path class="st11" d="M183.6,119.9l0.1-0.1l0.1,0l-0.1,0.3c-0.2,0.4-0.4,0.8-0.6,1.2c-0.1,0.1-0.2,0.5-0.3,0.6
			c-0.1,0.1-0.3,0.6-0.3,0.5c-0.1,0,0.2-0.6,0.2-0.7c0.3-0.7,0.6-1.4,0.9-2.1l0.1,0l-0.5,1.2l0,0L183.6,119.9L183.6,119.9z
			 M184.7,120.1c0,0.4,0.2,0.8,0.2,1.1c0,0.1,0,0.4,0,0.4c0.2-0.7,0-0.8-0.1-1.2c0-0.1,0-0.2,0-0.4l0.1,0c0,0.1,0,0.4,0,0.4
			c0,0.3,0.2,0.4,0.1,0.8c0,0.3-0.1,0.5,0,0.7c0,0.5,0.3,0.6,0.1,1.1c0,0,0,0-0.1,0c0.1-0.2,0-0.5,0-0.7c-0.2-0.6-0.2-0.5-0.2-1.1
			c0.1-0.6-0.2-0.9-0.2-1.4L184.7,120.1L184.7,120.1z M184.8,120l0.3,0c0.1,0,0.5-0.2,0.5-0.2c0.3-0.2,0.5-0.4,0.6-0.7
			c0.3-0.6,0.3-1.5-0.1-2.1c-0.2-0.4-0.4-0.6-0.8-0.9c-0.2-0.1-0.4-0.2-0.6-0.3l-0.5,0c-0.2,0-0.5,0.1-0.7,0.2
			c-0.2,0.1-0.3,0.2-0.4,0.3c-0.1,0.1-0.3,0.4-0.4,0.5c-0.2,0.4-0.2,0.8-0.2,1.1c0,0,0,0.2,0,0.3c0.1,0.4,0.1,0.4,0.3,0.8
			c0.2,0.4,0.6,0.7,0.9,0.9c0.1,0,0.5,0.2,0.5,0.2C184.5,120,184.7,120,184.8,120L184.8,120z M183.9,119.8L183.9,119.8
			c-0.1,0.1-0.1,0.5-0.1,0.7c0,0.3-0.1,0.4-0.2,0.7c-0.1,0.3-0.2,0.5-0.2,0.7c0.1,0.8-0.1,0.7-0.2,0.8c0.1,0.1,0.2-0.1,0.3-0.2
			c0.2-0.4-0.1-0.5,0.3-1.3l0.1-0.2c0.1-0.3,0.1-0.6,0.2-0.8c0-0.1,0.1-0.2,0.1-0.3l-0.1,0l-0.1,0.1c-0.1,0.3,0,0.7-0.2,0.9
			l-0.1,0.2l0,0c0.2-0.3,0.2-0.4,0.2-0.7C183.9,120.4,183.9,120,183.9,119.8L183.9,119.8L183.9,119.8z M184.2,120.1l0-0.2
			c0,0,0,0,0.1,0c0.1,0-0.1,1.4,0,1.5l0.2-1.5l0.1,0c0,0.1-0.3,2.9-0.3,3c0,0,0,0,0,0l0,0c0-0.3,0.1-1.1,0.1-1.5c0-0.1,0-0.6,0-0.7
			C184.2,120.7,184.2,120.4,184.2,120.1L184.2,120.1z M183.5,119.6L183.5,119.6c-0.1,0-0.3,0.1-0.3,0.2c-0.1,0.2-0.2,0.5-0.4,0.6
			c0,0-0.2,0.1-0.3,0.1c0,0,0.2-0.1,0.2-0.2c0.2-0.1,0.3-0.4,0.4-0.6c0.1-0.1,0.1-0.2,0.2-0.3l-0.1-0.1c-0.2,0.2-0.2,0.2-0.3,0.5
			c-0.3,0.7-0.7,0.6-0.9,1c-0.1,0.2-0.1,0.3-0.2,0.5c-0.1,0.3-0.4,0.3-0.3,0.4c0.1,0.1,0.4-0.1,0.5-0.3c0.1-0.1,0.1-0.3,0.1-0.3
			c0.2-0.3,0.5-0.5,0.7-0.7c0.2-0.1,0.3-0.5,0.5-0.7C183.3,119.7,183.4,119.6,183.5,119.6L183.5,119.6z M183,119.4
			c0,0.1-0.3,0.7-0.5,0.8c-0.2,0.1-0.5,0.3-0.6,0.6c-0.1,0.2-0.1,0.3-0.2,0.5c-0.1,0.2-0.3,0.2-0.3,0.2c0,0.1,0,0.1,0,0.1
			c0.1,0.1,0.5-0.1,0.5-0.3l0.1-0.3c0.1-0.3,0.6-0.5,0.7-0.6c0.1-0.2,0.3-0.3,0.4-0.5c0-0.1,0.2-0.2,0.2-0.2c-0.1,0.3-0.9,1.9-0.9,2
			c0,0.1-0.4,0.6-0.2,0.7c0.1,0,0.1-0.1,0.2-0.2c0.1-0.1,0.1-0.2,0.2-0.3c0.1-0.2,0.2-0.4,0.3-0.7c0.2-0.4,0.5-0.8,0.7-1.3
			c0,0.2,0,0.7-0.1,0.9c0,0.2-0.2,0.4-0.3,0.6c-0.2,0.5,0,0.8-0.2,1.2c0,0.1-0.2,0.1,0,0.2c0.1,0.1,0.3-0.1,0.3-0.2
			c0.2-0.4-0.1-0.6,0.3-1.3c0.3-0.5,0.1-0.8,0.4-1.2c0,0.2-0.1,1.5-0.1,1.7c0,0.1,0,0.7,0,0.8c0,0.1-0.1,0.5,0.1,0.5
			c0.1,0,0.1,0,0.1-0.1l0.2-2.2l0.1-0.6l0,0c0.1,0.3,0.2,0.6,0.2,1c0,0.2-0.1,0.5,0,0.7c0,0.3,0.1,0.4,0.2,0.6
			c0.1,0.2,0.2,0.4,0,0.6l0,0.1c0.1,0.1,0.2,0,0.2-0.1c0.2-0.4-0.1-0.7-0.1-1.1c0-0.2,0-0.4,0-0.6c0-0.1,0-0.2,0-0.3
			c0-0.3-0.2-0.7-0.1-1c0.1,0.2,0.9,2.9,0.9,2.9c0.3,0.2,0.1-0.5,0-0.6l-0.3-1.2c-0.1-0.4-0.2-0.8-0.3-1.1c0,0,0.3,0.4,0.4,0.5
			c0.3,0.5,0.2,0.8,0.5,1.2c0.1,0.1,0.2,0.3,0.3,0.4c0,0.1,0.1,0.2,0.2,0.3c0.1,0.2,0,0.3,0.1,0.3c0.2,0.1,0.3-0.4,0-0.7
			c-0.2-0.3-0.3-0.3-0.4-0.6c-0.1-0.3-0.1-0.6-0.3-1c-0.2-0.3-0.2-0.2-0.3-0.6l0,0c0.1,0.1,0.4,0.6,0.5,0.6c0.2,0.2,0.6,0.9,0.9,1.1
			c0.3,0.4,0.5,0.9,0.7,0.6c0-0.1-0.1-0.3-0.2-0.3c-0.1-0.1-0.1-0.2-0.2-0.3l-0.8-1.3c-0.1-0.1-0.4-0.6-0.4-0.6
			c0.2,0.2,0.5,0.3,0.7,0.5c0.2,0.2,0.4,0.7,0.7,0.9l0.3,0.2c0.4,0.2,0.3,0.4,0.4,0.5c0,0,0.1,0,0.1-0.1c0.1-0.2-0.2-0.5-0.4-0.6
			c-0.1-0.1-0.2-0.1-0.3-0.2c-0.3-0.3-0.4-0.6-0.6-0.8l-0.2-0.2c-0.1-0.1-0.5-0.3-0.6-0.5c0.3,0.2,0.6,0.4,0.8,0.5
			c0.3,0.2,0.6,0.4,0.9,0.6c0.1,0.1,0.3,0.2,0.4,0.3c0.2,0.1,0.3,0.3,0.4,0.1c0.1-0.1-0.4-0.4-0.5-0.5c-0.1-0.1-0.5-0.4-0.6-0.5
			c-0.1-0.1-1-0.8-1.2-0.9c0,0,0.4,0.1,0.5,0.1c0.7,0.1,0.7,0.5,1.3,0.6c0.2,0.1,0.5,0,0.7,0.1c0.1,0.1,0.2,0.2,0.2,0.1
			c0.1-0.1-0.2-0.3-0.3-0.4c-0.3-0.2-0.6,0-0.9-0.3c-0.3-0.2-0.6-0.5-1-0.6c-0.2,0-0.2,0-0.4-0.2l1,0.2l1.7,0.3c0.1,0,0.1-0.1,0-0.2
			c-0.1,0-2.2-0.6-2.7-0.7l0.4-0.1c0.1,0,0.3,0,0.3,0c0.3,0,0.6,0.3,1.3,0c0.4-0.2,0.6,0.1,0.6,0c0.1-0.1-0.1-0.2-0.2-0.3
			c-0.1-0.1-0.3-0.1-0.4-0.1c-0.1,0-0.2,0-0.3,0.1l-0.3,0c-0.2,0-0.5-0.1-0.7-0.2c-0.3-0.1-0.7,0.1-0.9,0c0.1,0,1.9-0.5,2.1-0.6
			c0.1,0,0.4-0.1,0.5-0.2c0-0.1-0.1-0.2-0.1-0.2l-0.4,0.1c-0.3,0.1-1.7,0.3-1.9,0.4l-0.2,0l0.4-0.4c0.2-0.2,0.7-0.2,0.9-0.3
			c0.2-0.1,0.4-0.4,0.6-0.5c0.1,0,0.2,0,0.3,0l0.1-0.1c0-0.1-0.1-0.1-0.1-0.1c-0.1-0.1-0.3,0-0.4,0c-0.2,0.1-0.2,0.4-0.8,0.5
			c-0.3,0.1-0.5,0.1-0.8,0.3c-0.1,0.1-0.3,0.2-0.5,0.2l0.4-0.4l0.4-0.3c0.2-0.2,1.2-1,1.3-1.2c0-0.1,0-0.1-0.1-0.1
			c-0.1-0.1-0.6,0.4-0.7,0.4c-0.2,0.2-0.5,0.3-0.6,0.5c-0.1,0.1-0.2,0.1-0.2,0.2c-0.1,0.1-0.3,0.2-0.4,0.3c-0.1,0.1-0.1,0.1-0.2,0.2
			c0.1-0.1,0.2-0.4,0.2-0.5c0-0.1,0.1-0.1,0.1-0.2c0.1-0.2,0.6-0.4,0.7-0.7c0.1-0.2,0.1-0.4,0.2-0.5c0.1-0.2,0.3-0.2,0.3-0.3
			c0.1-0.2-0.4-0.3-0.6,0.2l-0.1,0.3c-0.1,0.2-0.4,0.5-0.5,0.5c-0.1,0-0.3,0.2-0.3,0.3c-0.1,0.1-0.3,0.6-0.4,0.6l0.4-0.8
			c0.2-0.3,0.3-0.6,0.4-0.9c0.1-0.2,0.1-0.3,0.2-0.5c0.1-0.1,0.2-0.4,0.1-0.5c-0.1-0.1-0.2,0-0.2,0.1c-0.3,0.5-0.6,1-0.8,1.6
			c-0.1,0.2-0.3,0.5-0.4,0.7c0,0,0-0.6,0-0.7c0-0.3,0.2-0.5,0.3-0.7c0.2-0.5,0-0.8,0.2-1.2c0.1-0.2,0.1-0.1,0.1-0.2
			c0.1-0.1-0.2-0.2-0.3,0.1c-0.3,0.5,0.1,0.6-0.3,1.3c-0.1,0.1-0.1,0.2-0.2,0.3c-0.1,0.3,0,0.6-0.2,1c0-0.4,0.1-2.9,0.1-3
			c0-0.1-0.2-0.2-0.2,0c0,0.1-0.3,2.6-0.3,2.8l0,0l-0.1-0.4c-0.1-0.3-0.1-0.4-0.1-0.7c0-0.2,0.1-0.4,0-0.6c0-0.3-0.1-0.3-0.2-0.6
			c-0.2-0.6,0.1-0.6-0.1-0.7c0,0-0.1,0-0.1,0l-0.1,0.1c-0.1,0.1,0,0.5,0,0.6c0.3,0.6,0,1.1,0.1,1.3c0,0.1,0,0.1,0,0.3
			c0,0.2,0.2,0.5,0.1,0.7c-0.1-0.2-0.4-1.4-0.5-1.5c-0.1-0.2-0.4-1.4-0.5-1.5c-0.1,0-0.1,0-0.1,0c0,0.1,0.1,0.5,0.1,0.6
			c0.2,0.8,0.4,1.6,0.6,2.4l0,0c-0.2-0.3-0.5-0.7-0.6-1.1c-0.2-0.8-0.6-0.9-0.7-1.2c-0.1-0.3,0-0.3-0.1-0.3c-0.1-0.1-0.2,0.2,0,0.7
			c0.1,0.2,0.3,0.3,0.4,0.5c0.1,0.3,0.2,0.8,0.3,1.1l0.3,0.4c0,0,0.1,0.2,0.1,0.2c-0.3-0.5-1.7-2.4-1.8-2.4c-0.1-0.1-0.2,0-0.2,0.1
			c0.1,0.1,1.6,2.5,1.6,2.5c-0.3-0.2-0.7-0.4-0.8-0.6c-0.2-0.2-0.4-0.6-0.6-0.8l-0.3-0.1c-0.3-0.2-0.3-0.4-0.4-0.5c0,0-0.1,0-0.1,0
			c-0.1,0.2,0.2,0.5,0.3,0.6c0.1,0.1,0.2,0.1,0.3,0.2c0.4,0.3,0.4,0.8,1,1.2c0.2,0.2,0.3,0.3,0.3,0.3l0,0l-0.4-0.2
			c-0.1,0-1.5-0.9-1.7-1.1c-0.1-0.1-0.2-0.1-0.3-0.2c-0.1-0.1-0.2-0.1-0.2,0c-0.1,0.1,0.3,0.3,0.4,0.4c0.1,0.1,0.4,0.3,0.6,0.4
			l1.4,1c0,0-0.4-0.1-0.5-0.1c-0.5-0.1-0.9-0.6-1.3-0.6c-0.3,0-0.4,0-0.7-0.2c-0.1,0-0.1-0.2-0.2-0.1c-0.1,0.2,0.1,0.3,0.3,0.4
			c0.3,0.2,0.6,0,1,0.3c0.2,0.1,0.3,0.2,0.5,0.4c0.3,0.2,0.5,0.1,0.8,0.3l0.1,0l-0.5-0.1c-0.2,0-1.4-0.2-1.7-0.3c-0.1,0-0.2,0-0.3,0
			c-0.1,0-0.2-0.1-0.3,0c0,0,0,0.1,0.1,0.1l2.3,0.6c0.1,0,0.2,0,0.3,0.1c-0.3,0.1-0.7,0.2-0.9,0.1c-0.4-0.1-0.6-0.2-1-0.1
			c-0.2,0.1-0.3,0.2-0.5,0.1c-0.1,0-0.2-0.1-0.3-0.1c-0.1,0.2,0.4,0.4,0.7,0.3c0.2-0.1,0.3-0.1,0.5-0.1c0.1,0,0.4,0.1,0.6,0.1
			c0.4,0.1,0.7-0.1,1,0c-0.3,0.1-1.6,0.4-1.8,0.5c-0.1,0.1-0.8,0.2-0.8,0.2c0,0.1,0,0.1,0.1,0.2c0,0,2.6-0.5,2.6-0.5
			c-0.2,0.2-0.5,0.5-0.8,0.5c-0.3,0.1-0.6,0.1-0.8,0.3c-0.1,0.1-0.3,0.3-0.4,0.4c-0.3,0.1-0.3,0-0.3,0.1c-0.1,0.1,0.2,0.2,0.3,0.2
			l0.3-0.1c0.2-0.1,0.2-0.3,0.7-0.4c0.2-0.1,0.5-0.1,0.7-0.2c0.1-0.1,0.4-0.4,0.6-0.4c-0.3,0.3-2,1.8-2,1.8
			c-0.1,0.2,0.1,0.2,0.1,0.2C181.2,120.8,182.7,119.7,183,119.4L183,119.4L183,119.4z M183,119.4l0.2-0.2l-0.1-0.1l-1.1,0.8l1-0.9
			L183,119c-0.1,0.1-1.8,1.6-2.1,1.8l0,0c0,0-0.1,0.1,0,0.1c0.1,0,0.5-0.3,0.5-0.3C181.5,120.5,182.9,119.4,183,119.4L183,119.4z
			 M182.8,118.9L182.8,118.9l0.1-0.1c-0.1,0-0.3,0.1-0.3,0.1c-0.2,0.1-0.4,0.3-0.6,0.4c-0.1,0-0.3,0.1-0.3,0c0,0,0.2-0.1,0.3-0.1
			c0.2-0.1,0.6-0.4,0.8-0.6l0-0.1l-0.2,0.1c-0.2,0.2-0.4,0.3-0.6,0.5c-0.1,0.1-0.7,0.1-0.7,0.2c-0.3,0-0.6,0.7-1,0.6
			c-0.1,0.2,0.4,0.2,0.6-0.1c0.4-0.5,0.8-0.2,1.2-0.5C182.4,119.2,182.7,118.9,182.8,118.9L182.8,118.9z M182.6,118.5l-2.2,0.4
			c-0.5,0.2-0.6,0-0.1-0.1c0.2,0,2.3-0.7,2.3-0.6c0,0,0,0.1,0,0.1c-0.4,0.1-0.9,0.2-1.3,0.4c0.2,0,1.3-0.3,1.3-0.2c0,0,0,0.1,0,0.1
			L182.6,118.5L182.6,118.5z M182.5,118.1c-0.3-0.1-0.7,0.2-1,0c-0.2-0.1-0.4-0.1-0.6-0.1c-0.3,0-0.6,0.3-0.9,0c0,0-0.1-0.1-0.1-0.1
			c0,0,0.1,0,0.1,0.1c0.4,0.1,0.7-0.3,1.2-0.1c0.1,0,0.4,0.1,0.6,0.1l0.9-0.2c0,0,0,0.1,0,0.1c-0.4,0-0.6,0.1-0.9,0.1
			c-0.1,0-0.3-0.1-0.3-0.1c0.2,0.1,0.3,0.1,0.5,0.1c0.2,0,0.6-0.2,0.8,0l0,0.1L182.5,118.1L182.5,118.1z M185.4,120.5
			c0-0.1-0.1-0.5-0.1-0.5c0,0-0.1,0-0.1,0c0,0,0.3,1.3,0.4,1.5l-0.5-1.4l0,0l-0.1,0c0,0.1,0.4,1.3,0.5,1.5c0,0.1,0.5,1.5,0.5,1.5
			l0,0c0.1-0.1-0.1-0.5-0.1-0.7C185.9,122.2,185.4,120.7,185.4,120.5L185.4,120.5z M185.5,120.1c0,0,0.2,0.3,0.2,0.3
			c0.3,0.4,0.3,0.6,0.4,1c0.1,0.5,0.4,0.6,0.6,1c0.1,0.2,0.1,0.3,0.1,0.4c0.1,0,0-0.4,0-0.4c-0.1-0.3-0.5-0.5-0.6-1.1
			c-0.1-0.6-0.3-0.7-0.5-1.1c-0.1-0.2-0.1-0.5-0.2-0.3c0,0.1,0.1,0.2,0.1,0.4c0.1,0.2,0.3,0.4,0.4,0.7c0,0.1,0.1,0.3,0.1,0.4
			c0-0.1-0.1-0.2-0.1-0.4c-0.1-0.3-0.3-0.4-0.4-0.7c0,0-0.2-0.3-0.2-0.3c0,0-0.1,0-0.1,0C185.3,120,185.4,120.1,185.5,120.1
			L185.5,120.1z M182.9,116.3C182.9,116.4,183,116.4,182.9,116.3l0,0.2l-0.1-0.2c-0.2-0.3-0.5-0.4-0.8-0.7c-0.2-0.3-0.4-0.6-0.6-0.8
			l-0.3-0.1c-0.1-0.1-0.4-0.4-0.3-0.6c0.1,0,0.1,0.3,0.4,0.5c0.2,0.1,0.4,0.1,0.6,0.4c0.1,0.1,0.3,0.5,0.4,0.6
			c0.1,0.1,0.7,0.6,0.9,0.7l-0.1,0.1l0,0c-0.1-0.1-0.5-0.4-0.6-0.5c-0.3-0.2-0.3-0.3-0.4-0.5c0,0.1,0.2,0.5,0.4,0.6
			c0.2,0.1,0.3,0.2,0.5,0.4C182.9,116.2,182.9,116.3,182.9,116.3L182.9,116.3z M183.3,115.9c0,0.1,0.1,0,0,0.1l-0.9-1.2
			c0,0.1,0.9,1.3,0.8,1.3c0,0,0,0,0,0l0,0c0,0-0.4-0.6-0.4-0.7l-0.9-1.3c-0.1-0.1-0.2-0.2-0.2-0.3c0-0.1-0.2-0.3-0.2-0.3
			c0,0,0,0,0.1,0c0.1,0.1,1.2,1.6,1.4,1.8C183,115.5,183.2,115.8,183.3,115.9L183.3,115.9z M184.1,115.7L184.1,115.7
			c-0.1,0.1-0.1,0-0.2-0.3l-0.3-1.1l0,0c0,0,0.3,1.4,0.3,1.4c0,0-0.1,0-0.1,0c0-0.2-0.1-0.6-0.2-0.8c-0.1-0.5-0.2-1-0.4-1.5
			c0-0.1-0.2-0.7-0.2-0.8l0,0c0,0,0.4,1.4,0.5,1.5c0.1,0.3,0.2,0.5,0.2,0.8C183.9,115.1,184,115.5,184.1,115.7L184.1,115.7z
			 M183.7,115.7L183.7,115.7c0,0.1,0,0.1-0.1,0.1c0,0-0.2-0.3-0.2-0.3c-0.1-0.2-0.3-0.4-0.4-0.7c0-0.1-0.1-0.3-0.1-0.4
			c0,0.7,0.5,1,0.6,1.4c0,0-0.1,0.1-0.1,0c0-0.2-0.2-0.5-0.3-0.7c-0.2-0.3-0.2-0.7-0.3-1c-0.1-0.4-0.3-0.4-0.4-0.7
			c-0.1-0.1-0.2-0.5,0-0.5l0,0.3c0.1,0.3,0.4,0.5,0.5,0.7c0.1,0.1,0.2,0.4,0.2,0.6C183.2,115.1,183.4,115.2,183.7,115.7L183.7,115.7
			z M186.5,117.9c0.4,0,0.6-0.1,0.9-0.1c0.1,0,0.3,0.1,0.3,0.1c-0.2-0.1-0.5-0.1-0.7-0.1c-0.1,0-0.2,0.1-0.3,0.1c0,0-0.3,0-0.3,0
			c0,0,0-0.1,0-0.1c0.5,0.1,0.4,0,0.8,0c0.4,0,0.9,0.3,1.3,0.1c0.6-0.3,0.9,0.3,0.7,0.1c-0.2-0.1-0.4,0-0.5,0
			c-0.3,0.1-0.4,0.2-0.7,0.1c-0.3-0.1-0.4-0.1-0.8-0.1c-0.2,0-0.5,0.1-0.7,0.1L186.5,117.9L186.5,117.9z M186.6,117.6
			c-0.1,0-0.1,0.1-0.2,0l1.3-0.4c-0.1,0-1.3,0.3-1.3,0.2c0,0,0-0.1,0-0.1l0.5-0.1c0.1,0,0.4-0.1,0.6-0.1c0.2,0,0.4-0.1,0.6-0.1
			c0.2,0,1.1-0.2,1.1-0.2c0,0,0,0,0,0.1c0,0.1-1.1,0.3-1.3,0.4c-0.2,0.1-0.4,0.1-0.6,0.2C187.1,117.5,186.7,117.5,186.6,117.6
			L186.6,117.6z M186.4,117.2L186.4,117.2L186.4,117.2c0.4-0.3,0.5-0.6,0.8-0.7l0.2,0l-0.1,0c0,0-0.2,0-0.3,0.1
			c-0.2,0.1-0.4,0.3-0.5,0.4c-0.1,0-0.2,0.1-0.3,0.1l0-0.1l0.2-0.1c0.3-0.1,0.4-0.4,0.9-0.4c0.2,0,0.5-0.1,0.7-0.3
			c0.2-0.2,0.5-0.4,0.7-0.3l0,0.1c-0.4-0.1-0.7,0.5-1,0.6c-0.1,0-0.4,0.1-0.5,0.1c-0.2,0.1-0.3,0.1-0.4,0.3
			C186.7,117,186.5,117.1,186.4,117.2L186.4,117.2z M186.7,116.3l-0.6,0.5l-0.1-0.1l1-0.9l0,0l-1,0.8l-0.1-0.1
			c0.2-0.2,1.1-0.8,1.2-0.9c0.2-0.2,0.4-0.3,0.5-0.4c0.1-0.1,0.5-0.4,0.5-0.4c0,0,0,0,0,0.1C188.2,115,186.9,116.1,186.7,116.3
			L186.7,116.3z M186,116.4l-0.1,0.1l-0.1-0.1c0.1-0.1,0.1-0.2,0.2-0.3c0.1-0.2,0.2-0.5,0.4-0.6c0,0,0.2-0.2,0.2-0.2
			c0,0-0.2,0.1-0.3,0.1c-0.3,0.2-0.3,0.4-0.4,0.6c-0.1,0.1-0.2,0.2-0.2,0.2l-0.1-0.1c0.1-0.1,0.2-0.2,0.3-0.4c0.4-0.7,0.8-0.6,1-1.1
			c0.1-0.1,0.1-0.2,0.1-0.4c0.1-0.1,0.3-0.3,0.4-0.3c0.1,0.1-0.2,0.1-0.3,0.3c-0.1,0.2-0.1,0.2-0.2,0.5c-0.1,0.2-0.4,0.4-0.5,0.5
			C186.3,115.7,186.2,116,186,116.4L186,116.4z M184.5,115.6L184.5,115.6l-0.1,0.1c0-0.4-0.2-0.8-0.2-1.1c0-0.1,0-0.4,0-0.4
			c-0.2,0.7,0,0.8,0.1,1.2c0,0.1,0,0.2,0,0.4l-0.1,0c0.1-0.2,0-0.5-0.1-0.8c-0.1-0.6,0.1-0.9,0-1.5c0-0.1-0.1-0.2-0.1-0.4
			c0-0.2,0-0.3,0.1-0.5c0,0,0.1,0,0.1,0c-0.2,0.5,0.2,0.8,0.2,1.2c0,0.4-0.1,0.7,0.1,1.3L184.5,115.6L184.5,115.6z M184.8,115.8
			l0.1-1.5l-0.2,1.5c0,0,0,0-0.1,0c0,0,0.2-1.5,0.2-1.6c0-0.1,0.1-1.4,0.2-1.4c0,0,0,0,0,0c0,0,0,1,0,1.2c0,0.1,0,0.3,0,0.4
			C184.9,114.4,184.9,115.7,184.8,115.8L184.8,115.8L184.8,115.8z M189.4,118.9C189.3,118.9,189.3,118.9,189.4,118.9l-2.8-0.4l0,0
			l0-0.1l1.4,0.2l-1.3-0.4l0-0.1C187,118.3,189.2,118.8,189.4,118.9C189.3,118.8,189.3,118.9,189.4,118.9L189.4,118.9z M185.7,119.8
			L185.7,119.8L185.7,119.8l0.9,1.1c0-0.1-0.8-1.2-0.8-1.3c0,0,0,0,0,0c0.1,0.1,0.8,1.3,0.9,1.4c0.1,0.2,0.9,1.3,0.8,1.3l0,0
			c-0.1-0.1-0.3-0.5-0.5-0.6c0,0-0.4-0.5-0.5-0.6c-0.1-0.2-0.3-0.4-0.5-0.6C186.2,120.4,185.7,119.8,185.7,119.8L185.7,119.8z
			 M186.6,120c0-0.1-0.4-0.3-0.5-0.4c-0.1-0.1-0.1,0,0-0.2c0.1,0.1,0.2,0.2,0.3,0.3c0.2,0.1,0.5,0.3,0.6,0.5
			c0.1,0.1,0.1,0.2,0.2,0.3c0-0.1-0.3-0.5-0.4-0.6c-0.1-0.1-0.3-0.2-0.4-0.3c-0.1-0.1-0.2-0.2-0.2-0.3l0.1-0.1
			c0.2,0.2,0.2,0.3,0.4,0.4c0.5,0.4,0.5,0.6,0.7,0.9c0.1,0.1,0.2,0.3,0.4,0.4c0.1,0.1,0.2,0.1,0.3,0.2c0.1,0.1,0.3,0.4,0.3,0.5l0,0
			c-0.1-0.1-0.1-0.3-0.4-0.5c-0.1-0.1-0.3-0.1-0.4-0.2C187.1,120.7,187,120.3,186.6,120L186.6,120z M186.9,119.7l-0.7-0.5l0-0.1
			l1.2,0.8l0,0l-1.2-0.9l0-0.1c0.5,0.3,0.9,0.7,1.4,1c0.2,0.1,0.4,0.3,0.6,0.4c0.1,0.1,0.2,0.1,0.3,0.2c0.1,0,0.3,0.2,0.2,0.2
			c0,0.1-0.4-0.2-0.5-0.2c-0.1-0.1-0.3-0.2-0.5-0.3C187.6,120.1,187.2,119.9,186.9,119.7L186.9,119.7z M186.5,118.9L186.5,118.9
			c0-0.2,0-0.1,0.3,0c0.4,0.1,0.4-0.1,1,0.4c-0.3-0.3-0.3-0.3-0.7-0.4c-0.2,0-0.3-0.1-0.5-0.2l0-0.1l0.2,0.1
			c0.3,0.2,0.6,0.1,0.9,0.3c0.3,0.2,0.5,0.5,0.9,0.5c0.2,0,0.3,0,0.5,0.2c0.1,0.1,0.2,0.2,0.2,0.3c-0.1-0.1-0.1-0.2-0.5-0.3
			c-0.1,0-0.3,0-0.3,0c-0.6-0.2-0.6-0.5-1.3-0.6C186.8,119,186.5,118.9,186.5,118.9L186.5,118.9z M180,115.9
			C179.9,115.8,180,115.8,180,115.9c0.1,0,0.1,0,0.2,0.1c0.3,0.2,0.5,0.1,0.7,0.1c0.5,0.1,0.7,0.5,1.4,0.7c0.1,0,0.3,0.1,0.4,0.1
			c0.1,0,0.1,0,0,0.1c-0.1-0.1-0.5-0.2-0.6-0.2c-0.3,0-0.4-0.1-0.7-0.3c0.1,0.1,0.1,0.1,0.2,0.2c0.4,0.3,0.6,0.1,1,0.4l0,0.1
			c-0.5-0.3-0.6-0.2-1-0.5l-0.2-0.1c-0.1-0.1-0.1-0.1-0.2-0.2c-0.4-0.3-0.7-0.1-1-0.3C180,116,180,116,180,115.9L180,115.9z
			 M185.3,115.9c0.2-0.5,0.5-0.9,0.7-1.3c0.1-0.2,0.2-0.4,0.4-0.6c0-0.1,0.3-0.6,0.4-0.6c0.1,0-0.1,0.3-0.1,0.3
			c-0.1,0.1-0.1,0.2-0.2,0.3c-0.3,0.6-0.6,1.4-0.9,2.1l-0.1,0c0.1-0.1,0.5-1.1,0.5-1.2L185.3,115.9L185.3,115.9L185.3,115.9
			L185.3,115.9z M182.3,117.5l-1.2-0.3c-0.2-0.1-1.2-0.3-1.3-0.3c0,0,0,0,0,0l0,0c0-0.1,0.5,0.1,0.6,0.1c0.1,0,0.6,0.1,0.6,0.1
			l1.5,0.2l0.1,0l0,0.1l-1.3-0.2l1.3,0.4c0,0,0,0,0,0.1C182.6,117.6,182.3,117.6,182.3,117.5L182.3,117.5z M181.8,115.9l1.1,0.7
			l0,0.1l-1.3-0.8l0,0c0.3,0.2,0.9,0.7,1.2,0.9l0,0.1c-0.4-0.3-0.8-0.6-1.3-0.9c-0.2-0.1-0.4-0.3-0.6-0.5c-0.2-0.1-0.5-0.3-0.6-0.5
			c0-0.1,0.1,0,0.2,0C180.6,115.1,181.7,115.8,181.8,115.9L181.8,115.9z M185.7,113.1c0-0.1,0.2-0.2,0.3-0.2c0,0.1-0.1,0.1-0.1,0.2
			c-0.1,0.2-0.1,0.5-0.1,0.7c0,0.5-0.4,0.7-0.4,1.4c0,0.2,0,0.5-0.1,0.7l-0.1-0.1c0.1-0.1,0.1-0.5,0.1-0.7c0-0.3,0-0.4,0.2-0.7l0,0
			c-0.1,0.1-0.1,0.1-0.1,0.2c-0.2,0.4,0,0.6-0.3,1.1l-0.1,0c0.1-0.2,0.1-0.3,0.2-0.6c0-0.5,0.1-0.5,0.3-0.8
			C185.8,113.7,185.5,113.6,185.7,113.1L185.7,113.1z M184,118.9c-0.1,0-0.1-0.1-0.1-0.2c0-0.1-0.1-0.2-0.1-0.2l0,0
			c0.6,0.6,0.3,0.2,0.7,0.5C184.4,119,184.1,119,184,118.9L184,118.9L184,118.9z M183.7,118.5c0.1,0,0.2,0,0.3,0
			c0.1,0.1,0.1,0.1,0.1,0.1c0,0,0.1,0,0.2,0.1c0.1,0.1,0.2,0.2,0.2,0.3l-0.3-0.2c0,0-0.1,0-0.2-0.1c0,0-0.1-0.1-0.1-0.1L183.7,118.5
			L183.7,118.5z M183.6,118.5c0,0,0.2,0,0.2,0c0.3,0,0.3,0.1,0.4,0.2c0,0,0.1,0,0.2,0.1c0.2,0.1,0.1,0.3,0.2,0.4l0,0
			c-0.3-0.2-0.3,0.1-0.5-0.1l0,0c0.1,0.1,0.1,0.3,0.1,0.4c0-0.1,0.1-0.3-0.1-0.4c-0.2-0.2-0.3,0-0.4,0c0.1-0.1,0.2-0.2,0.3-0.2l0,0
			c-0.1-0.1-0.1-0.1-0.1-0.2C183.8,118.6,183.8,118.6,183.6,118.5L183.6,118.5z M184.1,117.9L184.1,117.9
			C184.1,118,184,117.9,184.1,117.9c-0.1,0.1-0.1,0.2,0,0.2c0.1,0,0.1,0,0.2,0c0,0.1,0,0.2,0.1,0.2c0.1,0.1,0.2,0.1,0.3,0
			c0,0.1,0.1,0.2,0.2,0.1c0-0.1,0-0.1,0-0.1c0.2,0.2,0,0.3-0.1,0.3c-0.1-0.1-0.1-0.1-0.1-0.1c0,0-0.1,0-0.2-0.1
			c-0.1,0-0.1-0.1-0.2-0.2c0,0-0.1,0-0.1,0C183.9,118.1,183.9,117.9,184.1,117.9L184.1,117.9z M183.7,117.2l-0.1-0.2l0,0
			c0.1,0.1,0.2,0.3,0.3,0.4c0.2,0.1,0.4,0.1,0.5,0.1l0,0c-0.1,0-0.2,0.1-0.4,0C183.9,117.4,183.8,117.3,183.7,117.2L183.7,117.2z
			 M184,117c-0.1,0-0.1,0.1-0.1,0.2l0,0l-0.1-0.2C183.8,117,184,117,184,117L184,117z M184.1,117.3c0.1,0,0.1-0.1,0.1-0.2
			c0,0,0.1,0.2,0.1,0.2C184.3,117.4,184.1,117.4,184.1,117.3L184.1,117.3L184.1,117.3z M184.2,117.1c0.1,0.1,0.2,0.3,0.2,0.4
			c-0.1,0-0.2,0-0.3-0.1c-0.1-0.1-0.4-0.3-0.4-0.4c0,0,0.2,0,0.2,0C184.1,116.9,184.2,117,184.2,117.1L184.2,117.1z M183.6,116.9
			c0.1-0.1,0.5-0.1,0.6,0c0.1,0.1,0.2,0.2,0.2,0.3c0,0.1,0.1,0.2,0.1,0.2c-0.1,0.2-0.2-0.3-0.3-0.4l-0.1-0.1
			C183.8,116.8,183.7,116.9,183.6,116.9L183.6,116.9z M183.6,116.6c0,0,0.1,0,0.2,0c0.1,0,0.4,0,0.5,0.1c0.2,0.1,0.3,0.2,0.4,0.5
			c0,0.1,0,0.1,0,0.2c-0.1,0.5-0.4,0.6-0.5,0.7l0,0l0,0l0,0c0.3-0.1,0.3-0.2,0.5-0.5c0,0,0.1-0.2-0.1-0.4c0-0.1-0.1-0.2-0.2-0.2
			C184,116.6,183.7,116.7,183.6,116.6L183.6,116.6L183.6,116.6z M184.6,118c0.1-0.3,0.1-0.3,0.3-0.6c0.1-0.1,0.1-0.1,0.2-0.1
			c0.2,0,0.3,0,0.5,0.2c0.2,0.1,0.4,0.7,0.4,0.7c-0.1-0.2-0.2-0.5-0.4-0.6c-0.1-0.1-0.4-0.2-0.5-0.1c-0.1,0.1-0.2,0.1-0.2,0.2
			c-0.1,0.2-0.1,0.4-0.1,0.6l-0.1,0L184.6,118L184.6,118z M184.9,117.9L184.9,117.9c0.1,0,0.1,0.2,0.4,0.4c0.1,0.1,0.4,0.1,0.4,0.2
			c-0.1,0-0.3,0-0.4-0.1C184.9,118.1,185.1,118.2,184.9,117.9L184.9,117.9z M185.3,117.9c-0.1,0-0.1,0.2-0.1,0.2
			c-0.1-0.1-0.1-0.2-0.1-0.2L185.3,117.9L185.3,117.9L185.3,117.9z M185.5,118L185.5,118c0.1,0,0.1,0.2,0.1,0.2l-0.2,0
			C185.4,118.2,185.5,118.1,185.5,118L185.5,118z M185.7,118.3c0,0-0.1,0-0.2,0c-0.2-0.1-0.4-0.2-0.5-0.4c0.1,0,0.3-0.1,0.4,0
			C185.7,118.1,185.6,118.2,185.7,118.3L185.7,118.3L185.7,118.3z M185.2,117.7c0.1,0,0.2,0,0.3,0.1c0.2,0.1,0.2,0.3,0.3,0.4l0,0.1
			l0,0c-0.2-0.2,0.1-0.3-0.4-0.6c-0.1-0.1-0.5,0.1-0.5-0.1c0,0,0.1,0,0.1,0L185.2,117.7z"/>
	</g>
</g>
<g id="XMLID_132_" class="st0">
</g>
<g id="XMLID_133_" class="st0">
</g>
<g id="XMLID_134_" class="st0">
</g>
<g id="XMLID_135_" class="st0">
</g>
<g id="XMLID_136_" class="st0">
</g>
<g id="XMLID_137_" class="st0">
</g>
</svg>
