<?xml version="1.0" encoding="utf-8"?>
<!-- Generator: Adobe Illustrator 19.0.0, SVG Export Plug-In . SVG Version: 6.00 Build 0)  -->
<svg version="1.1" id="Argentina" xmlns="http://www.w3.org/2000/svg" xmlns:xlink="http://www.w3.org/1999/xlink" x="0px" y="0px"
	 viewBox="0 0 500 500" style="enable-background:new 0 0 500 500;" xml:space="preserve">
<style type="text/css">
	.st0{clip-path:url(#XMLID_101_);}
	.st1{fill:#75AADB;}
	.st2{fill:#FFFFFF;}
	.st3{fill:#843612;}
	.st4{fill:#FBBF49;}
</style>
<g>
	<defs>
		<path id="XMLID_1_" d="M500,250c0,138.1-111.9,250-250,250C111.9,500,0,388.1,0,250C0,111.9,111.9,0,250,0
			C388.1,0,500,111.9,500,250z"/>
	</defs>
	<clipPath id="XMLID_101_">
		<use xlink:href="#XMLID_1_"  style="overflow:visible;"/>
	</clipPath>
	<g class="st0">
		<g>
			<rect id="XMLID_54_" x="-25" y="-25" class="st1" width="550" height="550"/>
			<rect id="XMLID_53_" x="-25" y="158.3" class="st2" width="550" height="183.3"/>
		</g>
		<g>
			<path id="XMLID_52_" class="st3" d="M327.6,249.9c0-0.8-0.6-1.7-1.8-1.7l-40.9-1.6c6.5-2,12-3.6,15.4-3.6c0.3,0,0.7,0,0.9,0
				c0.8,0.1,1.6,0.1,2.4,0.1c5.2,0,9.6-2,12.8-3.5c1.2-0.5,2.2-1,3.1-1.3c0.9-0.3,1.8-0.4,2.6-0.4c1.3,0,2.3,0.3,2.8,0.6
				c0.3,0.2,0.6,0.3,0.9,0.3c0.7,0,1.2-0.4,1.5-1c0.2-0.7,0-1.4-0.6-1.9c-1-0.8-3.4-2.2-6.5-2.2c-0.8,0-1.5,0.1-2.3,0.3
				c-1.5,0.4-2.9,0.9-4.3,1.5c-2.7,1.1-5.4,2.2-9.5,2.2c-1.2,0-2.4-0.1-3.7-0.3c-0.6-0.1-1.3-0.1-2-0.1c-4.1,0-9.9,1.4-16.1,3
				l38.5-17.8c0.8-0.4,1.2-1.3,1-2.1c-0.2-0.8-0.9-1.3-1.7-1.3c-0.2,0-0.5,0-0.7,0.1l-38.4,14.2c5.7-4.8,10.7-8.7,13.8-9.5
				c6.1-1.7,10-5.9,12.7-8.9c0.9-1,1.7-1.8,2.4-2.4c2.1-1.8,4.1-1.9,4.6-1.9c0.1,0,0.3,0,0.4,0c0.1,0,0.2,0,0.3,0
				c0.8,0,1.5-0.5,1.6-1.3c0.1-0.6-0.2-1.5-1.3-1.8c-0.3-0.1-1.3-0.4-2.7-0.4c-1.6,0-3.9,0.3-6.1,1.9c-1.2,0.9-2.3,1.9-3.4,3
				c-2.6,2.6-5.3,5.3-11.5,6.8c-4,1-9.6,5.1-15.6,9.6l28.7-31.1c0.5-0.6,0.6-1.3,0.3-2c-0.3-0.6-0.9-1-1.6-1c-0.5,0-0.9,0.2-1.3,0.5
				l-30.1,27.8c3.5-6.6,6.5-12.1,9.1-14.1c5-3.9,7-9.2,8.4-13.1c0.5-1.2,0.9-2.3,1.3-3.1c1.2-2.4,3.1-3.5,4-3.7
				c0.8-0.2,1.4-0.9,1.2-1.7c-0.1-0.7-0.7-1.4-1.9-1.3c-1.7,0.1-5.4,1.3-7.5,4.8c-0.8,1.3-1.4,2.7-2,4.1c-1.4,3.4-2.9,7-8,10.7
				c-3.3,2.5-6.9,8.3-10.8,14.9l14.6-39.8c0.2-0.6,0.1-1.2-0.2-1.7c-0.3-0.5-0.9-0.7-1.4-0.7c-0.7,0-1.3,0.4-1.6,1.1l-17.2,37.2
				c0.7-7.4,1.4-13.7,3-16.5c3.1-5.6,2.9-11.2,2.7-15.3c-0.1-1.3-0.1-2.4,0-3.3c0.2-2.7,1.5-4.4,2.2-4.9c0.6-0.5,0.9-1.2,0.6-1.8
				c-0.2-0.6-0.8-1-1.4-1c-0.3,0-0.6,0.1-1,0.2c-1.5,0.8-4.5,3.3-5.1,7.3c-0.2,1.5-0.2,3-0.3,4.5c0,3.7,0,7.5-3.3,13
				c-2.1,3.6-3.2,10.4-4.2,17.9l-1.7-42.3c-0.1-1.2-1-1.8-1.8-1.8c-0.8,0-1.6,0.6-1.7,1.8l-1.7,40.9c-2.2-7.1-3.9-13.2-3.5-16.4
				c0.8-6.3-1.6-11.5-3.3-15.2c-0.6-1.2-1-2.2-1.3-3.1c-0.8-2.6-0.2-4.7,0.2-5.4c0.3-0.5,0.3-1.2,0-1.7c-0.3-0.5-0.8-0.8-1.3-0.8
				c-0.5,0-1,0.2-1.4,0.7c-1.1,1.3-2.9,4.7-1.9,8.7c0.4,1.5,0.9,2.8,1.5,4.3c1.4,3.4,2.9,7,1.9,13.2c-0.6,4.1,1,10.8,2.9,18.1
				l-17.8-38.5c-0.3-0.7-0.9-1.1-1.6-1.1c-0.6,0-1.1,0.3-1.4,0.7c-0.4,0.5-0.4,1.1-0.2,1.7l14.1,38.4c-4.8-5.7-8.6-10.6-9.5-13.7
				c-1.7-6.2-5.9-10-8.9-12.8c-1-0.9-1.8-1.6-2.4-2.4c-1.8-2.1-2-4.2-1.9-5c0.1-0.5-0.1-1-0.4-1.4c-0.3-0.3-0.7-0.5-1.1-0.5
				c-0.6,0-1.3,0.4-1.6,1.3c-0.5,1.6-0.9,5.5,1.6,8.8c0.9,1.3,1.9,2.3,3,3.4c2.6,2.6,5.3,5.4,6.8,11.5c1,4,5,9.6,9.6,15.6
				l-31.1-28.7c-0.4-0.3-0.8-0.5-1.3-0.5c-0.7,0-1.3,0.4-1.6,1c-0.3,0.6-0.2,1.4,0.4,2l27.8,30.1c-6.6-3.5-12.1-6.5-14.1-9.1
				c-4-5-9.2-7-13.1-8.4c-1.2-0.5-2.3-0.9-3.1-1.2c-2.4-1.3-3.5-3.1-3.7-3.9c-0.2-0.8-0.8-1.3-1.6-1.3c-0.4,0-0.8,0.2-1.1,0.5
				c-0.2,0.3-0.5,0.7-0.4,1.5c0.1,1.7,1.3,5.4,4.8,7.5c1.3,0.8,2.7,1.4,4.1,2c3.4,1.5,7,2.9,10.7,8c2.5,3.3,8.3,6.9,14.9,10.8
				l-39.8-14.6c-0.2-0.1-0.4-0.1-0.6-0.1c-0.8,0-1.6,0.6-1.7,1.4c-0.2,0.8,0.2,1.6,1.1,2l37.2,17.2c-7.4-0.7-13.6-1.4-16.5-3
				c-4.5-2.5-9.2-2.8-12.2-2.8c-1.1,0-2.1,0-3,0.1c-1.3,0-2.5,0.1-3.3,0c-2.7-0.2-4.4-1.6-4.9-2.2c-0.3-0.4-0.8-0.7-1.3-0.7
				c-0.5,0-1,0.3-1.3,0.7c-0.3,0.5-0.3,1.1,0,1.8c0.8,1.5,3.3,4.5,7.3,5.1c1.5,0.2,3,0.2,4.5,0.3c3.7,0,7.5,0,13,3.3
				c3.5,2.1,10.3,3.2,17.9,4.2l-42.4,1.7c-1.1,0.1-1.7,1-1.7,1.8c0,0.8,0.6,1.6,1.8,1.7l40.9,1.6c-6.5,2-12,3.6-15.4,3.6
				c-0.3,0-0.7,0-0.9,0c-0.8-0.1-1.6-0.2-2.4-0.2c-5.3,0-9.6,2-12.8,3.5c-1.2,0.5-2.2,1-3.1,1.3c-0.9,0.3-1.8,0.4-2.6,0.4
				c-1.3,0-2.3-0.3-2.8-0.6c-0.3-0.2-0.6-0.2-0.9-0.2c-0.7,0-1.2,0.4-1.5,1c-0.2,0.6,0,1.4,0.6,1.9c1,0.8,3.4,2.2,6.4,2.2
				c0.8,0,1.5-0.1,2.3-0.3c1.5-0.3,2.9-0.9,4.3-1.5c2.7-1.1,5.4-2.2,9.5-2.2c1.2,0,2.4,0.1,3.7,0.3c0.6,0.1,1.3,0.1,2,0.1l0,0
				c4.1,0,9.9-1.4,16.1-3.1l-38.5,17.8c-0.8,0.4-1.2,1.2-1,2.1c0.2,0.8,0.9,1.3,1.7,1.3l0,0c0.2,0,0.5,0,0.7-0.1l38.4-14.2
				c-5.8,4.8-10.7,8.7-13.8,9.5c-6.1,1.7-10,5.9-12.8,8.9c-0.9,1-1.7,1.8-2.3,2.4c-2.1,1.8-4.1,1.9-4.6,1.9c-0.2,0-0.3,0-0.4,0
				c-0.1,0-0.2,0-0.3,0c-0.8,0-1.5,0.6-1.6,1.3c-0.1,0.6,0.2,1.5,1.3,1.8c0.3,0.1,1.3,0.4,2.7,0.4l0,0c1.6,0,3.9-0.3,6.1-1.9
				c1.2-0.9,2.3-1.9,3.4-3c2.6-2.6,5.4-5.3,11.5-6.8c4-1,9.6-5,15.7-9.6l-28.8,31.1c-0.5,0.6-0.6,1.3-0.3,2c0.3,0.6,0.9,1,1.5,1
				c0.5,0,0.9-0.2,1.3-0.5l30.1-27.8c-3.5,6.6-6.5,12.1-9.1,14.1c-5,4-7,9.2-8.4,13.1c-0.5,1.2-0.9,2.3-1.3,3.1
				c-1.2,2.4-3.1,3.5-3.9,3.7c-0.8,0.2-1.4,0.9-1.3,1.7c0.1,0.7,0.6,1.3,1.7,1.3l0,0c0.1,0,0.1,0,0.2,0c1.7-0.1,5.4-1.3,7.6-4.8
				c0.8-1.3,1.4-2.7,2-4.1c1.4-3.4,2.9-7,8-10.7c3.3-2.5,7-8.3,10.8-14.9l-14.6,39.8c-0.2,0.6-0.1,1.2,0.2,1.7
				c0.3,0.5,0.9,0.7,1.4,0.7l0,0c0.7,0,1.3-0.4,1.6-1.1l17.2-37.2c-0.7,7.4-1.4,13.7-3,16.5c-3.1,5.6-2.9,11.2-2.7,15.3
				c0.1,1.3,0.1,2.4,0,3.3c-0.2,2.7-1.6,4.4-2.2,4.9c-0.6,0.5-0.8,1.2-0.6,1.8c0.2,0.6,0.8,1,1.5,1c0.3,0,0.6-0.1,1-0.3
				c1.5-0.7,4.5-3.3,5.1-7.3c0.3-1.5,0.3-3,0.3-4.5c0-3.7,0-7.5,3.3-13c2.1-3.6,3.2-10.4,4.2-17.9l1.7,42.3c0.1,1.2,1,1.7,1.8,1.7
				l0,0c0.8,0,1.7-0.5,1.7-1.8l1.6-40.9c2.2,7.1,3.9,13.1,3.5,16.3c-0.7,6.3,1.6,11.5,3.3,15.2c0.6,1.2,1,2.2,1.3,3.1
				c0.8,2.6,0.3,4.7-0.2,5.4c-0.3,0.6-0.3,1.2-0.1,1.7c0.3,0.5,0.8,0.8,1.3,0.8c0.5,0,1-0.2,1.4-0.7c1.1-1.3,2.9-4.7,2-8.7
				c-0.4-1.5-0.9-2.9-1.5-4.3c-1.4-3.4-2.8-7-1.9-13.2c0.6-4.1-1-10.8-2.9-18.1l17.8,38.5c0.3,0.7,0.9,1.1,1.6,1.1l0,0
				c0.6,0,1.1-0.3,1.4-0.7c0.4-0.5,0.4-1.1,0.2-1.7l-14.2-38.4c4.8,5.7,8.7,10.6,9.5,13.7c1.7,6.1,5.9,10,8.9,12.8
				c1,0.9,1.8,1.6,2.4,2.3c1.8,2.1,2,4.2,1.9,5.1c-0.1,0.5,0,1,0.4,1.4c0.3,0.3,0.7,0.5,1.2,0.5c0.6,0,1.3-0.3,1.6-1.3
				c0.5-1.6,0.9-5.5-1.5-8.8c-0.9-1.2-1.9-2.3-3-3.4c-2.6-2.6-5.3-5.4-6.9-11.5c-1-4-5-9.6-9.6-15.6l31.2,28.8
				c0.4,0.3,0.8,0.5,1.2,0.5c0.7,0,1.3-0.4,1.6-1c0.3-0.6,0.2-1.4-0.4-2l-27.8-30.1c6.6,3.5,12.1,6.5,14.1,9.1c3.9,5,9.2,7,13.1,8.4
				c1.2,0.5,2.3,0.8,3.1,1.3c2.4,1.3,3.5,3.1,3.7,3.9c0.2,0.8,0.8,1.3,1.6,1.3l0,0c0.4,0,0.8-0.2,1.1-0.5c0.2-0.2,0.5-0.7,0.4-1.4
				c-0.1-1.7-1.3-5.4-4.8-7.5c-1.3-0.8-2.7-1.4-4.1-2c-3.4-1.4-6.9-2.9-10.7-8c-2.5-3.3-8.3-6.9-14.9-10.8l39.8,14.6
				c0.2,0.1,0.4,0.1,0.6,0.1l0,0c0.8,0,1.6-0.6,1.7-1.4c0.2-0.8-0.2-1.6-1.1-2l-37.2-17.2c7.4,0.7,13.7,1.4,16.5,3
				c4.5,2.5,9.2,2.8,12.2,2.8c1.1,0,2.1,0,3.1-0.1c1.3,0,2.5-0.1,3.3,0c2.7,0.2,4.4,1.5,4.9,2.2c0.3,0.5,0.8,0.7,1.4,0.7l0,0
				c0.5,0,1-0.3,1.3-0.7c0.3-0.5,0.3-1.1,0-1.8c-0.8-1.5-3.3-4.5-7.3-5.1c-1.5-0.2-3-0.3-4.5-0.3c-3.7,0-7.5,0-13-3.3
				c-3.6-2.1-10.3-3.2-17.9-4.2l42.4-1.7C327,251.6,327.6,250.7,327.6,249.9z"/>
			<path class="st4" d="M320.2,234.9c2.7,0,4.9,1.3,5.7,1.9c0.2,0.2,0.3,0.4,0.3,0.5c-0.1,0.2-0.3,0.3-0.6,0.1
				c-0.8-0.5-2.1-0.8-3.4-0.8c-1,0-2,0.2-3,0.5c-0.9,0.3-2,0.8-3.2,1.3c-3.1,1.4-7.3,3.4-12.3,3.4c-0.8,0-1.5,0-2.3-0.1
				c-0.3,0-0.7-0.1-1.1-0.1c-4.1,0-10.9,2.1-18.9,4.6c-0.1,0-0.1,0-0.2,0.1l-0.1,0c0-0.4-0.1-0.8-0.2-1.2c0,0,0.1,0,0.1,0
				c9.1-2.9,16.3-5.1,20.5-4.6c5.2,0.6,9.6-1.2,13-2.7c-3.6,1.5-7.6,3.1-14.5,2.1c-4-0.6-11.5,1.3-19.4,3.5
				c-0.1-0.4-0.2-0.8-0.3-1.2c7.1-1.9,13.7-3.6,18.1-3.6c0.7,0,1.3,0.1,1.8,0.1c1.4,0.2,2.7,0.3,3.9,0.3c4.3,0,7.3-1.2,10-2.3
				c1.4-0.6,2.7-1.1,4.1-1.4C318.8,235,319.5,234.9,320.2,234.9z M261.5,222.3c-3.7-1.5-7.5-2.3-11.5-2.3
				c-12.2,0-23.1,7.3-27.8,18.6c-3.1,7.4-3.1,15.6,0,23c3.1,7.4,8.9,13.2,16.3,16.3c3.7,1.5,7.5,2.3,11.5,2.3
				c12.2,0,23.1-7.3,27.8-18.6c3.1-7.4,3.1-15.6,0-23C274.7,231.1,269,225.3,261.5,222.3z M277.9,235.9c0.2,0.4,0.4,0.7,0.5,1.1
				l32-12.1l-31.2,14c0.1,0.4,0.3,0.8,0.4,1.2l40.5-18.7c0.4-0.2,0.4-0.6,0.3-0.7c0-0.1-0.1-0.4-0.5-0.4c-0.1,0-0.2,0-0.3,0
				l-41.6,15.3C278.1,235.8,278,235.9,277.9,235.9z M292,220.3c-4.2,1.1-10.4,5.7-17.1,10.8c0.2,0.3,0.5,0.7,0.7,1
				c6.6-5,12.7-9.7,16.6-10.7c6.8-1.7,9.9-4.8,12.6-7.5c-2.5,2.7-5.9,6-10.9,7.5c-4,1.1-9.8,6-17.2,12.1c0,0-0.1,0.1-0.1,0.1
				c0.2,0.3,0.4,0.7,0.6,1.1l0.1,0c0.1-0.1,0.1-0.1,0.2-0.2c6.9-5.8,12.9-10.8,16.7-11.8c5.8-1.6,9.5-5.6,12.2-8.5
				c0.9-1,1.7-1.8,2.4-2.5c2.4-2.1,4.8-2.2,5.4-2.2c0.2,0,0.4,0,0.6,0c0.3,0,0.5-0.1,0.5-0.3c0-0.2-0.1-0.3-0.5-0.5
				c-0.2-0.1-1.1-0.3-2.3-0.3c-1.4,0-3.5,0.3-5.4,1.7c-1.2,0.8-2.2,1.8-3.3,2.9C301.4,215.7,298.5,218.7,292,220.3z M270.4,226.3
				c0.3,0.3,0.6,0.5,0.9,0.8l24.9-23.4l-23.4,24.9c0.3,0.3,0.6,0.6,0.9,1l30.2-32.8c0.2-0.3,0.2-0.5,0.1-0.7
				c-0.1-0.2-0.2-0.3-0.4-0.3c-0.2,0-0.3,0.1-0.5,0.2l-32.6,30.1C270.5,226.2,270.5,226.2,270.4,226.3z M265.8,223
				c0.4,0.2,0.7,0.4,1.1,0.7c4.1-7.1,8-13.8,11.3-16.2c5.6-4.2,7.3-8.2,8.8-11.7c-1.3,3.5-3.2,7.9-7.2,11.1
				c-3.3,2.6-6.8,9.3-11.2,17.7c0,0.1-0.1,0.1-0.1,0.2c0.3,0.2,0.7,0.5,1,0.7l0.1-0.1c0-0.1,0.1-0.1,0.1-0.2
				c4.2-8,7.8-14.9,10.9-17.3c4.7-3.7,6.6-8.8,8-12.5c0.5-1.3,0.9-2.4,1.3-3.2c1.4-2.8,3.7-4,4.7-4.3c0.3-0.1,0.4-0.3,0.4-0.4
				c0-0.2-0.4-0.3-0.5-0.3c0,0-0.1,0-0.1,0c-1.2,0.1-4.6,1-6.6,4.2c-0.8,1.2-1.3,2.5-1.9,3.9c-1.4,3.4-3.1,7.3-8.4,11.2
				C274,209,270,215.8,265.8,223z M259.8,220.3c0.4,0.1,0.8,0.3,1.1,0.4l14.1-31.2l-12.1,32c0.4,0.2,0.8,0.4,1.2,0.5l15.4-41.9
				c0.1-0.2,0.1-0.4-0.1-0.6c-0.1-0.1-0.3-0.2-0.4-0.2c-0.3,0-0.4,0.2-0.5,0.4l-18.6,40.3C259.8,220.1,259.8,220.2,259.8,220.3z
				 M259.8,199.9c3.6-6,3.6-10.3,3.6-14.2c0.1,3.7,0.1,8.5-2.5,13c-2.1,3.7-2.7,11.2-3.6,20.7c0,0.1,0,0.1,0,0.2
				c0.4,0.1,0.8,0.2,1.2,0.3l0.1-0.2c0-0.1,0-0.1,0-0.2c0.8-9,1.5-16.7,3.4-20.2c2.9-5.3,2.7-10.7,2.6-14.7c-0.1-1.3-0.1-2.5,0-3.5
				c0.3-3.1,1.8-5.1,2.7-5.8c0.2-0.2,0.2-0.4,0.2-0.5c0-0.1-0.1-0.2-0.3-0.2c-0.1,0-0.3,0-0.4,0.1c-1,0.5-3.9,2.7-4.5,6.4
				c-0.2,1.4-0.2,2.8-0.2,4.3c0,3.7,0,7.9-3.4,13.6c-2.2,3.7-3.3,11.5-4.4,19.8c0.4,0.1,0.8,0.1,1.3,0.2
				C256.6,211,257.7,203.4,259.8,199.9z M248.9,218.8l1-34.2l1.1,34.2c0.4,0,0.8,0,1.3,0.1l-1.8-44.6c0-0.4-0.3-0.6-0.6-0.6
				c-0.1,0-0.5,0.1-0.5,0.6l-1.8,44.3c0,0.1,0,0.2,0.1,0.3C248.1,218.8,248.5,218.8,248.9,218.8z M236.6,185.9c1.4,3.4,3,7.3,2,13.9
				c-0.6,4.3,1.3,11.9,3.5,20c0.4-0.1,0.8-0.2,1.2-0.3c-2.1-8-4.1-15.5-3.5-19.5c1-6.9-0.6-10.9-2.1-14.5c1.5,3.4,3.3,7.8,2.7,13
				c-0.5,4.2,1.7,11.4,4.6,20.5c0,0.1,0,0.1,0.1,0.2c0.4-0.1,0.8-0.1,1.2-0.2l0-0.2c0-0.1-0.1-0.1-0.1-0.2c-2.7-8.6-5-16-4.6-19.9
				c0.7-6-1.6-10.9-3.2-14.5c-0.6-1.2-1.1-2.3-1.3-3.2c-1-3-0.3-5.4,0.3-6.4c0.1-0.2,0.1-0.4,0-0.5c0,0-0.1-0.2-0.2-0.2
				c-0.1,0-0.3,0.1-0.5,0.3c-0.7,0.9-2.5,4-1.7,7.7C235.5,183.2,236,184.5,236.6,185.9z M235.8,221.9c0.1,0.1,0.1,0.1,0.2,0.2
				c0.4-0.2,0.7-0.3,1.1-0.5l-12.2-32l14.1,31.2c0.4-0.2,0.8-0.3,1.2-0.4l-18.7-40.5c-0.2-0.3-0.4-0.4-0.6-0.4
				c-0.2,0-0.3,0.1-0.4,0.2c-0.1,0.2-0.1,0.4,0,0.6L235.8,221.9z M213.1,195.9c2.6,2.6,5.5,5.6,7.2,12c1,4.2,5.8,10.5,10.9,17.1
				c0.3-0.3,0.7-0.5,1-0.8c-5-6.6-9.7-12.7-10.7-16.7c-1.7-6.8-4.7-9.9-7.5-12.6c2.7,2.5,6,5.9,7.5,10.9c1.1,4.1,6,9.9,12.1,17.2
				c0,0.1,0.1,0.1,0.1,0.2c0.3-0.2,0.7-0.4,1.1-0.6l-0.1-0.2c-0.1,0-0.1-0.1-0.1-0.2c-5.8-6.9-10.8-12.9-11.8-16.7
				c-1.7-5.8-5.6-9.5-8.5-12.2c-1-0.9-1.8-1.7-2.5-2.4c-2-2.4-2.3-4.9-2.2-6c0-0.2,0-0.3-0.1-0.4c-0.1-0.1-0.1-0.1-0.2-0.1
				c-0.2,0-0.3,0.2-0.4,0.5c-0.4,1.1-0.8,4.7,1.4,7.7C211,193.9,212,194.9,213.1,195.9z M226.1,229.5c0.1,0,0.2,0.1,0.3,0.1
				c0.2-0.3,0.5-0.6,0.8-0.9l-23.5-25l25,23.5c0.3-0.3,0.6-0.6,1-0.9l-32.8-30.3c-0.1-0.1-0.3-0.2-0.4-0.2c-0.2,0-0.4,0.1-0.5,0.3
				c-0.1,0.2,0,0.5,0.2,0.6L226.1,229.5z M191.3,212.3c1.2,0.8,2.5,1.3,3.9,1.9c3.4,1.4,7.3,3,11.2,8.4c2.6,3.5,9.3,7.5,16.6,11.7
				c0.2-0.4,0.4-0.7,0.7-1.1c-7.2-4.2-13.8-8.1-16.3-11.3c-4.2-5.6-8.2-7.3-11.7-8.8c3.5,1.3,7.9,3.2,11.1,7.3
				c2.6,3.3,9.3,6.8,17.7,11.2c0.1,0,0.1,0.1,0.2,0.1c0.2-0.3,0.5-0.6,0.7-1l-0.2-0.2c-0.1,0-0.1-0.1-0.2-0.1
				c-8-4.2-14.9-7.8-17.3-10.9c-3.7-4.7-8.8-6.6-12.5-8c-1.3-0.5-2.4-0.9-3.2-1.3c-2.8-1.5-4-3.7-4.3-4.7c-0.1-0.3-0.2-0.4-0.4-0.4
				c0,0-0.1,0-0.2,0.1c-0.1,0.1-0.1,0.3-0.1,0.5C187.2,206.8,188.1,210.3,191.3,212.3z M179.8,221.6l40.3,18.6c0.1,0,0.2,0,0.3,0
				c0.1-0.4,0.2-0.7,0.4-1.1L189.5,225l32.1,12.2c0.2-0.4,0.4-0.8,0.5-1.2l-41.9-15.4c-0.1,0-0.2,0-0.2,0c-0.3,0-0.5,0.2-0.6,0.4
				C179.3,221.2,179.5,221.4,179.8,221.6z M181.3,237.6c1.4,0.2,2.8,0.2,4.3,0.2c3.7,0,7.9,0,13.6,3.4c3.7,2.2,11.5,3.3,19.8,4.4
				c0.1-0.4,0.1-0.9,0.2-1.3c-8.2-1.1-15.9-2.1-19.4-4.2c-6-3.6-10.3-3.6-14.2-3.6c3.7-0.1,8.5-0.1,13,2.5c3.7,2,11.2,2.7,20.7,3.6
				c0.1,0,0.2,0,0.2,0c0.1-0.4,0.2-0.8,0.3-1.2l-0.2-0.1c-0.1,0-0.2,0-0.2,0c-9-0.8-16.7-1.5-20.2-3.4c-4.2-2.4-8.4-2.7-11.7-2.7
				c-1.1,0-2.1,0-3,0.1c-1.4,0.1-2.6,0.1-3.5,0c-3.1-0.3-5.1-1.8-5.8-2.7c-0.1-0.1-0.2-0.2-0.4-0.2c-0.1,0-0.2,0.1-0.2,0.1
				c-0.1,0.1-0.1,0.3,0.1,0.6C175.4,234.2,177.6,237,181.3,237.6z M218.6,252.4c0.1,0,0.2-0.1,0.3-0.1c0-0.4-0.1-0.8-0.1-1.2
				l-34.3-1.1l34.3-1c0-0.4,0-0.9,0.1-1.3l-44.6,1.8c-0.4,0-0.6,0.3-0.6,0.6c0,0.1,0.1,0.5,0.6,0.5L218.6,252.4z M181.8,264.8
				c1.4-0.3,2.7-0.9,4.1-1.4c2.7-1.1,5.6-2.3,10-2.3c1.2,0,2.5,0.1,3.9,0.3c0.5,0.1,1.1,0.1,1.8,0.1c4.4,0,11.1-1.7,18.2-3.6
				c-0.1-0.4-0.2-0.8-0.3-1.2c-8,2.1-15.5,4.1-19.5,3.5c-6.9-1-10.9,0.6-14.5,2.1c3.4-1.5,7.8-3.3,13-2.7c4.2,0.5,11.4-1.8,20.5-4.6
				c0.1,0,0.1,0,0.2-0.1c-0.1-0.4-0.1-0.8-0.2-1.2h-0.2c-0.1,0-0.1,0-0.2,0.1c-7.9,2.5-14.8,4.6-18.9,4.6c-0.4,0-0.8,0-1.1-0.1
				c-0.7-0.1-1.5-0.1-2.2-0.1c-5,0-9.2,1.9-12.3,3.4c-1.2,0.6-2.3,1-3.2,1.3c-1,0.3-2,0.5-3,0.5c-1.3,0-2.6-0.3-3.4-0.8
				c-0.1-0.1-0.2-0.1-0.3-0.1c-0.1,0-0.3,0.1-0.3,0.2c-0.1,0.1,0,0.3,0.3,0.5c0.8,0.7,2.9,1.9,5.6,1.9
				C180.5,265.1,181.2,265,181.8,264.8z M222.1,264.1c-0.2-0.4-0.4-0.7-0.5-1.1l-32,12.2l31.2-14.1c-0.1-0.4-0.3-0.8-0.4-1.2
				l-40.5,18.7c-0.4,0.2-0.4,0.6-0.4,0.7c0,0.1,0.1,0.4,0.5,0.4c0.1,0,0.2,0,0.3,0l41.6-15.3C221.9,264.2,222,264.1,222.1,264.1z
				 M208,279.7c4.2-1.1,10.4-5.8,17.1-10.9c-0.3-0.3-0.5-0.7-0.7-1.1c-6.6,5-12.7,9.7-16.7,10.7c-6.8,1.7-9.9,4.8-12.6,7.5
				c2.5-2.7,6-6,11-7.5c4.1-1.1,9.8-6,17.1-12.1c0.1,0,0.1-0.1,0.1-0.1c-0.2-0.4-0.4-0.7-0.6-1.1l-0.2,0.1c0,0-0.1,0.1-0.2,0.1
				c-6.9,5.8-12.9,10.8-16.7,11.8c-5.8,1.6-9.5,5.6-12.2,8.5c-0.9,1-1.7,1.8-2.5,2.5c-2.4,2-4.8,2.2-5.4,2.2c-0.2,0-0.4,0-0.6,0
				c0,0-0.1,0-0.1,0c-0.2,0-0.4,0.1-0.4,0.3c0,0.2,0.1,0.4,0.5,0.5c0.2,0.1,1,0.3,2.3,0.3l0,0c1.4,0,3.5-0.3,5.4-1.7
				c1.2-0.8,2.2-1.8,3.2-2.9C198.5,284.3,201.5,281.4,208,279.7z M229.6,273.7c-0.3-0.3-0.6-0.5-0.9-0.8l-24.9,23.5l23.5-24.9
				c-0.3-0.3-0.6-0.6-0.9-1l-30.3,32.8c-0.2,0.3-0.2,0.5-0.1,0.7c0.1,0.2,0.3,0.3,0.4,0.3c0.2,0,0.3-0.1,0.5-0.2l32.6-30.1
				C229.5,273.8,229.5,273.8,229.6,273.7z M234.2,277c-0.4-0.2-0.7-0.5-1.1-0.7c-4.1,7.1-8,13.8-11.3,16.2
				c-5.6,4.2-7.3,8.2-8.8,11.7c1.3-3.5,3.2-7.9,7.3-11.1c3.3-2.6,6.8-9.3,11.2-17.7c0-0.1,0.1-0.1,0.1-0.2c-0.3-0.2-0.7-0.5-1-0.7
				l-0.1,0.1c0,0.1-0.1,0.1-0.1,0.2c-4.2,8-7.8,14.9-10.9,17.3c-4.7,3.7-6.6,8.8-8,12.6c-0.5,1.2-0.9,2.4-1.3,3.2
				c-1.4,2.8-3.6,4-4.7,4.3c-0.3,0.1-0.4,0.3-0.4,0.4c0,0.2,0.4,0.3,0.5,0.3c0,0,0.1,0,0.1,0c1.2-0.1,4.6-1,6.6-4.2
				c0.7-1.2,1.3-2.5,1.9-3.9c1.4-3.4,3-7.2,8.4-11.2C226,291,230,284.2,234.2,277z M240.2,279.7c-0.4-0.1-0.8-0.3-1.2-0.4l-14,31.2
				l12.1-32c-0.4-0.2-0.8-0.4-1.2-0.6l-15.4,41.8c-0.1,0.2,0,0.4,0.1,0.6c0.1,0.1,0.3,0.2,0.4,0.2c0.3,0,0.4-0.2,0.5-0.4l18.6-40.3
				C240.2,279.9,240.2,279.8,240.2,279.7z M240.2,300.1c-3.6,6-3.6,10.3-3.6,14.2c-0.1-3.7-0.1-8.5,2.5-13
				c2.1-3.7,2.7-11.2,3.6-20.7c0-0.1,0-0.1,0-0.1c-0.4-0.1-0.8-0.2-1.2-0.3l-0.1,0.2c0,0.1,0,0.1,0,0.2c-0.8,9-1.5,16.7-3.4,20.2
				c-2.9,5.3-2.8,10.7-2.6,14.7c0,1.3,0.1,2.5,0,3.5c-0.3,3.1-1.8,5.1-2.7,5.8c-0.2,0.2-0.2,0.4-0.2,0.5c0,0.1,0.1,0.2,0.3,0.2
				c0.1,0,0.2,0,0.4-0.1c1-0.5,3.9-2.7,4.5-6.4c0.3-1.4,0.3-2.8,0.3-4.3c0-3.7,0-7.9,3.4-13.6c2.2-3.7,3.3-11.4,4.4-19.7
				c-0.4-0.1-0.8-0.1-1.3-0.2C243.4,289,242.3,296.6,240.2,300.1z M251.1,281.3l-1,34.2l-1-34.2c-0.4,0-0.9,0-1.3-0.1l1.8,44.5
				c0,0.4,0.4,0.6,0.6,0.6l0,0c0.2,0,0.5-0.1,0.5-0.6l1.8-44.3c0-0.1,0-0.1-0.1-0.2C251.9,281.3,251.5,281.3,251.1,281.3z
				 M263.4,314.1c-1.4-3.4-3-7.3-2-13.9c0.6-4.3-1.3-11.8-3.5-19.9c-0.4,0.1-0.8,0.2-1.2,0.3c2.1,7.9,4.1,15.4,3.5,19.4
				c-1,6.9,0.6,11,2.1,14.5c-1.5-3.4-3.3-7.8-2.7-13c0.5-4.2-1.7-11.4-4.6-20.5c0,0,0-0.1,0-0.1c-0.4,0.1-0.8,0.1-1.2,0.2v0.1
				c0,0.1,0,0.1,0.1,0.2c2.7,8.6,5,16,4.5,19.9c-0.7,6,1.6,10.9,3.2,14.5c0.6,1.2,1,2.3,1.3,3.2c1,3,0.3,5.4-0.3,6.4
				c-0.1,0.2-0.1,0.4,0,0.5c0,0,0.1,0.2,0.2,0.2c0.1,0,0.3-0.1,0.5-0.3c0.8-0.9,2.5-4,1.7-7.7C264.5,316.8,263.9,315.5,263.4,314.1z
				 M264.2,278.1c0,0-0.1-0.1-0.1-0.1c-0.4,0.2-0.7,0.4-1.1,0.5l12.1,32l-14-31.2c-0.4,0.2-0.8,0.3-1.2,0.4l18.7,40.5
				c0.2,0.3,0.4,0.4,0.6,0.4l0,0c0.2,0,0.3-0.1,0.4-0.2c0.1-0.2,0.1-0.4,0-0.6L264.2,278.1z M286.9,304.1c-2.6-2.6-5.5-5.6-7.2-12
				c-1.1-4.2-5.7-10.4-10.8-17c-0.3,0.3-0.7,0.5-1,0.7c5,6.5,9.6,12.7,10.6,16.6c1.7,6.8,4.8,9.9,7.5,12.6c-2.7-2.5-6-5.9-7.5-11
				c-1.1-4.1-6-9.8-12.1-17.1c0,0-0.1-0.1-0.1-0.1c-0.4,0.2-0.7,0.4-1.1,0.6l0,0.1c0,0.1,0.1,0.1,0.1,0.2
				c5.8,6.9,10.8,12.9,11.8,16.7c1.6,5.8,5.6,9.5,8.5,12.2c1,0.9,1.8,1.7,2.5,2.4c2,2.4,2.3,4.9,2.2,6c0,0.2,0,0.3,0.1,0.4
				c0.1,0.1,0.1,0.1,0.2,0.1c0.2,0,0.3-0.2,0.4-0.5c0.4-1.1,0.8-4.7-1.4-7.7C288.9,306.2,287.9,305.1,286.9,304.1z M273.9,270.5
				c-0.1,0-0.1,0-0.1-0.1c-0.3,0.3-0.5,0.6-0.8,0.9l23.4,24.9l-24.9-23.4c-0.3,0.3-0.6,0.6-1,0.9l32.7,30.2c0.1,0.1,0.3,0.2,0.4,0.2
				c0.2,0,0.4-0.1,0.5-0.3c0.1-0.2-0.1-0.5-0.2-0.7L273.9,270.5z M308.7,287.7c-1.2-0.8-2.5-1.3-3.9-1.9c-3.4-1.4-7.3-3.1-11.2-8.4
				c-2.6-3.5-9.3-7.4-16.5-11.6c-0.2,0.4-0.4,0.7-0.7,1.1c7.1,4.1,13.7,8,16.2,11.3c4.2,5.6,8.2,7.3,11.7,8.8
				c-3.5-1.3-7.8-3.2-11.1-7.2c-2.6-3.3-9.3-6.8-17.7-11.2c0,0-0.1,0-0.1-0.1c-0.2,0.3-0.5,0.7-0.8,1l0.1,0.1c0.1,0,0.1,0.1,0.2,0.1
				c8,4.2,14.9,7.8,17.3,10.9c3.7,4.8,8.8,6.6,12.5,8c1.3,0.5,2.4,0.9,3.2,1.3c2.8,1.4,4,3.7,4.3,4.7c0.1,0.3,0.2,0.4,0.4,0.4
				c0.1,0,0.1,0,0.2-0.1c0.1-0.1,0.1-0.3,0.1-0.5C312.8,293.2,311.9,289.7,308.7,287.7z M320.2,278.5l-40.3-18.6c-0.1,0-0.1,0-0.2,0
				c-0.1,0.4-0.3,0.8-0.4,1.2l31.2,14l-32-12.1c-0.2,0.4-0.4,0.8-0.5,1.2l41.8,15.4c0.1,0,0.2,0,0.2,0c0.3,0,0.5-0.2,0.6-0.4
				C320.7,278.8,320.5,278.6,320.2,278.5z M318.7,262.4c-1.4-0.2-2.8-0.2-4.3-0.2c-3.7,0-7.9,0-13.6-3.4c-3.7-2.2-11.4-3.3-19.7-4.4
				c-0.1,0.4-0.1,0.8-0.2,1.3c8.2,1.1,15.8,2.1,19.3,4.2c6,3.6,10.3,3.6,14.2,3.6c-3.7,0.1-8.5,0.1-13-2.5c-3.7-2-11.2-2.7-20.7-3.6
				c-0.1,0-0.1,0-0.1,0c-0.1,0.4-0.2,0.8-0.3,1.2l0.1,0.1c0.1,0,0.1,0,0.2,0c9,0.8,16.7,1.5,20.2,3.4c4.2,2.4,8.4,2.7,11.6,2.7
				c1.1,0,2.1,0,3-0.1c0.8,0,1.5-0.1,2.2-0.1c0.5,0,0.9,0,1.3,0c3.1,0.3,5.1,1.8,5.8,2.7c0.1,0.1,0.2,0.2,0.4,0.2l0,0
				c0.1,0,0.2-0.1,0.2-0.1c0.1-0.1,0.1-0.3-0.1-0.6C324.6,265.8,322.4,263,318.7,262.4z M325.8,249.4l-44.3-1.8c-0.1,0-0.1,0-0.2,0
				c0,0.4,0.1,0.8,0.1,1.2l34.2,1l-34.2,1c0,0.4-0.1,0.9-0.1,1.3l44.5-1.8c0.4,0,0.6-0.3,0.6-0.6
				C326.4,249.8,326.3,249.4,325.8,249.4z"/>
			<path class="st3" d="M256.1,255.2c0-0.3-0.1-0.6-0.3-0.9c0.5,0.4,0.8,1,0.8,1.7c0,1.2-1,2.2-2.2,2.2c-0.7,0-1.4-0.4-1.8-0.9
				c-0.7,0.6-1.6,0.9-2.7,0.9c-1,0-1.9-0.4-2.7-0.9c-0.4,0.6-1,0.9-1.8,0.9c-1.2,0-2.2-1-2.2-2.2c0-0.7,0.3-1.2,0.8-1.7
				c-0.2,0.3-0.3,0.6-0.3,0.9c0,0.9,0.7,1.7,1.7,1.7c0.7,0,1.3-0.5,1.6-1.1c0.8,0.7,1.8,1.1,2.9,1.1c1.1,0,2.1-0.4,2.9-1.1
				c0.2,0.7,0.8,1.1,1.6,1.1C255.4,256.9,256.1,256.1,256.1,255.2z M239.8,247.9c-2,0-4.4-0.6-6-2.2c0.7-0.6,3.2-3,6.3-2.8
				c2.7,0.2,4.1,1.9,4.9,3.2C244.4,246.8,242.1,247.9,239.8,247.9z M240.8,247.4c1-0.2,2-0.6,3.1-1.3c-0.8-1.1-1.7-1.8-2.8-2.1
				c0.4,0.4,0.7,1,0.7,1.6C241.7,246.3,241.4,247,240.8,247.4z M238.3,247.4c-0.6-0.4-1-1.1-1-1.8c0-0.5,0.2-1,0.5-1.4
				c-1,0.3-1.9,0.8-2.7,1.5C235.9,246.6,237.1,247.2,238.3,247.4z M245,247c-1.1,1.1-3,1.9-5.2,1.9c-2.4,0-4.3-0.7-6-1.8
				c1.2,1.8,3.3,2.9,6,2.9C242.2,249.9,244.4,248.4,245,247z M244.4,243.9c0.6,0.6,1.6,1.3,2.4,1.3c0,0-1-0.6-2.1-2
				c-1.7-2.1-3.4-2.5-5.3-2.5c-3.3,0-6.5,2.7-7.7,4.7c0,0,3.3-3.5,8.2-3.5C241.3,242,242.9,242.4,244.4,243.9z M246.8,241.2
				c2.6,4.4,1,10.2-1.4,12.3c3.1-1.2,5.4-7.6,2.6-13.5c-3.7-3.6-12-6.7-17.8,3.9C234.9,237.8,241.9,236.9,246.8,241.2z M254.4,264.7
				c-1.1,0.8-2.6,1.3-4.4,1.3l0,0c-1.8,0-3.2-0.5-4.4-1.3c-1.2-0.9-2.2-1.1-3.3-1c0.8,0,1.9,0.8,2.7,1.4c1.1,0.9,2.4,2,5,2h0
				c2.6,0,3.9-1.1,5-2c0.8-0.7,1.8-1.4,2.7-1.4C256.6,263.6,255.6,263.8,254.4,264.7z M260.6,240.7c-1.9,0-3.6,0.4-5.3,2.5
				c-1.1,1.4-2.1,2-2.1,2c0.8,0,1.7-0.7,2.4-1.3c1.5-1.5,3.1-1.9,4.5-1.9c4.8,0,8.2,3.5,8.2,3.5
				C267.1,243.4,263.9,240.7,260.6,240.7z M266.2,245.7c-1.6,1.7-4,2.2-6,2.2c-2.3,0-4.6-1.1-5.2-1.9c0.8-1.3,2.2-3,4.9-3.2
				C263.1,242.7,265.5,245.1,266.2,245.7z M259.2,247.4c-0.6-0.4-0.9-1-0.9-1.8c0-0.6,0.3-1.2,0.7-1.6c-1.1,0.2-2,0.9-2.8,2.1
				C257.2,246.7,258.2,247.2,259.2,247.4z M261.7,247.4c1.2-0.2,2.4-0.8,3.3-1.8c-0.9-0.7-1.8-1.2-2.7-1.5c0.3,0.4,0.5,0.9,0.5,1.4
				C262.7,246.4,262.3,247,261.7,247.4z M252.1,240c-2.8,5.9-0.5,12.4,2.6,13.5c-2.4-2.1-4.1-7.9-1.4-12.3
				c4.9-4.3,11.9-3.4,16.6,2.6C264,233.3,255.8,236.3,252.1,240z M247,263.6c0.8,0.2,1.8,0.8,3,0.8c1.2,0,2.1-0.6,3-0.8
				c1.3-0.3,2.4,0.1,3.8-0.1c-1.5-0.1-2-0.9-4.5-0.6c-0.8,0.1-1.2,0.4-2.3,0.4c-1.2,0-1.5-0.3-2.3-0.4c-2.5-0.2-3,0.5-4.5,0.6
				C244.6,263.6,245.8,263.3,247,263.6z M249.9,267.7c-2.4,0-4.3,2-4.3,4.4c0,0.2,0,0.4,0,0.5c0.2-2.1,2-3.7,4.2-3.7
				c2.2,0,4,1.6,4.3,3.7c0-0.2,0-0.3,0-0.5C254.2,269.7,252.2,267.7,249.9,267.7z M255,247c0.6,1.4,2.8,2.9,5.2,2.9
				c2.6,0,4.7-1.1,5.9-2.9c-1.7,1.2-3.6,1.8-5.9,1.8C258,248.9,256.1,248,255,247z M254.9,261.1c-1.2-1.1-3.3-1.3-4.9-0.3
				c-1.6-1-3.8-0.8-5,0.3c-0.8,0.7-2,2.2-3.2,2.5c0.8,0.3,3.2-1.5,3.6-1.7c2.4-1.1,2.8,0.2,4.6,0.2c1.7,0,2.2-1.3,4.6-0.2
				c0.4,0.2,2.8,2,3.6,1.7C256.9,263.2,255.8,261.8,254.9,261.1z"/>
		</g>
	</g>
</g>
<g id="XMLID_94_">
</g>
<g id="XMLID_95_">
</g>
<g id="XMLID_96_">
</g>
<g id="XMLID_97_">
</g>
<g id="XMLID_98_">
</g>
<g id="XMLID_99_">
</g>
</svg>
