<?xml version="1.0" encoding="utf-8"?>
<!-- Generator: Adobe Illustrator 19.0.0, SVG Export Plug-In . SVG Version: 6.00 Build 0)  -->
<svg version="1.1" id="Honduras" xmlns="http://www.w3.org/2000/svg" xmlns:xlink="http://www.w3.org/1999/xlink" x="0px" y="0px"
	 viewBox="0 0 500 500" style="enable-background:new 0 0 500 500;" xml:space="preserve">
<style type="text/css">
	.st0{clip-path:url(#XMLID_8_);}
	.st1{fill:#FFFFFF;}
	.st2{fill:#2670B7;}
</style>
<g id="XMLID_180_">
	<defs>
		<path id="XMLID_584_" d="M500,250c0,138.1-111.9,250-250,250C111.9,500,0,388.1,0,250C0,111.9,111.9,0,250,0
			C388.1,0,500,111.9,500,250z"/>
	</defs>
	<clipPath id="XMLID_8_">
		<use xlink:href="#XMLID_584_"  style="overflow:visible;"/>
	</clipPath>
	<g id="XMLID_574_" class="st0">
		<g id="XMLID_575_">
			<rect id="XMLID_576_" x="-25" y="158.3" class="st1" width="550" height="183.3"/>
			<rect id="XMLID_577_" x="-25" y="341.7" class="st2" width="550" height="183.3"/>
			<rect id="XMLID_578_" x="-25" y="-25" class="st2" width="550" height="183.3"/>
		</g>
		<polygon id="XMLID_579_" class="st2" points="277.1,243.9 260.4,256.2 266.6,275 250,263.9 233.4,275 239.6,256.2 222.9,243.9 
			243.7,243.9 250,225 256.3,243.9 		"/>
		<polygon id="XMLID_580_" class="st2" points="121,193.9 104.3,206.3 110.6,225.1 94,213.9 77.4,225.1 83.6,206.3 66.9,193.9 
			87.7,193.9 94,175 100.3,193.9 		"/>
		<polygon id="XMLID_581_" class="st2" points="121,288.4 104.3,300.7 110.6,319.5 94,308.3 77.4,319.5 83.6,300.7 66.9,288.4 
			87.7,288.4 94,269.4 100.3,288.4 		"/>
		<polygon id="XMLID_582_" class="st2" points="433.1,193.9 416.4,206.3 422.6,225.1 406.1,213.9 389.5,225.1 395.7,206.3 
			379,193.9 399.8,193.9 406.1,175 412.3,193.9 		"/>
		<polygon id="XMLID_583_" class="st2" points="433.1,288.4 416.4,300.7 422.6,319.5 406.1,308.3 389.5,319.5 395.7,300.7 
			379,288.4 399.8,288.4 406.1,269.4 412.3,288.4 		"/>
	</g>
</g>
<g id="XMLID_1_">
</g>
<g id="XMLID_2_">
</g>
<g id="XMLID_3_">
</g>
<g id="XMLID_4_">
</g>
<g id="XMLID_5_">
</g>
<g id="XMLID_6_">
</g>
</svg>
