<?xml version="1.0" encoding="utf-8"?>
<!-- Generator: Adobe Illustrator 19.0.0, SVG Export Plug-In . SVG Version: 6.00 Build 0)  -->
<svg version="1.1" id="Venezuela" xmlns="http://www.w3.org/2000/svg" xmlns:xlink="http://www.w3.org/1999/xlink" x="0px" y="0px"
	 viewBox="0 0 500 500" style="enable-background:new 0 0 500 500;" xml:space="preserve">
<style type="text/css">
	.st0{clip-path:url(#XMLID_9_);}
	.st1{fill:#25346C;}
	.st2{fill:#CF172C;}
	.st3{fill:#FFCC07;}
	.st4{fill:#FFFFFF;}
</style>
<g id="XMLID_1_">
	<g id="XMLID_646_">
		<defs>
			<path id="XMLID_661_" d="M500,250c0,138.1-111.9,250-250,250C111.9,500,0,388.1,0,250S111.9,0,250,0C388.1,0,500,111.9,500,250z"
				/>
		</defs>
		<clipPath id="XMLID_9_">
			<use xlink:href="#XMLID_661_"  style="overflow:visible;"/>
		</clipPath>
		<g id="XMLID_647_" class="st0">
			<rect id="XMLID_648_" x="-125" y="166.7" class="st1" width="750" height="166.7"/>
			<rect id="XMLID_649_" x="-125" y="333.3" class="st2" width="750" height="166.7"/>
			<rect id="XMLID_650_" x="-125" class="st3" width="750" height="166.7"/>
			<g id="XMLID_651_">
				<path id="XMLID_652_" class="st4" d="M129.5,292.8l-12.8,9.3l4.7,14.2l-12.6-8.5l-12.6,8.5l4.7-14.2l-12.7-9.3h15.7l4.8-14.4
					l4.9,14.4H129.5z M188.8,205.4l-13.2,7.4l-11.7-10.6l3.1,15.4l-13.1,7.4l15,2.2l3.6,14.7l6-13.7l15.7,1.7l-11.7-10.6
					L188.8,205.4z M227.4,196l-7.4-13.9l-2.3,15.6l-14.8,2.5l13.4,7.1l-1.6,15.1l10.3-10.9l14.3,6.9l-7.4-13.9l10.4-11.1L227.4,196z
					 M142.8,235l-9.8,11.6l-14.6-5.9l8.3,13.4l-9.7,11.5l14.8-3.2l8.5,12.5l0.9-15l15.3-3.9l-14.6-5.8L142.8,235z M411.7,292.8
					h-15.7l-4.8-14.4l-4.9,14.4h-15.7l12.8,9.3l-4.7,14.2l12.6-8.5l12.6,8.5l-4.7-14.2L411.7,292.8z M333,217.7l3.1-15.4l-11.7,10.6
					l-13.2-7.4l6.1,13.9l-11.7,10.6l15.7-1.7l6,13.7l3.6-14.7l15-2.2L333,217.7z M282.3,197.7l-2.3-15.6l-7.4,13.9l-14.9-2.6
					l10.4,11.1l-7.4,13.9l14.3-6.9l10.3,10.9l-1.6-15.1l13.4-7.1L282.3,197.7z M373.3,254.1l8.3-13.4l-14.6,5.9l-9.8-11.6l0.8,15.2
					l-14.6,5.8l15.3,3.9l0.9,15l8.5-12.5l14.8,3.2L373.3,254.1z"/>
			</g>
		</g>
	</g>
</g>
<g id="XMLID_2_">
</g>
<g id="XMLID_3_">
</g>
<g id="XMLID_4_">
</g>
<g id="XMLID_5_">
</g>
<g id="XMLID_6_">
</g>
<g id="XMLID_7_">
</g>
</svg>
